<?xml version="1.0" encoding="UTF-8"?>
<svg xmlns="http://www.w3.org/2000/svg" xmlns:xlink="http://www.w3.org/1999/xlink" width="40px" height="40px" viewBox="0 0 40 40" version="1.1">
<g id="surface1">
<path style=" stroke:none;fill-rule:nonzero;fill:rgb(100%,100%,100%);fill-opacity:1;" d="M 19.035156 0.382812 C 19.898438 0.925781 20.523438 1.683594 20.859375 2.65625 C 20.890625 2.792969 20.917969 2.925781 20.941406 3.0625 C 20.957031 3.132812 20.96875 3.203125 20.984375 3.277344 C 20.996094 3.328125 21.003906 3.382812 21.015625 3.4375 C 21.101562 3.4375 21.183594 3.4375 21.273438 3.433594 C 21.589844 3.433594 21.90625 3.429688 22.21875 3.429688 C 22.355469 3.429688 22.492188 3.425781 22.628906 3.425781 C 22.828125 3.421875 23.023438 3.421875 23.21875 3.421875 C 23.28125 3.421875 23.339844 3.421875 23.402344 3.417969 C 23.84375 3.417969 24.257812 3.449219 24.625 3.722656 C 24.667969 3.769531 24.710938 3.820312 24.757812 3.871094 C 24.800781 3.921875 24.84375 3.96875 24.890625 4.019531 C 25.003906 4.226562 25.023438 4.351562 25.046875 4.582031 C 25.050781 4.644531 25.058594 4.710938 25.066406 4.773438 C 25.070312 4.824219 25.074219 4.871094 25.078125 4.921875 C 25.175781 4.921875 25.175781 4.921875 25.273438 4.921875 C 25.882812 4.929688 26.496094 4.933594 27.105469 4.941406 C 27.417969 4.945312 27.734375 4.945312 28.046875 4.949219 C 28.347656 4.949219 28.652344 4.953125 28.957031 4.957031 C 29.070312 4.960938 29.1875 4.960938 29.300781 4.960938 C 29.464844 4.960938 29.625 4.964844 29.789062 4.964844 C 29.878906 4.96875 29.972656 4.96875 30.066406 4.96875 C 30.4375 5.015625 30.636719 5.15625 30.878906 5.433594 C 31.070312 5.703125 31.101562 5.835938 31.101562 6.160156 C 31.101562 6.28125 31.101562 6.28125 31.101562 6.40625 C 31.101562 6.492188 31.101562 6.582031 31.101562 6.675781 C 31.101562 6.765625 31.101562 6.859375 31.101562 6.957031 C 31.101562 7.210938 31.101562 7.464844 31.101562 7.722656 C 31.101562 7.988281 31.101562 8.253906 31.101562 8.523438 C 31.101562 9.027344 31.101562 9.53125 31.097656 10.039062 C 31.097656 10.613281 31.097656 11.1875 31.097656 11.761719 C 31.097656 12.945312 31.09375 14.128906 31.09375 15.3125 C 30.761719 15.261719 30.480469 15.1875 30.171875 15.058594 C 30.089844 15.023438 30.007812 14.988281 29.921875 14.953125 C 29.835938 14.917969 29.75 14.882812 29.664062 14.84375 C 29.578125 14.808594 29.488281 14.769531 29.402344 14.734375 C 28.761719 14.464844 28.761719 14.464844 28.671875 14.375 C 28.664062 14.160156 28.660156 13.949219 28.664062 13.734375 C 28.664062 13.667969 28.664062 13.601562 28.664062 13.53125 C 28.664062 13.308594 28.664062 13.085938 28.664062 12.863281 C 28.664062 12.710938 28.664062 12.554688 28.664062 12.402344 C 28.664062 11.996094 28.664062 11.589844 28.667969 11.183594 C 28.667969 10.695312 28.667969 10.207031 28.667969 9.722656 C 28.667969 8.980469 28.671875 8.242188 28.671875 7.5 C 27.460938 7.5 26.25 7.5 25 7.5 C 25 8.09375 25 8.6875 25 9.296875 C 24.765625 9.765625 24.609375 10 24.140625 10.234375 C 23.957031 10.242188 23.773438 10.246094 23.589844 10.246094 C 23.507812 10.246094 23.507812 10.246094 23.417969 10.246094 C 23.226562 10.246094 23.035156 10.246094 22.839844 10.25 C 22.703125 10.25 22.566406 10.25 22.425781 10.25 C 22.054688 10.25 21.679688 10.25 21.304688 10.253906 C 21.070312 10.253906 20.835938 10.253906 20.601562 10.253906 C 19.867188 10.253906 19.136719 10.257812 18.402344 10.257812 C 17.558594 10.257812 16.710938 10.261719 15.867188 10.261719 C 15.214844 10.265625 14.558594 10.265625 13.90625 10.265625 C 13.515625 10.265625 13.125 10.269531 12.734375 10.269531 C 12.367188 10.273438 12 10.273438 11.632812 10.269531 C 11.5 10.269531 11.363281 10.273438 11.230469 10.273438 C 11.046875 10.273438 10.859375 10.273438 10.675781 10.273438 C 10.574219 10.273438 10.472656 10.273438 10.363281 10.273438 C 9.960938 10.21875 9.664062 10.066406 9.382812 9.761719 C 9.226562 9.488281 9.207031 9.253906 9.195312 8.941406 C 9.191406 8.867188 9.1875 8.789062 9.183594 8.714844 C 9.179688 8.570312 9.179688 8.570312 9.175781 8.421875 C 9.15625 7.964844 9.15625 7.964844 9.140625 7.5 C 7.980469 7.5 6.820312 7.5 5.625 7.5 C 5.621094 10.324219 5.617188 13.144531 5.613281 15.96875 C 5.613281 16.304688 5.613281 16.636719 5.613281 16.96875 C 5.613281 17.070312 5.613281 17.070312 5.613281 17.171875 C 5.609375 18.246094 5.609375 19.320312 5.605469 20.394531 C 5.605469 21.496094 5.601562 22.597656 5.601562 23.703125 C 5.601562 24.382812 5.601562 25.0625 5.601562 25.742188 C 5.597656 26.210938 5.597656 26.675781 5.597656 27.140625 C 5.597656 27.410156 5.597656 27.679688 5.597656 27.949219 C 5.597656 28.242188 5.597656 28.535156 5.597656 28.828125 C 5.597656 28.953125 5.597656 28.953125 5.59375 29.082031 C 5.601562 30.160156 5.972656 30.980469 6.71875 31.753906 C 9.203125 34.179688 12.679688 36.050781 15.9375 37.164062 C 16.015625 37.191406 16.089844 37.214844 16.171875 37.242188 C 16.835938 37.460938 17.351562 37.476562 18.027344 37.269531 C 18.085938 37.253906 18.140625 37.234375 18.199219 37.21875 C 18.933594 36.988281 19.621094 36.65625 20.3125 36.328125 C 20.398438 36.289062 20.480469 36.25 20.570312 36.207031 C 21.003906 36 21.4375 35.792969 21.871094 35.585938 C 21.941406 35.550781 22.011719 35.519531 22.085938 35.484375 C 22.277344 35.386719 22.277344 35.386719 22.5 35.234375 C 22.753906 35.261719 22.890625 35.359375 23.078125 35.527344 C 23.152344 35.589844 23.152344 35.589844 23.226562 35.65625 C 23.300781 35.726562 23.300781 35.726562 23.378906 35.796875 C 23.777344 36.148438 24.175781 36.488281 24.609375 36.796875 C 24.519531 37.0625 24.492188 37.074219 24.261719 37.203125 C 24.175781 37.25 24.175781 37.25 24.089844 37.296875 C 24.027344 37.332031 23.964844 37.363281 23.902344 37.398438 C 23.835938 37.433594 23.773438 37.464844 23.707031 37.503906 C 23.160156 37.796875 22.605469 38.082031 22.046875 38.355469 C 21.925781 38.414062 21.804688 38.472656 21.6875 38.53125 C 20.921875 38.910156 20.148438 39.265625 19.351562 39.570312 C 19.285156 39.597656 19.21875 39.621094 19.148438 39.648438 C 16.960938 40.460938 15.117188 39.71875 13.085938 38.796875 C 11.839844 38.222656 10.628906 37.589844 9.453125 36.875 C 9.363281 36.820312 9.363281 36.820312 9.269531 36.765625 C 6.96875 35.367188 3.984375 33.464844 3.199219 30.726562 C 3.078125 30.171875 3.101562 29.601562 3.101562 29.035156 C 3.097656 28.90625 3.097656 28.777344 3.097656 28.648438 C 3.09375 28.292969 3.09375 27.941406 3.09375 27.589844 C 3.09375 27.210938 3.089844 26.835938 3.089844 26.457031 C 3.085938 25.730469 3.082031 25.003906 3.078125 24.273438 C 3.078125 23.6875 3.074219 23.105469 3.070312 22.519531 C 3.066406 20.765625 3.058594 19.011719 3.050781 17.261719 C 3.046875 16.175781 3.042969 15.089844 3.039062 14.003906 C 3.035156 12.96875 3.03125 11.933594 3.03125 10.894531 C 3.027344 10.386719 3.027344 9.878906 3.023438 9.371094 C 3.023438 8.902344 3.023438 8.4375 3.023438 7.96875 C 3.019531 7.804688 3.019531 7.636719 3.019531 7.46875 C 3.019531 7.246094 3.019531 7.023438 3.019531 6.796875 C 3.019531 6.734375 3.019531 6.667969 3.015625 6.601562 C 3.019531 6.089844 3.128906 5.730469 3.460938 5.328125 C 3.832031 5.027344 4.191406 4.980469 4.660156 4.980469 C 4.8125 4.980469 4.8125 4.980469 4.96875 4.980469 C 5.078125 4.984375 5.1875 4.984375 5.296875 4.984375 C 5.410156 4.984375 5.523438 4.984375 5.636719 4.984375 C 5.933594 4.984375 6.230469 4.988281 6.527344 4.988281 C 6.828125 4.992188 7.132812 4.992188 7.4375 4.992188 C 8.03125 4.992188 8.625 4.996094 9.21875 5 C 9.21875 4.953125 9.214844 4.90625 9.214844 4.855469 C 9.210938 4.761719 9.210938 4.761719 9.210938 4.664062 C 9.207031 4.601562 9.207031 4.539062 9.203125 4.476562 C 9.230469 4.140625 9.441406 3.933594 9.652344 3.6875 C 9.945312 3.445312 10.324219 3.5 10.679688 3.492188 C 10.78125 3.492188 10.78125 3.492188 10.882812 3.488281 C 11.167969 3.484375 11.453125 3.476562 11.742188 3.472656 C 11.949219 3.46875 12.15625 3.464844 12.367188 3.460938 C 12.429688 3.457031 12.496094 3.457031 12.5625 3.457031 C 12.820312 3.449219 13.035156 3.441406 13.28125 3.359375 C 13.335938 3.164062 13.378906 2.980469 13.417969 2.78125 C 13.636719 1.816406 14.125 1.136719 14.921875 0.546875 C 15.175781 0.394531 15.429688 0.265625 15.703125 0.15625 C 15.804688 0.113281 15.804688 0.113281 15.90625 0.0703125 C 16.914062 -0.199219 18.113281 -0.121094 19.035156 0.382812 Z M 15.953125 3.070312 C 15.785156 3.308594 15.769531 3.519531 15.765625 3.800781 C 15.765625 3.871094 15.765625 3.941406 15.761719 4.015625 C 15.757812 4.164062 15.757812 4.308594 15.753906 4.457031 C 15.738281 4.9375 15.6875 5.242188 15.390625 5.625 C 14.992188 5.882812 14.652344 5.894531 14.195312 5.898438 C 14.125 5.898438 14.058594 5.898438 13.988281 5.898438 C 13.769531 5.902344 13.550781 5.90625 13.335938 5.90625 C 13.117188 5.910156 12.898438 5.914062 12.679688 5.917969 C 12.542969 5.917969 12.40625 5.921875 12.269531 5.921875 C 11.96875 5.898438 11.96875 5.898438 11.71875 6.015625 C 11.710938 6.136719 11.707031 6.257812 11.707031 6.378906 C 11.707031 6.453125 11.707031 6.527344 11.707031 6.601562 C 11.707031 6.679688 11.707031 6.757812 11.710938 6.835938 C 11.707031 6.914062 11.707031 6.992188 11.707031 7.070312 C 11.707031 7.144531 11.707031 7.21875 11.707031 7.292969 C 11.707031 7.359375 11.707031 7.429688 11.707031 7.496094 C 11.703125 7.65625 11.703125 7.65625 11.796875 7.734375 C 11.933594 7.742188 12.074219 7.742188 12.210938 7.742188 C 12.347656 7.742188 12.347656 7.742188 12.484375 7.742188 C 12.636719 7.742188 12.636719 7.742188 12.789062 7.742188 C 12.894531 7.742188 13 7.742188 13.105469 7.742188 C 13.390625 7.742188 13.679688 7.742188 13.964844 7.742188 C 14.265625 7.742188 14.566406 7.742188 14.867188 7.742188 C 15.433594 7.742188 16 7.742188 16.570312 7.738281 C 17.214844 7.738281 17.863281 7.738281 18.507812 7.738281 C 19.839844 7.738281 21.167969 7.734375 22.5 7.734375 C 22.597656 7.539062 22.582031 7.421875 22.570312 7.203125 C 22.566406 7.128906 22.5625 7.058594 22.558594 6.980469 C 22.554688 6.902344 22.546875 6.828125 22.542969 6.75 C 22.539062 6.671875 22.535156 6.59375 22.53125 6.511719 C 22.519531 6.320312 22.511719 6.128906 22.5 5.9375 C 22.40625 5.9375 22.316406 5.933594 22.21875 5.933594 C 21.878906 5.929688 21.535156 5.921875 21.191406 5.917969 C 21.042969 5.914062 20.894531 5.914062 20.746094 5.910156 C 20.53125 5.90625 20.316406 5.902344 20.105469 5.898438 C 20.003906 5.898438 20.003906 5.898438 19.90625 5.898438 C 19.515625 5.886719 19.242188 5.839844 18.90625 5.625 C 18.550781 5.234375 18.550781 4.886719 18.550781 4.382812 C 18.550781 3.5625 18.550781 3.5625 18.171875 2.847656 C 17.78125 2.511719 17.480469 2.386719 16.972656 2.402344 C 16.496094 2.453125 16.242188 2.722656 15.953125 3.070312 Z M 15.953125 3.070312 "/>
<path style=" stroke:none;fill-rule:nonzero;fill:rgb(100%,100%,100%);fill-opacity:1;" d="M 28.390625 15.710938 C 28.515625 15.765625 28.515625 15.765625 28.640625 15.820312 C 28.773438 15.878906 28.773438 15.878906 28.910156 15.941406 C 29.109375 16.03125 29.308594 16.117188 29.507812 16.203125 C 29.558594 16.226562 29.613281 16.25 29.664062 16.273438 C 30.222656 16.515625 30.78125 16.742188 31.34375 16.96875 C 31.523438 17.042969 31.703125 17.113281 31.882812 17.1875 C 32.503906 17.4375 33.121094 17.6875 33.742188 17.933594 C 34.058594 18.058594 34.375 18.1875 34.691406 18.316406 C 34.84375 18.375 34.996094 18.4375 35.152344 18.5 C 35.367188 18.585938 35.582031 18.671875 35.796875 18.757812 C 35.890625 18.796875 35.890625 18.796875 35.988281 18.832031 C 36.359375 18.984375 36.617188 19.136719 36.875 19.453125 C 37.144531 20.265625 36.929688 21.367188 36.859375 22.210938 C 36.855469 22.273438 36.851562 22.332031 36.84375 22.398438 C 36.703125 24.066406 36.398438 25.675781 35.859375 27.265625 C 35.839844 27.320312 35.824219 27.371094 35.804688 27.429688 C 35.007812 29.804688 33.601562 31.878906 31.875 33.671875 C 31.839844 33.710938 31.800781 33.75 31.765625 33.789062 C 31.261719 34.3125 30.730469 34.789062 30.15625 35.234375 C 30.046875 35.320312 30.046875 35.320312 29.933594 35.410156 C 29.515625 35.730469 29.089844 36.035156 28.652344 36.328125 C 28.609375 36.359375 28.566406 36.386719 28.519531 36.417969 C 28.191406 36.632812 27.890625 36.75 27.5 36.71875 C 27.035156 36.570312 26.628906 36.253906 26.234375 35.972656 C 26.175781 35.929688 26.121094 35.890625 26.0625 35.847656 C 25.527344 35.460938 25.023438 35.046875 24.53125 34.609375 C 24.488281 34.574219 24.449219 34.535156 24.40625 34.5 C 22.945312 33.203125 21.660156 31.710938 20.703125 30 C 20.671875 29.945312 20.640625 29.890625 20.609375 29.835938 C 18.976562 26.902344 18.453125 23.730469 18.414062 20.398438 C 18.410156 20.335938 18.410156 20.269531 18.410156 20.199219 C 18.410156 20.140625 18.410156 20.078125 18.410156 20.015625 C 18.410156 19.964844 18.410156 19.910156 18.410156 19.855469 C 18.449219 19.609375 18.539062 19.433594 18.671875 19.21875 C 18.867188 19.082031 18.867188 19.082031 19.097656 18.976562 C 19.222656 18.917969 19.222656 18.917969 19.351562 18.859375 C 19.742188 18.691406 20.136719 18.535156 20.539062 18.382812 C 21.484375 18.019531 22.425781 17.636719 23.363281 17.246094 C 23.597656 17.148438 23.832031 17.050781 24.070312 16.953125 C 24.683594 16.699219 25.300781 16.445312 25.917969 16.1875 C 26.066406 16.121094 26.21875 16.058594 26.371094 15.996094 C 26.542969 15.925781 26.71875 15.851562 26.890625 15.777344 C 26.964844 15.746094 27.042969 15.714844 27.117188 15.683594 C 27.183594 15.65625 27.246094 15.628906 27.308594 15.601562 C 27.710938 15.484375 28.015625 15.542969 28.390625 15.710938 Z M 26.941406 18.417969 C 26.886719 18.441406 26.832031 18.464844 26.777344 18.488281 C 26.597656 18.5625 26.417969 18.640625 26.242188 18.714844 C 26.113281 18.769531 25.988281 18.820312 25.863281 18.875 C 25.472656 19.039062 25.078125 19.207031 24.6875 19.375 C 24.558594 19.429688 24.429688 19.484375 24.304688 19.539062 C 23.824219 19.742188 23.34375 19.949219 22.867188 20.15625 C 22.25 20.421875 21.632812 20.683594 21.015625 20.9375 C 20.902344 24.371094 21.808594 27.765625 23.984375 30.46875 C 24.070312 30.582031 24.070312 30.582031 24.160156 30.695312 C 24.480469 31.09375 24.816406 31.476562 25.160156 31.855469 C 25.199219 31.894531 25.234375 31.9375 25.273438 31.976562 C 25.773438 32.519531 26.351562 32.984375 26.933594 33.4375 C 27.019531 33.507812 27.019531 33.507812 27.109375 33.578125 C 27.164062 33.621094 27.222656 33.664062 27.277344 33.710938 C 27.328125 33.75 27.378906 33.789062 27.429688 33.832031 C 27.574219 33.921875 27.574219 33.921875 27.738281 33.886719 C 28.363281 33.640625 28.945312 33.035156 29.429688 32.585938 C 29.59375 32.4375 29.757812 32.296875 29.925781 32.152344 C 31.128906 31.09375 32.007812 29.695312 32.734375 28.28125 C 32.761719 28.230469 32.785156 28.183594 32.8125 28.132812 C 33.824219 26.160156 34.394531 23.855469 34.378906 21.640625 C 34.378906 21.570312 34.378906 21.503906 34.378906 21.433594 C 34.378906 21.269531 34.375 21.101562 34.375 20.9375 C 34.28125 20.898438 34.1875 20.859375 34.089844 20.816406 C 33.648438 20.632812 33.207031 20.445312 32.765625 20.257812 C 32.683594 20.226562 32.605469 20.191406 32.523438 20.15625 C 31.421875 19.691406 30.320312 19.222656 29.226562 18.742188 C 28.109375 18.210938 28.109375 18.210938 26.941406 18.417969 Z M 26.941406 18.417969 "/>
<path style=" stroke:none;fill-rule:nonzero;fill:rgb(100%,100%,100%);fill-opacity:1;" d="M 9.597656 26.464844 C 9.664062 26.460938 9.734375 26.460938 9.804688 26.460938 C 10.03125 26.460938 10.257812 26.460938 10.484375 26.460938 C 10.640625 26.460938 10.796875 26.460938 10.957031 26.460938 C 11.285156 26.460938 11.617188 26.460938 11.949219 26.460938 C 12.371094 26.460938 12.792969 26.457031 13.214844 26.457031 C 13.542969 26.457031 13.867188 26.457031 14.195312 26.457031 C 14.347656 26.457031 14.503906 26.457031 14.660156 26.453125 C 14.878906 26.453125 15.097656 26.453125 15.316406 26.457031 C 15.414062 26.453125 15.414062 26.453125 15.511719 26.453125 C 15.894531 26.457031 16.152344 26.507812 16.484375 26.71875 C 16.847656 27.125 16.902344 27.375 16.898438 27.910156 C 16.867188 28.214844 16.769531 28.371094 16.5625 28.59375 C 16.214844 28.867188 15.988281 28.945312 15.546875 28.949219 C 15.492188 28.949219 15.441406 28.949219 15.386719 28.953125 C 15.214844 28.953125 15.042969 28.953125 14.867188 28.953125 C 14.75 28.953125 14.628906 28.957031 14.507812 28.957031 C 14.191406 28.960938 13.878906 28.960938 13.5625 28.964844 C 13.242188 28.964844 12.917969 28.96875 12.597656 28.972656 C 11.964844 28.976562 11.335938 28.980469 10.703125 28.984375 C 10.851562 29.097656 11 29.207031 11.148438 29.320312 C 11.210938 29.367188 11.210938 29.367188 11.273438 29.414062 C 11.636719 29.6875 12.011719 29.9375 12.398438 30.175781 C 12.464844 30.21875 12.535156 30.261719 12.605469 30.304688 C 13.753906 31 14.949219 31.617188 16.1875 32.136719 C 16.257812 32.167969 16.328125 32.199219 16.398438 32.230469 C 17.097656 32.511719 17.535156 32.316406 18.203125 32.039062 C 18.304688 32 18.304688 32 18.410156 31.957031 C 18.699219 31.839844 18.972656 31.722656 19.25 31.578125 C 19.453125 31.484375 19.453125 31.484375 19.609375 31.5 C 19.808594 31.578125 19.867188 31.664062 19.988281 31.839844 C 20.027344 31.898438 20.066406 31.957031 20.105469 32.015625 C 20.148438 32.074219 20.1875 32.136719 20.230469 32.195312 C 20.308594 32.316406 20.390625 32.433594 20.472656 32.550781 C 20.527344 32.636719 20.527344 32.636719 20.589844 32.722656 C 20.753906 32.964844 20.921875 33.199219 21.09375 33.4375 C 20.914062 33.636719 20.738281 33.746094 20.496094 33.863281 C 20.421875 33.898438 20.351562 33.933594 20.273438 33.96875 C 17.355469 35.351562 17.355469 35.351562 16.222656 34.96875 C 15.804688 34.816406 15.402344 34.636719 15 34.453125 C 14.921875 34.417969 14.84375 34.382812 14.765625 34.347656 C 13.269531 33.664062 11.8125 32.902344 10.46875 31.953125 C 10.425781 31.921875 10.382812 31.894531 10.339844 31.863281 C 8.019531 30.25 8.019531 30.25 7.769531 29.285156 C 7.722656 28.980469 7.714844 28.683594 7.710938 28.375 C 7.707031 28.3125 7.707031 28.253906 7.703125 28.191406 C 7.699219 27.699219 7.816406 27.28125 8.15625 26.910156 C 8.613281 26.507812 9.015625 26.460938 9.597656 26.464844 Z M 9.597656 26.464844 "/>
<path style=" stroke:none;fill-rule:nonzero;fill:rgb(100%,100%,100%);fill-opacity:1;" d="M 9.257812 12.800781 C 9.363281 12.800781 9.363281 12.800781 9.46875 12.800781 C 9.699219 12.800781 9.929688 12.800781 10.160156 12.796875 C 10.328125 12.796875 10.492188 12.796875 10.660156 12.796875 C 11.109375 12.796875 11.558594 12.796875 12.007812 12.792969 C 12.289062 12.792969 12.570312 12.792969 12.851562 12.792969 C 13.734375 12.792969 14.613281 12.789062 15.492188 12.789062 C 16.507812 12.789062 17.523438 12.785156 18.539062 12.785156 C 19.324219 12.78125 20.109375 12.78125 20.894531 12.78125 C 21.363281 12.78125 21.832031 12.777344 22.300781 12.777344 C 22.742188 12.773438 23.183594 12.773438 23.625 12.777344 C 23.785156 12.777344 23.949219 12.773438 24.109375 12.773438 C 24.332031 12.773438 24.550781 12.773438 24.773438 12.773438 C 24.835938 12.773438 24.902344 12.773438 24.96875 12.773438 C 25.378906 12.777344 25.609375 12.855469 25.9375 13.125 C 26.28125 13.515625 26.355469 13.742188 26.351562 14.253906 C 26.308594 14.644531 26.105469 14.847656 25.8125 15.089844 C 25.472656 15.273438 25.230469 15.277344 24.847656 15.273438 C 24.78125 15.273438 24.710938 15.273438 24.640625 15.273438 C 24.40625 15.277344 24.175781 15.273438 23.945312 15.273438 C 23.777344 15.273438 23.609375 15.273438 23.445312 15.273438 C 22.992188 15.277344 22.539062 15.273438 22.089844 15.273438 C 21.617188 15.273438 21.144531 15.273438 20.671875 15.273438 C 19.878906 15.273438 19.082031 15.273438 18.289062 15.269531 C 17.371094 15.269531 16.453125 15.269531 15.535156 15.269531 C 14.652344 15.269531 13.769531 15.269531 12.886719 15.269531 C 12.511719 15.269531 12.136719 15.269531 11.761719 15.269531 C 11.316406 15.269531 10.875 15.269531 10.433594 15.265625 C 10.269531 15.265625 10.109375 15.265625 9.945312 15.265625 C 9.722656 15.265625 9.503906 15.265625 9.28125 15.265625 C 9.183594 15.265625 9.183594 15.265625 9.085938 15.265625 C 8.597656 15.261719 8.351562 15.136719 7.988281 14.800781 C 7.742188 14.488281 7.710938 14.140625 7.734375 13.75 C 7.859375 13.378906 8.066406 13.148438 8.359375 12.890625 C 8.660156 12.789062 8.945312 12.800781 9.257812 12.800781 Z M 9.257812 12.800781 "/>
<path style=" stroke:none;fill-rule:nonzero;fill:rgb(100%,100%,100%);fill-opacity:1;" d="M 31.71875 21.953125 C 32.015625 22.101562 32.171875 22.3125 32.339844 22.597656 C 32.4375 22.949219 32.453125 23.242188 32.34375 23.59375 C 32.128906 23.945312 31.878906 24.238281 31.585938 24.527344 C 31.542969 24.570312 31.5 24.617188 31.457031 24.660156 C 31.3125 24.804688 31.167969 24.949219 31.027344 25.089844 C 30.925781 25.191406 30.824219 25.292969 30.726562 25.390625 C 30.515625 25.601562 30.308594 25.8125 30.097656 26.019531 C 29.828125 26.289062 29.5625 26.558594 29.292969 26.828125 C 29.089844 27.035156 28.882812 27.242188 28.675781 27.445312 C 28.578125 27.546875 28.476562 27.644531 28.378906 27.742188 C 28.242188 27.882812 28.101562 28.019531 27.964844 28.160156 C 27.925781 28.199219 27.882812 28.238281 27.84375 28.28125 C 27.558594 28.5625 27.265625 28.785156 26.867188 28.859375 C 26.816406 28.859375 26.769531 28.859375 26.71875 28.859375 C 26.644531 28.859375 26.644531 28.859375 26.570312 28.859375 C 26.042969 28.761719 25.710938 28.402344 25.351562 28.035156 C 25.296875 27.980469 25.242188 27.925781 25.183594 27.871094 C 25.070312 27.753906 24.957031 27.640625 24.84375 27.523438 C 24.667969 27.347656 24.492188 27.171875 24.316406 27 C 24.207031 26.886719 24.09375 26.773438 23.984375 26.664062 C 23.929688 26.609375 23.878906 26.558594 23.824219 26.503906 C 23.75 26.429688 23.75 26.429688 23.675781 26.355469 C 23.632812 26.3125 23.59375 26.269531 23.546875 26.226562 C 23.257812 25.882812 23.25 25.566406 23.257812 25.132812 C 23.300781 24.761719 23.480469 24.550781 23.753906 24.3125 C 24.066406 24.121094 24.332031 24.113281 24.6875 24.140625 C 25.246094 24.363281 25.601562 24.703125 26.015625 25.136719 C 26.074219 25.199219 26.136719 25.261719 26.199219 25.324219 C 26.347656 25.476562 26.492188 25.628906 26.640625 25.78125 C 26.871094 25.671875 27.03125 25.566406 27.210938 25.382812 C 27.273438 25.316406 27.273438 25.316406 27.339844 25.253906 C 27.480469 25.101562 27.613281 24.945312 27.75 24.789062 C 28.019531 24.480469 28.304688 24.179688 28.59375 23.886719 C 28.644531 23.835938 28.695312 23.785156 28.746094 23.734375 C 28.851562 23.628906 28.953125 23.523438 29.058594 23.417969 C 29.164062 23.308594 29.273438 23.203125 29.378906 23.09375 C 29.53125 22.9375 29.6875 22.78125 29.84375 22.621094 C 29.890625 22.574219 29.9375 22.527344 29.984375 22.476562 C 30.496094 21.96875 31 21.761719 31.71875 21.953125 Z M 31.71875 21.953125 "/>
<path style=" stroke:none;fill-rule:nonzero;fill:rgb(100%,100%,100%);fill-opacity:1;" d="M 9.363281 21.863281 C 9.4375 21.863281 9.507812 21.863281 9.578125 21.859375 C 9.816406 21.859375 10.050781 21.859375 10.285156 21.859375 C 10.449219 21.859375 10.609375 21.859375 10.773438 21.859375 C 11.117188 21.855469 11.460938 21.855469 11.800781 21.855469 C 12.238281 21.855469 12.679688 21.855469 13.117188 21.851562 C 13.453125 21.851562 13.792969 21.851562 14.128906 21.851562 C 14.289062 21.847656 14.453125 21.847656 14.613281 21.847656 C 14.839844 21.847656 15.066406 21.847656 15.292969 21.847656 C 15.390625 21.847656 15.390625 21.847656 15.492188 21.84375 C 15.9375 21.847656 16.273438 21.917969 16.613281 22.226562 C 16.914062 22.613281 16.992188 22.871094 16.953125 23.359375 C 16.8125 23.769531 16.621094 24.058594 16.25 24.296875 C 15.941406 24.398438 15.648438 24.386719 15.328125 24.386719 C 15.222656 24.386719 15.222656 24.386719 15.117188 24.390625 C 14.882812 24.390625 14.652344 24.390625 14.417969 24.390625 C 14.257812 24.390625 14.097656 24.390625 13.933594 24.390625 C 13.597656 24.394531 13.257812 24.394531 12.917969 24.394531 C 12.484375 24.394531 12.050781 24.394531 11.617188 24.398438 C 11.285156 24.398438 10.953125 24.398438 10.617188 24.398438 C 10.457031 24.402344 10.296875 24.402344 10.136719 24.402344 C 9.914062 24.402344 9.691406 24.402344 9.464844 24.402344 C 9.367188 24.402344 9.367188 24.402344 9.265625 24.40625 C 8.828125 24.402344 8.488281 24.332031 8.152344 24.019531 C 7.796875 23.554688 7.753906 23.238281 7.8125 22.65625 C 8.167969 21.949219 8.625 21.863281 9.363281 21.863281 Z M 9.363281 21.863281 "/>
<path style=" stroke:none;fill-rule:nonzero;fill:rgb(100%,100%,100%);fill-opacity:1;" d="M 9.265625 17.382812 C 9.339844 17.382812 9.414062 17.378906 9.488281 17.378906 C 9.730469 17.378906 9.976562 17.378906 10.21875 17.378906 C 10.390625 17.378906 10.558594 17.378906 10.730469 17.378906 C 11.085938 17.378906 11.441406 17.378906 11.796875 17.382812 C 12.25 17.382812 12.707031 17.382812 13.164062 17.378906 C 13.511719 17.378906 13.863281 17.378906 14.214844 17.378906 C 14.382812 17.378906 14.550781 17.378906 14.71875 17.378906 C 14.953125 17.378906 15.1875 17.378906 15.421875 17.382812 C 15.492188 17.378906 15.5625 17.378906 15.632812 17.378906 C 16.058594 17.386719 16.304688 17.449219 16.640625 17.734375 C 16.929688 18.113281 17.003906 18.402344 16.984375 18.878906 C 16.921875 19.257812 16.726562 19.460938 16.441406 19.699219 C 16.089844 19.886719 15.820312 19.886719 15.429688 19.882812 C 15.320312 19.882812 15.320312 19.882812 15.207031 19.882812 C 14.964844 19.886719 14.722656 19.882812 14.480469 19.882812 C 14.3125 19.882812 14.144531 19.882812 13.976562 19.882812 C 13.625 19.882812 13.273438 19.882812 12.921875 19.878906 C 12.46875 19.878906 12.015625 19.878906 11.566406 19.878906 C 11.21875 19.878906 10.871094 19.878906 10.523438 19.878906 C 10.355469 19.878906 10.191406 19.878906 10.023438 19.878906 C 9.792969 19.878906 9.558594 19.878906 9.328125 19.875 C 9.222656 19.875 9.222656 19.875 9.117188 19.875 C 8.679688 19.871094 8.40625 19.808594 8.082031 19.492188 C 7.773438 19.105469 7.695312 18.851562 7.734375 18.359375 C 7.988281 17.582031 8.488281 17.375 9.265625 17.382812 Z M 9.265625 17.382812 "/>
</g>
</svg>
