<?xml version="1.0" encoding="UTF-8"?>
<svg xmlns="http://www.w3.org/2000/svg" xmlns:xlink="http://www.w3.org/1999/xlink" width="40px" height="40px" viewBox="0 0 40 40" version="1.1">
<g id="surface1">
<path style=" stroke:none;fill-rule:nonzero;fill:rgb(100%,100%,100%);fill-opacity:1;" d="M 19.707031 -0.0429688 C 20.019531 -0.0429688 20.332031 -0.046875 20.644531 -0.0507812 C 25.328125 -0.0820312 29.984375 1.882812 33.402344 5.054688 C 33.574219 5.214844 33.75 5.371094 33.925781 5.523438 C 34.503906 6.027344 34.992188 6.585938 35.46875 7.1875 C 35.507812 7.234375 35.546875 7.28125 35.585938 7.332031 C 38.125 10.527344 40.019531 14.605469 40.011719 18.753906 C 40.011719 18.84375 40.011719 18.929688 40.011719 19.023438 C 40.011719 19.210938 40.011719 19.394531 40.011719 19.582031 C 40.011719 19.867188 40.011719 20.148438 40.011719 20.433594 C 40.011719 20.617188 40.011719 20.796875 40.011719 20.980469 C 40.011719 21.0625 40.011719 21.148438 40.011719 21.234375 C 40.007812 21.957031 39.984375 22.679688 39.828125 23.386719 C 39.808594 23.46875 39.792969 23.554688 39.773438 23.640625 C 39.753906 23.726562 39.734375 23.8125 39.710938 23.902344 C 39.691406 23.992188 39.667969 24.085938 39.648438 24.179688 C 38.859375 27.578125 37.386719 30.753906 35.007812 33.339844 C 34.859375 33.5 34.714844 33.664062 34.574219 33.828125 C 33.992188 34.496094 33.351562 35.074219 32.65625 35.625 C 32.574219 35.691406 32.492188 35.757812 32.410156 35.828125 C 29.28125 38.386719 25.0625 40.007812 21.003906 40.011719 C 20.929688 40.011719 20.855469 40.011719 20.78125 40.015625 C 20.625 40.015625 20.472656 40.015625 20.316406 40.015625 C 20.085938 40.015625 19.855469 40.015625 19.625 40.015625 C 18.335938 40.019531 17.082031 39.929688 15.820312 39.667969 C 15.738281 39.652344 15.65625 39.632812 15.570312 39.617188 C 12.164062 38.890625 9.054688 37.21875 6.515625 34.859375 C 6.351562 34.707031 6.183594 34.566406 6.015625 34.421875 C 2.75 31.570312 0.570312 26.917969 0.078125 22.65625 C 0.0703125 22.59375 0.0625 22.535156 0.0546875 22.472656 C -0.0195312 21.707031 -0.015625 20.941406 -0.0195312 20.171875 C -0.0195312 19.933594 -0.0234375 19.695312 -0.0234375 19.457031 C -0.03125 18.023438 0.121094 16.628906 0.484375 15.238281 C 0.519531 15.101562 0.519531 15.101562 0.554688 14.960938 C 1.601562 11.015625 3.78125 7.304688 6.953125 4.6875 C 6.992188 4.65625 7.03125 4.621094 7.070312 4.589844 C 8.269531 3.589844 9.554688 2.75 10.9375 2.03125 C 10.996094 2 11.050781 1.972656 11.109375 1.941406 C 12.460938 1.238281 13.914062 0.757812 15.390625 0.398438 C 15.449219 0.386719 15.507812 0.371094 15.566406 0.359375 C 15.765625 0.3125 15.96875 0.273438 16.171875 0.234375 C 16.269531 0.214844 16.367188 0.195312 16.46875 0.171875 C 17.542969 -0.03125 18.617188 -0.0429688 19.707031 -0.0429688 Z M 24.140625 2.1875 C 24.378906 2.429688 24.621094 2.664062 24.863281 2.902344 C 25.59375 3.617188 26.277344 4.328125 26.875 5.15625 C 26.941406 5.246094 27.007812 5.335938 27.074219 5.425781 C 27.960938 6.625 28.792969 7.964844 29.296875 9.375 C 29.652344 9.328125 29.945312 9.183594 30.265625 9.019531 C 30.316406 8.992188 30.371094 8.960938 30.429688 8.933594 C 30.542969 8.875 30.65625 8.816406 30.769531 8.757812 C 30.925781 8.675781 31.085938 8.597656 31.246094 8.515625 C 31.910156 8.175781 32.519531 7.785156 33.125 7.34375 C 33.019531 7.109375 32.90625 6.949219 32.726562 6.773438 C 32.683594 6.730469 32.640625 6.6875 32.597656 6.644531 C 30.273438 4.496094 27.304688 2.6875 24.140625 2.1875 Z M 14.777344 2.410156 C 14.691406 2.4375 14.609375 2.460938 14.519531 2.488281 C 13.6875 2.742188 12.894531 3.0625 12.109375 3.4375 C 12.042969 3.46875 11.972656 3.5 11.902344 3.535156 C 10.433594 4.246094 9.105469 5.15625 7.890625 6.25 C 7.84375 6.292969 7.796875 6.332031 7.75 6.375 C 7.605469 6.503906 7.460938 6.632812 7.320312 6.761719 C 7.273438 6.804688 7.230469 6.84375 7.183594 6.882812 C 7.078125 6.980469 6.976562 7.085938 6.875 7.1875 C 6.875 7.238281 6.875 7.289062 6.875 7.34375 C 7.023438 7.464844 7.171875 7.570312 7.328125 7.675781 C 7.378906 7.710938 7.429688 7.742188 7.480469 7.777344 C 8.015625 8.121094 8.578125 8.417969 9.144531 8.710938 C 9.191406 8.734375 9.238281 8.757812 9.285156 8.785156 C 9.726562 9.011719 10.152344 9.226562 10.625 9.375 C 10.660156 9.300781 10.699219 9.226562 10.738281 9.148438 C 10.875 8.867188 11.019531 8.585938 11.160156 8.304688 C 11.21875 8.1875 11.277344 8.074219 11.332031 7.957031 C 11.933594 6.761719 12.648438 5.632812 13.515625 4.609375 C 13.582031 4.527344 13.652344 4.445312 13.71875 4.363281 C 14.367188 3.578125 15.050781 2.886719 15.859375 2.265625 C 15.480469 2.140625 15.148438 2.300781 14.777344 2.410156 Z M 20.859375 2.421875 C 20.859375 5.335938 20.859375 8.25 20.859375 11.25 C 21.542969 11.25 22.167969 11.246094 22.835938 11.15625 C 22.917969 11.148438 22.996094 11.136719 23.078125 11.125 C 24.351562 10.953125 25.601562 10.691406 26.835938 10.335938 C 26.957031 10.300781 26.957031 10.300781 27.082031 10.265625 C 27.15625 10.246094 27.230469 10.222656 27.308594 10.199219 C 27.371094 10.179688 27.4375 10.160156 27.507812 10.140625 C 27.671875 10.089844 27.671875 10.089844 27.734375 9.921875 C 27.65625 9.734375 27.570312 9.554688 27.476562 9.375 C 27.445312 9.320312 27.417969 9.265625 27.390625 9.207031 C 27.296875 9.027344 27.203125 8.851562 27.109375 8.671875 C 27.078125 8.613281 27.050781 8.558594 27.019531 8.496094 C 25.695312 5.957031 23.664062 3.355469 20.859375 2.421875 Z M 18.984375 2.421875 C 16.023438 3.625 14.09375 6.328125 12.65625 9.0625 C 12.613281 9.144531 12.566406 9.230469 12.523438 9.316406 C 12.324219 9.679688 12.324219 9.679688 12.265625 10.078125 C 14.523438 10.691406 16.789062 11.25 19.140625 11.25 C 19.140625 8.363281 19.140625 5.476562 19.140625 2.5 C 19.0625 2.460938 19.0625 2.460938 18.984375 2.421875 Z M 5.703125 8.59375 C 5.125 9.253906 4.660156 9.949219 4.21875 10.703125 C 4.179688 10.765625 4.144531 10.828125 4.105469 10.894531 C 2.949219 12.863281 2.203125 14.984375 1.847656 17.234375 C 1.832031 17.320312 1.820312 17.402344 1.804688 17.484375 C 1.722656 18.054688 1.71875 18.546875 1.71875 19.140625 C 3.988281 19.140625 6.257812 19.140625 8.59375 19.140625 C 8.644531 18.367188 8.695312 17.59375 8.75 16.796875 C 8.800781 16.371094 8.851562 15.957031 8.921875 15.535156 C 8.9375 15.433594 8.953125 15.332031 8.96875 15.230469 C 9.167969 14.046875 9.421875 12.851562 9.820312 11.722656 C 9.90625 11.476562 9.945312 11.277344 9.921875 11.015625 C 9.847656 10.980469 9.773438 10.945312 9.699219 10.90625 C 8.503906 10.320312 7.355469 9.699219 6.269531 8.925781 C 6.082031 8.796875 5.910156 8.6875 5.703125 8.59375 Z M 33.710938 9.011719 C 32.539062 9.808594 31.28125 10.421875 30 11.015625 C 30.015625 11.0625 30.027344 11.109375 30.042969 11.160156 C 30.777344 13.664062 31.3125 16.203125 31.390625 18.816406 C 31.378906 19.050781 31.378906 19.050781 31.484375 19.140625 C 32.863281 19.261719 34.253906 19.214844 35.640625 19.1875 C 35.929688 19.183594 36.21875 19.175781 36.507812 19.171875 C 37.074219 19.164062 37.636719 19.152344 38.203125 19.140625 C 38.203125 18.980469 38.207031 18.824219 38.207031 18.664062 C 38.207031 18.574219 38.207031 18.488281 38.207031 18.394531 C 38.199219 17.96875 38.140625 17.558594 38.070312 17.136719 C 38.058594 17.050781 38.042969 16.960938 38.027344 16.871094 C 37.5625 14.074219 36.417969 11.441406 34.75 9.148438 C 34.699219 9.078125 34.699219 9.078125 34.644531 9 C 34.558594 8.886719 34.46875 8.78125 34.375 8.671875 C 34.113281 8.671875 33.921875 8.867188 33.710938 9.011719 Z M 11.640625 11.640625 C 10.875 13.617188 10.519531 15.710938 10.3125 17.8125 C 10.308594 17.867188 10.300781 17.921875 10.296875 17.980469 C 9.992188 21.054688 10.429688 24.148438 11.25 27.109375 C 11.289062 27.25 11.289062 27.25 11.328125 27.398438 C 11.367188 27.535156 11.367188 27.535156 11.410156 27.675781 C 11.433594 27.761719 11.457031 27.84375 11.480469 27.929688 C 11.507812 27.996094 11.535156 28.058594 11.5625 28.125 C 11.832031 28.214844 11.902344 28.1875 12.167969 28.105469 C 12.246094 28.082031 12.320312 28.058594 12.398438 28.035156 C 12.476562 28.011719 12.558594 27.984375 12.640625 27.957031 C 14.667969 27.351562 16.730469 26.960938 18.847656 26.890625 C 19.054688 26.898438 19.054688 26.898438 19.140625 26.796875 C 19.144531 26.613281 19.148438 26.429688 19.144531 26.246094 C 19.144531 26.066406 19.140625 25.886719 19.140625 25.703125 C 19.707031 25.703125 20.273438 25.703125 20.859375 25.703125 C 20.859375 26.0625 20.859375 26.425781 20.859375 26.796875 C 21.128906 26.824219 21.128906 26.824219 21.402344 26.851562 C 23.394531 27.054688 25.308594 27.359375 27.230469 27.925781 C 27.605469 28.035156 27.980469 28.125 28.359375 28.203125 C 28.625 27.601562 28.792969 26.992188 28.945312 26.351562 C 28.96875 26.253906 28.992188 26.152344 29.015625 26.050781 C 30.101562 21.421875 30.113281 16.226562 28.4375 11.71875 C 28.226562 11.613281 28.144531 11.667969 27.917969 11.734375 C 27.84375 11.757812 27.765625 11.78125 27.6875 11.804688 C 27.605469 11.828125 27.523438 11.855469 27.4375 11.878906 C 25.375 12.472656 23.277344 12.851562 21.132812 12.953125 C 20.941406 12.945312 20.941406 12.945312 20.859375 13.046875 C 20.855469 13.230469 20.851562 13.414062 20.855469 13.597656 C 20.855469 13.867188 20.855469 13.867188 20.859375 14.140625 C 20.292969 14.140625 19.726562 14.140625 19.140625 14.140625 C 19.144531 13.859375 19.144531 13.574219 19.148438 13.292969 C 19.167969 13.058594 19.167969 13.058594 19.0625 12.96875 C 18.859375 12.945312 18.65625 12.925781 18.449219 12.910156 C 18.320312 12.898438 18.191406 12.886719 18.058594 12.875 C 17.992188 12.867188 17.921875 12.863281 17.851562 12.855469 C 15.71875 12.664062 13.699219 12.226562 11.640625 11.640625 Z M 1.71875 20.9375 C 1.691406 24.640625 3.339844 28.558594 5.625 31.40625 C 5.871094 31.289062 6.089844 31.152344 6.316406 30.996094 C 7.480469 30.195312 8.675781 29.421875 10 28.90625 C 9.988281 28.859375 9.972656 28.808594 9.960938 28.761719 C 9.328125 26.457031 8.847656 24.207031 8.667969 21.820312 C 8.660156 21.734375 8.660156 21.734375 8.65625 21.644531 C 8.640625 21.484375 8.628906 21.328125 8.621094 21.167969 C 8.617188 20.945312 8.617188 20.945312 8.515625 20.859375 C 8.308594 20.851562 8.101562 20.847656 7.890625 20.847656 C 7.824219 20.847656 7.761719 20.847656 7.691406 20.847656 C 7.476562 20.847656 7.257812 20.847656 7.042969 20.847656 C 6.890625 20.847656 6.742188 20.847656 6.589844 20.847656 C 6.273438 20.847656 5.957031 20.847656 5.644531 20.847656 C 5.238281 20.851562 4.832031 20.847656 4.425781 20.847656 C 4.117188 20.847656 3.804688 20.847656 3.496094 20.847656 C 3.347656 20.847656 3.195312 20.847656 3.046875 20.847656 C 2.839844 20.847656 2.628906 20.847656 2.421875 20.847656 C 2.359375 20.847656 2.296875 20.847656 2.230469 20.847656 C 1.953125 20.824219 1.953125 20.824219 1.71875 20.9375 Z M 31.484375 20.859375 C 31.429688 21.121094 31.390625 21.375 31.375 21.644531 C 31.222656 23.929688 30.855469 26.199219 30.136719 28.378906 C 30.0625 28.605469 30.0625 28.605469 30.078125 28.90625 C 30.121094 28.925781 30.164062 28.945312 30.207031 28.964844 C 31.511719 29.566406 32.742188 30.21875 33.898438 31.070312 C 34.027344 31.160156 34.160156 31.246094 34.296875 31.328125 C 34.566406 31.238281 34.601562 31.179688 34.757812 30.949219 C 34.800781 30.886719 34.84375 30.820312 34.890625 30.753906 C 34.933594 30.683594 34.980469 30.613281 35.03125 30.542969 C 35.078125 30.46875 35.125 30.394531 35.175781 30.320312 C 36.964844 27.558594 38.269531 24.273438 38.28125 20.9375 C 38.140625 20.796875 37.953125 20.851562 37.765625 20.851562 C 37.703125 20.851562 37.640625 20.851562 37.578125 20.851562 C 37.511719 20.851562 37.445312 20.851562 37.378906 20.851562 C 37.160156 20.851562 36.945312 20.851562 36.726562 20.851562 C 36.574219 20.851562 36.425781 20.851562 36.273438 20.851562 C 35.878906 20.851562 35.480469 20.851562 35.082031 20.855469 C 34.679688 20.855469 34.273438 20.855469 33.867188 20.855469 C 33.074219 20.855469 32.277344 20.859375 31.484375 20.859375 Z M 20.859375 28.59375 C 20.851562 28.710938 20.851562 28.824219 20.851562 28.941406 C 20.851562 29.015625 20.851562 29.089844 20.851562 29.167969 C 20.851562 29.25 20.851562 29.335938 20.851562 29.421875 C 20.851562 29.507812 20.851562 29.59375 20.851562 29.683594 C 20.851562 29.972656 20.851562 30.261719 20.851562 30.550781 C 20.851562 30.75 20.851562 30.949219 20.851562 31.148438 C 20.851562 31.621094 20.851562 32.09375 20.855469 32.566406 C 20.855469 33.105469 20.855469 33.640625 20.855469 34.179688 C 20.855469 35.285156 20.859375 36.394531 20.859375 37.5 C 20.957031 37.476562 21.058594 37.453125 21.160156 37.425781 C 21.246094 37.40625 21.246094 37.40625 21.332031 37.382812 C 22.328125 37.121094 23.175781 36.398438 23.90625 35.703125 C 23.949219 35.660156 23.992188 35.621094 24.039062 35.578125 C 24.664062 34.992188 25.207031 34.367188 25.703125 33.671875 C 25.761719 33.589844 25.824219 33.507812 25.886719 33.421875 C 26.339844 32.78125 26.707031 32.101562 27.070312 31.40625 C 27.105469 31.335938 27.105469 31.335938 27.144531 31.265625 C 27.503906 30.578125 27.503906 30.578125 27.734375 29.84375 C 24.195312 28.539062 24.195312 28.539062 20.859375 28.59375 Z M 12.265625 29.84375 C 13.078125 31.960938 14.289062 33.835938 15.859375 35.46875 C 15.9375 35.550781 15.9375 35.550781 16.011719 35.636719 C 16.738281 36.414062 17.972656 37.371094 19.0625 37.5 C 19.1875 37.375 19.152344 37.25 19.152344 37.078125 C 19.152344 37.003906 19.152344 36.929688 19.152344 36.851562 C 19.152344 36.769531 19.152344 36.6875 19.152344 36.605469 C 19.152344 36.519531 19.152344 36.433594 19.152344 36.34375 C 19.152344 36.058594 19.152344 35.773438 19.152344 35.484375 C 19.152344 35.289062 19.152344 35.089844 19.152344 34.894531 C 19.152344 34.476562 19.152344 34.0625 19.152344 33.648438 C 19.148438 33.167969 19.152344 32.6875 19.152344 32.207031 C 19.152344 31.746094 19.152344 31.285156 19.152344 30.824219 C 19.152344 30.628906 19.152344 30.429688 19.152344 30.234375 C 19.152344 29.960938 19.152344 29.6875 19.152344 29.410156 C 19.152344 29.289062 19.152344 29.289062 19.152344 29.164062 C 19.152344 29.050781 19.152344 29.050781 19.152344 28.9375 C 19.152344 28.871094 19.152344 28.808594 19.152344 28.742188 C 19.15625 28.59375 19.15625 28.59375 19.0625 28.515625 C 16.878906 28.394531 14.28125 29.035156 12.265625 29.84375 Z M 29.375 30.46875 C 29.347656 30.527344 29.324219 30.585938 29.296875 30.648438 C 28.765625 31.832031 28.226562 32.984375 27.5 34.0625 C 27.453125 34.136719 27.453125 34.136719 27.402344 34.210938 C 26.542969 35.488281 25.492188 36.773438 24.21875 37.65625 C 24.484375 37.746094 24.648438 37.722656 24.914062 37.648438 C 24.988281 37.625 25.066406 37.605469 25.140625 37.582031 C 25.222656 37.558594 25.304688 37.535156 25.386719 37.507812 C 25.46875 37.484375 25.554688 37.460938 25.640625 37.433594 C 27.390625 36.898438 29.058594 36.066406 30.546875 35 C 30.621094 34.949219 30.695312 34.894531 30.769531 34.839844 C 31.597656 34.238281 32.433594 33.570312 33.125 32.8125 C 33.125 32.734375 33.125 32.65625 33.125 32.578125 C 33 32.457031 33 32.457031 32.828125 32.347656 C 32.765625 32.304688 32.699219 32.261719 32.632812 32.214844 C 32.5625 32.167969 32.492188 32.125 32.417969 32.074219 C 32.34375 32.027344 32.273438 31.980469 32.195312 31.929688 C 30.863281 31.035156 30.863281 31.035156 29.375 30.46875 Z M 9.914062 30.816406 C 9.855469 30.84375 9.800781 30.871094 9.742188 30.902344 C 8.71875 31.421875 7.746094 32.003906 6.796875 32.65625 C 8.835938 35.113281 12.28125 37.246094 15.46875 37.734375 C 15.644531 37.707031 15.644531 37.707031 15.78125 37.65625 C 15.6875 37.570312 15.6875 37.570312 15.59375 37.484375 C 15.316406 37.230469 15.039062 36.976562 14.765625 36.71875 C 14.726562 36.679688 14.683594 36.644531 14.640625 36.605469 C 13.105469 35.167969 12.03125 33.347656 11.09375 31.484375 C 11.066406 31.433594 11.042969 31.382812 11.015625 31.328125 C 10.882812 31.070312 10.753906 30.808594 10.625 30.546875 C 10.363281 30.546875 10.140625 30.699219 9.914062 30.816406 Z M 9.914062 30.816406 "/>
<path style=" stroke:none;fill-rule:nonzero;fill:rgb(100%,100%,100%);fill-opacity:1;" d="M 19.355469 16.3125 C 20.390625 17.078125 21.09375 18.253906 21.371094 19.503906 C 21.574219 20.945312 21.289062 22.230469 20.46875 23.4375 C 19.835938 24.277344 19.027344 24.863281 18.046875 25.234375 C 17.984375 25.257812 17.921875 25.285156 17.859375 25.308594 C 16.683594 25.710938 15.261719 25.539062 14.140625 25.054688 C 12.808594 24.378906 11.878906 23.265625 11.398438 21.859375 C 11.03125 20.472656 11.238281 19.046875 11.925781 17.800781 C 12.59375 16.667969 13.730469 15.847656 14.996094 15.503906 C 16.542969 15.125 18.035156 15.457031 19.355469 16.3125 Z M 12.96875 18.671875 C 12.859375 18.878906 12.859375 18.878906 12.8125 19.0625 C 12.925781 19.113281 13.035156 19.167969 13.148438 19.21875 C 13.210938 19.246094 13.273438 19.277344 13.339844 19.304688 C 13.519531 19.390625 13.519531 19.390625 13.75 19.375 C 13.808594 19.308594 13.867188 19.242188 13.925781 19.175781 C 14.140625 18.984375 14.140625 18.984375 14.429688 18.988281 C 14.6875 19.0625 14.6875 19.0625 14.84375 19.21875 C 14.851562 19.59375 14.777344 19.785156 14.527344 20.066406 C 14.425781 20.167969 14.324219 20.273438 14.21875 20.375 C 14.113281 20.484375 14.003906 20.59375 13.898438 20.707031 C 13.820312 20.785156 13.820312 20.785156 13.738281 20.867188 C 13.546875 21.0625 13.363281 21.269531 13.179688 21.476562 C 13.035156 21.636719 12.890625 21.796875 12.734375 21.953125 C 12.734375 22.132812 12.734375 22.3125 12.734375 22.5 C 13.792969 22.5 14.847656 22.5 15.9375 22.5 C 15.9375 22.214844 15.9375 21.933594 15.9375 21.640625 C 15.421875 21.640625 14.90625 21.640625 14.375 21.640625 C 14.679688 21.289062 14.984375 20.953125 15.3125 20.625 C 15.652344 20.265625 15.933594 19.960938 15.941406 19.441406 C 15.914062 19.03125 15.824219 18.753906 15.546875 18.4375 C 14.710938 17.832031 13.683594 17.941406 12.96875 18.671875 Z M 18 18.265625 C 17.953125 18.335938 17.90625 18.402344 17.855469 18.472656 C 17.800781 18.550781 17.746094 18.628906 17.6875 18.707031 C 17.65625 18.75 17.628906 18.792969 17.597656 18.839844 C 17.488281 19 17.378906 19.15625 17.265625 19.316406 C 17.066406 19.59375 16.871094 19.871094 16.679688 20.152344 C 16.5625 20.3125 16.5625 20.3125 16.425781 20.46875 C 16.382812 20.519531 16.339844 20.570312 16.292969 20.621094 C 16.234375 20.6875 16.234375 20.6875 16.171875 20.753906 C 16.042969 21.011719 16.042969 21.011719 16.171875 21.640625 C 16.789062 21.640625 17.410156 21.640625 18.046875 21.640625 C 18.046875 21.925781 18.046875 22.207031 18.046875 22.5 C 18.382812 22.5 18.71875 22.5 19.0625 22.5 C 19.0625 22.214844 19.0625 21.933594 19.0625 21.640625 C 19.269531 21.640625 19.476562 21.640625 19.6875 21.640625 C 19.691406 21.5 19.691406 21.359375 19.691406 21.214844 C 19.691406 21.136719 19.695312 21.058594 19.695312 20.976562 C 19.710938 20.785156 19.710938 20.785156 19.609375 20.703125 C 19.453125 20.703125 19.300781 20.703125 19.140625 20.703125 C 19.113281 19.851562 19.089844 19 19.0625 18.125 C 18.28125 18.042969 18.28125 18.042969 18 18.265625 Z M 18 18.265625 "/>
<path style=" stroke:none;fill-rule:nonzero;fill:rgb(100%,100%,100%);fill-opacity:1;" d="M 22.234375 16.402344 C 22.304688 16.433594 22.375 16.464844 22.449219 16.5 C 22.675781 16.601562 22.902344 16.703125 23.128906 16.804688 C 23.28125 16.875 23.429688 16.941406 23.582031 17.007812 C 23.691406 17.058594 23.691406 17.058594 23.800781 17.109375 C 23.949219 17.175781 24.09375 17.238281 24.238281 17.304688 C 24.546875 17.441406 24.851562 17.582031 25.15625 17.730469 C 25.808594 18.039062 26.355469 18.105469 27.074219 18.089844 C 28.136719 18.074219 28.136719 18.074219 28.386719 18.304688 C 28.515625 18.515625 28.515625 18.515625 28.515625 18.828125 C 27.820312 18.828125 27.125 18.828125 26.40625 18.828125 C 26.445312 19.292969 26.445312 19.292969 26.484375 19.765625 C 26.554688 19.765625 26.625 19.765625 26.699219 19.765625 C 26.960938 19.761719 27.21875 19.761719 27.480469 19.761719 C 27.59375 19.761719 27.707031 19.761719 27.820312 19.757812 C 27.984375 19.757812 28.144531 19.757812 28.308594 19.757812 C 28.40625 19.757812 28.503906 19.757812 28.605469 19.757812 C 28.828125 19.765625 28.828125 19.765625 28.90625 19.84375 C 28.867188 20.59375 28.589844 21.050781 28.070312 21.582031 C 27.527344 21.996094 27.035156 21.984375 26.371094 21.96875 C 26.285156 21.964844 26.199219 21.964844 26.109375 21.964844 C 25.894531 21.960938 25.683594 21.957031 25.46875 21.953125 C 25.46875 22.367188 25.46875 22.777344 25.46875 23.203125 C 25.597656 23.203125 25.726562 23.203125 25.859375 23.203125 C 26 23.296875 26 23.296875 26.09375 23.4375 C 26.121094 23.609375 26.121094 23.609375 26.117188 23.792969 C 26.117188 23.855469 26.117188 23.917969 26.117188 23.980469 C 26.09375 24.140625 26.09375 24.140625 25.9375 24.296875 C 25.742188 24.316406 25.742188 24.316406 25.5 24.316406 C 25.414062 24.316406 25.328125 24.316406 25.238281 24.316406 C 25.144531 24.316406 25.054688 24.316406 24.960938 24.316406 C 24.871094 24.316406 24.777344 24.316406 24.683594 24.316406 C 24.597656 24.316406 24.511719 24.316406 24.421875 24.316406 C 24.339844 24.316406 24.261719 24.316406 24.179688 24.316406 C 23.984375 24.296875 23.984375 24.296875 23.828125 24.140625 C 23.804688 23.960938 23.804688 23.960938 23.804688 23.75 C 23.800781 23.679688 23.800781 23.613281 23.800781 23.539062 C 23.808594 23.480469 23.820312 23.421875 23.828125 23.359375 C 24.15625 23.140625 24.375 23.191406 24.765625 23.203125 C 24.765625 22.789062 24.765625 22.378906 24.765625 21.953125 C 24.550781 21.960938 24.332031 21.96875 24.117188 21.976562 C 24.054688 21.980469 23.992188 21.980469 23.929688 21.984375 C 23.871094 21.984375 23.8125 21.988281 23.75 21.992188 C 23.667969 21.996094 23.667969 21.996094 23.585938 21.996094 C 23.394531 22.039062 23.324219 22.113281 23.203125 22.265625 C 23.128906 22.410156 23.058594 22.558594 22.992188 22.710938 C 22.960938 22.789062 22.925781 22.867188 22.890625 22.945312 C 22.863281 23.003906 22.839844 23.0625 22.8125 23.125 C 22.925781 23.179688 22.925781 23.179688 23.042969 23.234375 C 23.28125 23.359375 23.28125 23.359375 23.359375 23.515625 C 23.394531 24.011719 23.394531 24.011719 23.265625 24.195312 C 22.980469 24.402344 22.601562 24.332031 22.265625 24.332031 C 22.1875 24.332031 22.109375 24.335938 22.027344 24.335938 C 21.949219 24.335938 21.875 24.335938 21.796875 24.335938 C 21.691406 24.335938 21.691406 24.335938 21.585938 24.335938 C 21.40625 24.296875 21.40625 24.296875 21.265625 24.15625 C 21.128906 23.90625 21.140625 23.71875 21.171875 23.4375 C 21.296875 23.265625 21.375 23.210938 21.582031 23.164062 C 21.757812 23.152344 21.933594 23.136719 22.109375 23.125 C 22.265625 22.765625 22.417969 22.402344 22.578125 22.03125 C 22.292969 22.03125 22.011719 22.03125 21.71875 22.03125 C 21.785156 21.691406 21.875 21.375 21.976562 21.046875 C 22.058594 20.652344 22.074219 20.246094 22.109375 19.84375 C 23.039062 19.816406 23.964844 19.792969 24.921875 19.765625 C 24.949219 19.429688 24.972656 19.09375 25 18.75 C 24.917969 18.773438 24.835938 18.796875 24.753906 18.820312 C 24.453125 18.910156 24.152344 18.996094 23.847656 19.082031 C 23.71875 19.121094 23.589844 19.160156 23.457031 19.199219 C 23.269531 19.253906 23.082031 19.304688 22.894531 19.359375 C 22.835938 19.378906 22.777344 19.394531 22.71875 19.414062 C 22.449219 19.488281 22.234375 19.53125 21.953125 19.53125 C 21.925781 19.351562 21.902344 19.171875 21.875 18.984375 C 21.929688 18.96875 21.980469 18.953125 22.035156 18.9375 C 22.273438 18.863281 22.515625 18.792969 22.753906 18.71875 C 22.835938 18.695312 22.921875 18.671875 23.003906 18.644531 C 23.085938 18.621094 23.164062 18.597656 23.25 18.574219 C 23.320312 18.550781 23.394531 18.527344 23.472656 18.503906 C 23.652344 18.445312 23.816406 18.371094 23.984375 18.28125 C 23.90625 18.242188 23.828125 18.199219 23.746094 18.160156 C 23.449219 18.007812 23.15625 17.859375 22.859375 17.707031 C 22.730469 17.640625 22.605469 17.574219 22.476562 17.511719 C 21.792969 17.164062 21.117188 16.816406 20.46875 16.40625 C 20.546875 16.25 20.546875 16.25 20.710938 16.164062 C 21.292969 15.984375 21.710938 16.160156 22.234375 16.402344 Z M 22.234375 16.402344 "/>
<path style=" stroke:none;fill-rule:nonzero;fill:rgb(100%,100%,100%);fill-opacity:1;" d="M 17.96875 19.453125 C 18.125 19.609375 18.125 19.609375 18.125 19.859375 C 18.117188 19.960938 18.109375 20.058594 18.101562 20.160156 C 18.09375 20.261719 18.085938 20.359375 18.078125 20.460938 C 18.046875 20.703125 18.046875 20.703125 17.96875 20.78125 C 17.824219 20.785156 17.679688 20.789062 17.535156 20.785156 C 17.457031 20.785156 17.375 20.785156 17.292969 20.785156 C 17.234375 20.78125 17.171875 20.78125 17.109375 20.78125 C 17.15625 20.476562 17.300781 20.304688 17.496094 20.074219 C 17.664062 19.871094 17.820312 19.671875 17.96875 19.453125 Z M 17.96875 19.453125 "/>
</g>
</svg>
