<?xml version="1.0" encoding="UTF-8"?>
<svg version="1.1" xmlns="http://www.w3.org/2000/svg" width="512" height="512">
<path d="M0 0 C3.99312897 0.00036158 7.98457145 -0.06106736 11.97729492 -0.11791992 C71.94112684 -0.50791283 131.50622085 24.66429741 175.2644043 65.27856445 C177.46493625 67.31492974 179.70262882 69.28852674 181.9753418 71.2434082 C189.38424333 77.72056147 195.62933918 84.83713227 201.7253418 92.5559082 C202.21309082 93.16724609 202.70083984 93.77858398 203.20336914 94.40844727 C235.74251748 135.32350742 259.95810333 187.5165963 259.8581543 240.60668945 C259.85911102 241.74188522 259.86006775 242.87708099 259.86105347 244.04667664 C259.86173097 246.43769384 259.8599068 248.82871294 259.85571289 251.21972656 C259.8503736 254.84680392 259.85566489 258.47375661 259.86206055 262.10083008 C259.8613994 264.43611681 259.86011748 266.77140346 259.8581543 269.10668945 C259.86017853 270.17583084 259.86220276 271.24497223 259.86428833 272.34651184 C259.8360526 281.58306822 259.53860704 290.85010036 257.52612305 299.89575195 C257.28990234 300.96720459 257.05368164 302.03865723 256.81030273 303.14257812 C256.55539062 304.24835205 256.30047852 305.35412598 256.0378418 306.4934082 C255.76875 307.6707251 255.4996582 308.84804199 255.22241211 310.06103516 C245.12388371 353.55128448 226.26438116 394.22386109 195.8034668 427.29418945 C193.91805245 429.34617236 192.09764147 431.43742774 190.2878418 433.5559082 C182.80887469 442.10084304 174.61937015 449.52068471 165.7253418 456.5559082 C164.67730005 457.4164684 163.63046283 458.27849723 162.5847168 459.1418457 C122.51124964 491.89744624 68.54100489 512.65764055 16.57299805 512.72387695 C15.6333873 512.72720535 14.69377655 512.73053375 13.72569275 512.73396301 C11.74665816 512.7389932 9.7676152 512.74137256 7.78857422 512.74121094 C4.82659136 512.74337983 1.86499254 512.76152935 -1.09692383 512.78051758 C-17.5621325 512.83055649 -33.62719233 511.65279313 -49.7746582 508.3059082 C-50.83233398 508.08829834 -51.89000977 507.87068848 -52.97973633 507.64648438 C-96.58671031 498.36188772 -136.35169824 476.96651388 -168.8996582 446.7434082 C-170.98102585 444.82635906 -173.10724697 442.99873698 -175.2746582 441.1809082 C-217.07783172 404.64561427 -244.9893492 345.09815024 -251.2746582 290.5559082 C-251.3674707 289.77425293 -251.4602832 288.99259766 -251.5559082 288.18725586 C-252.5425465 278.41072742 -252.49627787 268.59472014 -252.51489258 258.77856445 C-252.52452774 255.72229036 -252.55560103 252.66671085 -252.5871582 249.6105957 C-252.68749598 231.23914731 -250.74947408 213.41077719 -246.0871582 195.6184082 C-245.62998413 193.85194946 -245.62998413 193.85194946 -245.16357422 192.04980469 C-231.78244309 141.56660113 -203.85180653 94.05806656 -163.2746582 60.5559082 C-162.77691895 60.13905762 -162.27917969 59.72220703 -161.76635742 59.29272461 C-146.43807509 46.49914518 -129.97881437 35.76788912 -112.2746582 26.5559082 C-111.54762695 26.17337891 -110.8205957 25.79084961 -110.0715332 25.39672852 C-92.79241431 16.41250579 -74.17645044 10.25944647 -55.2746582 5.6809082 C-54.53683105 5.50205078 -53.79900391 5.32319336 -53.03881836 5.13891602 C-50.4596662 4.55489407 -47.87234205 4.05146439 -45.2746582 3.5559082 C-44.02531494 3.29914307 -42.77597168 3.04237793 -41.48876953 2.77783203 C-27.72565079 0.14665476 -13.97702236 -0.00670719 0 0 Z M56.7253418 28.5559082 C59.78513875 31.63428692 62.8746682 34.67900177 65.9831543 37.70825195 C75.31360842 46.85104379 84.05486893 55.97915427 91.7253418 66.5559082 C92.58025993 67.70475565 93.43573609 68.85318804 94.29174805 70.0012207 C105.6249093 85.36610295 116.27797434 102.52872946 122.7253418 120.5559082 C127.29597443 119.93423212 131.05026334 118.08464448 135.1003418 115.9934082 C135.80006104 115.63625732 136.49978027 115.27910645 137.22070312 114.91113281 C138.67623773 114.16545552 140.13008601 113.4164779 141.58227539 112.66430664 C143.60022575 111.62061849 145.62499577 110.59141435 147.65112305 109.5637207 C156.17332086 105.18579672 163.9784087 100.19954243 171.7253418 94.5559082 C170.38954532 91.57954615 168.93299576 89.51638963 166.6003418 87.2434082 C166.06151367 86.71102539 165.52268555 86.17864258 164.9675293 85.63012695 C135.20197525 58.09439664 97.24631471 34.96739241 56.7253418 28.5559082 Z M-63.1496582 31.4309082 C-64.22449463 31.74898437 -65.29933105 32.06706055 -66.40673828 32.39477539 C-77.07765852 35.65252009 -87.20970961 39.7595394 -97.2746582 44.5559082 C-98.141875 44.96824707 -99.0090918 45.38058594 -99.90258789 45.80541992 C-118.74110446 54.90479199 -135.73848009 66.56174652 -151.2746582 80.5559082 C-151.86988281 81.08555176 -152.46510742 81.61519531 -153.07836914 82.16088867 C-154.92252008 83.80488059 -156.75694185 85.45892563 -158.5871582 87.1184082 C-159.15748779 87.63161621 -159.72781738 88.14482422 -160.31542969 88.67358398 C-161.6748245 89.92597474 -162.98044086 91.23627252 -164.2746582 92.5559082 C-164.2746582 93.2159082 -164.2746582 93.8759082 -164.2746582 94.5559082 C-162.37413187 96.09670342 -160.49535452 97.45527535 -158.4621582 98.8059082 C-157.82286377 99.23194336 -157.18356934 99.65797852 -156.52490234 100.09692383 C-149.6619771 104.5235067 -142.45583 108.30163208 -135.2121582 112.0559082 C-134.61857513 112.36467896 -134.02499207 112.67344971 -133.41342163 112.99157715 C-127.77984285 115.91163375 -122.34675647 118.66447865 -116.2746582 120.5559082 C-115.80157227 119.59813477 -115.32848633 118.64036133 -114.84106445 117.65356445 C-113.05317599 114.04569722 -111.24766112 110.44694207 -109.43334961 106.85229492 C-108.6884355 105.37596493 -107.94573589 103.89851436 -107.20581055 102.41967773 C-99.50208525 87.08785979 -90.39134374 72.65922576 -79.2746582 59.5559082 C-78.40139436 58.49933335 -77.52906078 57.4419892 -76.6574707 56.3840332 C-68.35000657 46.35698209 -59.64283513 37.49979324 -49.2746582 29.5559082 C-54.12503354 27.93911642 -58.35872686 30.01054672 -63.1496582 31.4309082 Z M14.7253418 31.5559082 C14.7253418 68.8459082 14.7253418 106.1359082 14.7253418 144.5559082 C23.45225932 144.5559082 31.49483202 144.50727897 40.0378418 143.3684082 C41.05491211 143.2353125 42.07198242 143.1022168 43.11987305 142.96508789 C59.42571133 140.73202732 75.4067598 137.41305174 91.2253418 132.8684082 C92.78478516 132.42223145 92.78478516 132.42223145 94.37573242 131.96704102 C95.32641602 131.683125 96.27709961 131.39920898 97.2565918 131.10668945 C98.09770508 130.8557251 98.93881836 130.60476074 99.80541992 130.34619141 C101.91521467 129.72355611 101.91521467 129.72355611 102.7253418 127.5559082 C101.70202187 125.14665048 100.61712227 122.87397568 99.4128418 120.5559082 C99.04892334 119.8467627 98.68500488 119.13761719 98.31005859 118.40698242 C97.12620596 116.11734987 95.9267513 113.83637035 94.7253418 111.5559082 C94.34410156 110.82146484 93.96286133 110.08702148 93.57006836 109.33032227 C76.61431691 76.81619225 50.62912886 43.52383722 14.7253418 31.5559082 Z M-9.2746582 31.5559082 C-47.19016882 46.95330459 -71.87800321 81.55430392 -90.2746582 116.5559082 C-90.84313477 117.62325195 -91.41161133 118.6905957 -91.99731445 119.7902832 C-94.54295381 124.43308142 -94.54295381 124.43308142 -95.2746582 129.5559082 C-66.36421873 137.39013799 -37.39965786 144.5559082 -7.2746582 144.5559082 C-7.2746582 107.5959082 -7.2746582 70.6359082 -7.2746582 32.5559082 C-8.2646582 32.0609082 -8.2646582 32.0609082 -9.2746582 31.5559082 Z M-179.2746582 110.5559082 C-186.67400287 118.99187603 -192.61319679 127.90074993 -198.2746582 137.5559082 C-198.75338379 138.36431152 -199.23210937 139.17271484 -199.7253418 140.00561523 C-214.50023121 165.18888226 -224.06617988 192.37282202 -228.6496582 221.1809082 C-228.81771973 222.23536133 -228.98578125 223.28981445 -229.15893555 224.3762207 C-230.22156922 231.65497414 -230.2746582 237.97134107 -230.2746582 245.5559082 C-201.2346582 245.5559082 -172.1946582 245.5559082 -142.2746582 245.5559082 C-141.6146582 235.6559082 -140.9546582 225.7559082 -140.2746582 215.5559082 C-139.64073496 210.11888861 -138.98568389 204.81201256 -138.0871582 199.4309082 C-137.87720215 198.12887451 -137.66724609 196.82684082 -137.45092773 195.48535156 C-134.93818385 180.35084375 -131.65236821 165.0647195 -126.5637207 150.58325195 C-125.48266951 147.46604262 -124.95170493 144.89309201 -125.2746582 141.5559082 C-126.22083008 141.09442383 -127.16700195 140.63293945 -128.1418457 140.1574707 C-143.4244274 132.64731881 -158.12737372 124.69089722 -172.0168457 114.8059082 C-174.42362787 113.14367016 -176.61519794 111.73195093 -179.2746582 110.5559082 Z M179.2253418 115.9309082 C164.23843277 126.10877511 148.14032495 133.9658699 131.7253418 141.5559082 C131.90597168 142.16660156 132.08660156 142.77729492 132.27270508 143.40649414 C141.67115109 175.43126848 148.54286676 207.93773988 149.54956055 241.3918457 C149.36495286 244.41778422 149.36495286 244.41778422 150.7253418 245.5559082 C168.3971087 247.1249616 186.19020478 246.51192523 203.90393066 246.16101074 C207.61904976 246.08895069 211.33430843 246.02497239 215.04956055 245.96020508 C222.27497572 245.8331089 229.50019328 245.69743472 236.7253418 245.5559082 C236.7444214 243.52030097 236.75787269 241.48464061 236.76904297 239.44897461 C236.777155 238.31537506 236.78526703 237.18177551 236.79362488 236.01382446 C236.6862255 230.57502415 235.90889249 225.29285439 235.0378418 219.9309082 C234.85705078 218.80136719 234.67625977 217.67182617 234.48999023 216.50805664 C228.5348265 180.72634881 213.85268437 146.99999836 192.5378418 117.6809082 C191.85177856 116.73513916 191.85177856 116.73513916 191.15185547 115.77026367 C190.06441825 114.32269442 188.90202211 112.93191688 187.7253418 111.5559082 C184.36090671 111.5559082 181.91054748 114.06150471 179.2253418 115.9309082 Z M-103.2746582 149.5559082 C-113.06842776 174.85165027 -117.62088468 201.66598991 -120.2746582 228.5559082 C-120.34668457 229.25796387 -120.41871094 229.96001953 -120.49291992 230.68334961 C-124.3872114 270.04978151 -118.75839315 309.64798247 -108.2746582 347.5559082 C-107.77772461 349.37832031 -107.77772461 349.37832031 -107.27075195 351.23754883 C-106.7622168 353.01162109 -106.7622168 353.01162109 -106.2434082 354.8215332 C-105.93854492 355.89693359 -105.63368164 356.97233398 -105.31958008 358.08032227 C-104.97475586 358.89726562 -104.62993164 359.71420898 -104.2746582 360.5559082 C-100.80966138 361.71090714 -99.90305594 361.36447903 -96.50512695 360.2980957 C-95.54590332 360.00459229 -94.58667969 359.71108887 -93.59838867 359.40869141 C-92.56343262 359.08602295 -91.52847656 358.76335449 -90.4621582 358.4309082 C-64.54576872 350.66373337 -38.14070955 345.67562143 -11.03637695 344.73168945 C-8.36556223 344.86706652 -8.36556223 344.86706652 -7.2746582 343.5559082 C-7.20194079 341.20277266 -7.19094952 338.84757152 -7.2121582 336.4934082 C-7.2327832 334.2040332 -7.2534082 331.9146582 -7.2746582 329.5559082 C-0.0146582 329.5559082 7.2453418 329.5559082 14.7253418 329.5559082 C14.7253418 334.1759082 14.7253418 338.7959082 14.7253418 343.5559082 C18.17100586 343.90202148 18.17100586 343.90202148 21.6862793 344.25512695 C47.15545422 346.86998286 71.67216305 350.75608408 96.29174805 358.00512695 C101.06881209 359.40409416 105.85395523 360.53538037 110.7253418 361.5559082 C114.12323266 353.8455643 116.29908773 346.05839752 118.2253418 337.8684082 C118.52722412 336.59763428 118.82910645 335.32686035 119.14013672 334.01757812 C133.04870944 274.75962448 133.17580943 208.25249734 111.7253418 150.5559082 C109.00694113 149.19670787 107.96162667 149.89871599 105.08081055 150.77856445 C104.10885742 151.06699219 103.1369043 151.35541992 102.13549805 151.65258789 C101.07202148 151.97130859 100.00854492 152.2900293 98.9128418 152.6184082 C72.54495022 160.22983737 45.65602425 165.05915746 18.2253418 166.3449707 C15.7861488 166.28005045 15.7861488 166.28005045 14.7253418 167.5559082 C14.65262438 169.90904375 14.64163312 172.26424489 14.6628418 174.6184082 C14.6937793 178.0524707 14.6937793 178.0524707 14.7253418 181.5559082 C7.4653418 181.5559082 0.2053418 181.5559082 -7.2746582 181.5559082 C-7.24210612 177.94262695 -7.20955404 174.3293457 -7.17700195 170.71606445 C-6.90933271 167.69292417 -6.90933271 167.69292417 -8.2746582 166.5559082 C-10.8862492 166.25314005 -13.48341904 166.0072322 -16.1027832 165.79418945 C-17.77264121 165.64777058 -19.44239663 165.5001782 -21.11206055 165.3515625 C-21.99480652 165.27352386 -22.87755249 165.19548523 -23.78704834 165.11508179 C-51.05414722 162.65816742 -76.93558409 157.03939625 -103.2746582 149.5559082 Z M-230.2746582 268.5559082 C-230.60665608 315.96520537 -209.51476568 366.11059688 -180.2746582 402.5559082 C-177.10343133 401.07037878 -174.31488615 399.28198057 -171.44262695 397.2824707 C-156.52797681 387.03503288 -141.21983983 377.14809542 -124.2746582 370.5559082 C-124.44553955 369.93804443 -124.6164209 369.32018066 -124.79248047 368.68359375 C-132.89715453 339.1922574 -139.01681865 310.41781529 -141.32470703 279.8671875 C-141.41034409 278.75357346 -141.41034409 278.75357346 -141.49771118 277.61746216 C-141.65277496 275.57913825 -141.80119235 273.5403119 -141.94921875 271.50146484 C-141.95129275 268.67088099 -141.95129275 268.67088099 -143.2746582 267.5559082 C-145.94715888 267.45545767 -148.59384402 267.41974172 -151.2668457 267.42651367 C-152.1041925 267.42476135 -152.94153931 267.42300903 -153.80426025 267.42120361 C-156.58608034 267.41678419 -159.36783741 267.4197234 -162.1496582 267.4230957 C-164.07397473 267.42242269 -165.99829118 267.42145269 -167.92260742 267.42019653 C-171.96118985 267.41871944 -175.99975021 267.42087449 -180.03833008 267.42553711 C-185.22734331 267.4312344 -190.41630483 267.42795546 -195.60531616 267.42196465 C-199.5805704 267.41835935 -203.55581229 267.41949747 -207.53106689 267.42209244 C-209.44492601 267.42276179 -211.35878622 267.42193299 -213.27264404 267.41961288 C-215.9426167 267.41708687 -218.61250441 267.42092622 -221.2824707 267.42651367 C-222.0814679 267.42448944 -222.88046509 267.42246521 -223.70367432 267.42037964 C-227.28530025 267.09973812 -227.28530025 267.09973812 -230.2746582 268.5559082 Z M150.7253418 267.5559082 C150.02801277 270.92746805 149.54410729 274.16120661 149.33081055 277.59887695 C147.35669662 306.83938493 142.65881838 335.92076386 133.47729492 363.8203125 C132.54864415 366.7258884 132.54864415 366.7258884 132.7253418 370.5559082 C133.27246826 370.80646973 133.81959473 371.05703125 134.38330078 371.31518555 C151.06693664 378.99763664 166.81414228 387.34787173 181.63867188 398.24121094 C183.28273756 399.42136446 184.9995249 400.4988981 186.7253418 401.5559082 C190.19928076 400.39792855 190.63032603 399.656312 192.6237793 396.70825195 C193.1792041 395.88768311 193.73462891 395.06711426 194.30688477 394.22167969 C194.89872559 393.3213501 195.49056641 392.42102051 196.1003418 391.4934082 C196.7166748 390.55891846 197.33300781 389.62442871 197.96801758 388.66162109 C220.89086086 353.32979286 237.576513 311.2642618 237.7253418 268.5559082 C235.93677117 266.76733758 233.52411045 267.43600241 231.14324951 267.43148804 C230.34268127 267.43508331 229.54211304 267.43867859 228.71728516 267.44238281 C227.87833206 267.44223679 227.03937897 267.44209076 226.17500305 267.44194031 C223.38837136 267.44263971 220.60180564 267.45043335 217.81518555 267.45825195 C215.88847388 267.46011604 213.96176175 267.46153998 212.03504944 267.46253967 C206.95346783 267.46636561 201.8719146 267.47619654 196.79034424 267.48724365 C191.60917546 267.49745614 186.42800211 267.50203694 181.24682617 267.50708008 C171.07298554 267.51781875 160.89916603 267.53489608 150.7253418 267.5559082 Z M14.7253418 366.5559082 C14.62965604 368.03607214 14.60345912 369.52079094 14.60508728 371.00404358 C14.60371262 371.96463181 14.60233795 372.92522003 14.60092163 373.91491699 C14.60451691 374.97730591 14.60811218 376.03969482 14.61181641 377.13427734 C14.61167038 378.24633041 14.61152435 379.35838348 14.6113739 380.50413513 C14.61207359 384.19979771 14.6198686 387.89541062 14.62768555 391.59106445 C14.62954953 394.14554314 14.63097352 396.70002218 14.63197327 399.25450134 C14.63540836 405.3035253 14.64329915 411.35252775 14.65332276 417.40154308 C14.66448497 424.28655974 14.66999462 431.17157724 14.67501819 438.05660069 C14.6854818 452.2230465 14.70308057 466.38947637 14.7253418 480.5559082 C15.99900604 480.24370331 17.27267029 479.93149841 18.58493042 479.60983276 C19.65958463 479.34640988 19.65958463 479.34640988 20.75594902 479.07766533 C33.50910436 475.69893369 44.38930326 466.44205002 53.7253418 457.5559082 C54.28737305 457.0294873 54.8494043 456.50306641 55.4284668 455.96069336 C63.41466228 448.43929079 70.35472837 440.47739406 76.7253418 431.5559082 C77.50006836 430.49887695 78.27479492 429.4418457 79.07299805 428.3527832 C84.89016256 420.18045766 89.5975758 411.43614365 94.2253418 402.5559082 C94.68958557 401.6701712 94.68958557 401.6701712 95.16320801 400.76654053 C99.76976183 391.97677314 99.76976183 391.97677314 102.7253418 382.5559082 C57.40054622 365.87003614 57.40054622 365.87003614 14.7253418 366.5559082 Z M-95.2746582 382.5559082 C-84.84991302 409.63372692 -69.37883328 433.66763893 -49.2746582 454.5559082 C-48.29819336 455.62711914 -48.29819336 455.62711914 -47.30200195 456.7199707 C-38.00215519 466.63190929 -22.21597381 478.91723639 -8.2746582 480.5559082 C-6.6884858 478.9697358 -7.14867278 477.35285699 -7.14767456 475.15246582 C-7.14485474 474.20173691 -7.14203491 473.251008 -7.13912964 472.27146912 C-7.14115387 471.22000198 -7.1431781 470.16853485 -7.14526367 469.08520508 C-7.14351135 467.98451187 -7.14175903 466.88381866 -7.13995361 465.74977112 C-7.13553253 462.09138437 -7.138474 458.43304549 -7.1418457 454.7746582 C-7.14117274 452.24499502 -7.14020278 449.7153319 -7.13894653 447.18566895 C-7.13746921 441.87596971 -7.13953062 436.56628783 -7.14428711 431.2565918 C-7.1497297 425.10984862 -7.14796703 418.96313861 -7.1424607 412.81639624 C-7.13738381 406.91373257 -7.13791115 401.01107924 -7.14084244 395.1084137 C-7.14151196 392.59167984 -7.1406824 390.07494515 -7.13836288 387.55821228 C-7.13583787 384.04765545 -7.13967482 380.53716331 -7.14526367 377.02661133 C-7.14222733 375.44941063 -7.14222733 375.44941063 -7.13912964 373.84034729 C-7.14335937 372.41425392 -7.14335937 372.41425392 -7.14767456 370.95935059 C-7.14805159 370.12827034 -7.14842861 369.29719009 -7.14881706 368.4409256 C-7.0677125 366.54337533 -7.0677125 366.54337533 -8.2746582 365.5559082 C-36.22355494 364.00932894 -69.49223527 372.19776332 -95.2746582 382.5559082 Z M123.7253418 390.5559082 C123.38913818 391.30984863 123.05293457 392.06378906 122.70654297 392.84057617 C115.91601397 407.98468923 109.02314693 422.74986322 99.7253418 436.5559082 C99.105625 437.4854834 99.105625 437.4854834 98.47338867 438.43383789 C87.46922387 454.80057112 74.03016321 471.26795492 57.7253418 482.5559082 C61.10756194 483.69387877 63.22052539 483.40463657 66.62768555 482.4387207 C67.58964844 482.16640625 68.55161133 481.8940918 69.54272461 481.61352539 C70.57236328 481.30576172 71.60200195 480.99799805 72.6628418 480.6809082 C73.73244141 480.36283203 74.80204102 480.04475586 75.90405273 479.71704102 C98.31563758 472.84309441 119.66677043 462.22417656 138.7253418 448.5559082 C139.67022461 447.88430664 140.61510742 447.21270508 141.58862305 446.52075195 C152.18873994 438.78477261 162.85187764 430.25701963 171.7253418 420.5559082 C171.7253418 419.5659082 171.7253418 418.5759082 171.7253418 417.5559082 C170.12681974 416.01611634 170.12681974 416.01611634 167.94018555 414.62231445 C167.10994873 414.06116943 166.27971191 413.50002441 165.42431641 412.921875 C164.51302979 412.32673096 163.60174316 411.73158691 162.6628418 411.1184082 C161.73286377 410.50457275 160.80288574 409.8907373 159.84472656 409.25830078 C142.75482733 397.78402492 142.75482733 397.78402492 123.7253418 390.5559082 Z M-125.3996582 394.9934082 C-126.11178467 395.35321777 -126.82391113 395.71302734 -127.55761719 396.08374023 C-140.69074841 402.77951495 -153.13151442 410.19877333 -165.2746582 418.5559082 C-139.15722483 450.03076381 -95.05087727 477.28264373 -54.2746582 483.5559082 C-52.02765362 483.20084777 -52.02765362 483.20084777 -50.2746582 482.5559082 C-51.47348633 481.46536133 -51.47348633 481.46536133 -52.6965332 480.3527832 C-56.24556949 477.11167159 -59.76436685 473.83889381 -63.2746582 470.5559082 C-63.79737305 470.07009277 -64.32008789 469.58427734 -64.85864258 469.08374023 C-84.50875197 450.68584369 -98.25116605 427.40578607 -110.2746582 403.5559082 C-110.60788086 402.8978418 -110.94110352 402.23977539 -111.28442383 401.56176758 C-112.96663935 398.23564785 -114.63183605 394.90165576 -116.2746582 391.5559082 C-119.63656497 391.5559082 -122.45174292 393.49915003 -125.3996582 394.9934082 Z " fill="#FFFFFF" transform="translate(252.274658203125,-0.555908203125)"/>
<path d="M0 0 C13.22432958 9.80424434 22.24657676 24.88067755 25.76953125 40.87109375 C28.37450999 59.3427612 24.75819287 75.78545976 14.2421875 91.22265625 C6.11976454 101.9484199 -4.2150842 109.45135903 -16.7578125 114.22265625 C-17.54929687 114.54234375 -18.34078125 114.86203125 -19.15625 115.19140625 C-34.22359047 120.32475884 -52.39371966 118.12920027 -66.734375 111.9375 C-83.83014699 103.2932998 -95.6998448 89.01990217 -101.859375 71 C-106.56411961 53.25827616 -103.90026593 35.03759442 -95.109375 19.0546875 C-86.56660197 4.57241251 -71.99306721 -5.9176911 -55.80834961 -10.3059082 C-35.98987348 -15.18947578 -16.92739799 -10.9093004 0 0 Z M-81.7578125 30.22265625 C-83.15600762 32.87410445 -83.15600762 32.87410445 -83.7578125 35.22265625 C-82.32352249 35.89620124 -80.88524193 36.56125326 -79.4453125 37.22265625 C-78.64480469 37.59390625 -77.84429687 37.96515625 -77.01953125 38.34765625 C-74.69567291 39.40306292 -74.69567291 39.40306292 -71.7578125 39.22265625 C-71.0153125 38.37703125 -70.2728125 37.53140625 -69.5078125 36.66015625 C-66.7578125 34.22265625 -66.7578125 34.22265625 -63.0703125 34.28515625 C-59.7578125 35.22265625 -59.7578125 35.22265625 -57.7578125 37.22265625 C-57.66179485 42.04154184 -58.61925599 44.45623955 -61.8203125 48.0546875 C-63.11842615 49.39558879 -64.43170065 50.72193782 -65.7578125 52.03515625 C-67.12705732 53.43936813 -68.49554845 54.84431534 -69.86328125 56.25 C-70.86367432 57.26489502 -70.86367432 57.26489502 -71.88427734 58.30029297 C-74.35612762 60.83656468 -76.71672944 63.45131982 -79.0703125 66.09765625 C-80.93214397 68.19000019 -82.77738935 70.2422331 -84.7578125 72.22265625 C-84.7578125 74.53265625 -84.7578125 76.84265625 -84.7578125 79.22265625 C-71.2278125 79.22265625 -57.6978125 79.22265625 -43.7578125 79.22265625 C-43.7578125 75.59265625 -43.7578125 71.96265625 -43.7578125 68.22265625 C-50.3578125 68.22265625 -56.9578125 68.22265625 -63.7578125 68.22265625 C-59.87579556 63.73169548 -55.95506367 59.41990742 -51.7578125 55.22265625 C-47.38632952 50.63368656 -43.81480861 46.73349159 -43.73046875 40.05859375 C-44.07321337 34.80317628 -45.18882441 31.26124804 -48.7578125 27.22265625 C-59.44845681 19.46572364 -72.60755977 20.84922663 -81.7578125 30.22265625 Z M-17.37890625 25.03125 C-17.97832031 25.89878906 -18.57773438 26.76632813 -19.1953125 27.66015625 C-19.91203125 28.6553125 -20.62875 29.65046875 -21.3671875 30.67578125 C-21.74423828 31.23587891 -22.12128906 31.79597656 -22.50976562 32.37304688 C-23.89594744 34.42737267 -25.33059577 36.44212178 -26.7734375 38.45703125 C-29.31009974 42.00820278 -31.81681076 45.57775227 -34.27880859 49.18115234 C-35.7578125 51.22265625 -35.7578125 51.22265625 -37.49072266 53.20556641 C-38.04937012 53.85702637 -38.60801758 54.50848633 -39.18359375 55.1796875 C-39.9576355 56.02430542 -39.9576355 56.02430542 -40.74731445 56.88598633 C-42.40372235 60.18619843 -42.40372235 60.18619843 -40.7578125 68.22265625 C-32.8378125 68.22265625 -24.9178125 68.22265625 -16.7578125 68.22265625 C-16.7578125 71.85265625 -16.7578125 75.48265625 -16.7578125 79.22265625 C-12.4678125 79.22265625 -8.1778125 79.22265625 -3.7578125 79.22265625 C-3.7578125 75.59265625 -3.7578125 71.96265625 -3.7578125 68.22265625 C-1.1178125 68.22265625 1.5221875 68.22265625 4.2421875 68.22265625 C4.26906029 66.41023573 4.28852465 64.59770392 4.3046875 62.78515625 C4.31628906 61.77582031 4.32789063 60.76648438 4.33984375 59.7265625 C4.52831426 57.28244558 4.52831426 57.28244558 3.2421875 56.22265625 C1.2621875 56.22265625 -0.7178125 56.22265625 -2.7578125 56.22265625 C-3.0878125 45.33265625 -3.4178125 34.44265625 -3.7578125 23.22265625 C-13.77959551 22.18144467 -13.77959551 22.18144467 -17.37890625 25.03125 Z " fill="#FFFFFF" transform="translate(247.7578125,208.77734375)"/>
<path d="M0 0 C0.91132187 0.40749481 1.82264374 0.81498962 2.76158142 1.23483276 C5.6683046 2.53766088 8.56660218 3.85811444 11.46484375 5.1796875 C13.38551867 6.04548984 15.30673833 6.91008481 17.22851562 7.7734375 C18.63385307 8.40574532 18.63385307 8.40574532 20.06758118 9.05082703 C21.9342553 9.88972298 23.80159305 10.7271439 25.66960144 11.56306458 C29.59915855 13.32456429 33.5155534 15.09461861 37.38208008 16.9909668 C45.77333841 20.95796816 52.73235601 21.81129371 61.96484375 21.6171875 C75.53136138 21.38266938 75.53136138 21.38266938 78.7421875 24.33203125 C80.40234375 27.0546875 80.40234375 27.0546875 80.40234375 31.0546875 C71.49234375 31.0546875 62.58234375 31.0546875 53.40234375 31.0546875 C53.89734375 36.9946875 53.89734375 36.9946875 54.40234375 43.0546875 C55.305896 43.04945068 56.20944824 43.04421387 57.14038086 43.03881836 C60.48185864 43.02181064 63.82329067 43.00925417 67.16479492 42.99975586 C68.61304448 42.99471649 70.06128892 42.98788497 71.50952148 42.97924805 C73.58708963 42.96716503 75.66459072 42.96145539 77.7421875 42.95703125 C78.99378662 42.95179443 80.24538574 42.94655762 81.53491211 42.94116211 C84.40234375 43.0546875 84.40234375 43.0546875 85.40234375 44.0546875 C84.89836755 53.63023537 81.34982193 59.52869422 74.6953125 66.29296875 C67.75339819 71.62653494 61.43836154 71.43831046 52.96484375 71.2421875 C51.85173828 71.22865234 50.73863281 71.21511719 49.59179688 71.20117188 C46.86176879 71.1660213 44.13199186 71.11222107 41.40234375 71.0546875 C41.40234375 76.3346875 41.40234375 81.6146875 41.40234375 87.0546875 C43.05234375 87.0546875 44.70234375 87.0546875 46.40234375 87.0546875 C48.1953125 88.26953125 48.1953125 88.26953125 49.40234375 90.0546875 C49.765625 92.24609375 49.765625 92.24609375 49.71484375 94.6171875 C49.71097656 95.40222656 49.70710938 96.18726563 49.703125 96.99609375 C49.40234375 99.0546875 49.40234375 99.0546875 47.40234375 101.0546875 C44.91210937 101.31347656 44.91210937 101.31347656 41.80859375 101.3203125 C40.69613281 101.32289063 39.58367187 101.32546875 38.4375 101.328125 C37.27089844 101.32039063 36.10429687 101.31265625 34.90234375 101.3046875 C33.73574219 101.31242187 32.56914062 101.32015625 31.3671875 101.328125 C30.25472656 101.32554687 29.14226562 101.32296875 27.99609375 101.3203125 C26.97193359 101.31805664 25.94777344 101.31580078 24.89257812 101.31347656 C22.40234375 101.0546875 22.40234375 101.0546875 20.40234375 99.0546875 C20.1015625 96.7421875 20.1015625 96.7421875 20.08984375 94.0546875 C20.07308594 93.1678125 20.05632812 92.2809375 20.0390625 91.3671875 C20.15894531 90.6040625 20.27882813 89.8409375 20.40234375 89.0546875 C24.60478915 86.25305724 27.4033931 86.90979038 32.40234375 87.0546875 C32.40234375 81.7746875 32.40234375 76.4946875 32.40234375 71.0546875 C29.62997881 71.14160489 26.86087297 71.24846111 24.08984375 71.3671875 C23.30416016 71.38974609 22.51847656 71.41230469 21.70898438 71.43554688 C20.95166016 71.47099609 20.19433594 71.50644531 19.4140625 71.54296875 C18.36931763 71.58224487 18.36931763 71.58224487 17.3034668 71.62231445 C14.85591422 72.17896215 13.97358851 73.12968296 12.40234375 75.0546875 C11.44415506 76.91978155 10.55173212 78.8196061 9.71484375 80.7421875 C9.27785156 81.73605469 8.84085937 82.72992188 8.390625 83.75390625 C8.06449219 84.51316406 7.73835938 85.27242188 7.40234375 86.0546875 C8.85640625 86.7353125 8.85640625 86.7353125 10.33984375 87.4296875 C13.40234375 89.0546875 13.40234375 89.0546875 14.40234375 91.0546875 C14.86410668 97.40392785 14.86410668 97.40392785 13.19921875 99.75024414 C9.56789338 102.38640874 4.7233747 101.52250085 0.40234375 101.4921875 C-0.60828125 101.51216797 -1.61890625 101.53214844 -2.66015625 101.55273438 C-3.62953125 101.55208984 -4.59890625 101.55144531 -5.59765625 101.55078125 C-6.92796875 101.55356079 -6.92796875 101.55356079 -8.28515625 101.55639648 C-10.59765625 101.0546875 -10.59765625 101.0546875 -12.38671875 99.24633789 C-14.1497438 96.05547582 -13.987946 93.63234357 -13.59765625 90.0546875 C-11.97542244 87.85050949 -11.0221243 87.15072431 -8.3359375 86.54296875 C-6.08984375 86.38020833 -3.84375 86.21744792 -1.59765625 86.0546875 C0.38234375 81.4346875 2.36234375 76.8146875 4.40234375 72.0546875 C0.77234375 72.0546875 -2.85765625 72.0546875 -6.59765625 72.0546875 C-5.73208086 67.72681053 -4.61259797 63.66317339 -3.31640625 59.45703125 C-2.24865063 54.40260111 -2.02666767 49.20282457 -1.59765625 44.0546875 C10.28234375 43.7246875 22.16234375 43.3946875 34.40234375 43.0546875 C34.73234375 38.7646875 35.06234375 34.4746875 35.40234375 30.0546875 C34.36303711 30.35761719 33.32373047 30.66054687 32.25292969 30.97265625 C28.39298598 32.09619839 24.53104168 33.21272264 20.66845703 34.32714844 C18.99765598 34.81026382 17.32740198 35.29527533 15.65771484 35.78222656 C13.2563006 36.48222239 10.85299534 37.17535387 8.44921875 37.8671875 C7.70428162 38.08592529 6.95934448 38.30466309 6.1918335 38.5300293 C2.75538525 39.51229516 0.00896046 40.0546875 -3.59765625 40.0546875 C-3.92765625 37.7446875 -4.25765625 35.4346875 -4.59765625 33.0546875 C-3.92186523 32.85311035 -3.24607422 32.6515332 -2.54980469 32.44384766 C0.51872319 31.52624081 3.58553635 30.60302736 6.65234375 29.6796875 C7.71582031 29.36257812 8.77929688 29.04546875 9.875 28.71875 C10.89980469 28.409375 11.92460937 28.1 12.98046875 27.78125 C13.9230957 27.49846191 14.86572266 27.21567383 15.83691406 26.92431641 C18.16076915 26.13657641 20.24415578 25.21371437 22.40234375 24.0546875 C21.39445801 23.54083496 20.38657227 23.02698242 19.34814453 22.49755859 C15.56295044 20.56655359 11.7801669 18.6308657 7.99804688 16.69384766 C6.36945597 15.8605627 4.74023796 15.02850206 3.11035156 14.19775391 C-5.62382618 9.74493078 -14.30891449 5.30988031 -22.59765625 0.0546875 C-21.59765625 -1.9453125 -21.59765625 -1.9453125 -19.47265625 -3.0703125 C-12.04172494 -5.33190029 -6.70211702 -3.0902801 0 0 Z " fill="#FFFFFF" transform="translate(284.59765625,209.9453125)"/>
<path d="M0 0 C2 2 2 2 2.01171875 5.22265625 C1.90472656 6.48980469 1.79773438 7.75695312 1.6875 9.0625 C1.58824219 10.33222656 1.48898438 11.60195313 1.38671875 12.91015625 C1 16 1 16 0 17 C-1.85287502 17.07226502 -3.70833878 17.0838122 -5.5625 17.0625 C-6.57441406 17.05347656 -7.58632812 17.04445313 -8.62890625 17.03515625 C-9.41136719 17.02355469 -10.19382813 17.01195312 -11 17 C-10.41353036 13.11125515 -8.5472913 10.91655358 -6.0625 7.9375 C-3.90342927 5.33172498 -1.8787808 2.8181712 0 0 Z " fill="#FFFFFF" transform="translate(230,249)"/>
</svg>
