<?xml version="1.0" encoding="UTF-8"?>
<svg version="1.1" xmlns="http://www.w3.org/2000/svg" width="512" height="512">
<path d="M0 0 C3.66273651 2.31569705 5.62901658 5.11154771 7.75 8.875 C8.15262944 11.74706602 8.35458012 14.25028441 8.359375 17.1171875 C8.37591125 17.88555939 8.39244751 18.65393127 8.40948486 19.44558716 C8.45775935 21.88047439 8.47928871 24.31473811 8.5 26.75 C8.52817708 28.40888519 8.55810694 30.06774159 8.58984375 31.7265625 C8.66351198 35.77599027 8.71321134 39.82507609 8.75 43.875 C10.03959625 43.87864563 11.3291925 43.88229126 12.65786743 43.88604736 C24.81168565 43.92299013 36.96525033 43.98075528 49.1188755 44.05890274 C55.3671842 44.09841008 61.61535126 44.13058277 67.86376953 44.14599609 C73.89396979 44.16114093 79.92378077 44.19554859 85.95380783 44.24330902 C88.25425203 44.25814512 90.5547518 44.26604229 92.85524368 44.26688385 C96.07790876 44.26924845 99.29949366 44.29628893 102.52197266 44.32910156 C103.94833038 44.32155602 103.94833038 44.32155602 105.40350342 44.31385803 C112.32369907 44.4228552 115.86343675 46.30049764 121.0625 50.9375 C124.43629491 54.81111638 124.08805104 59.19078633 124.0234375 64.08203125 C123.59679357 68.43989427 122.49329425 70.42829696 119.75 73.875 C113.95174338 78.03618457 109.43217588 78.45819555 102.40844727 78.42089844 C101.39305374 78.43123611 100.37766022 78.44157379 99.33149719 78.45222473 C95.99297061 78.48159774 92.65505176 78.48315079 89.31640625 78.484375 C86.99469348 78.4993603 84.67299135 78.51608817 82.3513031 78.53448486 C76.25382999 78.57813092 70.1565007 78.5981516 64.05889893 78.61322021 C57.83149726 78.63280101 51.60425067 78.67477002 45.37695312 78.71484375 C33.16799036 78.7901165 20.95913988 78.83835584 8.75 78.875 C8.75 92.075 8.75 105.275 8.75 118.875 C11.885 119.57625 15.02 120.2775 18.25 121 C44.73754815 127.19965003 67.04644243 139.04071703 86.75 157.875 C87.348125 158.4215625 87.94625 158.968125 88.5625 159.53125 C103.41893163 173.56232431 116.93906511 194.65581365 120.75 214.875 C121.96469971 214.57207031 123.17939941 214.26914063 124.4309082 213.95703125 C128.98084437 212.82595503 133.53479768 211.71183694 138.09008789 210.60253906 C140.05312039 210.12205965 142.01506665 209.63711777 143.97583008 209.14746094 C146.81050286 208.44041606 149.64882285 207.75004059 152.48828125 207.0625 C153.35020584 206.84376221 154.21213043 206.62502441 155.10017395 206.3996582 C162.41437101 204.65646031 170.29363453 203.20853808 177.25 206.5625 C181.64443074 210.62734844 182.93657624 213.33889573 183.1875 219.3125 C183.01313741 224.30195251 182.39330252 227.23169748 178.75 230.875 C172.74331253 234.13272779 166.19770754 236.13990693 159.68359375 238.109375 C158.76409439 238.39226379 157.84459503 238.67515259 156.89723206 238.96661377 C153.99557347 239.85801623 151.09161348 240.74163231 148.1875 241.625 C146.20491995 242.23255701 144.22249648 242.8406252 142.24023438 243.44921875 C137.41194473 244.93039006 132.58157698 246.40458912 127.75 247.875 C127.73598145 248.86790039 127.73598145 248.86790039 127.72167969 249.88085938 C126.72754255 306.52718351 106.4151306 354.81114638 67.75 395.875 C67.09386719 396.58527344 66.43773437 397.29554688 65.76171875 398.02734375 C48.88185163 415.70240804 26.46758271 428.24182354 4.75 438.9375 C3.97301758 439.33203369 3.19603516 439.72656738 2.39550781 440.13305664 C-4.10335118 443.25181016 -8.80294712 443.96687729 -15.86328125 441.73046875 C-17.10469842 441.19336854 -18.33760175 440.6362748 -19.5625 440.0625 C-20.24054688 439.7540918 -20.91859375 439.44568359 -21.6171875 439.12792969 C-60.8380032 420.78098732 -96.00581575 390.63346122 -117.23242188 352.69140625 C-118.23682999 350.89850884 -119.26606038 349.12156029 -120.296875 347.34375 C-126.16754625 337.00571013 -130.34760355 326.08377954 -134.25 314.875 C-134.63115967 313.78880371 -134.63115967 313.78880371 -135.02001953 312.68066406 C-142.31326634 291.42432139 -143.90121244 269.19107619 -144.25 246.875 C-145.05020569 246.66614922 -145.05020569 246.66614922 -145.86657715 246.45307922 C-151.45187724 244.99248835 -157.03192224 243.51297453 -162.609375 242.02270508 C-164.6875303 241.47004888 -166.76694952 240.9221217 -168.84765625 240.37915039 C-171.84986004 239.59481027 -174.84700572 238.79319591 -177.84375 237.98828125 C-178.76490601 237.75160233 -179.68606201 237.5149234 -180.63513184 237.27107239 C-187.39687355 235.42859601 -193.72126408 233.0220948 -198.21484375 227.4296875 C-200.15672706 222.63726604 -200.08623387 217.93254246 -199.25 212.875 C-196.90680962 208.47677857 -193.7836324 205.84597947 -189.25 203.875 C-182.67599046 202.97923114 -176.31849683 204.50814198 -169.96484375 206.0625 C-168.55230064 206.39544067 -168.55230064 206.39544067 -167.11122131 206.73510742 C-164.13432677 207.43902804 -161.16096825 208.15675931 -158.1875 208.875 C-156.15711961 209.35769115 -154.12652236 209.83947103 -152.09570312 210.3203125 C-147.14456607 211.49468895 -142.19654936 212.68145411 -137.25 213.875 C-137.12919067 213.28055588 -137.00838135 212.68611176 -136.88391113 212.07365417 C-135.99860749 207.88069264 -135.11975366 203.98146837 -133.21875 200.11328125 C-132.62888306 198.91034424 -132.62888306 198.91034424 -132.02709961 197.68310547 C-131.60565674 196.85955566 -131.18421387 196.03600586 -130.75 195.1875 C-130.30857666 194.31754395 -129.86715332 193.44758789 -129.41235352 192.55126953 C-123.24824112 180.69510583 -115.48820065 170.53092798 -106.25 160.875 C-105.53972656 160.08996094 -104.82945312 159.30492187 -104.09765625 158.49609375 C-92.38463187 146.02222334 -77.84724162 136.71589545 -62.25 129.875 C-61.62528809 129.59575684 -61.00057617 129.31651367 -60.35693359 129.02880859 C-49.26933189 124.1269519 -37.46511975 119.875 -25.25 119.875 C-25.58 106.345 -25.91 92.815 -26.25 78.875 C-29.29798828 78.87089111 -32.34597656 78.86678223 -35.48632812 78.86254883 C-45.56867107 78.84533412 -55.65076099 78.80080343 -65.7329483 78.74290943 C-71.84447618 78.70865178 -77.95575438 78.68353127 -84.06738281 78.67944336 C-89.96797396 78.67515793 -95.86800201 78.6466737 -101.76841736 78.60156822 C-104.01696999 78.58860126 -106.26559003 78.58428267 -108.51417542 78.58884621 C-111.66957028 78.59375762 -114.82332289 78.5676337 -117.97851562 78.53442383 C-118.90352875 78.54304947 -119.82854187 78.55167511 -120.78158569 78.56056213 C-127.12251826 78.44904318 -131.31911868 76.90660545 -136.25 72.875 C-139.72174844 68.84329214 -140.3931846 64.08333991 -140.25 58.875 C-138.29496439 52.35821462 -134.84145897 48.60263931 -129.25 44.875 C-127.27226734 44.61328697 -127.27226734 44.61328697 -124.97895813 44.5965271 C-124.10817627 44.58536362 -123.23739441 44.57420013 -122.34022522 44.56269836 C-120.91171486 44.55945808 -120.91171486 44.55945808 -119.4543457 44.55615234 C-117.94676193 44.54108391 -117.94676193 44.54108391 -116.40872192 44.52571106 C-113.08108094 44.49477875 -109.75352078 44.47781592 -106.42578125 44.4609375 C-104.12077636 44.44223395 -101.81577838 44.42266115 -99.51078796 44.4022522 C-93.43960636 44.35083921 -87.36840253 44.31126253 -81.29711914 44.27410889 C-75.10362205 44.23412668 -68.91021812 44.18300799 -62.71679688 44.1328125 C-50.56126328 44.03594467 -38.40567718 43.95157465 -26.25 43.875 C-26.23541748 42.90675293 -26.22083496 41.93850586 -26.20581055 40.94091797 C-26.14758433 37.32873676 -26.07035464 33.71716317 -25.98754883 30.10546875 C-25.95441333 28.54599919 -25.9263463 26.98641298 -25.90356445 25.42675781 C-25.86980719 23.17723148 -25.81748496 20.92876313 -25.76171875 18.6796875 C-25.75532883 17.9888205 -25.7489389 17.29795349 -25.74235535 16.58615112 C-25.56138871 10.55003219 -23.78552258 6.65297351 -19.875 2.125 C-13.86632688 -3.02529124 -6.89063301 -3.99066456 0 0 Z M-84.72265625 187.56640625 C-92.21384551 196.39393116 -104.25 210.71679472 -104.25 222.875 C-98.05863035 224.44819238 -91.86542946 226.01400951 -85.67089844 227.57470703 C-83.56369806 228.10653663 -81.45692309 228.64005474 -79.35058594 229.17529297 C-76.32336855 229.94422331 -73.29467452 230.70707352 -70.265625 231.46875 C-69.32382385 231.70936157 -68.38202271 231.94997314 -67.41168213 232.19787598 C-66.53107117 232.41810425 -65.65046021 232.63833252 -64.74316406 232.86523438 C-63.97039124 233.06064819 -63.19761841 233.25606201 -62.40142822 233.45739746 C-59.96081193 234.00203225 -59.96081193 234.00203225 -56.25 233.875 C-54.4828425 232.33536349 -54.4828425 232.33536349 -52.9375 230.25 C-45.88587597 221.8206427 -38.07030692 217.51602203 -28.25 212.875 C-26.93 212.215 -25.61 211.555 -24.25 210.875 C-24.25 201.635 -24.25 192.395 -24.25 182.875 C-13.36 182.875 -2.47 182.875 8.75 182.875 C8.75 192.445 8.75 202.015 8.75 211.875 C12.71 213.525 16.67 215.175 20.75 216.875 C27.48013293 220.89887784 36.13590808 226.64681616 39.75 233.875 C45.9401508 233.31090033 51.67111486 232.28859982 57.65234375 230.625 C58.45611954 230.40682617 59.25989532 230.18865234 60.08802795 229.96386719 C61.76860871 229.50639434 63.44832865 229.04574807 65.12719727 228.58203125 C67.70338156 227.87061428 70.282055 227.16887683 72.86132812 226.46875 C74.50015109 226.02138646 76.13882847 225.57348915 77.77734375 225.125 C78.54811752 224.91456055 79.3188913 224.70412109 80.11302185 224.48730469 C84.02284145 223.43018752 84.02284145 223.43018752 87.75 221.875 C80.39368129 196.94525326 61.19631643 176.78847607 38.91015625 164.28125 C-3.54259136 141.9436969 -52.7658135 152.78241785 -84.72265625 187.56640625 Z M-27.25 250.875 C-32.84861974 258.79160031 -35.17500506 265.1559327 -34.25 274.875 C-32.13924945 282.52194769 -27.5064554 289.28811134 -20.5625 293.25 C-14.19570155 296.05673748 -7.26734859 296.75459407 -0.5625 294.8125 C7.30625104 291.68752195 13.29827804 286.67949585 16.75 278.875 C19.28927201 271.354381 19.14500485 264.93421566 15.7421875 257.74609375 C11.26137091 249.92692043 5.83133656 245.72508396 -2.8203125 243.3203125 C-11.38748899 241.7501226 -21.14426611 244.5458856 -27.25 250.875 Z M-110.25 254.875 C-110.42218561 266.84737113 -110.42218561 266.84737113 -109.125 278.5 C-108.99375732 279.23742432 -108.86251465 279.97484863 -108.72729492 280.73461914 C-103.24928506 309.72179114 -91.35114753 338.91263511 -71.25 360.875 C-70.51265625 361.71804688 -69.7753125 362.56109375 -69.015625 363.4296875 C-66.79647301 365.94727718 -64.53493191 368.41708909 -62.25 370.875 C-61.6003125 371.59042969 -60.950625 372.30585938 -60.28125 373.04296875 C-47.45715167 386.58225718 -31.59489386 396.18959056 -15.25 404.875 C-14.56848877 405.25769043 -13.88697754 405.64038086 -13.18481445 406.03466797 C-10.02629762 407.40648058 -7.54639766 406.60401102 -4.25 405.875 C34.24310961 390.599215 64.4288785 355.01719679 80.75 317.875 C88.81206458 298.25077722 92.63954374 278.0028914 93.75 256.875 C89.54846398 255.47448799 86.27684011 256.830606 82.14453125 257.96484375 C81.30532639 258.18821915 80.46612152 258.41159454 79.60148621 258.64173889 C76.919658 259.35750569 74.24112433 260.08484504 71.5625 260.8125 C69.74564762 261.29959309 67.92859252 261.78593072 66.11132812 262.27148438 C61.65515181 263.46390038 57.20189574 264.66670502 52.75 265.875 C52.26919404 268.87474538 51.79031318 271.87477769 51.3125 274.875 C51.11043945 276.13376953 51.11043945 276.13376953 50.90429688 277.41796875 C50.63817914 279.09256326 50.37727525 280.76799495 50.12168884 282.44422913 C49.87952758 284.02791547 49.62551378 285.609849 49.35792542 287.18943787 C49.06552829 289.07286634 48.89774384 290.97474458 48.75 292.875 C50.70812193 295.74232095 50.70812193 295.74232095 53.6875 297.9375 C54.69296875 298.77152344 55.6984375 299.60554688 56.734375 300.46484375 C57.72953125 301.26019531 58.7246875 302.05554688 59.75 302.875 C61.31939336 304.24212682 62.88295749 305.61600982 64.4375 307 C65.54067493 307.95947479 66.64441431 308.91830408 67.75 309.875 C64.86822447 313.76929126 61.95656486 317.62904235 58.9375 321.41796875 C58.44419189 322.03849121 57.95088379 322.65901367 57.44262695 323.29833984 C56.44732034 324.54759898 55.44850973 325.79407526 54.44604492 327.03759766 C52.37810631 329.63628439 50.809079 331.69776301 49.75 334.875 C45.30532057 333.42618184 42.16009767 330.96455683 38.6875 327.9375 C36.71315281 326.24414605 34.73315676 324.55809177 32.75 322.875 C32.07066406 322.25496094 31.39132812 321.63492188 30.69140625 320.99609375 C28.78043042 319.65266639 28.78043042 319.65266639 26.3828125 320.03125 C23.3814025 320.9931262 20.51960887 322.12719868 17.625 323.375 C14.67577341 324.64000492 11.79482696 325.86005768 8.75 326.875 C7.65148849 333.04223389 7.63503297 339.06056606 7.6875 345.3125 C7.708125 348.798125 7.72875 352.28375 7.75 355.875 C-2.48 355.875 -12.71 355.875 -23.25 355.875 C-23.58 346.635 -23.91 337.395 -24.25 327.875 C-26.786875 326.534375 -29.32375 325.19375 -31.9375 323.8125 C-33.12218872 323.17235962 -33.12218872 323.17235962 -34.33081055 322.51928711 C-34.96801025 322.1919458 -35.60520996 321.86460449 -36.26171875 321.52734375 C-36.90584717 321.18695068 -37.54997559 320.84655762 -38.21362305 320.49584961 C-40.94199693 319.66402431 -42.54470565 320.01786391 -45.25 320.875 C-47.2720971 322.16789397 -47.2720971 322.16789397 -49.09765625 323.8515625 C-50.12922852 324.73328125 -50.12922852 324.73328125 -51.18164062 325.6328125 C-52.60829775 326.88293551 -54.03276267 328.13556451 -55.45507812 329.390625 C-56.4847168 330.26847656 -56.4847168 330.26847656 -57.53515625 331.1640625 C-58.15269775 331.70756348 -58.77023926 332.25106445 -59.40649414 332.81103516 C-61.25 333.875 -61.25 333.875 -63.30908203 333.72216797 C-66.70881589 332.23825898 -68.76045572 329.18465593 -71.0625 326.375 C-71.85382324 325.43019775 -71.85382324 325.43019775 -72.66113281 324.46630859 C-76.63851574 319.6927175 -80.517495 314.84291158 -84.25 309.875 C-83.10091127 308.72591127 -81.95148955 307.57715437 -80.80078125 306.4296875 C-79.7304957 305.35670602 -78.66571044 304.27821968 -77.60546875 303.1953125 C-73.65911896 299.18660503 -69.56460485 295.48517957 -65.25 291.875 C-65.53875 290.76125 -65.8275 289.6475 -66.125 288.5 C-67.68286706 280.71066468 -68.37277673 272.77000942 -69.25 264.875 C-82.78 261.575 -96.31 258.275 -110.25 254.875 Z " fill="#FFFFFF" transform="translate(264.25,2.125)"/>
<path d="M0 0 C0.95489319 -0.00960754 1.90978638 -0.01921509 2.89361572 -0.02911377 C3.91968933 -0.03336365 4.94576294 -0.03761353 6.00292969 -0.04199219 C7.59738922 -0.0505423 7.59738922 -0.0505423 9.22406006 -0.05926514 C11.47341926 -0.06870739 13.72279225 -0.07524604 15.97216797 -0.07910156 C19.39803485 -0.08879147 22.82329769 -0.1198164 26.24902344 -0.15136719 C28.43782197 -0.15789924 30.62662478 -0.16314892 32.81542969 -0.16699219 C34.34239471 -0.18551239 34.34239471 -0.18551239 35.90020752 -0.20440674 C43.26408609 -0.18156469 48.95509226 0.7284612 54.98730469 5.28613281 C58.30208123 9.64269627 60.29583336 13.96702818 60.08496094 19.53222656 C59.11589588 25.00513685 57.22635975 28.37968142 53.17480469 32.16113281 C47.73706142 35.02285718 43.48192048 35.57594687 37.39746094 35.45410156 C36.58611191 35.44985672 35.77476288 35.44561188 34.93882751 35.4412384 C32.37130212 35.42457149 29.80458905 35.3869433 27.23730469 35.34863281 C25.48666506 35.33357041 23.73601301 35.31988474 21.98535156 35.30761719 C17.71486077 35.27470749 13.44497 35.22301007 9.17480469 35.16113281 C9.00392334 35.86061035 8.83304199 36.56008789 8.65698242 37.28076172 C6.65160043 45.40472047 4.49458611 53.47871302 2.23730469 61.53613281 C1.90279297 62.7671875 1.56828125 63.99824219 1.22363281 65.26660156 C-1.14071585 73.67621163 -3.20264373 80.19761085 -10.82519531 85.16113281 C-16.97225425 87.44323796 -22.72018847 87.42130336 -29.22753906 87.35644531 C-30.30524063 87.35361542 -31.3829422 87.35078552 -32.49330139 87.34786987 C-35.9165483 87.33672474 -39.33952822 87.31163037 -42.76269531 87.28613281 C-45.09146756 87.2760957 -47.42024393 87.26697113 -49.74902344 87.25878906 C-55.44117096 87.23680397 -61.13316406 87.20338294 -66.82519531 87.16113281 C-66.94285504 91.43172843 -67.01293162 95.70189878 -67.07519531 99.97363281 C-67.10871094 101.16923828 -67.14222656 102.36484375 -67.17675781 103.59667969 C-67.31605718 116.37739691 -63.39900615 127.51749409 -55.00097656 137.28222656 C-47.34547196 144.76274821 -37.26926959 148.72685223 -27.63378906 153.04394531 C-26.96234863 153.3480835 -26.2909082 153.65222168 -25.59912109 153.96557617 C-23.74955452 154.7982725 -21.89113183 155.61121687 -20.03222656 156.42285156 C-14.08407479 159.64688023 -10.78632448 163.72259489 -8.82519531 170.16113281 C-7.91585369 173.88742547 -7.22558712 177.63196222 -6.57519531 181.41113281 C-6.38957031 182.384375 -6.20394531 183.35761719 -6.01269531 184.36035156 C-4.7383768 191.62975945 -3.34558551 199.63234918 -7.04174805 206.38305664 C-11.71418033 212.28869884 -18.09217422 215.6106939 -24.63769531 219.09863281 C-26.21067383 219.96198242 -26.21067383 219.96198242 -27.81542969 220.84277344 C-31.13088037 222.65761394 -34.44432511 224.47069771 -37.82519531 226.16113281 C-36.38867426 231.07554693 -34.28359917 235.1635164 -31.70019531 239.53613281 C-31.32765625 240.17679688 -30.95511719 240.81746094 -30.57128906 241.47753906 C-29.6608553 243.04161758 -28.7437134 244.60178815 -27.82519531 246.16113281 C-23.06210532 245.64572382 -19.37536349 244.68338285 -15.07519531 242.59863281 C-8.00802111 239.54327555 -1.78410378 238.76818354 5.54980469 241.34863281 C11.38048317 245.37457748 14.43062263 250.02190666 17.61230469 256.16113281 C25.64403221 271.10110677 35.03017675 285.35830763 46.17480469 298.16113281 C47.09639809 299.2737965 48.0155123 300.38851661 48.93261719 301.50488281 C55.29199756 309.18475 62.02388554 316.12226404 69.51708984 322.69775391 C71.16473821 324.15224644 72.78561925 325.63262448 74.40527344 327.11816406 C92.73377151 343.67083432 130.35667586 371.81960476 155.93115234 371.42919922 C160.08352532 370.93308327 163.62472702 369.14395621 167.36230469 367.34863281 C168.22380127 366.94628418 169.08529785 366.54393555 169.97290039 366.12939453 C172.71961968 364.83136057 175.4493008 363.50310521 178.17480469 362.16113281 C179.06554687 361.72269043 179.95628906 361.28424805 180.87402344 360.83251953 C197.68232866 352.46824063 213.45335167 342.84578336 228.17480469 331.16113281 C229.13902344 330.401875 230.10324219 329.64261719 231.09667969 328.86035156 C245.31876783 317.25527202 259.2977251 303.99143671 270.17480469 289.16113281 C270.89152344 288.21109375 271.60824219 287.26105469 272.34667969 286.28222656 C279.46737112 276.47286026 284.98115318 265.79050307 290.27026367 254.90698242 C290.61516846 254.19936768 290.96007324 253.49175293 291.31542969 252.76269531 C291.76644043 251.82224365 291.76644043 251.82224365 292.2265625 250.86279297 C295.01245634 245.86339028 299.74349805 242.41927858 305.04980469 240.47363281 C312.71710394 239.3460888 318.83037237 241.31970454 326.11230469 243.66113281 C327.17771484 243.995 328.243125 244.32886719 329.34082031 244.67285156 C331.95507294 245.49346898 334.56609778 246.32308612 337.17480469 247.16113281 C337.41972656 246.33355469 337.66464844 245.50597656 337.91699219 244.65332031 C339.36673958 240.62824526 341.24710979 237.02885567 343.29980469 233.28613281 C343.67234375 232.59777344 344.04488281 231.90941406 344.42871094 231.20019531 C345.33979994 229.51818484 346.25670784 227.83932845 347.17480469 226.16113281 C346.4495459 225.88350098 345.72428711 225.60586914 344.97705078 225.31982422 C340.3867175 223.42178259 336.12963243 220.95963362 331.79980469 218.53613281 C330.87941406 218.03984375 329.95902344 217.54355469 329.01074219 217.03222656 C322.26671544 213.24593726 315.71719437 208.78830185 313.17480469 201.16113281 C312.12853808 193.08993326 313.69150571 185.29868156 315.29980469 177.41113281 C315.48752441 176.42918945 315.67524414 175.44724609 315.86865234 174.43554688 C317.48735592 166.98421148 320.17206657 161.12663966 326.42089844 156.49707031 C327.1440625 156.17996094 327.86722656 155.86285156 328.61230469 155.53613281 C329.47082031 155.14683594 330.32933594 154.75753906 331.21386719 154.35644531 C333.98396726 153.23817272 336.77434462 152.18699593 339.5715332 151.13891602 C355.7812018 144.98101846 366.01755044 135.92338776 373.91308594 120.34863281 C376.91161805 112.77339378 377.52983054 105.18098395 377.79980469 97.09863281 C377.83847656 96.13763672 377.87714844 95.17664063 377.91699219 94.18652344 C378.01019094 91.84490467 378.09599654 89.50327244 378.17480469 87.16113281 C377.45119247 87.15970779 376.72758026 87.15828278 375.98204041 87.15681458 C369.1409325 87.13893691 362.30033523 87.09718272 355.45955563 87.02904224 C351.94308491 86.99484546 348.42704521 86.96967387 344.91040039 86.96557617 C340.86129799 86.96045341 336.81348169 86.91527143 332.76464844 86.86816406 C330.88301247 86.87406303 330.88301247 86.87406303 328.96336365 86.88008118 C321.71642284 86.75951466 317.44776415 86.31851803 312.17480469 81.16113281 C310.78100586 79.06323242 310.78100586 79.06323242 310.03027344 76.87597656 C309.72782715 76.0069873 309.42538086 75.13799805 309.11376953 74.24267578 C307.1387963 67.76110738 305.27557214 61.25861755 303.48730469 54.72363281 C302.88368881 52.53880839 302.27849652 50.35442618 301.67289734 48.17015076 C301.1296819 46.20765517 300.59024628 44.24411448 300.05102539 42.28051758 C299.47406003 40.22649516 298.84948217 38.18516527 298.17480469 36.16113281 C296.54067627 36.13925903 296.54067627 36.13925903 294.87353516 36.11694336 C290.81412683 36.05877209 286.75526231 35.98154099 282.69628906 35.89868164 C280.94279842 35.86552061 279.18920331 35.83746139 277.43554688 35.81469727 C274.9080777 35.78098811 272.38155831 35.72866589 269.85449219 35.67285156 C269.07613007 35.66646164 268.29776794 35.66007172 267.49581909 35.65348816 C261.85896571 35.50277282 257.55526507 34.40185968 253.31152344 30.40722656 C252.83328125 29.81039062 252.35503906 29.21355469 251.86230469 28.59863281 C251.37117188 27.99921875 250.88003906 27.39980469 250.37402344 26.78222656 C247.28709132 22.60933787 247.75831038 18.1667774 248.17480469 13.16113281 C250.10202386 7.48654303 253.81582211 3.8406241 259.17480469 1.16113281 C260.95511085 1.04998684 262.73950981 1.00192029 264.52319336 0.98413086 C266.2008503 0.96487801 266.2008503 0.96487801 267.91239929 0.94523621 C269.12692276 0.93784927 270.34144623 0.93046234 271.59277344 0.92285156 C272.83851639 0.91477982 274.08425934 0.90670807 275.36775208 0.89839172 C278.00993579 0.88453883 280.65199424 0.87352677 283.29418945 0.8659668 C285.99754468 0.8571201 288.70038366 0.83628111 291.40356445 0.80444336 C295.30012551 0.76178637 299.1960079 0.74559766 303.09277344 0.73535156 C304.29717575 0.71784348 305.50157806 0.70033539 306.74247742 0.68229675 C314.49772915 0.70230075 319.17417342 1.35082229 324.92993164 6.83276367 C326.89826284 10.51426488 327.95194018 14.41166858 329.09277344 18.41503906 C329.35488113 19.31230209 329.61698883 20.20956512 329.88703918 21.13401794 C330.43804303 23.02658295 330.98496751 24.92033977 331.52807617 26.81518555 C332.36102684 29.71917772 333.20726047 32.61904388 334.05566406 35.51855469 C334.58965233 37.35882184 335.12288158 39.19930944 335.65527344 41.04003906 C335.90834763 41.90883194 336.16142181 42.77762482 336.42216492 43.67274475 C336.65273087 44.48045822 336.88329681 45.28817169 337.12084961 46.12036133 C337.32497971 46.82999527 337.5291098 47.53962921 337.73942566 48.27076721 C338.17480469 50.16113281 338.17480469 50.16113281 338.17480469 53.16113281 C339.26022301 53.15114006 339.26022301 53.15114006 340.36756897 53.14094543 C347.20834465 53.08067414 354.0490803 53.03507725 360.89005375 53.0056963 C364.40655466 52.99008303 367.92283499 52.96892517 371.43920898 52.93481445 C375.48781373 52.89578947 379.53618908 52.88138781 383.58496094 52.86816406 C384.83938492 52.85268021 386.0938089 52.83719635 387.38624573 52.82124329 C395.669336 52.81965364 401.35876316 53.16271293 407.57348633 59.06933594 C411.4920109 64.05413733 410.94366015 69.55087971 410.79589844 75.62988281 C410.78978043 76.82415894 410.78366241 78.01843506 410.77735901 79.24890137 C410.75049293 83.05384715 410.68140097 86.85674449 410.61230469 90.66113281 C410.59077006 93.2197056 410.57186195 95.77830193 410.55566406 98.33691406 C410.32712574 123.87896651 405.35875378 143.35823884 387.17480469 162.16113281 C386.37171875 162.99386719 385.56863281 163.82660156 384.74121094 164.68457031 C375.34469797 173.72620677 363.49007127 179.15717651 351.84277344 184.71582031 C349.07328377 185.88632156 349.07328377 185.88632156 348.17480469 188.16113281 C348.90602539 188.43731445 349.63724609 188.71349609 350.390625 188.99804688 C352.99930827 190.08781951 355.30275936 191.31460916 357.72167969 192.77050781 C358.99011719 193.53234375 358.99011719 193.53234375 360.28417969 194.30957031 C361.15558594 194.83808594 362.02699219 195.36660156 362.92480469 195.91113281 C364.20871094 196.68070312 364.20871094 196.68070312 365.51855469 197.46582031 C384.82352861 209.10730459 384.82352861 209.10730459 387.17480469 216.16113281 C389.75135743 233.05186745 371.58352135 254.36368657 363.17480469 268.16113281 C362.24498779 269.7106665 362.24498779 269.7106665 361.29638672 271.29150391 C360.70067871 272.26297363 360.1049707 273.23444336 359.49121094 274.23535156 C358.97115479 275.09088623 358.45109863 275.9464209 357.9152832 276.82788086 C355.52190237 280.03640108 352.75794814 282.36956109 349.17480469 284.16113281 C337.91900018 285.63938106 326.94503233 282.00655552 316.17480469 279.16113281 C315.94792969 279.99515625 315.72105469 280.82917969 315.48730469 281.68847656 C313.91238103 285.85546208 311.73709723 289.10695139 309.17480469 292.72363281 C308.68423584 293.42472168 308.19366699 294.12581055 307.68823242 294.84814453 C303.0437912 301.43779581 298.23742986 307.88654585 293.17480469 314.16113281 C292.74683594 314.69351562 292.31886719 315.22589844 291.87792969 315.77441406 C279.85436224 330.59169277 266.28445739 344.49446338 251.17480469 356.16113281 C250.09733834 357.05828847 249.02334342 357.95962346 247.95214844 358.86425781 C237.38057533 367.71138992 225.97632268 375.06340775 214.17480469 382.16113281 C213.35383301 382.65500488 212.53286133 383.14887695 211.68701172 383.65771484 C201.33295439 389.79887362 190.5978163 394.91154409 179.54980469 399.66113281 C178.37595215 400.16596191 177.20209961 400.67079102 175.99267578 401.19091797 C154.65603691 410.16979484 154.65603691 410.16979484 141.71386719 405.19238281 C139.73672506 404.36228624 137.76554074 403.51789011 135.79980469 402.66113281 C134.74978271 402.21189453 133.69976074 401.76265625 132.61791992 401.29980469 C129.46167387 399.93882163 126.31630435 398.55578281 123.17480469 397.16113281 C122.28776855 396.76796875 121.40073242 396.37480469 120.48681641 395.96972656 C97.94763148 385.87611069 77.39053045 372.63438133 58.17480469 357.16113281 C57.65837402 356.74911621 57.14194336 356.33709961 56.60986328 355.91259766 C48.20848609 349.15254052 40.50344249 341.69569853 32.86230469 334.09863281 C31.94328369 333.18887695 31.0242627 332.27912109 30.07739258 331.34179688 C24.01954433 325.2560474 18.48427794 318.90700414 13.17480469 312.16113281 C12.63073975 311.47639893 12.0866748 310.79166504 11.52612305 310.08618164 C3.54824512 299.94638501 -3.29039764 289.27543436 -9.82519531 278.16113281 C-16.14692369 278.86265114 -21.44047638 280.78411743 -27.32519531 283.10253906 C-32.30013556 284.60723639 -37.05135912 285.03853183 -41.82519531 282.72363281 C-50.27493663 277.892425 -54.91584554 267.97700285 -59.57519531 259.78613281 C-60.47274536 258.2263269 -60.47274536 258.2263269 -61.38842773 256.63500977 C-62.61054702 254.51086165 -63.83020993 252.38529831 -65.04736328 250.25830078 C-66.73207862 247.32335176 -68.43270933 244.39846273 -70.14160156 241.47753906 C-70.9029541 240.17405518 -70.9029541 240.17405518 -71.6796875 238.84423828 C-72.63084307 237.21618868 -73.5832586 235.58887433 -74.53710938 233.96240234 C-75.16891113 232.87548096 -75.16891113 232.87548096 -75.81347656 231.76660156 C-76.17997314 231.13906982 -76.54646973 230.51153809 -76.92407227 229.86499023 C-79.42191589 225.14202881 -79.62724211 220.19621637 -78.28222656 215.10644531 C-74.19305032 205.23866789 -62.49581049 200.67906203 -53.71508789 195.62451172 C-50.85326334 193.97485813 -48.12021209 192.38959698 -45.50488281 190.36425781 C-43.82519531 189.16113281 -43.82519531 189.16113281 -40.82519531 189.16113281 C-41.85873547 185.75874879 -42.97958447 185.07272816 -46.13378906 183.26660156 C-47.50562341 182.61774739 -48.88224227 181.97894274 -50.26269531 181.34863281 C-68.92400735 172.37364826 -84.34580626 160.14936988 -94.07519531 141.53613281 C-94.39262695 140.94614502 -94.71005859 140.35615723 -95.03710938 139.74829102 C-102.28452146 125.1067658 -102.435464 109.99562739 -102.29174805 94.01196289 C-102.26243627 90.44208366 -102.2712495 86.87366246 -102.28417969 83.30371094 C-102.27795101 81.02310478 -102.26956692 78.74250326 -102.25878906 76.46191406 C-102.2617247 75.40047684 -102.26466034 74.33903961 -102.26768494 73.24543762 C-102.18639935 66.90713049 -101.639312 63.11236424 -97.14160156 58.39550781 C-96.27341797 57.66074219 -96.27341797 57.66074219 -95.38769531 56.91113281 C-94.81148438 56.41097656 -94.23527344 55.91082031 -93.64160156 55.39550781 C-90.07470021 52.97154904 -86.354223 53.02109563 -82.13867188 52.95581055 C-80.99779114 52.93586533 -79.8569104 52.9159201 -78.68145752 52.89537048 C-77.45529724 52.87865799 -76.22913696 52.8619455 -74.96582031 52.84472656 C-73.70630554 52.82394547 -72.44679077 52.80316437 -71.14910889 52.78175354 C-67.8086066 52.7274698 -64.46809309 52.67721212 -61.12750244 52.62890625 C-57.71548139 52.57857577 -54.30354708 52.52295012 -50.89160156 52.46777344 C-44.20286867 52.36068168 -37.51407068 52.25889741 -30.82519531 52.16113281 C-30.45233398 50.92024902 -30.07947266 49.67936523 -29.6953125 48.40087891 C-28.30383486 43.77963447 -26.89923568 39.16246461 -25.49072266 34.54638672 C-24.88396694 32.55137392 -24.28073237 30.55528657 -23.68115234 28.55810547 C-22.81662981 25.68066479 -21.93934365 22.80737949 -21.05957031 19.93457031 C-20.79585632 19.04683929 -20.53214233 18.15910828 -20.26043701 17.24447632 C-18.41160073 11.26759413 -16.56068449 6.14436246 -11.32519531 2.34863281 C-7.49417751 0.52889935 -4.22488441 0.03444613 0 0 Z " fill="#FFFFFF" transform="translate(101.8251953125,103.8388671875)"/>
</svg>
