<?xml version="1.0" encoding="UTF-8"?>
<svg version="1.1" xmlns="http://www.w3.org/2000/svg" width="512" height="512">
<path d="M0 0 C0.91768158 -0.01022186 1.83536316 -0.02044373 2.78085327 -0.03097534 C5.80932827 -0.0587379 8.83689153 -0.05685665 11.86547852 -0.05224609 C13.97388547 -0.06002143 16.08228931 -0.06869107 18.19068909 -0.07821655 C22.60818643 -0.09313438 27.02536407 -0.09256336 31.44287109 -0.08203125 C37.10034646 -0.07043973 42.75651273 -0.10430907 48.41377163 -0.1507206 C52.76759983 -0.18020238 57.12111294 -0.18193795 61.47502327 -0.17570114 C63.56061459 -0.17672715 65.64622364 -0.18719516 67.73171806 -0.20732498 C70.65013267 -0.23203836 73.56600033 -0.21848765 76.484375 -0.1953125 C77.34326828 -0.21059998 78.20216156 -0.22588745 79.08708191 -0.24163818 C83.53841526 -0.16361635 86.05735436 0.27712845 89.32069397 3.43423462 C91.76645332 6.49865769 92.72125086 8.1378044 93.43188477 11.92431641 C93.6471582 13.03548828 93.86243164 14.14666016 94.08422852 15.29150391 C94.32661138 16.71051977 94.56728197 18.12982848 94.80688477 19.54931641 C95.16227605 21.55193432 95.51775168 23.55453727 95.87329102 25.55712891 C96.60942913 29.79168189 97.33905778 34.02709731 98.03735352 38.26806641 C98.26007935 39.61288086 98.26007935 39.61288086 98.48730469 40.98486328 C98.8051722 43.53557405 98.86379198 45.98184781 98.80688477 48.54931641 C99.35691162 48.68684326 99.90693848 48.82437012 100.47363281 48.96606445 C105.86384457 50.43810991 110.8957525 52.38934665 115.95141602 54.75634766 C116.88581009 55.19199539 116.88581009 55.19199539 117.83908081 55.63644409 C120.42816001 56.84931142 123.01317442 58.06972026 125.58886719 59.31079102 C127.49435671 60.22516942 129.40910323 61.11708766 131.32641602 62.00634766 C133.01408081 62.81036011 133.01408081 62.81036011 134.73583984 63.63061523 C137.7249874 64.80834032 137.7249874 64.80834032 140.46166992 63.89208984 C142.73670882 62.58949626 144.76058774 61.24031511 146.81079102 59.60791016 C147.54579834 59.02807373 148.28080566 58.4482373 149.03808594 57.85083008 C149.80741455 57.23570557 150.57674316 56.62058105 151.36938477 55.98681641 C152.98107613 54.72082493 154.59305592 53.45520055 156.20532227 52.18994141 C158.37664031 50.47607147 160.54515989 48.75939747 162.70239258 47.02783203 C164.29087013 45.75304925 165.89215094 44.49426574 167.49438477 43.23681641 C168.36450195 42.53943359 169.23461914 41.84205078 170.13110352 41.12353516 C174.66324845 38.45717836 178.18502604 38.18742439 183.28735352 39.32592773 C190.01074195 41.99854758 194.8297737 47.96316337 199.78735352 53.04150391 C200.9286917 54.1921856 202.07115228 55.34175501 203.2146759 56.49026489 C206.21100434 59.50559904 209.19202448 62.53562855 212.16998291 65.5690918 C215.19548044 68.64570425 218.23512392 71.70826782 221.27368164 74.77197266 C226.62222996 80.16824728 231.95825889 85.57662979 237.2853241 90.99411011 C239.01485713 92.7467206 240.75185013 94.4919914 242.49507141 96.23098755 C244.76222616 98.50453194 246.92299413 100.83822559 249.05688477 103.23681641 C250.08555664 104.38730469 250.08555664 104.38730469 251.13500977 105.56103516 C253.71048761 108.62392821 254.06108454 110.66252972 254.24438477 114.61181641 C254.3049707 115.51029297 254.36555664 116.40876953 254.42797852 117.33447266 C253.48405951 122.22029243 250.70930476 125.58187077 247.80688477 129.54931641 C247.26845947 130.30639893 246.73003418 131.06348145 246.17529297 131.84350586 C244.54519388 134.13055083 242.8975456 136.40389765 241.24438477 138.67431641 C239.60721368 140.92997435 237.97037528 143.18532852 236.34936523 145.45263672 C235.34665175 146.81561605 234.30507495 148.15111727 233.22143555 149.45068359 C231.56904149 151.40094431 231.56904149 151.40094431 229.80688477 154.54931641 C230.49948388 157.50243359 230.49948388 157.50243359 231.80688477 160.54931641 C232.16379395 161.44875977 232.52070313 162.34820312 232.88842773 163.27490234 C233.27144043 164.18530273 233.65445312 165.09570312 234.04907227 166.03369141 C234.47575195 167.05205078 234.90243164 168.07041016 235.34204102 169.11962891 C236.00526367 170.69357422 236.00526367 170.69357422 236.68188477 172.29931641 C237.55498716 174.37714465 238.42739042 176.45526682 239.29907227 178.53369141 C239.96447021 180.04467407 239.96447021 180.04467407 240.64331055 181.58618164 C241.80688477 184.54931641 241.80688477 184.54931641 242.37280273 187.4050293 C243.08121931 190.5192651 243.64648894 192.17089377 245.80688477 194.54931641 C251.78377894 196.79788407 257.87962187 197.61927683 264.18188477 198.48681641 C266.73441505 198.87678631 269.28443384 199.27950477 271.83364868 199.69056702 C273.41628367 199.94159452 275.0012578 200.17842948 276.58847046 200.39866638 C283.32662794 201.39578383 288.31660783 203.2192969 292.74742126 208.72210789 C294.73544747 212.15076627 294.50974118 215.69105638 294.46972656 219.56469727 C294.4852784 220.89513817 294.4852784 220.89513817 294.50114441 222.25245667 C294.52816568 225.17350027 294.51856291 228.09303722 294.50610352 231.01416016 C294.51201449 233.05148231 294.51926207 235.08880099 294.52778625 237.12611389 C294.53965852 241.39228435 294.53297241 245.65793283 294.51367188 249.92407227 C294.49079432 255.38306466 294.5175568 260.84049958 294.55873394 266.29933834 C294.58434729 270.50568666 294.58172225 274.71166413 294.57084084 278.91806221 C294.56935682 280.93024674 294.57701315 282.94246007 294.59409142 284.95457268 C294.61412401 287.77218051 294.59562262 290.58705767 294.56738281 293.40454102 C294.58795746 294.64305313 294.58795746 294.64305313 294.60894775 295.90658569 C294.49921541 301.4028801 293.09710668 304.22778787 289.32539272 308.22333336 C287.33402304 309.96222609 285.70467605 310.68521289 283.11157227 311.18603516 C282.24024658 311.36730957 281.3689209 311.54858398 280.47119141 311.73535156 C279.55072021 311.90083496 278.63024902 312.06631836 277.68188477 312.23681641 C276.72209717 312.4435498 275.76230957 312.6502832 274.7734375 312.86328125 C269.90675319 313.88856026 265.11845341 314.65777348 260.16235352 315.07666016 C252.6790293 315.75183981 252.6790293 315.75183981 245.80688477 318.54931641 C242.06645891 323.26082683 240.96462741 329.28973721 239.54614258 335.01318359 C238.35962753 339.08369823 236.43534355 342.70360724 234.43188477 346.42431641 C231.26401914 352.19447512 231.26401914 352.19447512 229.80688477 358.54931641 C230.80412586 360.68209385 230.80412586 360.68209385 232.49047852 362.58837891 C233.38222778 363.69886597 233.38222778 363.69886597 234.29199219 364.83178711 C234.93628174 365.60482178 235.58057129 366.37785645 236.24438477 367.17431641 C237.54245642 368.78402924 238.83933624 370.39470392 240.13500977 372.00634766 C240.76729492 372.78445801 241.39958008 373.56256836 242.05102539 374.36425781 C244.28318995 377.1420488 246.40123028 379.97782723 248.49438477 382.86181641 C249.07575195 383.66232422 249.65711914 384.46283203 250.25610352 385.28759766 C255.23658778 392.5513266 255.23658778 392.5513266 255.24438477 397.48681641 C255.27338867 398.70691406 255.27338867 398.70691406 255.30297852 399.95166016 C254.12200124 406.13551752 249.03969834 410.60653692 244.72485352 414.89013672 C243.82653305 415.79371414 243.82653305 415.79371414 242.9100647 416.71554565 C240.94314812 418.6912143 238.9690666 420.65953642 236.99438477 422.62744141 C235.61933643 424.00383791 234.24458502 425.38053112 232.87011719 426.75750732 C229.99518302 429.63538361 227.11667867 432.50962743 224.2355957 435.38134766 C220.54332357 439.06220438 216.86013151 442.75199589 213.17955017 446.44453812 C210.34532425 449.28598889 207.5063548 452.12266163 204.66592407 454.95790863 C203.30568634 456.31681272 201.94693131 457.67720264 200.58969116 459.03910065 C198.69422962 460.93963992 196.79247743 462.83365241 194.88891602 464.72607422 C194.32983551 465.28920319 193.770755 465.85233215 193.19473267 466.43252563 C188.58985967 470.98759026 185.59172382 472.84626263 179.11938477 473.04931641 C177.65952148 473.12666016 177.65952148 473.12666016 176.17016602 473.20556641 C167.96742029 471.60503066 160.9887846 464.4935256 154.55688477 459.42431641 C153.78086914 458.81716797 153.00485352 458.21001953 152.20532227 457.58447266 C151.44993164 456.99279297 150.69454102 456.40111328 149.91625977 455.79150391 C148.84021484 454.95377441 148.84021484 454.95377441 147.74243164 454.09912109 C146.13537593 452.81234137 144.59408588 451.44393685 143.07250977 450.05712891 C140.93632065 448.32905526 140.93632065 448.32905526 138.47094727 448.57275391 C134.138336 450.16095452 130.0499504 452.20080872 125.96362305 454.33032227 C121.82818579 456.40502496 118.33139719 457.75562248 113.71313477 458.26416016 C108.04163687 459.09013827 103.53202074 459.89908912 99.80688477 464.54931641 C95.61638149 474.60237786 94.75991898 486.46690671 93.72915649 497.21583557 C93.12805888 502.95340183 91.87209387 506.41897912 87.76695251 510.65357971 C83.68433849 513.26823649 80.45888836 513.11919018 75.70556641 513.08276367 C74.7976384 513.09137924 73.88971039 513.09999481 72.95426941 513.10887146 C69.95823515 513.13154162 66.96313551 513.12479033 63.96704102 513.11572266 C61.88105491 513.12095796 59.79507118 513.1272341 57.70909119 513.13450623 C53.33866227 513.14491254 48.96855889 513.1403458 44.59814453 513.12573242 C39.0013313 513.108549 33.40554509 513.13203369 27.80884647 513.16722202 C23.50135004 513.18919815 19.19409924 513.18775389 14.88656425 513.17945671 C12.82331656 513.17863723 10.76005083 513.18550007 8.69685555 513.20022774 C5.80979704 513.21767624 2.92458247 513.20312818 0.03759766 513.18041992 C-0.81194489 513.19211212 -1.66148743 513.20380432 -2.53677368 513.21585083 C-6.71278322 513.1491258 -9.37957061 512.82237195 -12.68795776 510.15237427 C-17.3318472 505.32700379 -17.55319117 500.47657735 -18.18139648 494.02978516 C-19.38465905 477.02905151 -19.38465905 477.02905151 -26.30297852 462.11523438 C-31.26986085 458.90031054 -36.68671324 457.98163066 -42.46166992 457.10986328 C-46.93010927 456.1928507 -50.70519418 454.0734266 -54.69311523 451.92431641 C-59.3833759 449.23202094 -59.3833759 449.23202094 -64.62280273 448.95556641 C-68.48981126 451.35334677 -72.16029383 453.97012904 -75.81811523 456.67431641 C-76.61483643 457.25600586 -77.41155762 457.83769531 -78.23242188 458.43701172 C-81.73491839 460.99602346 -85.22466643 463.57213666 -88.71264648 466.15087891 C-89.67557617 466.85986328 -90.63850586 467.56884766 -91.63061523 468.29931641 C-92.45432617 468.91291016 -93.27803711 469.52650391 -94.12670898 470.15869141 C-98.2210736 472.91406721 -102.4090641 473.03412465 -107.19311523 472.54931641 C-114.8701779 469.83035671 -120.55970227 463.19129539 -126.19311523 457.54931641 C-127.9313126 455.82502159 -129.67055018 454.10177496 -131.41064453 452.37939453 C-136.42983598 447.40907042 -141.44151316 442.43124281 -146.44887066 437.4489975 C-149.47109925 434.44247196 -152.49609371 431.43883807 -155.52734375 428.44140625 C-158.47041193 425.53094814 -161.40607652 422.61320797 -164.33677101 419.69029236 C-165.45169267 418.58090166 -166.5692459 417.47414902 -167.68948936 416.37013245 C-169.25466004 414.82676465 -170.8101631 413.27423458 -172.36376953 411.71923828 C-173.25025681 410.83941284 -174.13674408 409.9595874 -175.0500946 409.05310059 C-178.79924066 404.67281024 -179.72683003 400.50850332 -179.58129883 394.87353516 C-178.88298477 390.69243465 -176.56394004 387.83277024 -174.00561523 384.54931641 C-173.47621338 383.83163086 -172.94681152 383.11394531 -172.40136719 382.37451172 C-169.50093351 378.46993493 -166.4914925 374.6546713 -163.46655273 370.84619141 C-162.56779419 369.7034375 -162.56779419 369.7034375 -161.65087891 368.53759766 C-160.48962794 367.06933827 -159.31308265 365.61301989 -158.12011719 364.17041016 C-157.59119873 363.50654297 -157.06228027 362.84267578 -156.51733398 362.15869141 C-156.04384521 361.58086914 -155.57035645 361.00304687 -155.08251953 360.40771484 C-153.8180031 357.76552459 -154.3533799 356.31397135 -155.19311523 353.54931641 C-155.85524112 351.97273873 -156.5734942 350.41889187 -157.33764648 348.88916016 C-157.97984131 347.58277588 -157.97984131 347.58277588 -158.63500977 346.25 C-159.08730957 345.33814941 -159.53960937 344.42629883 -160.00561523 343.48681641 C-169.19311523 324.60085732 -169.19311523 324.60085732 -169.19311523 317.54931641 C-170.24176758 317.38326904 -171.29041992 317.21722168 -172.37084961 317.04614258 C-176.2934553 316.42274024 -180.21420963 315.7882895 -184.13452148 315.15063477 C-185.82544892 314.87714984 -187.51685209 314.6065886 -189.20874023 314.33911133 C-191.65278594 313.95218546 -194.09487797 313.55447247 -196.53686523 313.15478516 C-197.28303101 313.03902634 -198.02919678 312.92326752 -198.79797363 312.80400085 C-206.048136 311.59690783 -212.40175703 310.43394365 -217.17050743 304.38437366 C-219.11155506 300.90118731 -218.8785014 297.31110689 -218.82421875 293.41040039 C-218.83495171 292.06051025 -218.83495171 292.06051025 -218.84590149 290.68334961 C-218.86275696 287.72018067 -218.84340584 284.75853123 -218.82202148 281.79541016 C-218.8228504 279.73087947 -218.82531063 277.66634884 -218.82933044 275.6018219 C-218.8321862 271.28016234 -218.81750734 266.95902169 -218.79003906 262.63745117 C-218.75593561 257.10006785 -218.76198388 251.56361097 -218.78070164 246.02618313 C-218.79127276 241.765043 -218.78233307 237.50411823 -218.76731682 233.24299812 C-218.76213684 231.20127057 -218.76261457 229.15952051 -218.76886177 227.11779594 C-218.77431609 224.2643182 -218.7539325 221.41216471 -218.7265625 218.55883789 C-218.73635132 217.29551384 -218.73635132 217.29551384 -218.74633789 216.00666809 C-218.68129863 212.01613499 -218.48618942 210.01583378 -216.31407166 206.5582428 C-213.78575237 204.16347066 -212.06012077 203.48394026 -208.69311523 202.61181641 C-207.48010742 202.29470703 -206.26709961 201.97759766 -205.01733398 201.65087891 C-201.07579479 200.72253235 -197.11467548 199.8967561 -193.15014648 199.07275391 C-191.89588867 198.81099365 -190.64163086 198.5492334 -189.34936523 198.27954102 C-186.8037915 197.75454877 -184.2555837 197.24215774 -181.70483398 196.74291992 C-180.52147461 196.5024292 -179.33811523 196.26193848 -178.11889648 196.01416016 C-176.51655151 195.69886353 -176.51655151 195.69886353 -174.88183594 195.37719727 C-172.04113927 194.50252167 -170.94855353 193.90278391 -169.19311523 191.54931641 C-168.18253047 189.61349587 -168.18253047 189.61349587 -167.39624023 187.44384766 C-167.07953369 186.63334961 -166.76282715 185.82285156 -166.43652344 184.98779297 C-165.7632801 183.20814064 -165.09262358 181.42750796 -164.42431641 179.64599609 C-162.77359784 175.31435055 -161.10686065 171.21979805 -158.72827148 167.23291016 C-156.42728156 163.26734335 -154.88196389 160.13547655 -154.19311523 155.54931641 C-155.91318932 150.03244527 -159.85117119 145.68624914 -163.59204102 141.40380859 C-165.93566414 138.68923688 -168.01220011 135.81793572 -170.13061523 132.92431641 C-170.82026367 132.02455078 -171.50991211 131.12478516 -172.22045898 130.19775391 C-178.66722325 121.54249416 -178.66722325 121.54249416 -179.13061523 117.11181641 C-179.22213867 116.41185547 -179.31366211 115.71189453 -179.40795898 114.99072266 C-178.8640817 108.81029893 -175.70870538 104.56673425 -171.41796875 100.3359375 C-170.94603088 99.86502182 -170.47409302 99.39410614 -169.987854 98.90892029 C-168.44174179 97.37062568 -166.88208463 95.84688666 -165.32202148 94.32275391 C-164.23635134 93.24710086 -163.15164457 92.17047468 -162.06785583 91.09292603 C-159.22241262 88.26833819 -156.36560487 85.45554222 -153.5057373 82.64556885 C-148.92964929 78.14496698 -144.37218436 73.62548757 -139.81272697 69.1080513 C-138.22496615 67.53788884 -136.63301161 65.97208665 -135.04017639 64.40707397 C-134.05928127 63.43940722 -133.07843848 62.47168742 -132.09765625 61.50390625 C-131.24510757 60.66564301 -130.3925589 59.82737976 -129.51417542 58.9637146 C-127.24022364 56.59831921 -125.24104017 54.10950974 -123.19311523 51.54931641 C-121.21051098 49.86199363 -119.20988103 48.19565583 -117.19311523 46.54931641 C-115.95561523 45.24994141 -115.95561523 45.24994141 -114.69311523 43.92431641 C-110.73220668 40.16145328 -107.9019937 38.57733081 -102.38061523 38.48681641 C-93.95330659 39.96574497 -86.59051362 47.44871717 -80.06811523 52.61181641 C-77.81556282 54.38823508 -75.56107297 56.16065579 -73.28979492 57.91308594 C-71.93534853 58.97008405 -70.60063188 60.05309463 -69.29174805 61.16601562 C-67.34489492 62.81904023 -67.34489492 62.81904023 -64.19311523 64.54931641 C-60.13316272 63.52358583 -56.4245747 61.82205183 -52.63842773 60.05322266 C-51.61104492 59.57691406 -50.58366211 59.10060547 -49.52514648 58.60986328 C-48.46682617 58.11550781 -47.40850586 57.62115234 -46.31811523 57.11181641 C-27.97793784 48.54931641 -27.97793784 48.54931641 -23.19311523 48.54931641 C-22.94404419 46.81645386 -22.94404419 46.81645386 -22.68994141 45.04858398 C-22.06926576 40.75116991 -21.43402795 36.45601256 -20.79443359 32.16137695 C-20.51996383 30.3045364 -20.2494139 28.44711193 -19.98291016 26.58911133 C-19.59850821 23.91404604 -19.19992326 21.24141768 -18.79858398 18.56884766 C-18.68282516 17.74157669 -18.56706635 16.91430573 -18.44779968 16.06196594 C-17.57387209 10.37345375 -16.24520448 6.67195113 -12.16067505 2.44700623 C-8.05422768 -0.17897736 -4.78020209 -0.02751147 0 0 Z M8.80688477 28.54931641 C6.92997052 38.23725024 5.21126331 47.88556925 4.07836914 57.69384766 C3.37697945 62.91484308 2.22754253 66.35478359 -1.19311523 70.54931641 C-4.89814305 73.11433567 -8.53029871 73.82724277 -12.87280273 74.66650391 C-21.42276446 76.60889234 -28.99944189 80.25184495 -36.88061523 83.98681641 C-41.72054684 86.25154117 -46.56615727 88.50386227 -51.42254639 90.73309326 C-53.00471448 91.46246463 -54.58102609 92.20450912 -56.15649414 92.94824219 C-61.71386563 95.41853893 -65.25141139 96.16020588 -71.19311523 94.54931641 C-74.22045898 92.72119141 -74.22045898 92.72119141 -77.13061523 90.29931641 C-78.23648959 89.39977567 -79.34331456 88.50140274 -80.45092773 87.60400391 C-81.33699707 86.87455566 -81.33699707 86.87455566 -82.2409668 86.13037109 C-85.92950851 83.14300289 -89.72637077 80.29538871 -93.50561523 77.42431641 C-94.98121632 76.29715808 -96.45650546 75.16959119 -97.93139648 74.04150391 C-99.01861549 73.2107478 -100.10584666 72.38000763 -101.19311523 71.54931641 C-107.6820329 76.84985671 -113.53791642 82.74215118 -119.44506836 88.67089844 C-121.18549943 90.4166772 -122.93119526 92.15706178 -124.67749023 93.89697266 C-129.91854873 99.1354138 -135.09848337 104.36728092 -139.87475586 110.04101562 C-141.19311523 111.54931641 -141.19311523 111.54931641 -143.69311523 113.79931641 C-144.18811523 114.37681641 -144.68311523 114.95431641 -145.19311523 115.54931641 C-144.8764 119.64798418 -142.18672893 122.61723489 -139.81811523 125.79931641 C-138.91444449 127.03793268 -138.01215645 128.27755865 -137.11108398 129.51806641 C-136.63719238 130.16904297 -136.16330078 130.82001953 -135.67504883 131.49072266 C-133.10761175 135.05721845 -130.61824622 138.67690437 -128.13061523 142.29931641 C-127.65382324 142.99057617 -127.17703125 143.68183594 -126.68579102 144.39404297 C-123.19760831 149.47446354 -121.80066199 151.70283161 -122.59106445 157.98095703 C-123.70273136 162.72334788 -126.27907036 166.65125366 -128.75561523 170.79931641 C-133.9402992 179.85708273 -137.96788155 188.9354694 -141.47436523 198.75244141 C-142.04721363 200.3514242 -142.62013151 201.9503821 -143.19311523 203.54931641 C-143.49991211 204.42523438 -143.80670898 205.30115234 -144.12280273 206.20361328 C-146.01937531 211.33573866 -147.67103599 215.18404813 -152.19311523 218.54931641 C-155.44311523 219.73681641 -155.44311523 219.73681641 -159.19311523 220.54931641 C-159.86866455 220.70247314 -160.54421387 220.85562988 -161.24023438 221.01342773 C-162.72963798 221.35088771 -164.22071488 221.68102294 -165.71313477 222.00488281 C-169.40807184 222.81603754 -173.08839076 223.68670214 -176.76928711 224.55908203 C-178.66124071 225.00721029 -180.55446459 225.45001241 -182.44897461 225.88720703 C-183.31200195 226.08894531 -184.1750293 226.29068359 -185.06420898 226.49853516 C-185.83692139 226.67731201 -186.60963379 226.85608887 -187.40576172 227.0402832 C-189.20078583 227.39485895 -189.20078583 227.39485895 -190.19311523 228.54931641 C-190.2867653 230.2986036 -190.31055961 232.05167894 -190.30664062 233.8034668 C-190.30656509 234.92455338 -190.30648956 236.04563995 -190.30641174 237.20069885 C-190.30125046 238.42046921 -190.29608917 239.64023956 -190.29077148 240.89697266 C-190.28935654 242.13853622 -190.28794159 243.38009979 -190.28648376 244.6592865 C-190.28182114 247.96537131 -190.2728302 251.27138787 -190.26177979 254.57745361 C-190.2515635 257.9489279 -190.24698568 261.32040923 -190.24194336 264.69189453 C-190.23088919 271.31105415 -190.2141326 277.93018134 -190.19311523 284.54931641 C-186.49573491 286.51829643 -183.16021561 287.21937636 -179.01342773 287.91650391 C-177.59537976 288.1647497 -176.17741344 288.41346228 -174.75952148 288.66259766 C-172.53989339 289.04552886 -170.31973915 289.42404605 -168.09790039 289.79394531 C-165.94235126 290.15551821 -163.79049971 290.53485182 -161.63842773 290.91650391 C-160.35468262 291.13419434 -159.0709375 291.35188477 -157.74829102 291.57617188 C-153.03019167 292.86763898 -149.52565383 294.85391261 -146.48608398 298.72119141 C-144.69655821 302.63544114 -143.63421912 306.65412572 -142.50561523 310.79931641 C-138.53270511 324.63125682 -132.56117278 336.94899261 -124.75952148 349.01025391 C-122.1219659 353.28559339 -121.63200688 356.57949956 -122.19311523 361.54931641 C-123.76274625 364.85526491 -125.98051171 367.64676124 -128.19311523 370.54931641 C-128.68134766 371.19320313 -129.16958008 371.83708984 -129.67260742 372.50048828 C-132.45559231 376.16798775 -135.25533505 379.82171276 -138.07202148 383.46337891 C-138.59425293 384.14948242 -139.11648437 384.83558594 -139.65454102 385.54248047 C-140.66545938 386.86106964 -141.69474898 388.16581244 -142.7434082 389.45458984 C-145.50651993 392.84331692 -145.50651993 392.84331692 -146.02758789 397.02099609 C-145.07991901 399.89228308 -144.02889016 401.19042398 -141.87670898 403.29150391 C-141.19415039 403.96568359 -140.5115918 404.63986328 -139.80834961 405.33447266 C-138.73037109 406.36894531 -138.73037109 406.36894531 -137.63061523 407.42431641 C-136.9390332 408.10623047 -136.24745117 408.78814453 -135.53491211 409.49072266 C-132.19652067 412.75755491 -128.80037043 415.92109414 -125.25952148 418.96728516 C-120.50689068 423.077226 -116.1105369 427.5226305 -111.69311523 431.98681641 C-110.87069336 432.81375 -110.04827148 433.64068359 -109.20092773 434.49267578 C-107.19599411 436.509266 -105.1934527 438.52816877 -103.19311523 440.54931641 C-99.653773 439.26284717 -96.84161914 437.7557954 -93.82983398 435.50244141 C-93.02481445 434.90431641 -92.21979492 434.30619141 -91.39038086 433.68994141 C-90.14804688 432.75408203 -90.14804688 432.75408203 -88.88061523 431.79931641 C-88.06399414 431.19087891 -87.24737305 430.58244141 -86.40600586 429.95556641 C-83.22761961 427.58507276 -80.05325764 425.2109361 -76.91040039 422.79345703 C-76.2057666 422.25398438 -75.50113281 421.71451172 -74.77514648 421.15869141 C-73.84472534 420.43891113 -73.84472534 420.43891113 -72.89550781 419.70458984 C-69.13181029 417.15047875 -65.60195803 417.22070701 -61.19311523 417.54931641 C-58.58211333 418.61874638 -56.27174976 419.70337565 -53.81811523 421.04931641 C-52.40226488 421.78786262 -50.9855698 422.52479126 -49.56811523 423.26025391 C-48.84495117 423.64020508 -48.12178711 424.02015625 -47.37670898 424.41162109 C-36.64583535 430.00261742 -25.86001004 434.59656945 -14.31420898 438.22509766 C-13.63342285 438.44504395 -12.95263672 438.66499023 -12.2512207 438.89160156 C-10.85049497 439.33923562 -9.4427139 439.76524096 -8.02954102 440.171875 C-7.33199707 440.39311035 -6.63445312 440.6143457 -5.91577148 440.84228516 C-4.98583374 441.11915161 -4.98583374 441.11915161 -4.03710938 441.40161133 C-0.66584237 443.49989362 1.23236933 446.66560657 2.38279724 450.43760681 C2.83442661 452.54930707 3.18852971 454.65615853 3.51000977 456.79150391 C3.63752625 457.55987579 3.76504272 458.32824768 3.89642334 459.11990356 C4.29696338 461.55270912 4.67720179 463.98817793 5.05688477 466.42431641 C5.32637874 468.08338869 5.59719887 469.74224613 5.86938477 471.40087891 C6.53058116 475.44803485 7.17360202 479.49770285 7.80688477 483.54931641 C11.34937963 484.35753476 14.6092917 484.67150637 18.23974609 484.6628418 C19.83082939 484.6627285 19.83082939 484.6627285 21.45405579 484.66261292 C22.58755966 484.65745163 23.72106354 484.65229034 24.88891602 484.64697266 C26.05823166 484.64555771 27.2275473 484.64414276 28.43229675 484.64268494 C32.16135228 484.63709434 35.89034743 484.6245435 39.61938477 484.61181641 C42.14998286 484.60680019 44.68058189 484.6022375 47.21118164 484.59814453 C53.4097699 484.58712798 59.60832302 484.57039914 65.80688477 484.54931641 C67.79207574 480.8372706 68.50259552 477.27692972 69.13891602 473.15087891 C69.38229535 471.68721045 69.62646071 470.22367251 69.87133789 468.76025391 C70.24815013 466.46849022 70.61907829 464.17628655 70.97607422 461.88134766 C71.32542798 459.65544458 71.699121 457.43469336 72.07641602 455.21337891 C72.17557816 454.53506012 72.2747403 453.85674133 72.37690735 453.15786743 C73.30127516 447.87624691 75.10964076 445.24965578 78.80688477 441.54931641 C80.71337891 440.41040039 80.71337891 440.41040039 82.52954102 439.85791016 C83.21935059 439.63603027 83.90916016 439.41415039 84.61987305 439.18554688 C85.34158691 438.97559082 86.06330078 438.76563477 86.80688477 438.54931641 C88.3058171 438.08262072 89.8045068 437.6151452 91.30297852 437.14697266 C92.09728271 436.90221191 92.89158691 436.65745117 93.70996094 436.40527344 C107.38852836 432.12289755 120.0319268 425.99308215 132.80688477 419.54931641 C135.21809735 418.34371012 136.86634823 418.34823525 139.55688477 418.29931641 C140.39735352 418.27353516 141.23782227 418.24775391 142.10375977 418.22119141 C148.30260258 418.97365209 152.81510711 422.92562815 157.49438477 426.73681641 C158.72391711 427.71585814 159.95439787 428.69370989 161.18579102 429.67041016 C161.79310059 430.15364746 162.40041016 430.63688477 163.02612305 431.13476562 C165.64422998 433.21446285 168.27099629 435.27418383 170.93188477 437.29931641 C171.78008789 437.95416016 172.62829102 438.60900391 173.50219727 439.28369141 C175.64554555 440.7405821 175.64554555 440.7405821 177.68157959 440.3764801 C180.48606285 439.28498192 181.99852502 437.71739025 184.11645508 435.58032227 C184.95702454 434.73952621 185.79759399 433.89873016 186.66363525 433.03245544 C187.56168884 432.118918 188.45974243 431.20538055 189.38500977 430.26416016 C190.31158386 429.33334122 191.23815796 428.40252228 192.19281006 427.4434967 C194.65228463 424.97258519 197.10261578 422.49279672 199.55114746 420.01104736 C202.05280527 417.47866388 204.56301098 414.9547851 207.07250977 412.43017578 C211.99236489 407.47817688 216.9026123 402.51674692 221.80688477 397.54931641 C216.45930265 389.08175551 216.45930265 389.08175551 210.87719727 380.76806641 C210.22750977 379.82447266 209.57782227 378.88087891 208.90844727 377.90869141 C207.56854333 375.97033235 206.2273565 374.03285959 204.88500977 372.09619141 C203.92208008 370.69626953 203.92208008 370.69626953 202.93969727 369.26806641 C202.07175537 368.01413086 202.07175537 368.01413086 201.1862793 366.73486328 C198.33660053 362.21976163 198.18279438 357.73193368 198.80688477 352.54931641 C199.82994747 349.77990946 201.28482863 347.40679828 202.86938477 344.92431641 C203.70170721 343.53228632 204.52975047 342.13768976 205.35375977 340.74072266 C205.76819336 340.04350098 206.18262695 339.3462793 206.60961914 338.62792969 C212.90199424 327.7035248 217.41593027 315.93323456 219.80688477 303.54931641 C220.69717537 299.56490108 221.52006557 297.2100748 224.80688477 294.54931641 C233.99139046 291.61822894 243.69585745 290.13842774 253.15454102 288.35595703 C254.21543945 288.15035156 255.27633789 287.94474609 256.36938477 287.73291016 C257.31942383 287.55300537 258.26946289 287.37310059 259.24829102 287.18774414 C262.13696035 286.5654193 262.13696035 286.5654193 265.80688477 284.54931641 C265.80688477 266.06931641 265.80688477 247.58931641 265.80688477 228.54931641 C260.62457372 226.32832596 257.04851229 225.0185655 251.70141602 224.04931641 C250.37522359 223.79942547 249.04905232 223.5494222 247.72290039 223.29931641 C245.66302208 222.92098649 243.60254183 222.54627672 241.54150391 222.17431641 C239.53050603 221.80837721 237.52227449 221.42943367 235.51391602 221.04931641 C234.32258057 220.83275391 233.13124512 220.61619141 231.90380859 220.39306641 C228.82342289 219.55382218 227.23166358 218.54827532 224.80688477 216.54931641 C224.14688477 216.54931641 223.48688477 216.54931641 222.80688477 216.54931641 C222.65993164 216.02466797 222.51297852 215.50001953 222.36157227 214.95947266 C217.41277888 197.86622655 211.26088906 181.23353133 201.86938477 166.04931641 C198.96938138 161.18050338 197.23649492 157.2613902 197.80688477 151.54931641 C199.96964892 145.63399219 203.72751307 140.66411985 207.55688477 135.73681641 C208.62003618 134.34538681 209.68253323 132.95345699 210.74438477 131.56103516 C211.52168945 130.54662354 211.52168945 130.54662354 212.31469727 129.51171875 C215.55660276 125.24823112 218.67650559 120.89501926 221.80688477 116.54931641 C220.33565861 113.14578618 218.43745964 110.93675892 215.81616211 108.33154297 C214.99546234 107.51099426 214.17476257 106.69044556 213.32919312 105.84503174 C211.99943954 104.53076202 211.99943954 104.53076202 210.64282227 103.18994141 C209.73561432 102.28556335 208.82840637 101.3811853 207.89370728 100.44940186 C205.48804057 98.05135183 203.07642741 95.65937022 200.66351318 93.26861572 C198.19986133 90.8254647 195.74189899 88.37660434 193.28344727 85.92822266 C188.46314904 81.12997852 183.63718633 76.33748908 178.80688477 71.54931641 C176.09194885 72.8773916 173.70908964 74.25543818 171.30297852 76.08837891 C170.32288818 76.83027466 170.32288818 76.83027466 169.32299805 77.5871582 C168.63705566 78.11092041 167.95111328 78.63468262 167.24438477 79.17431641 C165.81383751 80.25693239 164.38284575 81.33896126 162.95141602 82.42041016 C161.89881592 83.21680908 161.89881592 83.21680908 160.82495117 84.02929688 C146.10989655 95.11276289 146.10989655 95.11276289 138.22583008 95.03564453 C131.04550946 94.0142793 124.65159769 90.43321881 118.18188477 87.29931641 C116.71926351 86.60856205 115.25572531 85.9197458 113.79125977 85.23291016 C111.00357537 83.92253357 108.21972426 82.6046198 105.43969727 81.27807617 C99.05093294 78.23344352 92.92158084 75.42844939 86.05688477 73.61181641 C77.60096929 71.01985164 77.60096929 71.01985164 74.80688477 66.54931641 C71.89598232 57.23276044 70.62643252 47.57157432 69.25805664 37.93798828 C69.09756836 36.86742187 68.93708008 35.79685547 68.77172852 34.69384766 C68.63371826 33.72809814 68.49570801 32.76234863 68.35351562 31.76733398 C68.17312744 31.03538818 67.99273926 30.30344238 67.80688477 29.54931641 C65.19166691 28.24170748 63.27575076 28.42934093 60.34741211 28.43579102 C58.63586441 28.43590431 58.63586441 28.43590431 56.88973999 28.4360199 C55.65325714 28.44118118 54.41677429 28.44634247 53.14282227 28.45166016 C51.24930527 28.45378258 51.24930527 28.45378258 49.3175354 28.45594788 C45.96050178 28.46060563 42.60353576 28.46959233 39.246521 28.48065186 C35.8213357 28.49087871 32.39614343 28.49544823 28.97094727 28.50048828 C22.24957434 28.51153402 15.52823346 28.52828447 8.80688477 28.54931641 Z " fill="#FFFFFF" transform="translate(218.193115234375,-0.54931640625)"/>
<path d="M0 0 C1.05536957 0.10728928 2.11073914 0.21457855 3.1980896 0.32511902 C5.46699933 0.55654166 7.7356308 0.79070632 10.0039978 1.02738953 C13.60341763 1.40278885 17.20355153 1.77051568 20.80395508 2.13635254 C29.74156148 3.04607103 38.67781868 3.9687704 47.61413574 4.89105225 C55.18193453 5.67158808 62.75021182 6.44714941 70.31918335 7.2162323 C73.84913833 7.57695074 77.37829336 7.9448732 80.9074707 8.31311035 C83.09192341 8.53591861 85.27641062 8.75838891 87.4609375 8.98046875 C88.42752289 9.08332687 89.39410828 9.186185 90.38998413 9.29216003 C95.29683009 9.78329352 100.19197712 10.11214076 105.12231445 10.24084473 C106.07636673 10.26653786 107.03041901 10.29223099 108.01338196 10.3187027 C111.22442587 9.93051995 113.04501686 8.73656053 115.73046875 6.99023438 C118.08203125 6.84570312 118.08203125 6.84570312 120.35546875 7.17773438 C121.11085938 7.27441406 121.86625 7.37109375 122.64453125 7.47070312 C124.73046875 7.99023438 124.73046875 7.99023438 127.73046875 9.99023438 C138.81399814 11.24076538 150.67251096 9.36662193 161.73933601 8.50866699 C165.26765683 8.23523336 168.79639847 7.96794792 172.32530212 7.70214844 C179.81494081 7.13692325 187.30398231 6.56402758 194.79296875 5.99023438 C203.48246588 5.32480172 212.1721885 4.66259526 220.86248589 4.00769043 C224.32130338 3.74548941 227.77967236 3.47786135 231.23805237 3.20996094 C233.37881538 3.04791708 235.51959712 2.88612044 237.66040039 2.72460938 C238.60671326 2.64980347 239.55302612 2.57499756 240.52801514 2.4979248 C245.38420664 2.13729769 250.24179115 1.88329879 255.10984802 1.75683594 C256.06570014 1.72865784 257.02155226 1.70047974 258.00636959 1.67144775 C262.4614269 2.19279906 265.88448738 4.57505673 268.73046875 7.99023438 C269.97180499 11.71424308 270.27158361 15.12199438 269.73046875 18.99023438 C267.71543986 22.74235713 266.27580733 24.62667532 262.73046875 26.99023438 C249.08061608 29.6214774 234.825234 30.05029812 220.9921875 31.15429688 C218.53357283 31.3529493 216.07498045 31.55187783 213.6164093 31.75106812 C208.49908085 32.16495592 203.38157683 32.57657079 198.26391602 32.98632812 C191.69756988 33.5121152 185.13156843 34.04206747 178.56567669 34.57349586 C173.50529955 34.98289265 168.44481389 35.39093359 163.38428688 35.79847336 C160.96129299 35.99361386 158.53831798 36.18898895 156.11536217 36.38460159 C152.74587193 36.65626415 149.37625515 36.92629511 146.0065918 37.19580078 C145.00458237 37.27681534 144.00257294 37.3578299 142.97019958 37.44129944 C142.05522705 37.51413651 141.14025452 37.58697357 140.19755554 37.66201782 C139.40254985 37.72578928 138.60754416 37.78956074 137.78844738 37.85526466 C136.10546988 37.96564044 134.41706179 37.99023438 132.73046875 37.99023438 C133.06046875 46.57023437 133.39046875 55.15023437 133.73046875 63.99023438 C140.60518346 66.42854145 147.48012282 68.86620827 154.35546875 71.30273438 C155.40858246 71.67594818 156.46169617 72.04916199 157.54672241 72.4336853 C177.68419643 79.56875112 197.83535425 86.6646238 217.99267578 93.7434082 C219.09617874 94.13117432 220.1996817 94.51894043 221.33662415 94.91845703 C223.38330807 95.63764067 225.43015774 96.35635291 227.47721863 97.07446289 C233.91122697 99.33575466 240.32569715 101.64743979 246.73046875 103.99023438 C241.43538444 91.86767746 235.17334105 80.92195306 227.73046875 69.99023438 C231.64044322 65.74424647 235.82883009 62.76080137 240.73046875 59.74023438 C241.42914063 59.29421875 242.1278125 58.84820312 242.84765625 58.38867188 C243.53085937 57.96328125 244.2140625 57.53789062 244.91796875 57.09960938 C245.53027344 56.71772461 246.14257812 56.33583984 246.7734375 55.94238281 C249.06218262 54.82884664 251.22721416 54.3977158 253.73046875 53.99023438 C270.99535374 82.79820003 282.15094966 111.79786899 282.10546875 145.86523438 C282.10525726 146.53121643 282.10504578 147.19719849 282.10482788 147.88336182 C282.06412303 160.859141 280.6201549 173.33249319 277.73046875 185.99023438 C277.55918457 186.75400391 277.38790039 187.51777344 277.21142578 188.3046875 C270.33396279 217.66438544 253.20608118 242.46377402 232.73046875 263.99023438 C231.84294922 264.95703125 231.84294922 264.95703125 230.9375 265.94335938 C204.68350041 293.68832684 163.19646914 308.91334756 125.54345703 310.05664062 C80.56797556 311.15338067 37.86246435 295.66131828 5.0625 264.54492188 C-26.98893791 233.54070516 -43.62781579 192.89441358 -44.45703125 148.42773438 C-44.11419848 117.36708579 -37.13863188 80.33751845 -16.26953125 55.99023438 C-14.41088867 55.17919922 -14.41088867 55.17919922 -12.26953125 54.99023438 C-8.80454292 56.43297815 -5.73446331 58.58850374 -2.58203125 60.61523438 C-1.70224609 61.15019531 -0.82246094 61.68515625 0.08398438 62.23632812 C1.33791992 63.03103516 1.33791992 63.03103516 2.6171875 63.84179688 C3.38248779 64.32471191 4.14778809 64.80762695 4.9362793 65.30517578 C7.21859339 67.44866903 7.49667992 68.90830381 7.73046875 71.99023438 C6.796875 74.06835938 6.796875 74.06835938 5.29296875 76.24023438 C2.26871693 80.93596964 -0.16901985 85.74840557 -2.51953125 90.80273438 C-2.86040771 91.53202148 -3.20128418 92.26130859 -3.55249023 93.01269531 C-5.23082725 96.63706932 -6.7924829 100.27847964 -8.26953125 103.99023438 C21.77862064 93.45501896 51.80931554 82.88140796 81.73046875 71.99023438 C84.08977896 71.13328514 86.44915067 70.2765052 88.80859375 69.41992188 C93.78382513 67.61348755 98.7571453 65.80194506 103.73046875 63.99023438 C104.06046875 55.41023438 104.39046875 46.83023438 104.73046875 37.99023438 C101.40335815 37.62055542 101.40335815 37.62055542 98.0090332 37.2434082 C97.23329201 37.15720813 96.45755081 37.07100805 95.65830231 36.98219585 C91.6082768 36.53216337 87.55823754 36.08225514 83.50817871 35.63252258 C75.22104705 34.71217291 66.93400855 33.79101507 58.64737988 32.86614609 C54.00846492 32.34841764 49.36948446 31.83127795 44.73046875 31.31445312 C43.81359598 31.21229492 42.89672321 31.11013672 41.95206642 31.00488281 C30.8189639 29.76544873 19.68400128 28.55103005 8.54296875 27.38476562 C5.47214736 27.05942954 2.40139554 26.73344414 -0.66934204 26.40731812 C-3.39491236 26.12174296 -6.12153529 25.84844286 -8.84838867 25.57543945 C-10.46149315 25.40444291 -12.07453534 25.2328573 -13.6875 25.06054688 C-14.3837146 24.9952327 -15.0799292 24.92991852 -15.79724121 24.86262512 C-20.94659304 24.29188833 -25.1885239 22.8559651 -29.08203125 19.36523438 C-30.93475334 15.65979019 -31.50613063 12.12376471 -31.26953125 7.99023438 C-30.12838894 4.59245109 -28.54102942 1.82448475 -25.47160339 -0.18941498 C-17.92765106 -2.99980709 -7.85845361 -0.83624872 0 0 Z M110.296875 91.33789062 C109.51296387 91.62061325 108.72905273 91.90333588 107.92138672 92.19462585 C105.36839649 93.12186661 102.83148484 94.08665098 100.29296875 95.05273438 C98.52499014 95.70352304 96.75601335 96.35160593 94.98608398 96.99707031 C91.35872427 98.32259266 87.73659164 99.66121889 84.1171875 101.00830078 C78.95928575 102.91847563 73.77392718 104.74042789 68.57421875 106.53320312 C67.78152084 106.80741592 66.98882294 107.08162872 66.17210388 107.364151 C63.13368924 108.41493631 60.09510257 109.46514491 57.0539856 110.50808716 C54.98661806 111.21914091 52.92269475 111.93940947 50.859375 112.66210938 C49.6947876 113.06526367 48.5302002 113.46841797 47.33032227 113.88378906 C44.59815375 114.71497138 44.59815375 114.71497138 43.73046875 116.99023438 C58.18218864 121.18821063 72.67910155 125.18535681 87.23754883 128.99707031 C89.46557843 129.58225927 91.69244983 130.17187352 93.91821289 130.765625 C97.19304119 131.63910285 100.47101752 132.49968851 103.75 133.35742188 C104.73652054 133.62295868 105.72304108 133.88849548 106.73945618 134.16207886 C117.13392678 136.84696682 124.67811685 135.79478963 134.9453125 133.10351562 C136.11445694 132.80462936 137.28360138 132.5057431 138.48817444 132.19779968 C140.95949528 131.56415748 143.42964707 130.92594039 145.89868164 130.28344727 C149.62208495 129.31467266 153.34868122 128.35916276 157.07617188 127.40625 C169.69910121 124.164607 182.26828017 120.80650819 194.73046875 116.99023438 C192.51069199 114.77045762 191.16439068 114.30243023 188.21875 113.31835938 C187.25187256 112.9904541 186.28499512 112.66254883 185.28881836 112.32470703 C183.6821228 111.78789307 183.6821228 111.78789307 182.04296875 111.24023438 C179.69583988 110.44303245 177.34953984 109.6433877 175.00390625 108.84179688 C174.36672165 108.62417694 173.72953705 108.40655701 173.07304382 108.18234253 C163.20713417 104.7991175 153.40687243 101.22825426 143.59683228 97.68713379 C141.93162393 97.08610001 140.26628241 96.48543506 138.60079956 95.88516235 C137.07749873 95.33604255 135.55453882 94.78597554 134.03201294 94.23471069 C132.63663339 93.73163057 131.23843106 93.23630442 129.83738708 92.7492218 C128.37604797 92.22279513 126.92965529 91.65369756 125.49769592 91.05192566 C119.5980667 88.71828996 116.13267018 89.04096372 110.296875 91.33789062 Z M-14.26953125 129.99023438 C-22.28788026 154.04528141 -12.62563595 185.68136046 -2.1328125 207.54101562 C14.28196243 240.35249152 43.10272456 263.67355384 77.4453125 275.67382812 C88.68083452 279.31141766 100.9313309 281.54968215 112.73046875 281.99023438 C113.54515625 282.03019531 114.35984375 282.07015625 115.19921875 282.11132812 C149.87329603 282.99906806 184.0141086 269.93293622 209.29296875 246.34960938 C211.80009753 243.92283729 214.27482154 241.46908455 216.73046875 238.99023438 C217.49746094 238.22066406 218.26445312 237.45109375 219.0546875 236.65820312 C242.98424142 211.54205976 253.45979282 177.09540173 253.73046875 142.99023438 C253.56324419 138.96091868 253.25861409 134.98788836 252.73046875 130.99023438 C250.87421875 131.20679688 250.87421875 131.20679688 248.98046875 131.42773438 C248.284375 131.50894531 247.58828125 131.59015625 246.87109375 131.67382812 C244.77534212 131.98360163 242.77549262 132.44213113 240.73046875 132.99023438 C240.69308594 133.84746094 240.65570313 134.7046875 240.6171875 135.58789062 C239.91766306 147.75412944 239.91766306 147.75412944 236.73046875 152.99023438 C232.97270034 156.21117873 228.60626863 157.14350117 223.73046875 156.99023438 C219.01834908 155.35911603 216.39904812 153.18371624 213.73046875 148.99023438 C212.87962397 146.66491426 212.2996371 144.40919988 211.73046875 141.99023438 C210.39607586 142.07981168 209.06292956 142.18794468 207.73046875 142.30273438 C206.98796875 142.36074219 206.24546875 142.41875 205.48046875 142.47851562 C202.98436351 142.94298975 200.91881836 143.61711281 198.55859375 144.5222168 C197.8409082 144.79603683 197.12322266 145.06985687 196.38378906 145.35197449 C195.83819336 145.56260025 195.29259766 145.77322601 194.73046875 145.99023438 C194.71588623 147.05870605 194.70130371 148.12717773 194.6862793 149.22802734 C194.627808 153.23534726 194.55058334 157.24213359 194.46801758 161.24902344 C194.43499589 162.97517157 194.406895 164.70142179 194.3840332 166.42773438 C194.19093992 180.62625325 193.4554011 193.33339769 182.91796875 203.99023438 C182.19609375 204.65023437 181.47421875 205.31023437 180.73046875 205.99023438 C182.10611245 209.84065419 183.89733982 212.87186647 186.29296875 216.17773438 C189.987734 221.30124461 191.43759636 224.53924568 190.73046875 230.99023438 C189.23328893 234.19847685 187.45528339 236.71955551 184.73046875 238.99023438 C181.05853551 240.21421212 177.53344561 240.71619668 173.73046875 239.99023438 C168.81870462 237.28321961 165.84306718 234.04778239 162.60546875 229.61523438 C162.18910156 229.06351562 161.77273438 228.51179688 161.34375 227.94335938 C159.38558736 225.32838357 157.63489572 222.81546732 156.06103516 219.93746948 C154.01069173 216.75107992 154.01069173 216.75107992 150.72415161 216.14758301 C149.54948334 216.10661499 148.37481506 216.06564697 147.16455078 216.0234375 C146.5134584 215.99364807 145.86236603 215.96385864 145.19154358 215.9331665 C143.04006515 215.84565646 140.89124561 215.80466676 138.73828125 215.77148438 C137.99817684 215.75452011 137.25807243 215.73755585 136.49554062 215.72007751 C132.56948859 215.63015755 128.64475307 215.57478876 124.71777344 215.54882812 C121.48996912 215.52257857 118.27185574 215.43967763 115.046875 215.30273438 C97.87622766 213.93401972 97.87622766 213.93401972 81.93835449 218.75390625 C77.53900788 222.88616873 74.70125 227.58804203 71.96195984 232.91662598 C70.04967599 236.13656633 67.79919767 237.87033838 64.73046875 239.99023438 C60.23964685 241.01670795 56.04058396 240.51985542 51.79296875 238.80273438 C47.86074977 235.347148 46.52192743 232.42894678 46.16796875 227.24023438 C46.33788012 221.23968005 49.04728337 217.53582414 52.73046875 212.99023438 C55.70631566 209.84463725 55.70631566 209.84463725 56.73046875 205.99023438 C55.84359375 205.30960937 54.95671875 204.62898438 54.04296875 203.92773438 C48.46862745 199.47353258 45.61157723 192.73127237 43.73046875 185.99023438 C43.4113534 182.87988658 43.35917657 179.77928952 43.31640625 176.65429688 C43.2970401 175.77494476 43.27767395 174.89559265 43.25772095 173.98959351 C43.1982406 171.1982372 43.15166665 168.40683894 43.10546875 165.61523438 C43.0672599 163.71547743 43.02820649 161.81573727 42.98828125 159.91601562 C42.89256518 155.27422588 42.80841835 150.63235509 42.73046875 145.99023438 C40.46097773 145.31868089 38.19007265 144.65283808 35.91796875 143.99023438 C34.65339844 143.61898437 33.38882813 143.24773437 32.0859375 142.86523438 C28.8245946 141.86406928 28.8245946 141.86406928 25.73046875 141.99023438 C25.5603125 142.66570312 25.39015625 143.34117187 25.21484375 144.03710938 C22.63792376 153.52236805 22.63792376 153.52236805 18.73046875 155.99023438 C14.0637855 157.79347703 10.78567709 158.28430883 5.91796875 156.92773438 C2.47173433 154.83296443 0.8908733 153.37928337 -1.26953125 149.99023438 C-1.86762828 147.22053046 -1.96394962 144.50481803 -2.01953125 141.67773438 C-2.04917969 140.93716797 -2.07882813 140.19660156 -2.109375 139.43359375 C-2.1795897 137.61971392 -2.22688173 135.80497159 -2.26953125 133.99023438 C-3.51844739 133.50824975 -4.76871933 133.02977761 -6.01953125 132.55273438 C-6.715625 132.28589844 -7.41171875 132.0190625 -8.12890625 131.74414062 C-10.16012128 131.02876745 -12.17306035 130.47657785 -14.26953125 129.99023438 Z M70.73046875 152.99023438 C70.64327244 157.55261369 70.59000953 162.11477824 70.54296875 166.67773438 C70.51783203 167.97130859 70.49269531 169.26488281 70.46679688 170.59765625 C70.45712891 171.84482422 70.44746094 173.09199219 70.4375 174.37695312 C70.42178955 175.52381592 70.4060791 176.67067871 70.38989258 177.85229492 C70.78859971 181.52583094 71.2969881 183.19759272 73.73046875 185.99023438 C81.29241603 190.30034443 90.03950929 189.40666158 98.48828125 189.35351562 C100.12157185 189.35299621 101.75486309 189.35351705 103.38815308 189.35502625 C106.79906637 189.35493687 110.2097416 189.3445769 113.62060547 189.32641602 C117.98282876 189.30369398 122.34470588 189.30319505 126.70697212 189.30993366 C130.07509413 189.31328124 133.44313783 189.3066293 136.81124496 189.29680443 C138.41952988 189.29296846 140.02782352 189.29179753 141.63611221 189.29339027 C143.88534289 189.29376288 146.13413612 189.28108797 148.38330078 189.26489258 C149.66044952 189.26028519 150.93759827 189.2556778 152.25344849 189.25093079 C157.2619438 188.87540903 160.6411312 187.85157104 164.5859375 184.73242188 C168.3705367 179.74989632 167.24335231 173.0342566 167.04296875 167.11523438 C167.02041016 165.85453125 166.99785156 164.59382812 166.97460938 163.29492188 C166.91584456 160.19213938 166.83372726 157.09180238 166.73046875 153.99023438 C160.20769077 154.97615359 153.88244647 156.42065571 147.53515625 158.18945312 C146.81169006 158.38967072 146.08822388 158.58988831 145.34283447 158.7961731 C142.33614911 159.63089623 139.33088738 160.46954842 136.33154297 161.33032227 C134.11158124 161.96476825 131.88667271 162.57846964 129.66015625 163.18945312 C128.99740692 163.38520432 128.33465759 163.58095551 127.65182495 163.78263855 C119.18874279 166.06486333 111.39708419 163.84167696 103.171875 161.48632812 C102.30151108 161.24358658 101.43114716 161.00084503 100.53440857 160.75074768 C97.78537067 159.98297415 95.03908328 159.20589265 92.29296875 158.42773438 C89.52145128 157.64757684 86.74939717 156.8694178 83.97654724 156.0940094 C82.25843836 155.61302225 80.54117058 155.12901842 78.82484436 154.64170837 C74.84005194 153.43442689 74.84005194 153.43442689 70.73046875 152.99023438 Z " fill="#FFFFFF" transform="translate(137.26953125,109.009765625)"/>
</svg>
