<?xml version="1.0" encoding="UTF-8"?>
<svg version="1.1" xmlns="http://www.w3.org/2000/svg" width="512" height="512">
<path d="M0 0 C11.07503465 6.97508003 19.04947161 16.64855267 23.35546875 29.11328125 C23.73572874 30.84684413 24.09257343 32.58565778 24.4296875 34.328125 C24.60459717 35.22523193 24.77950684 36.12233887 24.9597168 37.04663086 C25.09031494 37.72862549 25.22091309 38.41062012 25.35546875 39.11328125 C26.43965088 39.10280762 27.52383301 39.09233398 28.64086914 39.08154297 C32.68689637 39.04517482 36.73290932 39.02231988 40.77905273 39.00341797 C42.5258223 38.99339857 44.27257525 38.9797793 46.01928711 38.96240234 C48.5389416 38.93797456 51.05837314 38.92675736 53.578125 38.91796875 C54.35132584 38.90764618 55.12452667 38.89732361 55.92115784 38.88668823 C61.55171197 38.88553919 66.87725658 39.26128398 71.53515625 42.7421875 C72.09460938 43.38027344 72.6540625 44.01835938 73.23046875 44.67578125 C73.80539062 45.29582031 74.3803125 45.91585937 74.97265625 46.5546875 C76.40567833 49.20618316 76.65998545 50.81481218 76.94189453 53.77319336 C77.02222931 54.58541855 77.10256409 55.39764374 77.18533325 56.23448181 C77.24147797 56.85448563 77.29762268 57.47448944 77.35546875 58.11328125 C78.59788582 58.12208061 78.59788582 58.12208061 79.86540222 58.13105774 C87.67830684 58.18900649 95.49092625 58.26109565 103.30355358 58.34899616 C107.31994297 58.39368805 111.33623121 58.4329466 115.3527832 58.4597168 C119.23036179 58.48576186 123.10755087 58.52617226 126.98488808 58.57646751 C128.46277324 58.5931282 129.94072577 58.60464747 131.41869164 58.61089516 C133.49202499 58.6205454 135.56436371 58.64861295 137.63745117 58.6809082 C138.81659592 58.69201126 139.99574066 58.70311432 141.21061707 58.71455383 C145.96798469 59.31772788 148.48302609 61.11966599 151.60546875 64.67578125 C154.074472 68.11475006 154.48001628 69.80399014 154.47572327 73.98538208 C154.47778526 75.52929626 154.47778526 75.52929626 154.47988892 77.10440063 C154.47629364 78.23800018 154.47269836 79.37159973 154.46899414 80.53955078 C154.46914017 81.72977844 154.46928619 82.9200061 154.46943665 84.14630127 C154.46885833 87.41469065 154.46383448 90.68303752 154.45686269 93.9514184 C154.45062192 97.36538668 154.45002478 100.77935575 154.44883728 104.19332886 C154.4457261 110.66022598 154.43751558 117.12710624 154.42748779 123.59399593 C154.41632004 130.95544767 154.41081453 138.31690021 154.40579236 145.67835832 C154.3953328 160.82334203 154.37773748 175.96830996 154.35546875 191.11328125 C150.11351343 190.45681412 146.51680449 189.53112435 142.5546875 187.86328125 C141.49572266 187.41984375 140.43675781 186.97640625 139.34570312 186.51953125 C138.25580078 186.05546875 137.16589844 185.59140625 136.04296875 185.11328125 C134.93373047 184.64921875 133.82449219 184.18515625 132.68164062 183.70703125 C124.50381531 180.26162781 124.50381531 180.26162781 123.35546875 179.11328125 C123.26030664 176.37439705 123.22992281 173.66080184 123.24194336 170.92163086 C123.24179733 170.06317062 123.24165131 169.20471039 123.24150085 168.32023621 C123.24220028 165.46867387 123.24999405 162.617176 123.2578125 159.765625 C123.25967657 157.79407283 123.26110053 155.8225202 123.26210022 153.85096741 C123.26592624 148.65101858 123.27575723 143.4510975 123.2868042 138.25115967 C123.29881069 132.01788659 123.30342016 125.78460426 123.30925751 119.55132294 C123.31896894 110.07195639 123.33812491 100.59265076 123.35546875 91.11328125 C107.84546875 91.11328125 92.33546875 91.11328125 76.35546875 91.11328125 C76.35546875 98.70328125 76.35546875 106.29328125 76.35546875 114.11328125 C73.36374305 120.09673265 71.3321646 123.12493333 65.35546875 126.11328125 C63.01493834 126.21669887 60.67136924 126.25284701 58.3285675 126.26045227 C57.23085353 126.2659673 57.23085353 126.2659673 56.11096352 126.27159375 C53.64599017 126.28265257 51.18105893 126.28647816 48.71606445 126.2902832 C46.95374924 126.29654627 45.19143535 126.30319292 43.42912292 126.31019592 C38.6314083 126.32762186 33.83370365 126.33816233 29.0359652 126.34640145 C26.03914926 126.35154893 23.04233644 126.35762482 20.04552269 126.36391258 C10.67120375 126.38297032 1.29689272 126.39719942 -8.07744187 126.40552455 C-18.90193117 126.41529583 -29.72621591 126.44161007 -40.55063313 126.48202544 C-48.91419737 126.51218181 -57.27770297 126.52699303 -65.64132053 126.53030556 C-70.63773432 126.53265687 -75.63392974 126.54162762 -80.63028526 126.56676674 C-85.33266483 126.59004363 -90.03468218 126.59428222 -94.73710442 126.58400536 C-96.46122695 126.58350977 -98.18536729 126.58983697 -99.90943527 126.6035614 C-102.26762688 126.62128028 -104.62451865 126.61417519 -106.98271179 126.60102844 C-108.3010435 126.6034168 -109.61937521 126.60580515 -110.97765636 126.60826588 C-116.15527906 125.90934821 -119.94410584 123.9837492 -123.51953125 120.05078125 C-125.55370173 116.54748765 -125.81388017 113.54086039 -125.9609375 109.5703125 C-125.99904541 108.60327393 -126.03715332 107.63623535 -126.07641602 106.63989258 C-126.14107056 104.80140747 -126.14107056 104.80140747 -126.20703125 102.92578125 C-126.42359375 97.07859375 -126.42359375 97.07859375 -126.64453125 91.11328125 C-141.49453125 91.11328125 -156.34453125 91.11328125 -171.64453125 91.11328125 C-171.71237771 127.25036846 -171.76607486 163.38743713 -171.79772724 199.52457499 C-171.80147927 203.79275062 -171.80536225 208.06092612 -171.80932617 212.32910156 C-171.81050657 213.60365472 -171.81050657 213.60365472 -171.81171081 214.90395643 C-171.82475791 228.65475583 -171.84840792 242.40551752 -171.87598964 256.15629457 C-171.90406321 270.27019539 -171.92071164 284.38407649 -171.92679673 298.49800408 C-171.93090913 307.20415492 -171.94388886 315.91019919 -171.96828065 324.61631723 C-171.98416194 330.58977593 -171.9889262 336.5631797 -171.98503538 342.53665797 C-171.98311755 345.98092308 -171.98601773 349.42500221 -172.00214767 352.86923409 C-172.01710166 356.60998169 -172.0134737 360.35027555 -172.0052948 364.09103394 C-172.01840259 365.71072171 -172.01840259 365.71072171 -172.03177518 367.36313045 C-171.95042198 381.15563079 -167.19897422 391.65912265 -157.64453125 401.55078125 C-125.83805118 432.62519874 -81.32116803 456.58395465 -39.64453125 470.80078125 C-38.65952637 471.14028809 -37.67452148 471.47979492 -36.65966797 471.82958984 C-28.1527138 474.59864676 -21.56861312 474.83143313 -12.89453125 472.17578125 C-12.16556641 471.95543213 -11.43660156 471.73508301 -10.68554688 471.50805664 C-1.31353033 468.53912718 7.49590103 464.33356364 16.35546875 460.11328125 C17.43715332 459.6018457 18.51883789 459.09041016 19.63330078 458.56347656 C25.1958851 455.93159754 30.75237656 453.28697256 36.296875 450.6171875 C37.20123291 450.18220947 38.10559082 449.74723145 39.03735352 449.29907227 C41.52938037 448.08033597 41.52938037 448.08033597 44.35546875 446.11328125 C47.58770485 446.44760918 49.37100898 447.7048672 51.74609375 449.84375 C52.68183228 450.67386597 52.68183228 450.67386597 53.63647461 451.52075195 C54.61112671 452.40186646 54.61112671 452.40186646 55.60546875 453.30078125 C60.70258472 457.8218892 65.80525215 462.14884082 71.35546875 466.11328125 C70.22123109 469.51599422 69.86755957 469.68726044 66.8828125 471.3125 C65.79359497 471.91288086 65.79359497 471.91288086 64.68237305 472.52539062 C63.89386963 472.94626953 63.10536621 473.36714844 62.29296875 473.80078125 C61.47803955 474.24357422 60.66311035 474.68636719 59.82348633 475.14257812 C52.80368516 478.93153982 45.71372874 482.56673278 38.53808594 486.05078125 C37.00765456 486.79579661 35.47987445 487.54627136 33.95410156 488.30078125 C24.13690846 493.15439545 14.27771832 497.70360147 4.04296875 501.61328125 C3.19001221 501.93941406 2.33705566 502.26554687 1.45825195 502.6015625 C-26.55935315 513.03084625 -50.13811774 503.48860375 -76.13330078 491.73046875 C-92.11441936 484.36995356 -107.60580436 476.24405116 -122.64453125 467.11328125 C-123.80927979 466.41017822 -123.80927979 466.41017822 -124.99755859 465.69287109 C-154.42601499 447.83271733 -192.65317428 423.43843923 -202.70346069 388.42405701 C-204.22970203 381.30133025 -203.95401738 374.01779727 -203.96337891 366.76977539 C-203.97268827 365.1119225 -203.98284848 363.45407421 -203.99378586 361.79623127 C-204.02109282 357.27938804 -204.03623195 352.76257587 -204.04919767 348.24567175 C-204.06511259 343.42307446 -204.09220155 338.60053828 -204.11782837 333.77798462 C-204.16545186 324.46216516 -204.20236751 315.1463341 -204.234954 305.83045101 C-204.2612628 298.33500162 -204.29099039 290.83957337 -204.32312012 283.34414673 C-204.41895976 260.91032612 -204.50402099 238.47649858 -204.57536602 216.04258645 C-204.61954273 202.15758234 -204.67092471 188.2726376 -204.73144531 174.38769531 C-204.78914451 161.11490008 -204.83692984 147.84213096 -204.86593056 134.56923962 C-204.88026372 128.06484083 -204.89865926 121.56053065 -204.92852783 115.05618286 C-204.95544406 109.08263509 -204.9680621 103.1092384 -204.96873093 97.13563156 C-204.97130347 94.99870941 -204.97891507 92.86178604 -204.99211502 90.72490311 C-205.00902493 87.85767214 -205.00745034 84.99103878 -205.00097656 82.1237793 C-205.01019449 81.30307481 -205.01941242 80.48237032 -205.02890968 79.636796 C-204.98110462 73.08221363 -203.58401332 68.47211079 -199.33203125 63.30078125 C-194.59386844 59.4441371 -189.98210425 58.8629405 -183.99658203 58.88623047 C-182.04523849 58.88645706 -182.04523849 58.88645706 -180.05447388 58.88668823 C-178.64959558 58.89689923 -177.24471888 58.90733118 -175.83984375 58.91796875 C-174.3911051 58.92170279 -172.94236391 58.92454792 -171.49362183 58.92654419 C-167.69601365 58.93414989 -163.89856047 58.95377173 -160.10101318 58.97595215 C-156.2197072 58.99647687 -152.33837596 59.00556003 -148.45703125 59.015625 C-140.85279421 59.0370208 -133.24868452 59.07111934 -125.64453125 59.11328125 C-125.66555908 58.50274902 -125.68658691 57.8922168 -125.70825195 57.26318359 C-125.73278442 56.055896 -125.73278442 56.055896 -125.7578125 54.82421875 C-125.77884033 54.02806152 -125.79986816 53.2319043 -125.8215332 52.41162109 C-125.488837 48.09161822 -122.79553871 45.4484499 -120.08203125 42.30078125 C-116.36464181 39.22989432 -111.48126673 39.90670407 -106.92578125 39.83203125 C-105.64435242 39.80441711 -105.64435242 39.80441711 -104.33703613 39.77624512 C-100.68103491 39.69760528 -97.02484954 39.62985013 -93.36865234 39.56103516 C-90.70010398 39.5092694 -88.03171114 39.45203455 -85.36328125 39.39453125 C-84.53509888 39.38095581 -83.7069165 39.36738037 -82.8536377 39.35339355 C-79.5501243 39.28175442 -76.79898562 39.16476604 -73.64453125 38.11328125 C-72.93351575 35.6367781 -72.38697323 33.2584087 -71.89453125 30.73828125 C-69.10881457 18.38644092 -62.85754729 9.67791459 -52.64453125 2.11328125 C-49.40826626 0.1638963 -46.14923258 -1.47918548 -42.64453125 -2.88671875 C-41.36449219 -3.428125 -41.36449219 -3.428125 -40.05859375 -3.98046875 C-27.12001909 -7.41496454 -11.79168541 -6.42115282 0 0 Z M-39.4453125 34.39453125 C-41.57219789 37.44283604 -41.77114329 40.15571044 -41.8203125 43.75390625 C-41.84416016 44.66011719 -41.86800781 45.56632812 -41.89257812 46.5 C-41.93519016 48.39300752 -41.96663272 50.28630288 -41.98632812 52.1796875 C-42.17261802 58.30559256 -42.85169486 62.2086419 -46.64453125 67.11328125 C-51.72997489 70.40255239 -56.08894826 70.56718803 -61.9453125 70.58984375 C-62.82229294 70.60542328 -63.69927338 70.62100281 -64.60282898 70.63705444 C-67.3875549 70.68437125 -70.17203171 70.71228696 -72.95703125 70.73828125 C-75.75971026 70.77475135 -78.56224729 70.81528883 -81.36479187 70.8609314 C-83.10527715 70.88820231 -84.84586723 70.90953429 -86.58650208 70.92446899 C-90.42640834 70.5994736 -90.42640834 70.5994736 -93.64453125 72.11328125 C-93.74352648 73.66283684 -93.77532649 75.21681798 -93.77734375 76.76953125 C-93.77863281 77.70925781 -93.77992188 78.64898437 -93.78125 79.6171875 C-93.77738281 80.60589844 -93.77351563 81.59460938 -93.76953125 82.61328125 C-93.77339844 83.60199219 -93.77726562 84.59070313 -93.78125 85.609375 C-93.77996094 86.54910156 -93.77867187 87.48882812 -93.77734375 88.45703125 C-93.77621582 89.32521484 -93.77508789 90.19339844 -93.77392578 91.08789062 C-93.86868495 93.10932279 -93.86868495 93.10932279 -92.64453125 94.11328125 C-90.87292807 94.20962584 -89.09744717 94.23515606 -87.32322693 94.23353577 C-85.59205627 94.23559776 -85.59205627 94.23559776 -83.82591248 94.23770142 C-81.90972862 94.2323085 -81.90972862 94.2323085 -79.95483398 94.22680664 C-78.60494997 94.22652477 -77.25506581 94.2266825 -75.90518188 94.22724915 C-72.22972517 94.22753712 -68.55430082 94.22164041 -64.87885165 94.21467519 C-61.04179976 94.20844163 -57.20474721 94.20783785 -53.36769104 94.20664978 C-46.09681907 94.20353647 -38.82596206 94.19532308 -31.55509669 94.18530029 C-23.27953773 94.17413915 -15.00397807 94.1686287 -6.72841346 94.16360486 C10.29955594 94.15314047 27.32751077 94.13554103 44.35546875 94.11328125 C45.60597162 91.61227551 45.38540324 90.10985073 45.234375 87.32421875 C45.18603516 86.38320312 45.13769531 85.4421875 45.08789062 84.47265625 C45.03181641 83.4878125 44.97574219 82.50296875 44.91796875 81.48828125 C44.86576172 80.49570313 44.81355469 79.503125 44.75976562 78.48046875 C44.62987926 76.02443557 44.49490711 73.56878765 44.35546875 71.11328125 C43.1751709 71.09869873 41.99487305 71.08411621 40.77880859 71.0690918 C36.383975 71.01095428 31.98964549 70.93372244 27.59521484 70.85083008 C25.69620976 70.81765332 23.79710779 70.78959894 21.89794922 70.7668457 C19.1620164 70.73316607 16.42696564 70.68084405 13.69140625 70.625 C12.42543106 70.61541512 12.42543106 70.61541512 11.13388062 70.6056366 C6.15357955 70.48246853 2.67275611 69.85698173 -1.64453125 67.11328125 C-6.18609495 62.1243849 -6.20227025 57.64659247 -6.20703125 51.23828125 C-6.18411997 40.69338662 -6.18411997 40.69338662 -11.02539062 31.58691406 C-16.0269002 27.25373669 -19.90638958 25.6796085 -26.40625 25.87109375 C-32.47337868 26.5275719 -35.73011013 29.94798983 -39.4453125 34.39453125 Z " fill="#FFFFFF" transform="translate(243.64453125,4.88671875)"/>
<path d="M0 0 C1.5778125 0.69536865 1.5778125 0.69536865 3.1875 1.40478516 C4.90259766 2.17701416 4.90259766 2.17701416 6.65234375 2.96484375 C9.19229098 4.08506433 11.73657085 5.19526456 14.28125 6.3046875 C14.95141144 6.5977478 15.62157288 6.89080811 16.31204224 7.19274902 C23.42705238 10.29195808 30.6127186 13.20979093 37.81100464 16.10916138 C40.10424432 17.03314598 42.39614858 17.96037373 44.68774414 18.88842773 C52.61624233 22.09726473 60.55157108 25.28827495 68.4954834 28.45877075 C72.54117993 30.07649313 76.58258492 31.70475826 80.62329102 33.3348999 C82.58803458 34.12465373 84.55465517 34.90975517 86.52319336 35.69000244 C89.27943833 36.7829414 92.02885112 37.89164256 94.77734375 39.00390625 C96.00608215 39.48434387 96.00608215 39.48434387 97.25964355 39.9744873 C101.9853936 41.9090764 105.26809542 43.86706452 108.58984375 47.90234375 C112.04959223 58.28158918 109.31283364 72.41096118 108.40234375 83.21484375 C108.33737701 83.99448486 108.27241028 84.77412598 108.20547485 85.57739258 C106.38465152 106.94737832 102.4667863 127.56310205 95.58984375 147.90234375 C95.36216309 148.5890918 95.13448242 149.27583984 94.89990234 149.98339844 C84.68623594 180.39479383 66.68396275 206.92943978 44.58984375 229.90234375 C44.12046387 230.3936377 43.65108398 230.88493164 43.16748047 231.39111328 C36.71510918 238.11468757 29.94525225 244.18602349 22.58984375 249.90234375 C21.17058594 251.01222656 21.17058594 251.01222656 19.72265625 252.14453125 C14.38331253 256.23755601 8.92616175 260.15457031 3.33984375 263.90234375 C2.78578857 264.28841797 2.2317334 264.67449219 1.66088867 265.07226562 C-2.53681931 267.82143811 -6.402517 269.29905361 -11.41015625 268.90234375 C-17.36131581 266.98357648 -22.56051978 262.94616182 -27.59765625 259.33984375 C-28.3359668 258.81390625 -29.07427734 258.28796875 -29.83496094 257.74609375 C-36.67770129 252.81151056 -43.11967461 247.51772051 -49.41015625 241.90234375 C-49.94060547 241.4336084 -50.47105469 240.96487305 -51.01757812 240.48193359 C-69.72078901 223.89490233 -86.17535654 204.79353496 -98.41015625 182.90234375 C-98.80009766 182.20850586 -99.19003906 181.51466797 -99.59179688 180.79980469 C-120.5202606 143.26680714 -127.22393808 102.63158049 -127.72265625 60.02734375 C-127.74030029 59.18437744 -127.75794434 58.34141113 -127.77612305 57.47290039 C-127.77523682 56.68906982 -127.77435059 55.90523926 -127.7734375 55.09765625 C-127.77641846 54.42750488 -127.77939941 53.75735352 -127.7824707 53.06689453 C-127.23588452 49.88916793 -126.10816977 47.63992015 -124.41015625 44.90234375 C-121.90966797 43.16870117 -121.90966797 43.16870117 -118.96484375 41.8203125 C-117.34980957 41.07467041 -117.34980957 41.07467041 -115.70214844 40.31396484 C-110.68704064 38.16346401 -105.63698716 36.14995394 -100.53515625 34.21484375 C-88.40708756 29.53280212 -76.37749425 24.62999101 -64.36737061 19.65356445 C-61.35701945 18.4062234 -58.34584109 17.16089848 -55.33447266 15.91601562 C-47.44386582 12.65254036 -39.55397325 9.38782472 -31.68153381 6.08071899 C-29.74686998 5.26911335 -27.81050052 4.46175784 -25.87329102 3.65625 C-23.64487769 2.72875248 -21.41979537 1.7931893 -19.19897461 0.84765625 C-18.23741455 0.44933594 -17.27585449 0.05101562 -16.28515625 -0.359375 C-15.47820312 -0.69928467 -14.67125 -1.03919434 -13.83984375 -1.3894043 C-8.68981478 -2.8906336 -4.80980141 -2.16178058 0 0 Z M-18.54296875 34.65625 C-19.24034149 34.94863052 -19.93771423 35.24101105 -20.65621948 35.54225159 C-22.95292859 36.50786132 -25.24397976 37.48618713 -27.53515625 38.46484375 C-29.13772873 39.14180519 -30.74059786 39.81806477 -32.34375 40.49365234 C-37.37161165 42.61651894 -42.39148553 44.75785678 -47.41015625 46.90234375 C-49.05175781 47.60302734 -50.69335938 48.30371094 -52.33496094 49.00439453 C-58.47140493 51.6252585 -64.60643835 54.24934701 -70.73486328 56.88891602 C-78.60552343 60.27881981 -86.48951605 63.63020427 -94.41015625 66.90234375 C-95.83935843 110.8370775 -84.24482453 154.31399239 -56.41015625 188.90234375 C-55.28867187 190.33707031 -55.28867187 190.33707031 -54.14453125 191.80078125 C-50.0665336 196.9202819 -45.75751364 201.81876835 -41.34765625 206.65234375 C-40.877229 207.17135254 -40.40680176 207.69036133 -39.92211914 208.22509766 C-33.48839117 215.17683737 -26.11567836 221.08889045 -18.66015625 226.90234375 C-17.54833984 227.79759766 -17.54833984 227.79759766 -16.4140625 228.7109375 C-15.69605469 229.26910156 -14.97804688 229.82726562 -14.23828125 230.40234375 C-13.59793945 230.90765625 -12.95759766 231.41296875 -12.29785156 231.93359375 C-10.45223617 233.10081083 -10.45223617 233.10081083 -8.33740234 232.66796875 C-0.37420815 229.50448041 7.08717973 221.74272249 13.2890625 216.015625 C15.36769609 214.1063877 17.49405121 212.28257731 19.65234375 210.46484375 C35.05879394 196.89980195 46.30867906 179.02532805 55.58984375 160.90234375 C55.91678223 160.27295898 56.2437207 159.64357422 56.58056641 158.99511719 C69.5625964 133.73608651 76.82825373 104.26552646 76.6328125 75.8828125 C76.62971069 75.01410522 76.62660889 74.14539795 76.62341309 73.25036621 C76.61540612 71.13434429 76.60307959 69.01833943 76.58984375 66.90234375 C75.38376465 66.39485596 74.17768555 65.88736816 72.93505859 65.36450195 C67.27749776 62.98323332 61.62096454 60.59953064 55.96484375 58.21484375 C54.94508453 57.78494141 53.92532532 57.35503906 52.87466431 56.91210938 C38.77353543 50.96479086 24.69625432 44.96848185 10.67919922 38.82543945 C-3.61092736 31.98626075 -3.61092736 31.98626075 -18.54296875 34.65625 Z " fill="#FFFFFF" transform="translate(363.41015625,201.09765625)"/>
<path d="M0 0 C0.8786673 -0.00511093 1.75733459 -0.01022186 2.66262817 -0.01548767 C5.56104382 -0.02936363 8.45922115 -0.02842845 11.35766602 -0.02612305 C13.37638945 -0.03001096 15.39511206 -0.03434583 17.41383362 -0.03910828 C21.64294081 -0.04656611 25.87196451 -0.04628227 30.10107422 -0.04101562 C35.51603727 -0.03522041 40.93065833 -0.05215546 46.34556484 -0.0753603 C50.5140431 -0.09010361 54.68243909 -0.09096854 58.8509388 -0.08785057 C60.84719584 -0.08836344 62.84345753 -0.09359476 64.83968925 -0.10366249 C67.63293459 -0.11602157 70.42551503 -0.10923842 73.21875 -0.09765625 C74.45098549 -0.10912186 74.45098549 -0.10912186 75.70811462 -0.12081909 C80.59929757 -0.07607169 83.92899021 0.58638273 88.17407227 3.2746582 C92.84461563 8.45012518 93.53191296 11.67069919 93.45141602 18.51293945 C93.06017196 22.40884856 91.81903747 24.42087995 89.17407227 27.2746582 C84.71480085 30.77303775 81.80456031 31.77919675 76.15893555 31.82055664 C75.48506302 31.83089432 74.81119049 31.84123199 74.11689758 31.85188293 C71.90914539 31.88117248 69.70231545 31.88280704 67.49438477 31.8840332 C65.9559455 31.89902437 64.41752227 31.91575348 62.87911987 31.93414307 C58.84484087 31.97772437 54.81077893 31.99779497 50.77630615 32.01287842 C46.65355645 32.03248299 42.53104004 32.07444914 38.40844727 32.11450195 C30.33038347 32.18970402 22.25241153 32.24005573 14.17407227 32.2746582 C16.07105425 33.70825285 17.96943705 35.13992585 19.86865234 36.57055664 C20.66574993 37.17339981 20.66574993 37.17339981 21.4789505 37.78842163 C26.12817281 41.28672287 30.90593396 44.48129575 35.86157227 47.5246582 C36.74530518 48.06767578 37.62903809 48.61069336 38.53955078 49.17016602 C53.24791303 58.07067648 68.51612639 65.97480248 84.36157227 72.6496582 C85.26383545 73.03734375 86.16609863 73.4250293 87.09570312 73.82446289 C96.00924735 77.43376369 101.60932874 74.91372209 110.17407227 71.3996582 C111.48891602 70.87178711 111.48891602 70.87178711 112.83032227 70.33325195 C116.513568 68.84109367 120.04695919 67.34321688 123.54907227 65.4543457 C126.17407227 64.2746582 126.17407227 64.2746582 128.16064453 64.4777832 C130.70521541 65.48487419 131.48421116 66.59300413 133.01391602 68.8449707 C133.51987305 69.5771582 134.02583008 70.3093457 134.54711914 71.0637207 C135.06338867 71.83458008 135.5796582 72.60543945 136.11157227 73.3996582 C137.1414209 74.90233042 138.17136779 76.4049353 139.20141602 77.9074707 C139.94367432 79.00236816 139.94367432 79.00236816 140.70092773 80.11938477 C142.81082395 83.20625315 144.98906831 86.24060114 147.17407227 89.2746582 C144.87403558 91.83665383 142.60704377 93.23132867 139.51782227 94.7277832 C138.58695801 95.17919678 137.65609375 95.63061035 136.69702148 96.09570312 C99.31235172 113.76752288 99.31235172 113.76752288 84.81079102 108.88793945 C79.48711208 106.9306726 74.33055862 104.63211138 69.17407227 102.2746582 C68.1822998 101.82477539 67.19052734 101.37489258 66.16870117 100.91137695 C47.04262106 92.16320612 28.38876211 82.41077611 11.17407227 70.2746582 C10.62203125 69.89100098 10.06999023 69.50734375 9.5012207 69.11206055 C-20.16326996 48.49401373 -20.16326996 48.49401373 -23.38061523 36.14575195 C-23.98604824 32.24230229 -24.08956009 28.40740629 -24.13842773 24.4621582 C-24.16743164 23.69323242 -24.19643555 22.92430664 -24.22631836 22.13208008 C-24.29577032 15.80126699 -22.78727748 10.48218997 -18.41333008 5.74462891 C-12.5719876 0.59253866 -7.43890201 -0.02237879 0 0 Z " fill="#FFFFFF" transform="translate(122.825927734375,338.725341796875)"/>
<path d="M0 0 C1.32056578 -0.00551503 1.32056578 -0.00551503 2.66780967 -0.01114148 C5.62951303 -0.02218948 8.59118132 -0.02602403 11.55290222 -0.02983093 C13.67166252 -0.03609466 15.79042171 -0.04274138 17.90917969 -0.04974365 C23.67368005 -0.06715988 29.43817211 -0.07770678 35.20269227 -0.08594918 C38.80237297 -0.09109725 42.40205109 -0.09717302 46.00172997 -0.10346031 C57.25923603 -0.12251279 68.51673553 -0.13674469 79.77425462 -0.14507228 C92.77890792 -0.15485063 105.78339127 -0.18118561 118.78798467 -0.22157317 C128.83391714 -0.25170423 138.87980082 -0.26653824 148.92577761 -0.26985329 C154.92873238 -0.2722069 160.93150561 -0.28120799 166.934412 -0.30631447 C172.58067616 -0.32954792 178.22663863 -0.33384738 183.87293816 -0.32355309 C185.9457919 -0.32305649 188.01866026 -0.32941317 190.09146881 -0.34310913 C192.92063647 -0.36075756 195.74871311 -0.35375657 198.57788086 -0.34057617 C199.39880228 -0.35154542 200.21972371 -0.36251466 201.06552154 -0.37381631 C206.33413675 -0.31452602 209.2832436 0.68804384 213.47941589 4.14717102 C217.87693477 9.13894921 218.84170952 12.0575295 218.75675964 18.60810852 C218.2122232 23.59330132 215.62573778 26.20343556 211.88885593 29.27990818 C207.55257093 31.65478023 204.40866481 31.70501038 199.55337524 31.64837646 C198.66564566 31.65391086 197.77791608 31.65944526 196.8632856 31.66514736 C193.89446641 31.6787394 190.92649 31.66379244 187.95768738 31.64888 C185.82700748 31.65266367 183.69633004 31.6581641 181.56565857 31.66525269 C175.78270017 31.67921738 170.00003895 31.66803058 164.21709704 31.65154147 C158.16692541 31.63769542 152.11677111 31.64415048 146.06658936 31.64767456 C135.90735583 31.65037682 125.74824045 31.63689892 115.58903503 31.61372375 C103.83966801 31.58710684 92.09049844 31.58536917 80.3411116 31.59711212 C69.04193749 31.60788649 57.74283489 31.60170594 46.44366646 31.58755684 C41.63315709 31.58179482 36.82270001 31.58188141 32.01218987 31.58662224 C26.3494764 31.59139013 20.68697951 31.58129795 15.02430725 31.55966759 C12.94459832 31.55409728 10.86486858 31.55363664 8.78515816 31.55862045 C5.94935507 31.56456456 3.11421611 31.5520848 0.2784729 31.53485107 C-0.96004538 31.54386614 -0.96004538 31.54386614 -2.22358423 31.55306333 C-8.48025486 31.48377802 -11.63821548 29.90119633 -16.27058411 25.58467102 C-19.4265276 21.57981867 -19.79661205 17.12379242 -19.52058411 12.14717102 C-17.90852986 7.40056685 -15.2728171 4.43037489 -11.52058411 1.14717102 C-7.663276 -0.13859835 -4.02003685 -0.00089552 0 0 Z " fill="#FFFFFF" transform="translate(118.52058410644531,163.8528289794922)"/>
<path d="M0 0 C3.77800519 1.91271392 5.77547864 4.62338352 7.9375 8.25 C9.21924703 12.77381305 9.39660704 16.48964611 8 21 C5.25025927 25.51148508 2.04454315 29.24792471 -1.68310547 32.95776367 C-2.23975891 33.51952805 -2.79641235 34.08129242 -3.36993408 34.66007996 C-5.19724598 36.50120438 -7.03180266 38.33489447 -8.8671875 40.16796875 C-10.14769036 41.45236222 -11.42797049 42.73697778 -12.70803833 44.02180481 C-15.38611276 46.70732285 -18.068006 49.38895622 -20.75244141 52.06811523 C-24.18619735 55.49606954 -27.60843575 58.93527209 -31.02767754 62.37769604 C-33.66647703 65.03124704 -36.31219204 67.67781779 -38.95993423 70.32244301 C-40.2245105 71.58753145 -41.48673558 72.8549748 -42.74651718 74.12483788 C-44.50994483 75.90064403 -46.28270723 77.66659232 -48.05810547 79.43041992 C-48.57259247 79.95255066 -49.08707947 80.4746814 -49.61715698 81.01263428 C-53.26283538 84.60617702 -57.00683105 87.43878082 -62.125 88.3984375 C-62.74375 88.39070313 -63.3625 88.38296875 -64 88.375 C-64.928125 88.38660156 -64.928125 88.38660156 -65.875 88.3984375 C-72.63372583 87.13117641 -76.89375062 82.53376039 -81.515625 77.84765625 C-82.21266541 77.15111435 -82.90970581 76.45457245 -83.62786865 75.73692322 C-85.093738 74.26872139 -86.55593499 72.79684491 -88.01464844 71.3215332 C-90.24774279 69.06478113 -92.49392595 66.8217098 -94.7421875 64.58007812 C-96.16746159 63.14922889 -97.59196759 61.71761405 -99.015625 60.28515625 C-99.68644104 59.61525162 -100.35725708 58.94534698 -101.04840088 58.25514221 C-101.98012115 57.30912392 -101.98012115 57.30912392 -102.93066406 56.34399414 C-103.47660217 55.79344864 -104.02254028 55.24290314 -104.58502197 54.67567444 C-108.29451655 50.28274033 -108.42441701 46.27233984 -108.3203125 40.6953125 C-107.75430725 35.93258537 -105.4344371 33.26056594 -101.9375 30.1875 C-97.96064498 27.75007273 -94.57309667 27.62515601 -90 28 C-82.83252498 30.87156013 -78.29104043 35.22054181 -73 40.75 C-72.22527344 41.54277344 -71.45054687 42.33554687 -70.65234375 43.15234375 C-68.75872903 45.09271439 -66.87515713 47.0418148 -65 49 C-62.0510636 47.5846017 -59.97739128 46.22500776 -57.6875 43.875 C-56.88892578 43.06675781 -56.88892578 43.06675781 -56.07421875 42.2421875 C-54.27481537 40.29706973 -52.53963285 38.31717042 -50.80786133 36.31225586 C-47.3293316 32.33253748 -43.71382606 28.52141111 -40 24.76171875 C-39.360625 24.114272 -38.72125 23.46682526 -38.0625 22.79975891 C-36.7228098 21.44636232 -35.38164869 20.09442026 -34.0390625 18.74389648 C-32.67520453 17.36844441 -31.3158447 15.98851806 -29.9609375 14.60424805 C-27.98371798 12.58432555 -25.99354479 10.57801575 -24 8.57421875 C-23.401875 7.95858566 -22.80375 7.34295258 -22.1875 6.70866394 C-15.63338214 0.18774871 -9.21371856 -2.46307328 0 0 Z " fill="#FFFFFF" transform="translate(406,281)"/>
<path d="M0 0 C0.90763596 -0.0049649 1.81527191 -0.00992981 2.75041199 -0.01504517 C5.7570369 -0.02966584 8.76360903 -0.03646877 11.77026367 -0.04199219 C13.85910544 -0.04774387 15.9479472 -0.0535016 18.03678894 -0.05926514 C22.41905971 -0.06977496 26.80131214 -0.0756177 31.18359375 -0.07910156 C36.79588424 -0.08458519 42.40793199 -0.10861061 48.02014637 -0.13707352 C52.33616339 -0.15570776 56.65212204 -0.16090593 60.96817589 -0.16243744 C63.03700779 -0.16546288 65.1058387 -0.17348775 67.17463112 -0.18662262 C70.07103504 -0.20369878 72.96684726 -0.2017989 75.86328125 -0.1953125 C77.1423082 -0.20913467 77.1423082 -0.20913467 78.44717407 -0.22323608 C84.1079484 -0.18357326 88.42593484 0.69860961 92.77026367 4.66113281 C96.62340421 9.60964775 97.63976889 12.88988794 97.12573242 19.16113281 C95.3158063 24.43352629 92.89120861 28.10634039 88.12573242 31.16113281 C84.19455719 32.47152456 80.44174184 32.31687183 76.34326172 32.32226562 C74.99643814 32.32971298 74.99643814 32.32971298 73.62240601 32.33731079 C70.64824663 32.35193081 67.6741406 32.35873429 64.69995117 32.36425781 C62.63352965 32.37000956 60.56710814 32.37576729 58.50068665 32.38153076 C54.16549429 32.3920404 49.83032049 32.39788326 45.49511719 32.40136719 C39.94335969 32.40685071 34.3918476 32.43087596 28.84016705 32.45933914 C24.57047309 32.47797424 20.30083813 32.4831716 16.03110695 32.48470306 C13.98460359 32.48772833 11.93810124 32.49575259 9.8916378 32.50888824 C7.0263649 32.52596617 4.16169004 32.52406411 1.29638672 32.51757812 C0.03138588 32.5314003 0.03138588 32.5314003 -1.25917053 32.54550171 C-6.89196236 32.50561269 -11.23592804 31.62400083 -15.51879883 27.62597656 C-20.07887784 21.66279632 -20.64426715 17.62907391 -19.87426758 10.16113281 C-15.34666932 1.1059363 -9.46870642 0.01232557 0 0 Z " fill="#FFFFFF" transform="translate(119.874267578125,279.8388671875)"/>
<path d="M0 0 C0.94708832 -0.00700928 1.89417664 -0.01401855 2.8699646 -0.02124023 C5.99043377 -0.03879846 9.10999087 -0.02720488 12.23046875 -0.01367188 C14.40470554 -0.0163674 16.57894116 -0.02025033 18.75317383 -0.02526855 C23.30594378 -0.03116068 27.85839944 -0.0226096 32.41113281 -0.00390625 C38.24208088 0.01888281 44.07229245 0.00575824 49.9032135 -0.01819611 C54.39169853 -0.03266162 58.88000943 -0.02804456 63.36849976 -0.01768494 C65.51826057 -0.01501975 67.66803729 -0.01828006 69.81777954 -0.02760315 C72.82425719 -0.03778085 75.82954807 -0.0222499 78.8359375 0 C79.72131195 -0.00809692 80.6066864 -0.01619385 81.51889038 -0.02453613 C86.96504118 0.04999848 90.11505585 0.86712741 94.41796875 4.51757812 C98.09378469 9.35417805 99.07709515 13.0846016 98.80078125 19.15429688 C98.01636703 23.99685407 95.5167792 26.60013156 91.86366272 29.65028381 C87.36676126 32.08724966 83.94197111 32.07470096 78.91186523 32.01928711 C77.50345367 32.02739159 77.50345367 32.02739159 76.06658936 32.03565979 C72.97375634 32.04813159 69.88185692 32.03166725 66.7890625 32.01367188 C64.6348516 32.01382689 62.48064041 32.0153162 60.32643127 32.01808167 C55.81653482 32.01946492 51.30695667 32.00691848 46.79711914 31.98413086 C41.01773018 31.95572966 35.23886933 31.95848929 29.45944118 31.97122097 C25.0130411 31.97817673 20.566763 31.97039027 16.12037849 31.95796394 C13.98933441 31.95344967 11.85827724 31.95311243 9.72723198 31.95702934 C6.74944083 31.95994093 3.77237696 31.94343724 0.79467773 31.92163086 C-0.52475075 31.92838333 -0.52475075 31.92838333 -1.87083435 31.93527222 C-7.47354937 31.86713062 -10.97667918 31.04398013 -15.12890625 27.01757812 C-19.08501117 22.08529147 -20.09999092 18.83668612 -19.58203125 12.51757812 C-16.32630657 2.54575853 -9.95085232 -0.09100251 0 0 Z " fill="#FFFFFF" transform="translate(118.58203125,222.482421875)"/>
</svg>
