<?xml version="1.0" encoding="UTF-8"?>
<svg xmlns="http://www.w3.org/2000/svg" xmlns:xlink="http://www.w3.org/1999/xlink" width="40px" height="40px" viewBox="0 0 40 40" version="1.1">
<g id="surface1">
<path style=" stroke:none;fill-rule:nonzero;fill:rgb(100%,100%,100%);fill-opacity:1;" d="M 17.046875 -0.0429688 C 17.117188 -0.0429688 17.191406 -0.0429688 17.261719 -0.046875 C 17.5 -0.046875 17.738281 -0.046875 17.972656 -0.046875 C 18.136719 -0.046875 18.304688 -0.046875 18.46875 -0.0507812 C 18.8125 -0.0507812 19.15625 -0.0507812 19.503906 -0.0507812 C 19.945312 -0.046875 20.386719 -0.0507812 20.828125 -0.0546875 C 21.167969 -0.0585938 21.507812 -0.0585938 21.847656 -0.0585938 C 22.011719 -0.0585938 22.175781 -0.0585938 22.335938 -0.0585938 C 22.566406 -0.0625 22.792969 -0.0585938 23.023438 -0.0585938 C 23.089844 -0.0585938 23.15625 -0.0625 23.226562 -0.0625 C 23.574219 -0.0546875 23.769531 -0.0195312 24.023438 0.226562 C 24.214844 0.464844 24.289062 0.59375 24.347656 0.890625 C 24.363281 0.976562 24.378906 1.0625 24.398438 1.152344 C 24.414062 1.261719 24.433594 1.375 24.453125 1.484375 C 24.480469 1.640625 24.507812 1.796875 24.535156 1.953125 C 24.59375 2.285156 24.652344 2.617188 24.707031 2.945312 C 24.722656 3.050781 24.722656 3.050781 24.742188 3.160156 C 24.765625 3.359375 24.769531 3.550781 24.765625 3.75 C 24.808594 3.761719 24.851562 3.773438 24.894531 3.78125 C 25.316406 3.898438 25.710938 4.050781 26.105469 4.234375 C 26.179688 4.269531 26.179688 4.269531 26.253906 4.304688 C 26.453125 4.398438 26.65625 4.492188 26.859375 4.589844 C 27.007812 4.664062 27.15625 4.730469 27.304688 4.800781 C 27.4375 4.863281 27.4375 4.863281 27.574219 4.929688 C 27.804688 5.019531 27.804688 5.019531 28.019531 4.949219 C 28.199219 4.847656 28.355469 4.742188 28.515625 4.613281 C 28.574219 4.570312 28.628906 4.523438 28.691406 4.476562 C 28.75 4.429688 28.808594 4.378906 28.871094 4.332031 C 28.996094 4.230469 29.125 4.132812 29.25 4.035156 C 29.417969 3.902344 29.589844 3.765625 29.757812 3.632812 C 29.882812 3.53125 30.007812 3.433594 30.132812 3.335938 C 30.199219 3.28125 30.269531 3.226562 30.335938 3.167969 C 30.691406 2.960938 30.96875 2.941406 31.367188 3.03125 C 31.890625 3.238281 32.265625 3.703125 32.65625 4.101562 C 32.742188 4.191406 32.832031 4.28125 32.921875 4.371094 C 33.15625 4.605469 33.390625 4.84375 33.621094 5.078125 C 33.859375 5.320312 34.097656 5.558594 34.332031 5.796875 C 34.75 6.21875 35.167969 6.644531 35.585938 7.066406 C 35.71875 7.203125 35.855469 7.339844 35.992188 7.476562 C 36.167969 7.652344 36.335938 7.835938 36.503906 8.023438 C 36.585938 8.113281 36.585938 8.113281 36.667969 8.203125 C 36.867188 8.441406 36.894531 8.601562 36.910156 8.910156 C 36.914062 8.980469 36.917969 9.050781 36.921875 9.125 C 36.851562 9.503906 36.632812 9.769531 36.40625 10.078125 C 36.363281 10.136719 36.320312 10.195312 36.277344 10.257812 C 36.152344 10.4375 36.023438 10.613281 35.894531 10.792969 C 35.765625 10.96875 35.636719 11.144531 35.511719 11.320312 C 35.433594 11.425781 35.351562 11.53125 35.265625 11.632812 C 35.136719 11.785156 35.136719 11.785156 35 12.03125 C 35.054688 12.261719 35.054688 12.261719 35.15625 12.5 C 35.183594 12.570312 35.210938 12.640625 35.242188 12.714844 C 35.269531 12.785156 35.300781 12.855469 35.332031 12.929688 C 35.363281 13.007812 35.398438 13.085938 35.433594 13.167969 C 35.484375 13.292969 35.484375 13.292969 35.539062 13.417969 C 35.605469 13.582031 35.671875 13.742188 35.742188 13.90625 C 35.792969 14.023438 35.792969 14.023438 35.847656 14.144531 C 35.9375 14.375 35.9375 14.375 35.980469 14.597656 C 36.035156 14.839844 36.082031 14.96875 36.25 15.15625 C 36.71875 15.332031 37.191406 15.394531 37.6875 15.464844 C 37.886719 15.496094 38.085938 15.527344 38.285156 15.558594 C 38.40625 15.578125 38.53125 15.597656 38.65625 15.613281 C 39.179688 15.691406 39.570312 15.832031 39.917969 16.261719 C 40.074219 16.53125 40.054688 16.808594 40.050781 17.109375 C 40.054688 17.214844 40.054688 17.214844 40.054688 17.320312 C 40.054688 17.546875 40.054688 17.777344 40.054688 18.003906 C 40.054688 18.164062 40.054688 18.324219 40.054688 18.484375 C 40.058594 18.816406 40.058594 19.148438 40.054688 19.480469 C 40.054688 19.910156 40.054688 20.335938 40.058594 20.761719 C 40.0625 21.089844 40.058594 21.417969 40.058594 21.746094 C 40.058594 21.90625 40.058594 22.0625 40.0625 22.21875 C 40.0625 22.4375 40.0625 22.660156 40.058594 22.878906 C 40.0625 22.976562 40.0625 22.976562 40.0625 23.074219 C 40.054688 23.503906 39.945312 23.726562 39.648438 24.035156 C 39.496094 24.171875 39.367188 24.230469 39.164062 24.269531 C 39.097656 24.28125 39.027344 24.296875 38.957031 24.3125 C 38.886719 24.324219 38.8125 24.335938 38.742188 24.351562 C 38.664062 24.367188 38.589844 24.382812 38.511719 24.398438 C 38.132812 24.480469 37.757812 24.539062 37.371094 24.574219 C 36.785156 24.625 36.785156 24.625 36.25 24.84375 C 35.957031 25.210938 35.871094 25.683594 35.761719 26.128906 C 35.667969 26.449219 35.519531 26.730469 35.363281 27.023438 C 35.113281 27.472656 35.113281 27.472656 35 27.96875 C 35.078125 28.136719 35.078125 28.136719 35.210938 28.285156 C 35.28125 28.371094 35.28125 28.371094 35.351562 28.460938 C 35.402344 28.519531 35.449219 28.582031 35.503906 28.644531 C 35.605469 28.769531 35.707031 28.894531 35.808594 29.019531 C 35.855469 29.082031 35.90625 29.140625 35.957031 29.203125 C 36.132812 29.421875 36.296875 29.644531 36.460938 29.867188 C 36.503906 29.929688 36.550781 29.992188 36.597656 30.058594 C 36.988281 30.625 36.988281 30.625 36.988281 31.011719 C 36.988281 31.105469 36.988281 31.105469 36.992188 31.203125 C 36.898438 31.6875 36.503906 32.035156 36.164062 32.371094 C 36.09375 32.441406 36.09375 32.441406 36.023438 32.511719 C 35.871094 32.667969 35.714844 32.820312 35.5625 32.976562 C 35.453125 33.082031 35.347656 33.191406 35.238281 33.296875 C 35.015625 33.523438 34.789062 33.746094 34.566406 33.972656 C 34.277344 34.257812 33.988281 34.546875 33.699219 34.835938 C 33.480469 35.058594 33.257812 35.277344 33.035156 35.5 C 32.929688 35.605469 32.824219 35.714844 32.71875 35.820312 C 32.570312 35.96875 32.421875 36.117188 32.273438 36.265625 C 32.226562 36.308594 32.183594 36.351562 32.140625 36.398438 C 31.78125 36.753906 31.546875 36.898438 31.039062 36.914062 C 30.925781 36.921875 30.925781 36.921875 30.808594 36.925781 C 30.167969 36.800781 29.625 36.246094 29.121094 35.851562 C 29.058594 35.800781 29 35.753906 28.9375 35.707031 C 28.878906 35.660156 28.820312 35.613281 28.757812 35.566406 C 28.675781 35.5 28.675781 35.5 28.589844 35.433594 C 28.464844 35.332031 28.34375 35.226562 28.222656 35.117188 C 28.058594 34.984375 28.058594 34.984375 27.863281 35 C 27.527344 35.125 27.207031 35.285156 26.886719 35.453125 C 26.5625 35.613281 26.289062 35.71875 25.929688 35.757812 C 25.488281 35.824219 25.136719 35.886719 24.84375 36.25 C 24.515625 37.035156 24.449219 37.960938 24.367188 38.800781 C 24.320312 39.25 24.222656 39.519531 23.902344 39.851562 C 23.585938 40.054688 23.332031 40.042969 22.960938 40.042969 C 22.890625 40.042969 22.820312 40.042969 22.746094 40.042969 C 22.511719 40.046875 22.277344 40.046875 22.042969 40.042969 C 21.878906 40.042969 21.71875 40.046875 21.554688 40.046875 C 21.214844 40.046875 20.871094 40.046875 20.53125 40.046875 C 20.09375 40.042969 19.65625 40.046875 19.21875 40.046875 C 18.882812 40.050781 18.546875 40.050781 18.210938 40.050781 C 18.046875 40.050781 17.886719 40.050781 17.726562 40.050781 C 17.5 40.050781 17.273438 40.050781 17.050781 40.050781 C 16.984375 40.050781 16.917969 40.050781 16.847656 40.050781 C 16.523438 40.046875 16.3125 40.019531 16.054688 39.8125 C 15.691406 39.4375 15.675781 39.058594 15.625 38.554688 C 15.53125 37.226562 15.53125 37.226562 14.992188 36.058594 C 14.601562 35.808594 14.179688 35.738281 13.730469 35.667969 C 13.378906 35.597656 13.085938 35.429688 12.773438 35.265625 C 12.40625 35.054688 12.40625 35.054688 11.996094 35.03125 C 11.695312 35.21875 11.410156 35.421875 11.125 35.636719 C 11.0625 35.679688 11 35.726562 10.933594 35.773438 C 10.660156 35.972656 10.386719 36.171875 10.117188 36.375 C 10.039062 36.429688 9.964844 36.484375 9.886719 36.542969 C 9.824219 36.589844 9.757812 36.640625 9.691406 36.6875 C 9.371094 36.902344 9.046875 36.914062 8.671875 36.875 C 8.070312 36.664062 7.628906 36.144531 7.1875 35.703125 C 7.050781 35.570312 6.914062 35.433594 6.78125 35.300781 C 6.386719 34.910156 5.996094 34.523438 5.605469 34.132812 C 5.367188 33.898438 5.132812 33.664062 4.894531 33.429688 C 4.664062 33.203125 4.4375 32.972656 4.207031 32.746094 C 4.121094 32.660156 4.03125 32.570312 3.945312 32.484375 C 3.824219 32.367188 3.703125 32.242188 3.582031 32.121094 C 3.511719 32.054688 3.441406 31.984375 3.371094 31.914062 C 3.078125 31.570312 3.003906 31.246094 3.015625 30.804688 C 3.070312 30.480469 3.253906 30.257812 3.453125 30 C 3.492188 29.945312 3.535156 29.886719 3.578125 29.832031 C 3.804688 29.523438 4.039062 29.226562 4.277344 28.929688 C 4.347656 28.839844 4.347656 28.839844 4.417969 28.75 C 4.507812 28.632812 4.601562 28.519531 4.691406 28.40625 C 4.734375 28.355469 4.777344 28.304688 4.820312 28.25 C 4.855469 28.207031 4.890625 28.160156 4.929688 28.113281 C 5.03125 27.90625 4.988281 27.792969 4.921875 27.578125 C 4.871094 27.453125 4.8125 27.332031 4.753906 27.214844 C 4.703125 27.113281 4.703125 27.113281 4.652344 27.007812 C 4.617188 26.9375 4.582031 26.867188 4.546875 26.792969 C 3.828125 25.316406 3.828125 25.316406 3.828125 24.765625 C 3.746094 24.753906 3.664062 24.738281 3.578125 24.726562 C 3.273438 24.675781 2.96875 24.628906 2.660156 24.578125 C 2.527344 24.558594 2.398438 24.535156 2.265625 24.515625 C 2.074219 24.484375 1.882812 24.453125 1.691406 24.421875 C 1.632812 24.414062 1.574219 24.402344 1.515625 24.394531 C 0.949219 24.300781 0.453125 24.210938 0.078125 23.738281 C -0.0703125 23.464844 -0.0546875 23.183594 -0.0507812 22.878906 C -0.0507812 22.773438 -0.0507812 22.773438 -0.0507812 22.667969 C -0.0507812 22.433594 -0.0507812 22.203125 -0.0507812 21.972656 C -0.0507812 21.8125 -0.0507812 21.648438 -0.0507812 21.488281 C -0.0507812 21.152344 -0.046875 20.8125 -0.046875 20.476562 C -0.0429688 20.042969 -0.0429688 19.609375 -0.046875 19.179688 C -0.046875 18.84375 -0.046875 18.511719 -0.0429688 18.179688 C -0.0429688 18.019531 -0.0429688 17.859375 -0.046875 17.699219 C -0.046875 17.476562 -0.0429688 17.253906 -0.0429688 17.03125 C -0.0429688 16.933594 -0.0429688 16.933594 -0.0429688 16.832031 C -0.0390625 16.519531 -0.0234375 16.363281 0.148438 16.09375 C 0.34375 15.90625 0.480469 15.855469 0.742188 15.785156 C 0.835938 15.761719 0.933594 15.738281 1.03125 15.710938 C 1.335938 15.636719 1.648438 15.574219 1.957031 15.507812 C 2.054688 15.488281 2.152344 15.46875 2.253906 15.449219 C 2.453125 15.40625 2.652344 15.367188 2.851562 15.328125 C 2.941406 15.308594 3.035156 15.289062 3.128906 15.269531 C 3.257812 15.246094 3.257812 15.246094 3.382812 15.222656 C 3.605469 15.152344 3.691406 15.105469 3.828125 14.921875 C 3.90625 14.769531 3.90625 14.769531 3.96875 14.601562 C 3.992188 14.539062 4.019531 14.472656 4.042969 14.410156 C 4.097656 14.269531 4.148438 14.132812 4.199219 13.992188 C 4.328125 13.652344 4.460938 13.332031 4.644531 13.023438 C 4.824219 12.710938 4.945312 12.46875 5 12.109375 C 4.867188 11.679688 4.558594 11.339844 4.265625 11.003906 C 4.082031 10.792969 3.921875 10.566406 3.753906 10.34375 C 3.699219 10.273438 3.648438 10.203125 3.589844 10.128906 C 3.089844 9.453125 3.089844 9.453125 3.050781 9.105469 C 3.042969 9.050781 3.039062 8.996094 3.03125 8.941406 C 3.074219 8.457031 3.320312 8.125 3.65625 7.796875 C 3.691406 7.757812 3.726562 7.722656 3.765625 7.683594 C 3.886719 7.5625 4.007812 7.445312 4.128906 7.324219 C 4.214844 7.242188 4.300781 7.15625 4.386719 7.074219 C 4.605469 6.851562 4.832031 6.632812 5.054688 6.414062 C 5.410156 6.0625 5.765625 5.710938 6.125 5.355469 C 6.246094 5.234375 6.371094 5.109375 6.496094 4.988281 C 6.574219 4.914062 6.648438 4.835938 6.726562 4.761719 C 6.792969 4.695312 6.859375 4.632812 6.929688 4.5625 C 7.105469 4.378906 7.261719 4.183594 7.421875 3.984375 C 7.578125 3.851562 7.734375 3.722656 7.890625 3.59375 C 7.988281 3.492188 7.988281 3.492188 8.085938 3.390625 C 8.394531 3.09375 8.617188 2.972656 9.046875 2.964844 C 9.707031 3.078125 10.28125 3.664062 10.792969 4.066406 C 10.96875 4.207031 11.144531 4.34375 11.320312 4.480469 C 11.425781 4.5625 11.53125 4.648438 11.632812 4.734375 C 11.785156 4.863281 11.785156 4.863281 12.03125 5 C 12.347656 4.917969 12.636719 4.785156 12.933594 4.648438 C 13.015625 4.613281 13.09375 4.574219 13.175781 4.535156 C 13.261719 4.496094 13.34375 4.457031 13.429688 4.417969 C 14.859375 3.75 14.859375 3.75 15.234375 3.75 C 15.253906 3.613281 15.253906 3.613281 15.273438 3.476562 C 15.320312 3.140625 15.371094 2.804688 15.421875 2.46875 C 15.441406 2.324219 15.464844 2.179688 15.484375 2.035156 C 15.515625 1.824219 15.546875 1.617188 15.578125 1.40625 C 15.585938 1.34375 15.597656 1.277344 15.605469 1.210938 C 15.671875 0.765625 15.777344 0.476562 16.097656 0.148438 C 16.417969 -0.0585938 16.671875 -0.046875 17.046875 -0.0429688 Z M 17.734375 2.1875 C 17.585938 2.945312 17.453125 3.699219 17.363281 4.464844 C 17.308594 4.871094 17.21875 5.140625 16.953125 5.46875 C 16.664062 5.667969 16.378906 5.726562 16.039062 5.789062 C 15.371094 5.941406 14.78125 6.226562 14.164062 6.519531 C 13.785156 6.695312 13.410156 6.871094 13.027344 7.046875 C 12.90625 7.101562 12.78125 7.160156 12.660156 7.21875 C 12.226562 7.410156 11.949219 7.46875 11.484375 7.34375 C 11.246094 7.199219 11.246094 7.199219 11.019531 7.011719 C 10.933594 6.941406 10.847656 6.871094 10.761719 6.800781 C 10.691406 6.746094 10.691406 6.746094 10.621094 6.6875 C 10.332031 6.453125 10.035156 6.230469 9.742188 6.007812 C 9.625 5.917969 9.511719 5.828125 9.394531 5.742188 C 9.308594 5.675781 9.226562 5.613281 9.140625 5.546875 C 8.632812 5.960938 8.175781 6.421875 7.714844 6.882812 C 7.578125 7.019531 7.441406 7.15625 7.304688 7.292969 C 6.894531 7.703125 6.492188 8.109375 6.117188 8.554688 C 6.015625 8.671875 6.015625 8.671875 5.820312 8.847656 C 5.78125 8.894531 5.742188 8.9375 5.703125 8.984375 C 5.726562 9.304688 5.9375 9.535156 6.125 9.785156 C 6.195312 9.882812 6.265625 9.980469 6.335938 10.074219 C 6.371094 10.125 6.410156 10.175781 6.445312 10.230469 C 6.648438 10.507812 6.839844 10.792969 7.035156 11.074219 C 7.074219 11.128906 7.109375 11.183594 7.148438 11.238281 C 7.421875 11.636719 7.53125 11.808594 7.46875 12.300781 C 7.382812 12.667969 7.179688 12.976562 6.988281 13.300781 C 6.582031 14.007812 6.269531 14.71875 5.992188 15.484375 C 5.949219 15.609375 5.902344 15.734375 5.859375 15.859375 C 5.835938 15.929688 5.8125 15.996094 5.785156 16.066406 C 5.636719 16.46875 5.507812 16.769531 5.15625 17.03125 C 4.902344 17.125 4.902344 17.125 4.609375 17.1875 C 4.554688 17.199219 4.503906 17.210938 4.449219 17.222656 C 4.332031 17.25 4.214844 17.277344 4.101562 17.300781 C 3.8125 17.363281 3.523438 17.433594 3.234375 17.5 C 3.089844 17.535156 2.941406 17.570312 2.792969 17.605469 C 2.726562 17.621094 2.65625 17.636719 2.589844 17.652344 C 2.527344 17.667969 2.46875 17.679688 2.40625 17.695312 C 2.265625 17.722656 2.265625 17.722656 2.1875 17.8125 C 2.179688 17.949219 2.179688 18.085938 2.179688 18.222656 C 2.179688 18.3125 2.179688 18.398438 2.179688 18.488281 C 2.179688 18.582031 2.179688 18.679688 2.179688 18.777344 C 2.179688 18.875 2.179688 18.972656 2.179688 19.070312 C 2.179688 19.328125 2.179688 19.585938 2.183594 19.847656 C 2.183594 20.109375 2.183594 20.371094 2.183594 20.636719 C 2.183594 21.152344 2.1875 21.671875 2.1875 22.1875 C 2.476562 22.339844 2.738281 22.394531 3.0625 22.449219 C 3.171875 22.46875 3.28125 22.488281 3.394531 22.507812 C 3.566406 22.539062 3.738281 22.566406 3.914062 22.597656 C 4.082031 22.625 4.25 22.65625 4.417969 22.683594 C 4.519531 22.703125 4.617188 22.71875 4.722656 22.738281 C 5.089844 22.835938 5.363281 22.992188 5.601562 23.292969 C 5.742188 23.601562 5.824219 23.914062 5.914062 24.238281 C 6.222656 25.320312 6.691406 26.28125 7.300781 27.222656 C 7.503906 27.558594 7.542969 27.816406 7.5 28.203125 C 7.378906 28.460938 7.203125 28.679688 7.03125 28.90625 C 6.992188 28.957031 6.953125 29.007812 6.914062 29.058594 C 6.699219 29.34375 6.480469 29.628906 6.257812 29.914062 C 6.21875 29.96875 6.179688 30.023438 6.136719 30.078125 C 6.058594 30.179688 5.976562 30.28125 5.894531 30.382812 C 5.679688 30.648438 5.679688 30.648438 5.636719 30.972656 C 5.710938 31.199219 5.792969 31.300781 5.960938 31.464844 C 6.015625 31.515625 6.070312 31.570312 6.125 31.625 C 6.207031 31.703125 6.207031 31.703125 6.292969 31.789062 C 6.347656 31.839844 6.402344 31.894531 6.457031 31.949219 C 6.71875 32.203125 6.984375 32.449219 7.261719 32.6875 C 7.632812 33.011719 7.976562 33.355469 8.320312 33.707031 C 8.382812 33.769531 8.449219 33.835938 8.515625 33.902344 C 8.671875 34.058594 8.828125 34.21875 8.984375 34.375 C 9.261719 34.273438 9.480469 34.15625 9.714844 33.980469 C 9.777344 33.933594 9.839844 33.886719 9.90625 33.839844 C 10.003906 33.765625 10.003906 33.765625 10.101562 33.691406 C 10.167969 33.644531 10.230469 33.597656 10.296875 33.546875 C 10.542969 33.363281 10.792969 33.175781 11.039062 32.988281 C 11.09375 32.945312 11.148438 32.902344 11.203125 32.859375 C 11.277344 32.804688 11.277344 32.804688 11.351562 32.746094 C 11.644531 32.546875 11.921875 32.550781 12.265625 32.578125 C 12.46875 32.660156 12.648438 32.746094 12.84375 32.851562 C 12.953125 32.910156 13.0625 32.96875 13.175781 33.023438 C 13.230469 33.054688 13.285156 33.082031 13.34375 33.113281 C 14.183594 33.550781 15.027344 33.910156 15.929688 34.195312 C 15.980469 34.210938 16.035156 34.226562 16.089844 34.246094 C 16.199219 34.28125 16.308594 34.3125 16.417969 34.34375 C 16.472656 34.363281 16.527344 34.378906 16.585938 34.398438 C 16.65625 34.417969 16.65625 34.417969 16.730469 34.441406 C 16.996094 34.605469 17.144531 34.851562 17.234375 35.148438 C 17.269531 35.3125 17.296875 35.476562 17.320312 35.644531 C 17.332031 35.703125 17.339844 35.765625 17.351562 35.824219 C 17.382812 36.015625 17.410156 36.207031 17.441406 36.398438 C 17.460938 36.527344 17.484375 36.65625 17.503906 36.785156 C 17.554688 37.101562 17.605469 37.417969 17.65625 37.734375 C 17.933594 37.796875 18.1875 37.820312 18.472656 37.820312 C 18.59375 37.820312 18.59375 37.820312 18.722656 37.820312 C 18.8125 37.820312 18.898438 37.820312 18.992188 37.820312 C 19.082031 37.820312 19.171875 37.820312 19.269531 37.820312 C 19.558594 37.820312 19.851562 37.820312 20.140625 37.816406 C 20.339844 37.816406 20.535156 37.816406 20.734375 37.816406 C 21.21875 37.816406 21.703125 37.8125 22.1875 37.8125 C 22.34375 37.523438 22.398438 37.246094 22.449219 36.921875 C 22.46875 36.808594 22.484375 36.691406 22.503906 36.578125 C 22.535156 36.398438 22.5625 36.222656 22.589844 36.042969 C 22.617188 35.867188 22.648438 35.695312 22.675781 35.519531 C 22.683594 35.46875 22.691406 35.414062 22.699219 35.359375 C 22.773438 34.949219 22.914062 34.742188 23.203125 34.453125 C 23.351562 34.363281 23.351562 34.363281 23.492188 34.320312 C 23.546875 34.304688 23.601562 34.285156 23.65625 34.269531 C 23.714844 34.253906 23.769531 34.234375 23.828125 34.21875 C 23.945312 34.183594 24.0625 34.144531 24.179688 34.109375 C 24.242188 34.089844 24.304688 34.070312 24.367188 34.050781 C 25.4375 33.714844 26.425781 33.238281 27.421875 32.734375 C 27.609375 32.640625 27.738281 32.640625 27.949219 32.636719 C 28.015625 32.632812 28.082031 32.632812 28.148438 32.628906 C 28.632812 32.6875 28.984375 33 29.351562 33.296875 C 29.445312 33.371094 29.542969 33.449219 29.640625 33.523438 C 29.6875 33.5625 29.734375 33.601562 29.78125 33.640625 C 29.988281 33.800781 30.191406 33.960938 30.402344 34.121094 C 30.464844 34.171875 30.53125 34.222656 30.601562 34.277344 C 30.769531 34.390625 30.769531 34.390625 30.925781 34.363281 C 31.148438 34.277344 31.265625 34.152344 31.429688 33.988281 C 31.496094 33.921875 31.5625 33.855469 31.628906 33.789062 C 31.699219 33.714844 31.769531 33.644531 31.84375 33.570312 C 31.914062 33.5 31.988281 33.425781 32.0625 33.351562 C 32.253906 33.15625 32.445312 32.964844 32.636719 32.769531 C 32.832031 32.574219 33.027344 32.375 33.222656 32.179688 C 33.609375 31.792969 33.992188 31.402344 34.375 31.015625 C 33.957031 30.355469 33.957031 30.355469 33.519531 29.703125 C 33.46875 29.632812 33.417969 29.558594 33.367188 29.480469 C 33.261719 29.328125 33.15625 29.179688 33.054688 29.027344 C 32.976562 28.917969 32.976562 28.917969 32.902344 28.804688 C 32.832031 28.707031 32.832031 28.707031 32.765625 28.609375 C 32.542969 28.253906 32.53125 27.90625 32.578125 27.5 C 32.65625 27.285156 32.773438 27.097656 32.894531 26.90625 C 32.960938 26.796875 33.023438 26.6875 33.089844 26.578125 C 33.121094 26.523438 33.15625 26.46875 33.1875 26.414062 C 33.679688 25.558594 34.03125 24.640625 34.21875 23.671875 C 34.289062 23.359375 34.351562 23.175781 34.609375 22.96875 C 35.328125 22.738281 36.085938 22.625 36.824219 22.484375 C 36.90625 22.46875 36.988281 22.453125 37.074219 22.4375 C 37.148438 22.421875 37.222656 22.40625 37.300781 22.394531 C 37.527344 22.34375 37.527344 22.34375 37.8125 22.1875 C 37.8125 20.742188 37.8125 19.300781 37.8125 17.8125 C 37.40625 17.640625 37.128906 17.535156 36.710938 17.460938 C 36.605469 17.441406 36.503906 17.421875 36.398438 17.402344 C 36.238281 17.371094 36.078125 17.34375 35.917969 17.316406 C 35.757812 17.285156 35.601562 17.257812 35.445312 17.226562 C 35.351562 17.210938 35.257812 17.191406 35.164062 17.175781 C 34.921875 17.109375 34.796875 17.03125 34.609375 16.875 C 34.558594 16.875 34.507812 16.875 34.453125 16.875 C 34.441406 16.835938 34.429688 16.792969 34.417969 16.75 C 34.03125 15.414062 33.550781 14.117188 32.816406 12.929688 C 32.589844 12.550781 32.457031 12.242188 32.5 11.796875 C 32.667969 11.335938 32.960938 10.945312 33.261719 10.5625 C 33.34375 10.453125 33.429688 10.34375 33.511719 10.234375 C 33.570312 10.15625 33.570312 10.15625 33.632812 10.074219 C 33.886719 9.742188 34.128906 9.402344 34.375 9.0625 C 34.261719 8.796875 34.113281 8.625 33.90625 8.421875 C 33.84375 8.355469 33.777344 8.292969 33.710938 8.226562 C 33.609375 8.125 33.609375 8.125 33.503906 8.019531 C 33.433594 7.949219 33.359375 7.878906 33.289062 7.804688 C 33.101562 7.617188 32.910156 7.429688 32.722656 7.242188 C 32.53125 7.054688 32.339844 6.863281 32.148438 6.671875 C 31.769531 6.296875 31.394531 5.921875 31.015625 5.546875 C 30.804688 5.652344 30.617188 5.757812 30.429688 5.902344 C 30.351562 5.960938 30.351562 5.960938 30.273438 6.019531 C 30.222656 6.058594 30.167969 6.101562 30.113281 6.144531 C 30 6.226562 29.890625 6.3125 29.777344 6.394531 C 29.695312 6.457031 29.695312 6.457031 29.609375 6.523438 C 28.460938 7.386719 28.460938 7.386719 27.84375 7.382812 C 27.285156 7.300781 26.785156 7.023438 26.28125 6.777344 C 26.164062 6.722656 26.050781 6.667969 25.9375 6.617188 C 25.71875 6.511719 25.5 6.410156 25.285156 6.308594 C 24.785156 6.070312 24.304688 5.851562 23.769531 5.707031 C 23.109375 5.503906 23.109375 5.503906 22.890625 5.15625 C 22.664062 4.429688 22.5625 3.671875 22.457031 2.921875 C 22.445312 2.835938 22.433594 2.753906 22.417969 2.667969 C 22.410156 2.59375 22.398438 2.515625 22.386719 2.4375 C 22.371094 2.382812 22.359375 2.324219 22.34375 2.265625 C 22.140625 2.164062 21.988281 2.179688 21.761719 2.179688 C 21.628906 2.179688 21.628906 2.179688 21.492188 2.179688 C 21.394531 2.179688 21.296875 2.179688 21.199219 2.179688 C 21.050781 2.179688 21.050781 2.179688 20.898438 2.179688 C 20.636719 2.179688 20.375 2.179688 20.113281 2.183594 C 19.84375 2.183594 19.578125 2.183594 19.308594 2.183594 C 18.785156 2.183594 18.257812 2.1875 17.734375 2.1875 Z M 17.734375 2.1875 "/>
<path style=" stroke:none;fill-rule:nonzero;fill:rgb(100%,100%,100%);fill-opacity:1;" d="M 10.722656 8.515625 C 10.804688 8.523438 10.890625 8.53125 10.972656 8.542969 C 11.152344 8.558594 11.328125 8.578125 11.503906 8.597656 C 11.785156 8.625 12.066406 8.65625 12.347656 8.683594 C 13.046875 8.753906 13.746094 8.828125 14.445312 8.898438 C 15.035156 8.960938 15.625 9.019531 16.21875 9.082031 C 16.492188 9.109375 16.769531 9.136719 17.046875 9.164062 C 17.214844 9.183594 17.386719 9.199219 17.558594 9.21875 C 17.632812 9.226562 17.707031 9.234375 17.785156 9.242188 C 18.167969 9.28125 18.550781 9.304688 18.9375 9.316406 C 19.011719 9.320312 19.085938 9.320312 19.164062 9.324219 C 19.414062 9.292969 19.554688 9.199219 19.765625 9.0625 C 19.949219 9.050781 19.949219 9.050781 20.125 9.078125 C 20.1875 9.085938 20.246094 9.09375 20.304688 9.101562 C 20.46875 9.140625 20.46875 9.140625 20.703125 9.296875 C 21.570312 9.394531 22.496094 9.25 23.359375 9.179688 C 23.636719 9.160156 23.910156 9.140625 24.1875 9.117188 C 24.773438 9.074219 25.355469 9.027344 25.941406 8.984375 C 26.621094 8.933594 27.300781 8.878906 27.980469 8.828125 C 28.25 8.808594 28.519531 8.789062 28.789062 8.765625 C 28.957031 8.753906 29.125 8.742188 29.292969 8.730469 C 29.367188 8.722656 29.4375 8.71875 29.515625 8.710938 C 29.894531 8.683594 30.273438 8.664062 30.65625 8.652344 C 30.730469 8.652344 30.804688 8.648438 30.882812 8.648438 C 31.230469 8.6875 31.496094 8.875 31.71875 9.140625 C 31.816406 9.429688 31.839844 9.699219 31.796875 10 C 31.640625 10.292969 31.527344 10.441406 31.25 10.625 C 30.183594 10.832031 29.070312 10.863281 27.988281 10.949219 C 27.796875 10.964844 27.605469 10.980469 27.414062 10.996094 C 27.011719 11.027344 26.613281 11.0625 26.214844 11.09375 C 25.699219 11.132812 25.1875 11.175781 24.675781 11.21875 C 24.277344 11.25 23.882812 11.28125 23.488281 11.3125 C 23.300781 11.328125 23.109375 11.34375 22.921875 11.359375 C 22.65625 11.378906 22.394531 11.402344 22.132812 11.421875 C 22.050781 11.429688 21.972656 11.433594 21.894531 11.441406 C 21.820312 11.445312 21.75 11.453125 21.675781 11.457031 C 21.613281 11.464844 21.554688 11.46875 21.488281 11.472656 C 21.359375 11.484375 21.226562 11.484375 21.09375 11.484375 C 21.121094 12.15625 21.144531 12.824219 21.171875 13.515625 C 21.707031 13.707031 22.246094 13.898438 22.78125 14.085938 C 22.867188 14.117188 22.949219 14.144531 23.03125 14.175781 C 24.605469 14.734375 26.179688 15.285156 27.753906 15.839844 C 27.839844 15.871094 27.925781 15.902344 28.015625 15.933594 C 28.175781 15.988281 28.335938 16.042969 28.496094 16.101562 C 29 16.277344 29.5 16.457031 30 16.640625 C 29.585938 15.695312 29.097656 14.839844 28.515625 13.984375 C 28.820312 13.652344 29.148438 13.417969 29.53125 13.183594 C 29.585938 13.148438 29.640625 13.113281 29.695312 13.078125 C 29.75 13.042969 29.804688 13.011719 29.859375 12.976562 C 29.90625 12.949219 29.953125 12.917969 30.003906 12.886719 C 30.183594 12.800781 30.351562 12.765625 30.546875 12.734375 C 31.894531 14.984375 32.765625 17.25 32.765625 19.914062 C 32.761719 19.964844 32.761719 20.015625 32.761719 20.070312 C 32.761719 21.082031 32.648438 22.058594 32.421875 23.046875 C 32.410156 23.105469 32.394531 23.167969 32.382812 23.226562 C 31.84375 25.519531 30.507812 27.457031 28.90625 29.140625 C 28.835938 29.214844 28.835938 29.214844 28.765625 29.292969 C 26.714844 31.460938 23.472656 32.648438 20.53125 32.738281 C 17.019531 32.824219 13.683594 31.613281 11.121094 29.183594 C 8.617188 26.761719 7.316406 23.585938 7.25 20.113281 C 7.277344 17.6875 7.824219 14.792969 9.453125 12.890625 C 9.597656 12.828125 9.597656 12.828125 9.765625 12.8125 C 10.035156 12.925781 10.277344 13.09375 10.523438 13.253906 C 10.589844 13.292969 10.660156 13.335938 10.730469 13.378906 C 10.828125 13.441406 10.828125 13.441406 10.929688 13.503906 C 10.988281 13.542969 11.046875 13.578125 11.109375 13.617188 C 11.289062 13.785156 11.308594 13.898438 11.328125 14.140625 C 11.253906 14.304688 11.253906 14.304688 11.136719 14.472656 C 10.902344 14.839844 10.710938 15.214844 10.527344 15.609375 C 10.5 15.667969 10.472656 15.722656 10.445312 15.78125 C 10.316406 16.066406 10.195312 16.351562 10.078125 16.640625 C 12.425781 15.816406 14.773438 14.992188 17.109375 14.140625 C 17.292969 14.074219 17.476562 14.007812 17.664062 13.941406 C 18.050781 13.796875 18.441406 13.65625 18.828125 13.515625 C 18.855469 12.84375 18.878906 12.175781 18.90625 11.484375 C 18.644531 11.457031 18.644531 11.457031 18.382812 11.425781 C 18.320312 11.417969 18.261719 11.414062 18.199219 11.40625 C 17.882812 11.371094 17.566406 11.335938 17.25 11.300781 C 16.601562 11.226562 15.953125 11.15625 15.304688 11.085938 C 14.945312 11.042969 14.582031 11.003906 14.21875 10.960938 C 14.148438 10.953125 14.074219 10.945312 14 10.9375 C 13.132812 10.84375 12.261719 10.746094 11.390625 10.65625 C 11.152344 10.628906 10.910156 10.605469 10.671875 10.578125 C 10.457031 10.558594 10.246094 10.535156 10.03125 10.515625 C 9.90625 10.5 9.78125 10.488281 9.65625 10.472656 C 9.601562 10.46875 9.546875 10.464844 9.488281 10.457031 C 9.085938 10.414062 8.757812 10.300781 8.453125 10.03125 C 8.308594 9.738281 8.261719 9.464844 8.28125 9.140625 C 8.371094 8.875 8.496094 8.660156 8.734375 8.5 C 9.324219 8.28125 10.109375 8.449219 10.722656 8.515625 Z M 19.339844 15.652344 C 19.28125 15.675781 19.21875 15.695312 19.15625 15.71875 C 18.957031 15.792969 18.757812 15.867188 18.558594 15.941406 C 18.421875 15.992188 18.285156 16.042969 18.144531 16.09375 C 17.863281 16.199219 17.578125 16.300781 17.296875 16.40625 C 16.894531 16.558594 16.488281 16.699219 16.082031 16.839844 C 16.019531 16.859375 15.957031 16.882812 15.894531 16.902344 C 15.65625 16.984375 15.417969 17.066406 15.179688 17.148438 C 15.019531 17.207031 14.859375 17.261719 14.699219 17.316406 C 14.605469 17.351562 14.515625 17.382812 14.421875 17.414062 C 14.207031 17.476562 14.207031 17.476562 14.140625 17.65625 C 15.269531 17.984375 16.402344 18.296875 17.539062 18.59375 C 17.714844 18.640625 17.886719 18.6875 18.0625 18.734375 C 18.316406 18.800781 18.574219 18.867188 18.828125 18.933594 C 18.90625 18.957031 18.984375 18.976562 19.0625 18.996094 C 19.875 19.207031 20.464844 19.125 21.265625 18.914062 C 21.359375 18.890625 21.449219 18.867188 21.542969 18.84375 C 21.738281 18.792969 21.929688 18.746094 22.121094 18.695312 C 22.414062 18.617188 22.703125 18.542969 22.996094 18.46875 C 23.980469 18.214844 24.964844 17.953125 25.9375 17.65625 C 25.765625 17.484375 25.660156 17.445312 25.429688 17.371094 C 25.351562 17.34375 25.277344 17.316406 25.199219 17.292969 C 25.074219 17.25 25.074219 17.25 24.945312 17.207031 C 24.761719 17.144531 24.578125 17.082031 24.394531 17.019531 C 24.347656 17.003906 24.296875 16.984375 24.246094 16.96875 C 23.476562 16.703125 22.710938 16.425781 21.941406 16.148438 C 21.8125 16.101562 21.683594 16.054688 21.550781 16.007812 C 21.433594 15.964844 21.3125 15.921875 21.195312 15.878906 C 21.085938 15.839844 20.976562 15.800781 20.867188 15.761719 C 20.753906 15.722656 20.640625 15.675781 20.527344 15.628906 C 20.066406 15.449219 19.796875 15.472656 19.339844 15.652344 Z M 9.609375 18.671875 C 8.984375 20.550781 9.738281 23.023438 10.558594 24.730469 C 11.839844 27.292969 14.089844 29.117188 16.773438 30.054688 C 17.652344 30.335938 18.609375 30.511719 19.53125 30.546875 C 19.59375 30.550781 19.660156 30.554688 19.722656 30.554688 C 22.433594 30.625 25.101562 29.605469 27.074219 27.761719 C 27.269531 27.574219 27.464844 27.382812 27.65625 27.1875 C 27.714844 27.128906 27.777344 27.066406 27.835938 27.003906 C 29.707031 25.042969 30.527344 22.351562 30.546875 19.6875 C 30.535156 19.371094 30.511719 19.0625 30.46875 18.75 C 30.324219 18.765625 30.324219 18.765625 30.175781 18.785156 C 30.121094 18.789062 30.066406 18.796875 30.011719 18.804688 C 29.847656 18.828125 29.691406 18.863281 29.53125 18.90625 C 29.527344 18.972656 29.527344 19.039062 29.523438 19.109375 C 29.46875 20.058594 29.46875 20.058594 29.21875 20.46875 C 28.925781 20.71875 28.585938 20.792969 28.203125 20.78125 C 27.835938 20.652344 27.628906 20.484375 27.421875 20.15625 C 27.355469 19.972656 27.308594 19.796875 27.265625 19.609375 C 27.160156 19.617188 27.058594 19.625 26.953125 19.632812 C 26.894531 19.636719 26.835938 19.644531 26.777344 19.648438 C 26.582031 19.683594 26.421875 19.738281 26.238281 19.808594 C 26.179688 19.828125 26.125 19.851562 26.066406 19.871094 C 26.023438 19.886719 25.980469 19.90625 25.9375 19.921875 C 25.9375 20.003906 25.933594 20.089844 25.933594 20.175781 C 25.929688 20.488281 25.921875 20.800781 25.917969 21.113281 C 25.914062 21.25 25.914062 21.382812 25.910156 21.519531 C 25.894531 22.628906 25.835938 23.621094 25.015625 24.453125 C 24.957031 24.503906 24.902344 24.554688 24.84375 24.609375 C 24.953125 24.910156 25.089844 25.148438 25.277344 25.40625 C 25.566406 25.804688 25.679688 26.058594 25.625 26.5625 C 25.507812 26.8125 25.367188 27.011719 25.15625 27.1875 C 24.871094 27.28125 24.59375 27.324219 24.296875 27.265625 C 23.914062 27.054688 23.679688 26.800781 23.429688 26.457031 C 23.394531 26.410156 23.363281 26.367188 23.328125 26.324219 C 23.175781 26.121094 23.039062 25.925781 22.917969 25.699219 C 22.757812 25.449219 22.757812 25.449219 22.5 25.402344 C 22.40625 25.398438 22.316406 25.398438 22.222656 25.394531 C 22.171875 25.390625 22.121094 25.386719 22.066406 25.386719 C 21.898438 25.378906 21.730469 25.375 21.5625 25.375 C 21.503906 25.371094 21.449219 25.371094 21.386719 25.371094 C 21.082031 25.363281 20.773438 25.359375 20.46875 25.355469 C 20.214844 25.355469 19.964844 25.347656 19.710938 25.335938 C 18.371094 25.230469 18.371094 25.230469 17.125 25.605469 C 16.78125 25.929688 16.558594 26.296875 16.347656 26.714844 C 16.195312 26.964844 16.019531 27.101562 15.78125 27.265625 C 15.429688 27.347656 15.101562 27.308594 14.769531 27.171875 C 14.464844 26.902344 14.359375 26.675781 14.332031 26.269531 C 14.34375 25.800781 14.554688 25.511719 14.84375 25.15625 C 15.078125 24.910156 15.078125 24.910156 15.15625 24.609375 C 15.085938 24.554688 15.019531 24.503906 14.945312 24.449219 C 14.511719 24.101562 14.289062 23.574219 14.140625 23.046875 C 14.117188 22.804688 14.113281 22.5625 14.109375 22.316406 C 14.105469 22.25 14.105469 22.179688 14.105469 22.109375 C 14.097656 21.890625 14.09375 21.671875 14.09375 21.457031 C 14.089844 21.308594 14.085938 21.160156 14.082031 21.011719 C 14.074219 20.648438 14.070312 20.285156 14.0625 19.921875 C 13.886719 19.871094 13.707031 19.816406 13.53125 19.765625 C 13.429688 19.738281 13.332031 19.707031 13.230469 19.679688 C 12.976562 19.597656 12.976562 19.597656 12.734375 19.609375 C 12.722656 19.664062 12.707031 19.714844 12.695312 19.769531 C 12.492188 20.511719 12.492188 20.511719 12.1875 20.703125 C 11.824219 20.84375 11.566406 20.882812 11.1875 20.777344 C 10.917969 20.613281 10.792969 20.5 10.625 20.234375 C 10.578125 20.019531 10.570312 19.804688 10.566406 19.585938 C 10.5625 19.527344 10.5625 19.46875 10.558594 19.410156 C 10.554688 19.269531 10.550781 19.125 10.546875 18.984375 C 10.449219 18.945312 10.351562 18.910156 10.253906 18.871094 C 10.199219 18.851562 10.144531 18.832031 10.089844 18.808594 C 9.929688 18.753906 9.773438 18.710938 9.609375 18.671875 Z M 16.25 20.46875 C 16.242188 20.824219 16.238281 21.179688 16.234375 21.539062 C 16.234375 21.640625 16.230469 21.738281 16.230469 21.84375 C 16.230469 21.941406 16.226562 22.039062 16.226562 22.140625 C 16.226562 22.230469 16.226562 22.320312 16.222656 22.410156 C 16.253906 22.699219 16.292969 22.828125 16.484375 23.046875 C 17.074219 23.382812 17.757812 23.3125 18.417969 23.308594 C 18.546875 23.308594 18.671875 23.308594 18.800781 23.308594 C 19.066406 23.308594 19.335938 23.308594 19.601562 23.308594 C 19.941406 23.304688 20.28125 23.304688 20.625 23.304688 C 20.886719 23.304688 21.148438 23.304688 21.414062 23.304688 C 21.539062 23.304688 21.664062 23.304688 21.789062 23.304688 C 21.964844 23.304688 22.140625 23.304688 22.316406 23.300781 C 22.417969 23.300781 22.515625 23.300781 22.617188 23.300781 C 23.011719 23.273438 23.273438 23.191406 23.582031 22.949219 C 23.878906 22.558594 23.789062 22.035156 23.773438 21.574219 C 23.773438 21.472656 23.769531 21.375 23.769531 21.273438 C 23.765625 21.03125 23.757812 20.789062 23.75 20.546875 C 23.242188 20.625 22.746094 20.738281 22.25 20.875 C 22.195312 20.890625 22.136719 20.90625 22.078125 20.921875 C 21.84375 20.988281 21.609375 21.054688 21.375 21.121094 C 21.203125 21.167969 21.027344 21.21875 20.855469 21.265625 C 20.800781 21.28125 20.75 21.296875 20.695312 21.3125 C 20.035156 21.488281 19.425781 21.316406 18.785156 21.132812 C 18.714844 21.113281 18.648438 21.09375 18.578125 21.074219 C 18.363281 21.015625 18.148438 20.953125 17.933594 20.894531 C 17.71875 20.832031 17.5 20.773438 17.285156 20.710938 C 17.152344 20.671875 17.015625 20.636719 16.882812 20.597656 C 16.570312 20.503906 16.570312 20.503906 16.25 20.46875 Z M 16.25 20.46875 "/>
</g>
</svg>
