<?xml version="1.0" encoding="UTF-8"?>
<svg version="1.1" xmlns="http://www.w3.org/2000/svg" width="50" height="50">
<path d="M0 0 C5.27349307 2.59791987 9.54183678 5.25205016 13.41943359 9.72729492 C14.04443359 12.85229492 14.04443359 12.85229492 13.41943359 15.72729492 C11.03050859 17.61328835 9.50091801 18.72729492 6.41943359 18.72729492 C6.56380859 19.77916992 6.70818359 20.83104492 6.85693359 21.91479492 C6.41943359 25.72729492 6.41943359 25.72729492 4.96630859 27.27026367 C-2.60780842 32.69625927 -10.60748157 32.38772806 -19.58056641 31.72729492 C-23.62279089 30.52091675 -26.57299069 28.73487064 -29.58056641 25.72729492 C-29.70556641 22.10229492 -29.70556641 22.10229492 -29.58056641 18.72729492 C-30.54994141 18.41791992 -31.51931641 18.10854492 -32.51806641 17.78979492 C-35.58056641 16.72729492 -35.58056641 16.72729492 -36.58056641 15.72729492 C-37.08056641 13.03979492 -37.08056641 13.03979492 -36.58056641 9.72729492 C-28.18954135 -1.4511597 -12.45089484 -5.71054869 0 0 Z M-33.58056641 11.72729492 C-33.25056641 12.71729492 -32.92056641 13.70729492 -32.58056641 14.72729492 C-29.3287433 16.35320647 -25.75146603 15.89036344 -22.17822266 15.89526367 C-21.34471786 15.89859207 -20.51121307 15.90192047 -19.65245056 15.90534973 C-17.88801628 15.91041653 -16.12357241 15.91275813 -14.35913086 15.91259766 C-11.65739171 15.91478333 -8.95606134 15.93293918 -6.25439453 15.9519043 C-4.54150531 15.95483841 -2.82861414 15.95682308 -1.11572266 15.95776367 C-0.30627701 15.96494919 0.50316864 15.9721347 1.33714294 15.97953796 C5.22188932 15.96368884 7.11213458 15.93216093 10.41943359 13.72729492 C7.84397946 7.17159349 1.4988287 4.43631408 -4.58056641 1.72729492 C-15.15500744 -1.79751876 -26.39931842 3.7481305 -33.58056641 11.72729492 Z M-27.58056641 18.72729492 C-27.58056641 19.71729492 -27.58056641 20.70729492 -27.58056641 21.72729492 C-17.02056641 21.72729492 -6.46056641 21.72729492 4.41943359 21.72729492 C4.41943359 20.73729492 4.41943359 19.74729492 4.41943359 18.72729492 C-6.39509389 17.866898 -16.76901809 17.70436823 -27.58056641 18.72729492 Z M-24.58056641 24.72729492 C-19.60651523 28.4578333 -17.93580279 28.90001345 -11.83056641 28.97729492 C-10.01298828 29.0159668 -10.01298828 29.0159668 -8.15869141 29.05541992 C-4.30569531 28.7020884 -1.89881068 27.66124097 1.41943359 25.72729492 C1.41943359 25.39729492 1.41943359 25.06729492 1.41943359 24.72729492 C-7.16056641 24.72729492 -15.74056641 24.72729492 -24.58056641 24.72729492 Z " fill="#000000" transform="translate(36.58056640625,11.272705078125)"/>
<path d="M0 0 C1.3303125 -0.00193359 1.3303125 -0.00193359 2.6875 -0.00390625 C3.615625 -0.00003906 4.54375 0.00382812 5.5 0.0078125 C6.8921875 0.00201172 6.8921875 0.00201172 8.3125 -0.00390625 C9.199375 -0.00261719 10.08625 -0.00132813 11 0 C11.8146875 0.00112793 12.629375 0.00225586 13.46875 0.00341797 C15.5 0.1328125 15.5 0.1328125 17.5 1.1328125 C17.17 2.4528125 16.84 3.7728125 16.5 5.1328125 C14.53536811 5.63229518 12.5701977 6.12981784 10.6015625 6.61328125 C8.95920254 7.01929217 7.32217737 7.44689853 5.6875 7.8828125 C3.5 8.1328125 3.5 8.1328125 0.5 6.1328125 C-1.82108669 5.42468436 -4.15377147 4.75257098 -6.5 4.1328125 C-6.5 3.1428125 -6.5 2.1528125 -6.5 1.1328125 C-4.12384014 -0.05526743 -2.6488258 0.00366728 0 0 Z " fill="#000000" transform="translate(19.5,16.8671875)"/>
</svg>
