<?xml version="1.0" encoding="UTF-8"?>
<svg xmlns="http://www.w3.org/2000/svg" xmlns:xlink="http://www.w3.org/1999/xlink" width="40px" height="40px" viewBox="0 0 40 40" version="1.1">
<g id="surface1">
<path style=" stroke:none;fill-rule:nonzero;fill:rgb(100%,100%,100%);fill-opacity:1;" d="M 32.324219 13.890625 C 32.398438 13.890625 32.472656 13.890625 32.546875 13.886719 C 32.886719 13.882812 33.222656 13.878906 33.5625 13.878906 C 33.738281 13.878906 33.914062 13.875 34.09375 13.871094 C 36.203125 13.835938 36.203125 13.835938 36.910156 14.46875 C 37.421875 14.984375 37.601562 15.523438 37.609375 16.234375 C 37.609375 16.308594 37.609375 16.382812 37.609375 16.460938 C 37.609375 16.539062 37.609375 16.617188 37.609375 16.695312 C 37.609375 16.863281 37.609375 17.027344 37.609375 17.195312 C 37.609375 17.445312 37.609375 17.695312 37.609375 17.945312 C 37.609375 18.109375 37.609375 18.269531 37.609375 18.433594 C 37.609375 18.503906 37.609375 18.578125 37.609375 18.65625 C 37.601562 19.480469 37.386719 20.160156 36.953125 20.859375 C 36.90625 20.9375 36.859375 21.015625 36.8125 21.097656 C 36.78125 21.148438 36.75 21.199219 36.71875 21.25 C 36.777344 21.257812 36.832031 21.265625 36.890625 21.273438 C 37.855469 21.511719 38.789062 22.589844 39.300781 23.410156 C 39.707031 24.101562 40.007812 24.84375 40.011719 25.648438 C 40.011719 25.75 40.015625 25.847656 40.015625 25.953125 C 40.015625 26.0625 40.015625 26.167969 40.015625 26.277344 C 40.015625 26.390625 40.015625 26.503906 40.015625 26.613281 C 40.019531 26.847656 40.019531 27.085938 40.019531 27.320312 C 40.019531 27.621094 40.019531 27.917969 40.023438 28.21875 C 40.023438 28.449219 40.023438 28.683594 40.023438 28.914062 C 40.027344 29.023438 40.027344 29.136719 40.027344 29.246094 C 40.035156 30.101562 39.964844 30.621094 39.371094 31.261719 C 38.972656 31.644531 38.605469 31.804688 38.066406 31.925781 C 37.972656 31.945312 37.882812 31.964844 37.789062 31.984375 C 37.71875 32 37.648438 32.015625 37.578125 32.03125 C 37.578125 32.109375 37.578125 32.1875 37.578125 32.269531 C 37.578125 33.011719 37.574219 33.753906 37.566406 34.496094 C 37.566406 34.878906 37.5625 35.261719 37.5625 35.640625 C 37.5625 36.011719 37.558594 36.378906 37.558594 36.746094 C 37.554688 36.886719 37.554688 37.027344 37.554688 37.167969 C 37.558594 38.734375 37.558594 38.734375 36.957031 39.382812 C 36.363281 39.949219 35.863281 40.042969 35.058594 40.027344 C 34.714844 39.996094 34.453125 39.90625 34.152344 39.75 C 33.84375 39.636719 33.613281 39.757812 33.324219 39.886719 C 32.730469 40.117188 32.03125 40.085938 31.441406 39.863281 C 30.832031 39.574219 30.535156 39.1875 30.234375 38.59375 C 30.132812 38.292969 30.144531 37.980469 30.140625 37.664062 C 30.140625 37.601562 30.136719 37.542969 30.136719 37.476562 C 30.136719 37.273438 30.132812 37.070312 30.132812 36.867188 C 30.128906 36.726562 30.128906 36.582031 30.125 36.441406 C 30.121094 36.070312 30.117188 35.699219 30.113281 35.328125 C 30.109375 34.945312 30.105469 34.566406 30.101562 34.1875 C 30.09375 33.441406 30.085938 32.699219 30.078125 31.953125 C 30.019531 31.941406 29.960938 31.933594 29.898438 31.921875 C 29.820312 31.910156 29.742188 31.894531 29.664062 31.882812 C 29.585938 31.867188 29.507812 31.855469 29.429688 31.839844 C 28.839844 31.71875 28.394531 31.328125 28.003906 30.882812 C 27.632812 30.296875 27.621094 29.746094 27.621094 29.066406 C 27.621094 28.96875 27.621094 28.875 27.621094 28.773438 C 27.621094 28.515625 27.621094 28.261719 27.621094 28.003906 C 27.621094 27.746094 27.621094 27.488281 27.617188 27.230469 C 27.613281 25.289062 27.613281 25.289062 27.96875 24.375 C 28.003906 24.28125 28.003906 24.28125 28.042969 24.183594 C 28.105469 24.027344 28.179688 23.878906 28.257812 23.730469 C 28.296875 23.652344 28.296875 23.652344 28.339844 23.574219 C 28.867188 22.585938 29.6875 21.738281 30.703125 21.25 C 30.78125 21.25 30.859375 21.25 30.9375 21.25 C 30.894531 21.191406 30.851562 21.132812 30.808594 21.070312 C 30.484375 20.597656 30.207031 20.171875 30.078125 19.609375 C 30.058594 19.53125 30.058594 19.53125 30.039062 19.449219 C 29.949219 18.910156 29.976562 18.351562 29.972656 17.804688 C 29.972656 17.652344 29.96875 17.496094 29.964844 17.34375 C 29.945312 16.28125 29.9375 15.398438 30.6875 14.570312 C 31.164062 14.136719 31.679688 13.902344 32.324219 13.890625 Z M 31.953125 15.9375 C 31.769531 16.167969 31.769531 16.167969 31.796875 16.484375 C 33.085938 16.484375 34.375 16.484375 35.703125 16.484375 C 35.683594 15.964844 35.683594 15.964844 35.46875 15.78125 C 35.167969 15.667969 34.84375 15.6875 34.523438 15.6875 C 34.464844 15.6875 34.402344 15.6875 34.339844 15.6875 C 34.210938 15.683594 34.082031 15.683594 33.953125 15.683594 C 33.753906 15.683594 33.558594 15.679688 33.363281 15.679688 C 33.238281 15.679688 33.113281 15.679688 32.984375 15.675781 C 32.898438 15.675781 32.898438 15.675781 32.808594 15.675781 C 32.457031 15.675781 32.230469 15.71875 31.953125 15.9375 Z M 31.796875 18.515625 C 31.816406 19.132812 31.964844 19.699219 32.414062 20.148438 C 32.90625 20.535156 33.367188 20.667969 33.992188 20.652344 C 34.5 20.589844 34.921875 20.347656 35.269531 19.976562 C 35.5625 19.589844 35.707031 19.222656 35.707031 18.738281 C 35.703125 18.589844 35.703125 18.589844 35.703125 18.4375 C 35.160156 18.433594 34.617188 18.433594 34.070312 18.433594 C 33.886719 18.433594 33.703125 18.433594 33.515625 18.429688 C 33.25 18.429688 32.984375 18.429688 32.71875 18.429688 C 32.636719 18.429688 32.554688 18.429688 32.46875 18.429688 C 32.390625 18.429688 32.3125 18.429688 32.234375 18.429688 C 32.167969 18.429688 32.101562 18.429688 32.03125 18.429688 C 31.875 18.421875 31.875 18.421875 31.796875 18.515625 Z M 30.398438 23.78125 C 29.6875 24.664062 29.507812 25.535156 29.511719 26.636719 C 29.511719 26.722656 29.511719 26.808594 29.511719 26.898438 C 29.511719 27.082031 29.511719 27.261719 29.511719 27.445312 C 29.511719 27.726562 29.511719 28.003906 29.511719 28.285156 C 29.511719 28.460938 29.511719 28.640625 29.511719 28.816406 C 29.511719 28.902344 29.511719 28.984375 29.507812 29.070312 C 29.511719 29.148438 29.511719 29.226562 29.511719 29.304688 C 29.511719 29.375 29.511719 29.441406 29.511719 29.511719 C 29.519531 29.710938 29.519531 29.710938 29.6875 29.921875 C 29.882812 29.984375 29.882812 29.984375 30.078125 30 C 30.175781 29.917969 30.175781 29.917969 30.164062 29.75 C 30.164062 29.671875 30.164062 29.597656 30.164062 29.519531 C 30.164062 29.433594 30.164062 29.347656 30.164062 29.257812 C 30.164062 29.164062 30.164062 29.070312 30.164062 28.972656 C 30.164062 28.878906 30.164062 28.785156 30.164062 28.6875 C 30.164062 28.378906 30.164062 28.074219 30.160156 27.769531 C 30.160156 27.5625 30.160156 27.355469 30.160156 27.148438 C 30.160156 26.640625 30.15625 26.132812 30.15625 25.625 C 30.773438 25.625 31.394531 25.625 32.03125 25.625 C 32.03125 25.777344 32.03125 25.929688 32.03125 26.085938 C 32.027344 27.515625 32.027344 28.949219 32.027344 30.378906 C 32.027344 31.117188 32.027344 31.851562 32.023438 32.585938 C 32.023438 33.230469 32.023438 33.871094 32.023438 34.511719 C 32.023438 34.851562 32.023438 35.191406 32.023438 35.53125 C 32.023438 35.851562 32.023438 36.167969 32.023438 36.488281 C 32.023438 36.605469 32.023438 36.722656 32.023438 36.839844 C 32.023438 37 32.023438 37.160156 32.023438 37.320312 C 32.023438 37.410156 32.023438 37.5 32.023438 37.59375 C 32.023438 37.820312 32.023438 37.820312 32.109375 38.046875 C 32.332031 38.105469 32.332031 38.105469 32.578125 38.125 C 32.722656 38.050781 32.722656 38.050781 32.8125 37.890625 C 32.847656 37.632812 32.847656 37.632812 32.839844 37.332031 C 32.839844 37.277344 32.839844 37.222656 32.839844 37.164062 C 32.839844 37.039062 32.839844 36.917969 32.839844 36.796875 C 32.839844 36.601562 32.839844 36.40625 32.839844 36.210938 C 32.84375 35.660156 32.84375 35.109375 32.839844 34.558594 C 32.839844 34.21875 32.839844 33.882812 32.84375 33.542969 C 32.84375 33.414062 32.84375 33.289062 32.84375 33.160156 C 32.839844 32.980469 32.839844 32.796875 32.84375 32.617188 C 32.84375 32.464844 32.84375 32.464844 32.84375 32.308594 C 32.90625 31.945312 33.023438 31.820312 33.28125 31.5625 C 33.597656 31.382812 33.855469 31.390625 34.199219 31.484375 C 34.492188 31.664062 34.601562 31.808594 34.765625 32.109375 C 34.804688 32.378906 34.804688 32.378906 34.804688 32.679688 C 34.804688 32.738281 34.804688 32.792969 34.804688 32.847656 C 34.804688 32.96875 34.804688 33.085938 34.804688 33.207031 C 34.800781 33.394531 34.804688 33.582031 34.804688 33.769531 C 34.804688 34.171875 34.804688 34.570312 34.804688 34.96875 C 34.804688 35.433594 34.804688 35.898438 34.804688 36.363281 C 34.808594 36.546875 34.804688 36.734375 34.804688 36.917969 C 34.804688 37.035156 34.804688 37.148438 34.804688 37.261719 C 34.804688 37.359375 34.804688 37.460938 34.804688 37.5625 C 34.851562 37.855469 34.917969 37.949219 35.15625 38.125 C 35.390625 38.109375 35.457031 38.058594 35.625 37.890625 C 35.648438 37.667969 35.648438 37.667969 35.644531 37.40625 C 35.644531 37.332031 35.644531 37.332031 35.644531 37.253906 C 35.644531 37.085938 35.644531 36.914062 35.644531 36.746094 C 35.644531 36.625 35.644531 36.503906 35.644531 36.382812 C 35.644531 36.054688 35.640625 35.726562 35.640625 35.398438 C 35.640625 35.054688 35.640625 34.710938 35.640625 34.367188 C 35.640625 33.71875 35.636719 33.066406 35.636719 32.417969 C 35.632812 31.675781 35.632812 30.9375 35.632812 30.195312 C 35.632812 28.671875 35.628906 27.148438 35.625 25.625 C 36.242188 25.625 36.863281 25.625 37.5 25.625 C 37.5 25.933594 37.5 26.242188 37.496094 26.5625 C 37.496094 26.859375 37.496094 27.160156 37.496094 27.457031 C 37.496094 27.664062 37.496094 27.871094 37.492188 28.082031 C 37.492188 28.378906 37.492188 28.675781 37.492188 28.972656 C 37.492188 29.066406 37.492188 29.160156 37.492188 29.257812 C 37.492188 29.386719 37.492188 29.386719 37.492188 29.519531 C 37.492188 29.59375 37.492188 29.671875 37.492188 29.75 C 37.480469 29.917969 37.480469 29.917969 37.578125 30 C 37.8125 30.011719 37.8125 30.011719 38.046875 30 C 38.199219 29.847656 38.148438 29.546875 38.152344 29.335938 C 38.15625 29.246094 38.15625 29.246094 38.15625 29.15625 C 38.164062 28.960938 38.167969 28.765625 38.171875 28.570312 C 38.175781 28.503906 38.175781 28.4375 38.179688 28.371094 C 38.289062 25.746094 38.289062 25.746094 37.039062 23.511719 C 36.199219 22.714844 35.179688 22.472656 34.054688 22.472656 C 33.894531 22.472656 33.734375 22.46875 33.574219 22.464844 C 32.324219 22.453125 31.265625 22.867188 30.398438 23.78125 Z M 30.398438 23.78125 "/>
<path style=" stroke:none;fill-rule:nonzero;fill:rgb(100%,100%,100%);fill-opacity:1;" d="M 5.449219 13.8125 C 5.515625 13.8125 5.582031 13.8125 5.648438 13.8125 C 5.785156 13.808594 5.921875 13.808594 6.058594 13.808594 C 6.269531 13.808594 6.476562 13.804688 6.683594 13.804688 C 7.675781 13.796875 8.511719 13.859375 9.296875 14.53125 C 9.890625 15.160156 10.023438 15.695312 10.023438 16.542969 C 10.023438 16.621094 10.023438 16.703125 10.023438 16.785156 C 10.023438 16.957031 10.023438 17.128906 10.023438 17.296875 C 10.023438 17.554688 10.027344 17.816406 10.027344 18.074219 C 10.027344 18.242188 10.027344 18.40625 10.027344 18.574219 C 10.027344 18.648438 10.03125 18.726562 10.03125 18.804688 C 10.027344 19.527344 9.855469 20.136719 9.476562 20.75 C 9.429688 20.832031 9.378906 20.910156 9.332031 20.996094 C 9.292969 21.054688 9.257812 21.113281 9.21875 21.171875 C 9.277344 21.210938 9.335938 21.246094 9.398438 21.285156 C 10.75 22.164062 11.84375 23.3125 12.21875 24.929688 C 12.402344 25.832031 12.359375 26.773438 12.363281 27.6875 C 12.363281 27.933594 12.367188 28.183594 12.367188 28.429688 C 12.367188 28.589844 12.367188 28.75 12.371094 28.910156 C 12.371094 28.984375 12.371094 29.058594 12.371094 29.132812 C 12.371094 29.933594 12.210938 30.660156 11.640625 31.25 C 11.175781 31.675781 10.742188 31.882812 10.101562 31.878906 C 10.035156 31.878906 9.972656 31.878906 9.910156 31.875 C 9.863281 31.875 9.816406 31.875 9.765625 31.875 C 9.765625 31.953125 9.765625 32.03125 9.769531 32.113281 C 9.773438 32.855469 9.777344 33.597656 9.78125 34.339844 C 9.785156 34.722656 9.785156 35.105469 9.789062 35.484375 C 9.792969 35.855469 9.792969 36.222656 9.796875 36.589844 C 9.796875 36.730469 9.796875 36.871094 9.796875 37.011719 C 9.808594 37.847656 9.8125 38.558594 9.308594 39.265625 C 8.746094 39.796875 8.359375 40.023438 7.574219 40.035156 C 7.496094 40.035156 7.496094 40.035156 7.414062 40.035156 C 7.03125 40.03125 6.75 39.925781 6.40625 39.765625 C 6.09375 39.671875 5.953125 39.691406 5.664062 39.839844 C 5.101562 40.082031 4.46875 40.105469 3.882812 39.914062 C 3.304688 39.652344 2.824219 39.265625 2.578125 38.671875 C 2.371094 37.980469 2.402344 37.28125 2.40625 36.566406 C 2.40625 36.429688 2.40625 36.296875 2.40625 36.160156 C 2.40625 35.804688 2.410156 35.449219 2.410156 35.09375 C 2.414062 34.734375 2.414062 34.371094 2.414062 34.007812 C 2.414062 33.296875 2.417969 32.585938 2.421875 31.875 C 2.367188 31.871094 2.3125 31.867188 2.257812 31.859375 C 2.152344 31.851562 2.152344 31.851562 2.046875 31.839844 C 1.976562 31.832031 1.90625 31.828125 1.832031 31.820312 C 1.242188 31.746094 0.785156 31.375 0.367188 30.972656 C -0.046875 30.371094 -0.0351562 29.703125 -0.03125 29 C -0.03125 28.898438 -0.03125 28.792969 -0.03125 28.6875 C -0.03125 28.472656 -0.03125 28.257812 -0.03125 28.039062 C -0.0273438 27.765625 -0.03125 27.492188 -0.03125 27.21875 C -0.03125 26.953125 -0.03125 26.6875 -0.03125 26.421875 C -0.03125 26.324219 -0.03125 26.226562 -0.03125 26.128906 C -0.0273438 25.28125 0.121094 24.503906 0.511719 23.75 C 0.539062 23.699219 0.566406 23.644531 0.59375 23.589844 C 1.175781 22.5 2.070312 21.671875 3.203125 21.171875 C 3.078125 20.84375 2.921875 20.542969 2.75 20.234375 C 2.515625 19.65625 2.476562 19.050781 2.476562 18.433594 C 2.476562 18.359375 2.476562 18.289062 2.476562 18.214844 C 2.476562 18.0625 2.476562 17.914062 2.476562 17.761719 C 2.476562 17.535156 2.472656 17.304688 2.472656 17.078125 C 2.472656 16.929688 2.472656 16.78125 2.472656 16.636719 C 2.472656 16.566406 2.46875 16.5 2.46875 16.429688 C 2.476562 15.617188 2.742188 15.050781 3.28125 14.453125 C 3.875 13.875 4.660156 13.816406 5.449219 13.8125 Z M 4.527344 15.871094 C 4.332031 16.113281 4.332031 16.113281 4.375 16.5625 C 5.613281 16.5625 6.851562 16.5625 8.125 16.5625 C 8.234375 16.261719 8.234375 16.261719 8.109375 16.046875 C 7.953125 15.839844 7.894531 15.789062 7.65625 15.703125 C 7.4375 15.683594 7.226562 15.675781 7.007812 15.675781 C 6.945312 15.671875 6.882812 15.671875 6.816406 15.671875 C 6.683594 15.671875 6.550781 15.671875 6.417969 15.667969 C 6.214844 15.667969 6.015625 15.664062 5.8125 15.660156 C 5.683594 15.660156 5.554688 15.660156 5.425781 15.660156 C 5.363281 15.65625 5.304688 15.65625 5.242188 15.65625 C 4.9375 15.65625 4.78125 15.691406 4.527344 15.871094 Z M 4.375 18.4375 C 4.371094 18.574219 4.371094 18.710938 4.367188 18.847656 C 4.367188 18.921875 4.363281 18.996094 4.363281 19.074219 C 4.386719 19.546875 4.609375 19.871094 4.953125 20.179688 C 5.402344 20.535156 5.828125 20.714844 6.40625 20.703125 C 6.996094 20.617188 7.421875 20.371094 7.8125 19.921875 C 8.117188 19.496094 8.207031 19.035156 8.203125 18.515625 C 8.125 18.421875 8.125 18.421875 7.972656 18.429688 C 7.90625 18.429688 7.839844 18.429688 7.773438 18.429688 C 7.695312 18.429688 7.621094 18.429688 7.542969 18.429688 C 7.421875 18.429688 7.421875 18.429688 7.296875 18.429688 C 7.214844 18.429688 7.128906 18.429688 7.046875 18.429688 C 6.777344 18.429688 6.511719 18.429688 6.246094 18.433594 C 6.066406 18.433594 5.882812 18.433594 5.703125 18.433594 C 5.261719 18.433594 4.816406 18.4375 4.375 18.4375 Z M 2.5625 23.945312 C 1.933594 24.816406 1.773438 25.664062 1.777344 26.714844 C 1.777344 26.800781 1.777344 26.886719 1.777344 26.976562 C 1.777344 27.160156 1.777344 27.339844 1.777344 27.523438 C 1.777344 27.804688 1.777344 28.082031 1.777344 28.363281 C 1.777344 28.539062 1.777344 28.71875 1.777344 28.894531 C 1.777344 28.980469 1.777344 29.0625 1.773438 29.148438 C 1.777344 29.226562 1.777344 29.304688 1.777344 29.382812 C 1.777344 29.453125 1.777344 29.519531 1.777344 29.589844 C 1.785156 29.789062 1.785156 29.789062 1.953125 30 C 2.148438 30.03125 2.148438 30.03125 2.34375 30 C 2.515625 29.859375 2.515625 29.859375 2.519531 29.667969 C 2.519531 29.59375 2.519531 29.519531 2.519531 29.445312 C 2.519531 29.363281 2.519531 29.28125 2.519531 29.195312 C 2.515625 29.105469 2.515625 29.015625 2.515625 28.921875 C 2.515625 28.785156 2.515625 28.785156 2.515625 28.644531 C 2.515625 28.351562 2.511719 28.058594 2.507812 27.765625 C 2.507812 27.566406 2.507812 27.367188 2.507812 27.167969 C 2.507812 26.679688 2.503906 26.191406 2.5 25.703125 C 3.09375 25.703125 3.6875 25.703125 4.296875 25.703125 C 4.296875 25.914062 4.296875 26.125 4.296875 26.339844 C 4.28125 31.257812 4.28125 31.257812 4.328125 36.175781 C 4.328125 36.269531 4.328125 36.363281 4.328125 36.460938 C 4.332031 36.71875 4.335938 36.976562 4.34375 37.234375 C 4.34375 37.308594 4.34375 37.382812 4.34375 37.457031 C 4.335938 37.828125 4.335938 37.828125 4.53125 38.125 C 4.742188 38.152344 4.867188 38.160156 5.050781 38.042969 C 5.210938 37.816406 5.1875 37.585938 5.183594 37.316406 C 5.183594 37.261719 5.1875 37.203125 5.1875 37.140625 C 5.1875 37.015625 5.1875 36.890625 5.1875 36.765625 C 5.183594 36.5625 5.1875 36.363281 5.1875 36.164062 C 5.191406 35.597656 5.191406 35.03125 5.191406 34.460938 C 5.191406 34.113281 5.191406 33.765625 5.195312 33.421875 C 5.195312 33.222656 5.195312 33.027344 5.191406 32.832031 C 5.195312 32.710938 5.195312 32.589844 5.195312 32.46875 C 5.195312 32.414062 5.195312 32.359375 5.191406 32.304688 C 5.199219 31.933594 5.285156 31.746094 5.546875 31.484375 C 5.835938 31.339844 6.167969 31.367188 6.484375 31.40625 C 6.714844 31.546875 6.832031 31.636719 6.953125 31.875 C 6.960938 32.0625 6.964844 32.246094 6.964844 32.433594 C 6.964844 32.492188 6.964844 32.546875 6.964844 32.605469 C 6.96875 32.730469 6.96875 32.855469 6.96875 32.980469 C 6.96875 33.179688 6.972656 33.375 6.972656 33.574219 C 6.976562 34.136719 6.980469 34.699219 6.984375 35.261719 C 6.984375 35.605469 6.988281 35.949219 6.992188 36.292969 C 6.992188 36.421875 6.996094 36.554688 6.996094 36.683594 C 6.996094 36.867188 6.996094 37.050781 7 37.234375 C 7 37.289062 7 37.34375 6.996094 37.398438 C 7.003906 37.714844 7.042969 37.894531 7.265625 38.125 C 7.605469 38.109375 7.605469 38.109375 7.890625 37.96875 C 7.898438 37.808594 7.898438 37.648438 7.898438 37.492188 C 7.898438 37.441406 7.898438 37.390625 7.898438 37.335938 C 7.898438 37.167969 7.898438 36.996094 7.898438 36.828125 C 7.898438 36.707031 7.898438 36.582031 7.898438 36.460938 C 7.898438 36.128906 7.898438 35.800781 7.898438 35.46875 C 7.898438 35.121094 7.898438 34.777344 7.898438 34.429688 C 7.898438 33.777344 7.898438 33.121094 7.894531 32.464844 C 7.894531 31.71875 7.894531 30.972656 7.894531 30.226562 C 7.894531 28.695312 7.890625 27.160156 7.890625 25.625 C 8.507812 25.625 9.128906 25.625 9.765625 25.625 C 9.765625 25.933594 9.765625 26.242188 9.761719 26.5625 C 9.761719 26.859375 9.761719 27.160156 9.761719 27.457031 C 9.761719 27.664062 9.761719 27.871094 9.757812 28.082031 C 9.757812 28.378906 9.757812 28.675781 9.757812 28.972656 C 9.757812 29.066406 9.757812 29.160156 9.757812 29.257812 C 9.757812 29.386719 9.757812 29.386719 9.757812 29.519531 C 9.757812 29.59375 9.757812 29.671875 9.757812 29.75 C 9.746094 29.917969 9.746094 29.917969 9.84375 30 C 10.03125 30.03125 10.03125 30.03125 10.234375 30 C 10.441406 29.78125 10.5 29.628906 10.496094 29.328125 C 10.5 29.257812 10.5 29.1875 10.5 29.113281 C 10.5 29.039062 10.496094 28.960938 10.496094 28.882812 C 10.496094 28.804688 10.496094 28.726562 10.496094 28.644531 C 10.496094 28.476562 10.496094 28.308594 10.496094 28.140625 C 10.492188 27.886719 10.492188 27.636719 10.492188 27.382812 C 10.492188 27.21875 10.492188 27.054688 10.492188 26.890625 C 10.492188 26.816406 10.492188 26.742188 10.492188 26.664062 C 10.484375 25.90625 10.386719 25.199219 10.035156 24.523438 C 10.007812 24.46875 9.980469 24.414062 9.949219 24.359375 C 9.4375 23.414062 8.609375 22.863281 7.59375 22.53125 C 7.1875 22.457031 6.765625 22.476562 6.351562 22.472656 C 6.238281 22.472656 6.121094 22.46875 6.003906 22.464844 C 4.621094 22.429688 3.476562 22.859375 2.5625 23.945312 Z M 2.5625 23.945312 "/>
<path style=" stroke:none;fill-rule:nonzero;fill:rgb(100%,100%,100%);fill-opacity:1;" d="M 18.417969 13.890625 C 18.53125 13.886719 18.53125 13.886719 18.644531 13.886719 C 18.992188 13.878906 19.335938 13.878906 19.683594 13.875 C 19.863281 13.871094 20.042969 13.871094 20.226562 13.867188 C 22.300781 13.824219 22.300781 13.824219 23.0625 14.535156 C 23.65625 15.15625 23.761719 15.765625 23.761719 16.585938 C 23.761719 16.660156 23.761719 16.730469 23.765625 16.800781 C 23.765625 16.949219 23.765625 17.097656 23.765625 17.246094 C 23.765625 17.472656 23.765625 17.699219 23.765625 17.925781 C 23.769531 18.070312 23.769531 18.214844 23.769531 18.359375 C 23.769531 18.425781 23.769531 18.492188 23.769531 18.5625 C 23.765625 19.222656 23.675781 19.828125 23.359375 20.414062 C 23.210938 20.691406 23.078125 20.957031 22.96875 21.25 C 23.019531 21.273438 23.070312 21.296875 23.125 21.324219 C 24.183594 21.851562 25.058594 22.71875 25.601562 23.769531 C 25.632812 23.828125 25.660156 23.886719 25.691406 23.945312 C 26.3125 25.167969 26.265625 26.460938 26.265625 27.800781 C 26.265625 28.027344 26.265625 28.253906 26.265625 28.480469 C 26.269531 28.628906 26.269531 28.773438 26.269531 28.917969 C 26.269531 28.988281 26.269531 29.054688 26.269531 29.121094 C 26.265625 29.933594 26.109375 30.582031 25.542969 31.183594 C 25.070312 31.632812 24.664062 31.890625 24.003906 31.878906 C 23.941406 31.878906 23.878906 31.878906 23.816406 31.878906 C 23.742188 31.875 23.742188 31.875 23.671875 31.875 C 23.671875 31.992188 23.671875 31.992188 23.671875 32.109375 C 23.679688 32.84375 23.683594 33.578125 23.683594 34.3125 C 23.683594 34.691406 23.6875 35.070312 23.691406 35.445312 C 23.691406 35.8125 23.695312 36.175781 23.695312 36.539062 C 23.695312 36.679688 23.695312 36.816406 23.695312 36.957031 C 23.710938 38.675781 23.710938 38.675781 23.097656 39.324219 C 23.035156 39.390625 22.976562 39.453125 22.917969 39.519531 C 22.394531 40 21.917969 40.027344 21.226562 40.027344 C 20.855469 39.992188 20.585938 39.867188 20.265625 39.679688 C 20.078125 39.585938 20.078125 39.585938 19.875 39.667969 C 19.8125 39.699219 19.75 39.730469 19.6875 39.765625 C 19.050781 40.066406 18.386719 40.132812 17.707031 39.917969 C 17.058594 39.621094 16.726562 39.273438 16.441406 38.632812 C 16.242188 38.03125 16.300781 37.378906 16.304688 36.75 C 16.304688 36.609375 16.304688 36.46875 16.304688 36.328125 C 16.308594 35.957031 16.308594 35.589844 16.3125 35.222656 C 16.3125 34.84375 16.316406 34.46875 16.316406 34.089844 C 16.320312 33.351562 16.324219 32.613281 16.328125 31.875 C 16.230469 31.875 16.128906 31.878906 16.027344 31.878906 C 15.394531 31.882812 14.886719 31.59375 14.433594 31.164062 C 13.824219 30.5 13.726562 29.796875 13.730469 28.921875 C 13.730469 28.84375 13.730469 28.761719 13.730469 28.679688 C 13.730469 28.511719 13.730469 28.34375 13.730469 28.175781 C 13.730469 27.921875 13.730469 27.667969 13.730469 27.414062 C 13.726562 25.546875 13.960938 23.855469 15.300781 22.429688 C 16.519531 21.25 16.519531 21.25 17.109375 21.25 C 17.085938 21.207031 17.058594 21.164062 17.035156 21.117188 C 16.929688 20.929688 16.824219 20.738281 16.71875 20.546875 C 16.6875 20.496094 16.660156 20.441406 16.628906 20.386719 C 16.289062 19.761719 16.226562 19.09375 16.226562 18.390625 C 16.226562 18.324219 16.226562 18.253906 16.226562 18.183594 C 16.226562 18.042969 16.226562 17.898438 16.226562 17.757812 C 16.226562 17.539062 16.222656 17.324219 16.222656 17.105469 C 16.21875 16.21875 16.21875 15.402344 16.800781 14.679688 C 17.246094 14.246094 17.789062 13.902344 18.417969 13.890625 Z M 18.238281 15.910156 C 18.082031 16.125 18.082031 16.125 18.125 16.5625 C 19.363281 16.5625 20.601562 16.5625 21.875 16.5625 C 21.925781 16.113281 21.925781 16.113281 21.722656 15.910156 C 21.402344 15.738281 21.148438 15.734375 20.789062 15.738281 C 20.722656 15.738281 20.65625 15.738281 20.589844 15.738281 C 20.449219 15.738281 20.308594 15.738281 20.171875 15.742188 C 19.957031 15.742188 19.742188 15.742188 19.527344 15.738281 C 19.394531 15.738281 19.257812 15.738281 19.121094 15.738281 C 19.058594 15.738281 18.992188 15.738281 18.925781 15.738281 C 18.652344 15.742188 18.472656 15.757812 18.238281 15.910156 Z M 18.125 18.4375 C 18.125 19.070312 18.25 19.527344 18.570312 20.066406 C 18.972656 20.4375 19.429688 20.683594 19.980469 20.710938 C 20.609375 20.679688 21.066406 20.382812 21.484375 19.921875 C 21.855469 19.410156 21.875 19.074219 21.875 18.4375 C 20.636719 18.4375 19.398438 18.4375 18.125 18.4375 Z M 16.617188 23.777344 C 15.851562 24.683594 15.601562 25.652344 15.597656 26.816406 C 15.597656 26.898438 15.597656 26.976562 15.597656 27.0625 C 15.597656 27.234375 15.597656 27.40625 15.597656 27.574219 C 15.59375 27.835938 15.59375 28.097656 15.589844 28.363281 C 15.589844 28.527344 15.589844 28.695312 15.589844 28.863281 C 15.585938 28.941406 15.585938 29.019531 15.585938 29.097656 C 15.582031 29.523438 15.582031 29.523438 15.769531 29.894531 C 15.972656 30.023438 16.09375 30.027344 16.328125 30 C 16.386719 29.734375 16.417969 29.488281 16.417969 29.214844 C 16.417969 29.140625 16.417969 29.0625 16.417969 28.984375 C 16.417969 28.902344 16.417969 28.820312 16.417969 28.734375 C 16.414062 28.652344 16.414062 28.566406 16.414062 28.480469 C 16.410156 27.527344 16.371094 26.578125 16.328125 25.625 C 16.945312 25.625 17.566406 25.625 18.203125 25.625 C 18.203125 25.777344 18.203125 25.929688 18.203125 26.089844 C 18.195312 27.53125 18.191406 28.96875 18.191406 30.410156 C 18.191406 31.152344 18.1875 31.890625 18.183594 32.632812 C 18.183594 33.277344 18.179688 33.921875 18.179688 34.570312 C 18.179688 34.910156 18.179688 35.253906 18.179688 35.59375 C 18.175781 35.914062 18.175781 36.238281 18.175781 36.558594 C 18.175781 36.675781 18.175781 36.796875 18.175781 36.914062 C 18.175781 37.074219 18.175781 37.234375 18.175781 37.398438 C 18.175781 37.53125 18.175781 37.53125 18.175781 37.671875 C 18.1875 37.890625 18.1875 37.890625 18.308594 38.039062 C 18.445312 38.148438 18.445312 38.148438 18.675781 38.113281 C 18.929688 38.066406 18.929688 38.066406 19.0625 37.8125 C 19.085938 37.554688 19.085938 37.554688 19.082031 37.253906 C 19.082031 37.199219 19.082031 37.144531 19.082031 37.085938 C 19.082031 36.960938 19.082031 36.839844 19.082031 36.71875 C 19.082031 36.523438 19.082031 36.328125 19.082031 36.132812 C 19.085938 35.582031 19.085938 35.03125 19.085938 34.480469 C 19.085938 34.140625 19.085938 33.804688 19.089844 33.464844 C 19.089844 33.335938 19.089844 33.210938 19.089844 33.082031 C 19.089844 32.902344 19.089844 32.71875 19.089844 32.539062 C 19.089844 32.4375 19.089844 32.335938 19.089844 32.230469 C 19.15625 31.867188 19.273438 31.742188 19.53125 31.484375 C 19.851562 31.359375 20.171875 31.394531 20.503906 31.453125 C 20.703125 31.5625 20.703125 31.5625 20.792969 31.726562 C 20.875 32.003906 20.886719 32.261719 20.886719 32.546875 C 20.890625 32.605469 20.890625 32.664062 20.890625 32.722656 C 20.894531 32.851562 20.894531 32.976562 20.898438 33.105469 C 20.902344 33.304688 20.90625 33.503906 20.910156 33.703125 C 20.921875 34.273438 20.929688 34.839844 20.941406 35.410156 C 20.945312 35.757812 20.953125 36.105469 20.960938 36.453125 C 20.960938 36.585938 20.964844 36.71875 20.964844 36.851562 C 20.96875 37.035156 20.972656 37.21875 20.976562 37.40625 C 20.976562 37.488281 20.976562 37.488281 20.976562 37.570312 C 20.980469 37.738281 20.980469 37.738281 21.015625 37.96875 C 21.230469 38.148438 21.230469 38.148438 21.449219 38.105469 C 21.652344 38.058594 21.652344 38.058594 21.796875 37.890625 C 21.820312 37.667969 21.820312 37.667969 21.816406 37.40625 C 21.816406 37.332031 21.816406 37.332031 21.816406 37.253906 C 21.816406 37.085938 21.816406 36.914062 21.816406 36.746094 C 21.816406 36.625 21.816406 36.503906 21.816406 36.382812 C 21.816406 36.054688 21.8125 35.726562 21.8125 35.398438 C 21.8125 35.054688 21.8125 34.710938 21.8125 34.367188 C 21.8125 33.71875 21.808594 33.066406 21.808594 32.417969 C 21.804688 31.675781 21.804688 30.9375 21.804688 30.195312 C 21.804688 28.671875 21.800781 27.148438 21.796875 25.625 C 22.390625 25.625 22.984375 25.625 23.59375 25.625 C 23.59375 27.042969 23.59375 28.460938 23.59375 29.921875 C 23.757812 30.023438 23.757812 30.023438 23.984375 29.941406 C 24.238281 29.859375 24.238281 29.859375 24.375 29.609375 C 24.398438 29.453125 24.398438 29.453125 24.394531 29.285156 C 24.398438 29.21875 24.398438 29.152344 24.398438 29.085938 C 24.398438 29.015625 24.398438 28.945312 24.398438 28.871094 C 24.398438 28.761719 24.398438 28.761719 24.398438 28.652344 C 24.398438 28.496094 24.398438 28.339844 24.398438 28.183594 C 24.398438 27.949219 24.402344 27.714844 24.402344 27.476562 C 24.40625 26.039062 24.265625 24.691406 23.222656 23.597656 C 22.25 22.722656 21.054688 22.378906 19.765625 22.40625 C 18.550781 22.480469 17.476562 22.894531 16.617188 23.777344 Z M 16.617188 23.777344 "/>
<path style=" stroke:none;fill-rule:nonzero;fill:rgb(100%,100%,100%);fill-opacity:1;" d="M 21.023438 0.203125 C 21.449219 0.542969 21.828125 0.941406 21.953125 1.484375 C 22.007812 1.988281 22.007812 2.402344 21.792969 2.867188 C 21.765625 2.929688 21.738281 2.996094 21.707031 3.058594 C 21.675781 3.128906 21.675781 3.128906 21.640625 3.203125 C 21.707031 3.203125 21.707031 3.203125 21.773438 3.203125 C 22.832031 3.199219 23.890625 3.195312 24.953125 3.191406 C 25.464844 3.191406 25.976562 3.1875 26.488281 3.183594 C 26.984375 3.183594 27.476562 3.179688 27.972656 3.179688 C 28.160156 3.179688 28.347656 3.179688 28.539062 3.179688 C 28.800781 3.175781 29.066406 3.175781 29.332031 3.175781 C 29.410156 3.175781 29.488281 3.175781 29.566406 3.175781 C 29.957031 3.175781 30.234375 3.179688 30.546875 3.4375 C 30.777344 3.714844 30.820312 3.953125 30.804688 4.300781 C 30.757812 4.613281 30.625 4.785156 30.378906 4.96875 C 30.101562 5.105469 29.898438 5.109375 29.589844 5.113281 C 29.503906 5.113281 29.503906 5.113281 29.417969 5.113281 C 29.238281 5.117188 29.054688 5.117188 28.871094 5.117188 C 28.742188 5.121094 28.617188 5.121094 28.488281 5.121094 C 28.15625 5.125 27.820312 5.128906 27.484375 5.128906 C 27.144531 5.132812 26.804688 5.136719 26.460938 5.140625 C 25.792969 5.148438 25.121094 5.152344 24.453125 5.15625 C 24.503906 5.183594 24.554688 5.207031 24.605469 5.234375 C 24.835938 5.355469 25.0625 5.480469 25.292969 5.601562 C 25.371094 5.640625 25.453125 5.683594 25.535156 5.726562 C 25.609375 5.765625 25.6875 5.808594 25.765625 5.851562 C 25.835938 5.886719 25.90625 5.925781 25.980469 5.964844 C 26.304688 6.183594 26.460938 6.398438 26.5625 6.773438 C 26.597656 7.191406 26.414062 7.515625 26.226562 7.882812 C 26.191406 7.953125 26.15625 8.023438 26.117188 8.097656 C 26.007812 8.316406 25.894531 8.53125 25.78125 8.75 C 25.730469 8.847656 25.730469 8.847656 25.679688 8.949219 C 25.121094 10.03125 24.472656 11.121094 23.277344 11.574219 C 22.589844 11.78125 21.96875 11.84375 21.253906 11.839844 C 21.144531 11.839844 21.039062 11.839844 20.929688 11.839844 C 20.703125 11.839844 20.480469 11.839844 20.253906 11.835938 C 19.96875 11.835938 19.683594 11.835938 19.398438 11.839844 C 19.175781 11.839844 18.953125 11.839844 18.730469 11.839844 C 18.574219 11.839844 18.417969 11.839844 18.261719 11.839844 C 17.136719 11.828125 16.273438 11.488281 15.453125 10.722656 C 14.886719 10.125 14.535156 9.347656 14.152344 8.621094 C 14.097656 8.519531 14.042969 8.421875 13.992188 8.320312 C 13.425781 7.285156 13.425781 7.285156 13.515625 6.640625 C 13.761719 5.945312 14.402344 5.726562 15.023438 5.417969 C 15.074219 5.390625 15.125 5.367188 15.175781 5.339844 C 15.300781 5.28125 15.421875 5.21875 15.546875 5.15625 C 15.441406 5.15625 15.441406 5.15625 15.332031 5.15625 C 14.660156 5.15625 13.984375 5.15625 13.3125 5.148438 C 12.96875 5.148438 12.621094 5.144531 12.277344 5.148438 C 11.941406 5.148438 11.609375 5.144531 11.277344 5.140625 C 11.148438 5.140625 11.019531 5.140625 10.894531 5.140625 C 9.773438 5.148438 9.773438 5.148438 9.414062 4.851562 C 9.152344 4.527344 9.101562 4.316406 9.140625 3.90625 C 9.25 3.652344 9.394531 3.460938 9.609375 3.28125 C 9.832031 3.207031 9.964844 3.195312 10.195312 3.195312 C 10.265625 3.195312 10.339844 3.195312 10.414062 3.195312 C 10.492188 3.195312 10.570312 3.195312 10.652344 3.195312 C 10.734375 3.195312 10.816406 3.195312 10.902344 3.195312 C 11.179688 3.195312 11.453125 3.195312 11.730469 3.195312 C 11.921875 3.195312 12.109375 3.195312 12.300781 3.195312 C 12.804688 3.195312 13.304688 3.195312 13.808594 3.199219 C 14.320312 3.199219 14.832031 3.199219 15.34375 3.199219 C 16.347656 3.199219 17.355469 3.203125 18.359375 3.203125 C 18.335938 3.148438 18.316406 3.097656 18.292969 3.042969 C 18.265625 2.972656 18.234375 2.902344 18.207031 2.828125 C 18.164062 2.722656 18.164062 2.722656 18.117188 2.617188 C 17.933594 2.117188 17.972656 1.496094 18.191406 1.007812 C 18.4375 0.609375 18.828125 0.1875 19.277344 0.03125 C 19.871094 -0.078125 20.5 -0.128906 21.023438 0.203125 Z M 19.3125 5.308594 C 19.191406 5.375 19.074219 5.441406 18.953125 5.503906 C 18.894531 5.539062 18.832031 5.570312 18.769531 5.605469 C 18.511719 5.75 18.246094 5.878906 17.976562 6.011719 C 17.308594 6.339844 16.652344 6.6875 15.992188 7.039062 C 15.898438 7.089844 15.800781 7.140625 15.703125 7.1875 C 15.789062 7.605469 16.003906 7.972656 16.195312 8.355469 C 16.234375 8.433594 16.273438 8.507812 16.3125 8.589844 C 16.625 9.214844 16.832031 9.597656 17.503906 9.855469 C 17.921875 9.976562 18.339844 9.96875 18.773438 9.964844 C 18.921875 9.96875 18.921875 9.96875 19.070312 9.96875 C 19.328125 9.96875 19.585938 9.96875 19.84375 9.964844 C 20 9.964844 20.15625 9.96875 20.3125 9.96875 C 20.617188 9.972656 20.921875 9.972656 21.226562 9.972656 C 21.316406 9.972656 21.410156 9.972656 21.507812 9.972656 C 22.148438 9.96875 22.722656 9.859375 23.191406 9.382812 C 23.496094 9.011719 23.695312 8.574219 23.898438 8.140625 C 23.929688 8.074219 23.960938 8.007812 23.992188 7.941406 C 24.167969 7.578125 24.167969 7.578125 24.21875 7.1875 C 24.148438 7.152344 24.082031 7.113281 24.011719 7.078125 C 23.75 6.941406 23.492188 6.800781 23.230469 6.664062 C 23.113281 6.601562 23 6.542969 22.882812 6.480469 C 22.15625 6.09375 21.429688 5.710938 20.71875 5.296875 C 20.132812 4.960938 19.894531 4.972656 19.3125 5.308594 Z M 19.3125 5.308594 "/>
</g>
</svg>
