<?xml version="1.0" encoding="UTF-8"?>
<svg version="1.1" xmlns="http://www.w3.org/2000/svg" width="512" height="512">
<path d="M0 0 C0.94198242 -0.01606293 1.88396484 -0.03212585 2.85449219 -0.04867554 C7.17495746 -0.09353728 11.49527345 -0.13422788 15.81591797 -0.15722656 C18.08327543 -0.17372467 20.35058222 -0.20093243 22.61767578 -0.23925781 C49.63641001 -0.69305574 49.63641001 -0.69305574 58.70117188 7.38867188 C65.2330544 13.97372089 67.55995011 20.87634294 67.65512085 29.98298645 C67.64904816 30.9352562 67.64297546 31.88752594 67.63671875 32.86865234 C67.63958893 33.87445847 67.64245911 34.88026459 67.64541626 35.91654968 C67.64744879 38.0352739 67.641976 40.15401724 67.62939453 42.27270508 C67.61338049 45.48546177 67.62924535 48.69695085 67.6484375 51.90966797 C67.64645394 53.97933216 67.64260794 56.04899558 67.63671875 58.11865234 C67.64279144 59.0648494 67.64886414 60.01104645 67.65512085 60.98591614 C67.5460486 71.53183183 64.76567864 80.26675039 59.23828125 89.19287109 C58.64015625 90.20349609 58.04203125 91.21412109 57.42578125 92.25537109 C57.03390625 92.89474609 56.64203125 93.53412109 56.23828125 94.19287109 C56.96917969 94.29857422 57.70007813 94.40427734 58.453125 94.51318359 C70.78956622 97.52375971 82.74191806 111.35758431 89.27954102 121.8371582 C94.50032958 130.68757999 98.33673596 140.1782248 98.39941406 150.50268555 C98.40902161 151.78113846 98.41862915 153.05959137 98.42852783 154.37678528 C98.43337641 155.76990581 98.43765509 157.16302842 98.44140625 158.55615234 C98.44716294 159.99098206 98.45292061 161.42581177 98.4586792 162.86064148 C98.4691725 165.86746579 98.47502597 168.87426349 98.47851562 171.88110352 C98.48399454 175.72101041 98.50801638 179.5605617 98.53648758 183.40035725 C98.55517558 186.3644664 98.56032284 189.32849096 98.5618515 192.29265404 C98.56486507 193.70755137 98.57284954 195.12244767 98.58603668 196.53728676 C98.6809536 207.5042734 97.77586473 214.16429904 90.171875 222.33740234 C85.07711713 227.22631141 80.37452315 229.31674285 73.46484375 230.82958984 C72.29775879 231.08828857 71.13067383 231.3469873 69.92822266 231.61352539 C69.04054199 231.80470947 68.15286133 231.99589355 67.23828125 232.19287109 C67.23685623 233.19796722 67.23543121 234.20306335 67.23396301 235.23861694 C67.21724406 244.74235048 67.1743214 254.24565851 67.10619068 263.74916649 C67.07199937 268.63427157 67.04682296 273.51906651 67.04272461 278.40429688 C67.03842476 283.12489501 67.00982297 287.84479447 66.96484947 292.5651741 C66.95192817 294.35990952 66.94754763 296.15472877 66.95212746 297.94950485 C66.9913827 318.01663957 66.9913827 318.01663957 59.26423645 326.31210327 C51.68785981 333.55892416 45.28516409 334.73101415 34.9765625 334.56787109 C30.60330959 334.12917488 27.26217207 332.98953 23.38671875 330.97021484 C19.4252246 329.53687423 16.49315246 331.07702054 12.80078125 332.75537109 C5.1734525 335.66788604 -3.74886818 335.30768977 -11.32421875 332.44287109 C-19.11857089 328.75549406 -22.90091985 323.81672714 -26.76171875 316.19287109 C-28.07888786 312.32003845 -27.93571795 308.34702173 -27.96704102 304.30322266 C-27.97694061 303.51259933 -27.98684021 302.72197601 -27.99703979 301.90739441 C-28.02857536 299.29945855 -28.05338076 296.69150449 -28.078125 294.08349609 C-28.09870139 292.27316825 -28.11969804 290.46284515 -28.14109802 288.65252686 C-28.19624795 283.89162023 -28.24568842 279.13067076 -28.29394531 274.36968994 C-28.34421205 269.50993036 -28.39987111 264.65023287 -28.45507812 259.79052734 C-28.56257311 250.25802833 -28.66403728 240.72547536 -28.76171875 231.19287109 C-29.52079529 231.06272614 -30.27987183 230.93258118 -31.06195068 230.79849243 C-32.05567688 230.62393524 -33.04940308 230.44937805 -34.07324219 230.26953125 C-35.05919373 230.09813629 -36.04514526 229.92674133 -37.06097412 229.75015259 C-44.62538394 228.18928468 -50.30484426 223.17094484 -55.2890625 217.51318359 C-60.06460806 209.9888492 -60.21691642 202.93775868 -60.1953125 194.25146484 C-60.20055435 193.01098892 -60.2057962 191.770513 -60.2111969 190.4924469 C-60.21923527 187.20524442 -60.21219246 183.91846297 -60.2008667 180.63128662 C-60.19815051 177.33333061 -60.23332065 174.03562498 -60.25976562 170.73779297 C-60.33081012 145.8820203 -60.33081012 145.8820203 -55.76171875 134.19287109 C-55.29971069 132.98232056 -55.29971069 132.98232056 -54.82836914 131.74731445 C-53.99480177 129.75191543 -53.08269234 127.85484994 -52.07421875 125.94287109 C-51.56048706 124.94984985 -51.56048706 124.94984985 -51.03637695 123.93676758 C-44.27101017 111.31655046 -33.77441181 100.42811985 -20.76171875 94.19287109 C-19.77171875 94.19287109 -18.78171875 94.19287109 -17.76171875 94.19287109 C-18.30441406 93.43103516 -18.84710938 92.66919922 -19.40625 91.88427734 C-23.58494971 85.85339722 -27.09283889 80.37870915 -28.76171875 73.19287109 C-29.01538208 72.18546875 -29.01538208 72.18546875 -29.27416992 71.15771484 C-30.41110439 64.24387799 -30.06901749 57.09395331 -30.11181641 50.10327148 C-30.128314 48.13374972 -30.15552137 46.16428629 -30.19384766 44.19506836 C-30.45631425 30.60956918 -30.56047442 19.30776221 -20.94921875 8.69287109 C-14.8501899 3.14725129 -8.25377054 0.12860011 0 0 Z M-4.76171875 26.19287109 C-7.13151888 29.14664608 -7.13151888 29.14664608 -6.76171875 33.19287109 C9.73828125 33.19287109 26.23828125 33.19287109 43.23828125 33.19287109 C43.00494792 26.55953776 43.00494792 26.55953776 40.23828125 24.19287109 C36.38052105 22.7342155 32.21693528 23.0127657 28.1484375 22.98974609 C27.36689804 22.98404602 26.58535858 22.97834595 25.78013611 22.97247314 C24.13021185 22.96304565 22.48026894 22.95649812 20.83032227 22.95263672 C18.31297932 22.94291819 15.79644886 22.91186933 13.27929688 22.88037109 C11.67318191 22.87384156 10.06706113 22.86859089 8.4609375 22.86474609 C7.33728539 22.84622589 7.33728539 22.84622589 6.19093323 22.82733154 C1.68467841 22.84644745 -1.19943773 23.37995855 -4.76171875 26.19287109 Z M-6.76171875 59.19287109 C-6.51034227 67.11123016 -4.62425076 74.33828668 1.13671875 80.08740234 C7.44998195 85.05819004 13.35457021 86.74212535 21.359375 86.56787109 C27.84316333 85.72330708 33.24221573 82.64153998 37.67578125 77.88037109 C41.44027846 72.9534654 43.31083053 68.247311 43.26611328 62.05004883 C43.25233643 60.14074585 43.25233643 60.14074585 43.23828125 58.19287109 C36.27824678 58.16760272 29.31822405 58.15003887 22.3581543 58.13793945 C19.98835813 58.13289768 17.6185651 58.12606444 15.2487793 58.11743164 C11.85074086 58.10535919 8.4527434 58.09964139 5.0546875 58.09521484 C3.9880336 58.09005356 2.9213797 58.08489227 1.82240295 58.07957458 C0.84146164 58.07949905 -0.13947968 58.07942352 -1.15014648 58.0793457 C-2.01840561 58.07712509 -2.88666473 58.07490448 -3.78123474 58.07261658 C-5.76315556 57.97332442 -5.76315556 57.97332442 -6.76171875 59.19287109 Z M-24.65234375 126.57177734 C-33.74988118 137.87630996 -36.08121443 149.02170754 -36.02734375 163.12255859 C-36.0292572 164.23470734 -36.03117065 165.34685608 -36.03314209 166.4927063 C-36.03449582 168.82733387 -36.0308565 171.16196917 -36.02246094 173.49658203 C-36.01168886 177.07780655 -36.02241522 180.65853639 -36.03515625 184.23974609 C-36.0338357 186.5131847 -36.03127549 188.786623 -36.02734375 191.06005859 C-36.03139221 192.13190399 -36.03544067 193.20374939 -36.03961182 194.30807495 C-36.0333075 195.29985748 -36.02700317 196.29164001 -36.02050781 197.31347656 C-36.01891663 198.18567841 -36.01732544 199.05788025 -36.01568604 199.95651245 C-35.90199215 202.47783795 -35.90199215 202.47783795 -33.76171875 205.19287109 C-31.24995801 206.01218199 -31.24995801 206.01218199 -28.76171875 206.19287109 C-27.5139029 205.16759226 -27.5139029 205.16759226 -27.64146423 202.98460388 C-27.64368484 202.0097554 -27.64590546 201.03490692 -27.64819336 200.03051758 C-27.64826889 198.92945175 -27.64834442 197.82838593 -27.64842224 196.69395447 C-27.65358353 195.49605789 -27.65874481 194.29816132 -27.6640625 193.06396484 C-27.66547745 191.84459732 -27.6668924 190.6252298 -27.66835022 189.36891174 C-27.67396908 185.4560404 -27.68652479 181.54322528 -27.69921875 177.63037109 C-27.70423132 174.98518963 -27.70879465 172.34000726 -27.71289062 169.69482422 C-27.72309579 163.19413383 -27.74266754 156.69356576 -27.76171875 150.19287109 C-19.84171875 150.19287109 -11.92171875 150.19287109 -3.76171875 150.19287109 C-3.76393936 152.14058914 -3.76615997 154.08830719 -3.76844788 156.095047 C-3.78868547 174.41571499 -3.80375388 192.73638072 -3.81353092 211.05705738 C-3.81869127 220.47676352 -3.82572901 229.89646132 -3.8371582 239.31616211 C-3.847113 247.52459633 -3.85357408 255.73302451 -3.85580724 263.9414646 C-3.85711299 268.28935632 -3.86019032 272.63723077 -3.86744881 276.98511696 C-3.87422154 281.07505871 -3.87633314 285.16497604 -3.87482643 289.25492287 C-3.87510219 290.75818006 -3.8770999 292.26143805 -3.88092422 293.7646904 C-3.88588093 295.81303572 -3.88411174 297.86139406 -3.88197327 299.90974426 C-3.88289506 301.05737653 -3.88381685 302.20500879 -3.88476658 303.38741779 C-3.88662711 306.27540358 -3.88662711 306.27540358 -2.76171875 309.19287109 C0.08906216 309.96003961 0.08906216 309.96003961 3.23828125 310.19287109 C5.06802875 309.22318464 5.06802875 309.22318464 6.23828125 307.19287109 C6.68059303 303.90056292 6.68059303 303.90056292 6.59130859 300.06274414 C6.59346878 299.34042603 6.59562897 298.61810791 6.59785461 297.87390137 C6.60094188 296.30572649 6.59733481 294.73752746 6.58784103 293.16937828 C6.5741086 290.68465865 6.5805367 288.20073832 6.59268188 285.71601868 C6.6236499 278.65201616 6.61879547 271.58819813 6.59863281 264.52416992 C6.58769874 260.20220902 6.60094268 255.88084726 6.62852859 251.5589695 C6.63396111 249.91440007 6.62992568 248.26977041 6.61613083 246.62524986 C6.59702282 244.31989963 6.60851587 242.01649968 6.62646484 239.71118164 C6.62288467 237.74618965 6.62288467 237.74618965 6.61923218 235.74150085 C7.42919771 231.09846378 8.94632568 229.50314185 12.23828125 226.19287109 C16.26944953 223.9085424 19.57450654 224.0158645 23.98828125 225.19287109 C27.75898184 227.51330223 29.11879124 229.32700033 31.23828125 233.19287109 C31.73034668 236.65884399 31.73034668 236.65884399 31.72070312 240.51171875 C31.72461563 241.21818039 31.72852814 241.92464203 31.7325592 242.6525116 C31.73850817 244.17642962 31.73541135 245.70040483 31.72413635 247.22429276 C31.70681238 249.63742048 31.71441332 252.04935695 31.72839355 254.4624939 C31.75367966 259.58103513 31.74823094 264.69929282 31.73828125 269.81787109 C31.72675181 275.75803436 31.72787771 281.69761683 31.76234436 287.63770676 C31.76943837 290.01332913 31.75276579 292.38803067 31.73522949 294.76358032 C31.74093649 296.2199961 31.74775334 297.6764081 31.75585938 299.1328125 C31.752677 300.40266998 31.74949463 301.67252747 31.74621582 302.98086548 C32.32194451 306.7389913 33.21112821 307.96002719 36.23828125 310.19287109 C39.25639547 310.01533496 40.0756334 309.35551894 42.23828125 307.19287109 C42.53812753 304.36499544 42.53812753 304.36499544 42.47879028 300.99203491 C42.48135356 300.02779506 42.48135356 300.02779506 42.48396862 299.04407561 C42.48727453 296.8805089 42.47624203 294.71724929 42.46533203 292.55371094 C42.46476815 291.00663765 42.46508402 289.45956382 42.46621704 287.91249084 C42.46679247 283.70401924 42.45500746 279.49566091 42.44106913 275.28721571 C42.4285934 270.89229877 42.42739377 266.49737943 42.42501831 262.10244751 C42.41879423 253.77619507 42.4023709 245.44999495 42.38231933 237.12376559 C42.35998915 227.64627688 42.34897416 218.16878572 42.33892846 208.69127727 C42.31800545 189.19177802 42.28241013 169.69233067 42.23828125 150.19287109 C50.15828125 150.19287109 58.07828125 150.19287109 66.23828125 150.19287109 C66.22667969 154.15158203 66.21507812 158.11029297 66.203125 162.18896484 C66.19533592 166.00480062 66.18925831 169.82063552 66.18334961 173.63647461 C66.17830742 176.2972859 66.17147389 178.95809441 66.1628418 181.61889648 C66.15077116 185.43392625 66.14505196 189.24891953 66.140625 193.06396484 C66.13546371 194.26186142 66.13030243 195.459758 66.12498474 196.69395447 C66.12487144 198.34555321 66.12487144 198.34555321 66.12475586 200.03051758 C66.12253525 201.00536606 66.12031464 201.98021454 66.11802673 202.98460388 C65.9904654 205.16759226 65.9904654 205.16759226 67.23828125 206.19287109 C70.23828125 206.35953776 70.23828125 206.35953776 73.23828125 206.19287109 C75.21131347 204.21983887 74.5171653 200.40789737 74.58984375 197.70458984 C74.62545662 196.555159 74.62545662 196.555159 74.66178894 195.38250732 C74.73602422 192.88193384 74.80105559 190.38127111 74.86328125 187.88037109 C74.88474213 187.03507843 74.906203 186.18978577 74.92831421 185.31887817 C76.3369481 151.73879985 76.3369481 151.73879985 60.36328125 123.16162109 C49.59259425 112.92946844 36.52297136 109.81886058 22.12475586 109.82226562 C20.07254409 109.81791721 18.02253226 109.78159899 15.97070312 109.74365234 C-0.03297843 109.60652591 -13.55141067 114.90005161 -24.65234375 126.57177734 Z " fill="#FFFFFF" transform="translate(413.76171875,177.80712890625)"/>
<path d="M0 0 C0.83343933 -0.00570007 1.66687866 -0.01140015 2.52557373 -0.01727295 C4.28380072 -0.02668446 6.04204504 -0.03324155 7.80029297 -0.03710938 C10.46223444 -0.04679444 13.12339621 -0.07784573 15.78515625 -0.109375 C28.49345904 -0.18949709 39.17735307 0.59878402 49.234375 9.203125 C56.81126935 17.2716499 58.5451704 24.0861405 58.53515625 34.9375 C58.53944138 35.97070374 58.5437265 37.00390747 58.54814148 38.06842041 C58.55387173 40.25035878 58.55439468 42.43231625 58.55004883 44.61425781 C58.54689881 47.928072 58.57033058 51.24098417 58.59570312 54.5546875 C58.59797745 56.68229055 58.598679 58.80989598 58.59765625 60.9375 C58.606866 61.91700623 58.61607574 62.89651245 58.62556458 63.90570068 C58.56424547 73.16810815 56.39848753 80.95569712 51.546875 88.828125 C50.92425781 89.85164063 50.30164063 90.87515625 49.66015625 91.9296875 C49.18964844 92.67992187 48.71914062 93.43015625 48.234375 94.203125 C48.99621094 94.6878125 49.75804688 95.1725 50.54296875 95.671875 C67.83725824 106.8991291 81.83026744 121.61796352 86.65673828 142.31884766 C88.96413089 153.84020705 88.45289739 165.88647866 88.47460938 177.5847168 C88.48436331 180.76181759 88.51549044 183.93828327 88.546875 187.11523438 C88.55340289 189.16666289 88.5586542 191.21809595 88.5625 193.26953125 C88.5748468 194.20318008 88.5871936 195.13682892 88.59991455 196.09877014 C88.56570763 206.37318479 86.55172137 215.671532 79.234375 223.203125 C73.2635908 228.65207237 67.71705141 231.31712204 59.51171875 231.2421875 C58.70855225 231.23654785 57.90538574 231.2309082 57.07788086 231.22509766 C56.46952393 231.21784668 55.86116699 231.2105957 55.234375 231.203125 C55.24325745 232.20822113 55.25213989 233.21331726 55.2612915 234.24887085 C55.34261687 243.75232114 55.40245492 253.2557002 55.44162369 262.75942039 C55.46243823 267.64461218 55.49064303 272.52952151 55.53613281 277.41455078 C55.57981035 282.13487117 55.60355816 286.85492103 55.61388397 291.57542801 C55.6212362 293.3702482 55.63559288 295.16505472 55.65729523 296.95975876 C55.7811085 307.62956348 55.85895363 316.77146313 49.375 325.7890625 C42.19633835 332.58209356 37.24814376 335.51167823 27.171875 335.640625 C26.16253906 335.65609375 26.16253906 335.65609375 25.1328125 335.671875 C20.2094386 335.58516196 16.65867389 334.25112201 12.234375 332.203125 C8.22790934 330.98350972 6.43660866 331.25781097 2.734375 333.140625 C-4.47582974 336.23993689 -12.58026086 336.53813151 -20.078125 334.078125 C-27.44590117 330.73620121 -33.60306376 325.79082037 -36.765625 318.203125 C-39.40361995 309.34157041 -39.01901242 300.41321145 -38.9609375 291.26171875 C-38.95720176 289.52580428 -38.95435744 287.78988768 -38.95236206 286.05397034 C-38.94476974 281.5116888 -38.92515963 276.9695376 -38.9029541 272.42730713 C-38.88240028 267.78163414 -38.87334005 263.13593984 -38.86328125 258.49023438 C-38.84190911 249.39447436 -38.80782703 240.29881057 -38.765625 231.203125 C-39.45405487 231.14149673 -40.14248474 231.07986847 -40.85177612 231.01637268 C-42.20494431 230.88947304 -42.20494431 230.88947304 -43.58544922 230.76000977 C-44.48012909 230.6777565 -45.37480896 230.59550323 -46.29660034 230.51075745 C-53.87659835 229.56631434 -59.72692027 224.79144269 -65.07421875 219.65625 C-70.36916107 211.97674936 -70.20787876 203.42293471 -70.1640625 194.40234375 C-70.16693268 193.08957962 -70.16980286 191.77681549 -70.17276001 190.42427063 C-70.17715866 187.65651752 -70.17083577 184.88905674 -70.15673828 182.12133789 C-70.13969798 178.60819631 -70.14946986 175.0957452 -70.16745567 171.5826292 C-70.18103428 168.18914857 -70.17146574 164.79584386 -70.1640625 161.40234375 C-70.17013519 160.15821213 -70.17620789 158.91408051 -70.1824646 157.63224792 C-70.09647379 146.79928351 -68.19631452 136.86699561 -63.203125 127.203125 C-62.85797852 126.53015381 -62.51283203 125.85718262 -62.15722656 125.16381836 C-54.70141044 111.19493265 -43.27195844 100.61938787 -28.765625 94.203125 C-30.37543624 89.99227617 -32.37360358 86.13377361 -34.546875 82.19140625 C-37.56684501 74.7866721 -38.07478876 67.05310058 -38.06640625 59.13671875 C-38.07069138 58.21778336 -38.0749765 57.29884796 -38.07939148 56.35206604 C-38.08509051 54.42523008 -38.08566808 52.49837263 -38.08129883 50.5715332 C-38.078129 47.6443184 -38.10168786 44.71810674 -38.12695312 41.79101562 C-38.1292258 39.90625126 -38.12992976 38.02148421 -38.12890625 36.13671875 C-38.138116 35.27396835 -38.14732574 34.41121796 -38.15681458 33.52232361 C-38.07853973 23.1179707 -34.68750334 15.86498142 -27.765625 8.203125 C-20.18382599 0.81573109 -10.09409786 0.05425137 0 0 Z M-11.79321289 26.36303711 C-14.33604595 29.44817442 -14.33604595 29.44817442 -13.765625 35.203125 C2.074375 35.203125 17.914375 35.203125 34.234375 35.203125 C35.63407215 31.36337654 35.63407215 31.36337654 34.046875 28.578125 C32.05500222 25.96808481 31.27604666 25.30899101 28.234375 24.203125 C25.43159758 23.97541181 22.73010799 23.85148633 19.92578125 23.83203125 C19.12204575 23.82300278 18.31831024 23.8139743 17.49021912 23.80467224 C15.7932405 23.79018962 14.0962063 23.78128794 12.39916992 23.77758789 C9.80877434 23.7656797 7.22075332 23.7164697 4.63085938 23.66601562 C2.97917825 23.65655192 1.32748255 23.64931663 -0.32421875 23.64453125 C-1.09519394 23.62499893 -1.86616913 23.60546661 -2.6605072 23.58534241 C-6.57244915 23.61802473 -8.58116696 24.07153075 -11.79321289 26.36303711 Z M-13.765625 59.203125 C-13.80809789 60.94640112 -13.83824783 62.68998 -13.86328125 64.43359375 C-13.88140869 65.40449951 -13.89953613 66.37540527 -13.91821289 67.37573242 C-13.59219606 73.4166939 -10.78656263 77.53881224 -6.390625 81.515625 C-0.6023926 86.02848416 4.85227507 88.36954915 12.234375 88.203125 C19.78208694 87.10314838 25.24414475 83.94246603 30.234375 78.203125 C34.1270431 72.76467275 35.29908618 66.84249181 35.234375 60.203125 C34.24026045 58.98832216 34.24026045 58.98832216 32.29185486 59.08287048 C31.44136063 59.08509109 30.59086639 59.08731171 29.71459961 59.08959961 C28.75367905 59.08967514 27.79275848 59.08975067 26.80271912 59.08982849 C25.23554893 59.09757042 25.23554893 59.09757042 23.63671875 59.10546875 C22.57272354 59.1068837 21.50872833 59.10829865 20.41249084 59.10975647 C16.99892417 59.11537436 13.585422 59.12792989 10.171875 59.140625 C7.86393324 59.14563769 5.55599045 59.150201 3.24804688 59.15429688 C-2.42319926 59.1653496 -8.09440753 59.18210513 -13.765625 59.203125 Z M-36.9453125 129.68359375 C-45.0003432 140.83272423 -47.08264638 151.67961835 -47.03125 165.1328125 C-47.03316345 166.24496124 -47.0350769 167.35710999 -47.03704834 168.50296021 C-47.03840207 170.83758777 -47.03476275 173.17222307 -47.02636719 175.50683594 C-47.01559511 179.08806046 -47.02632147 182.6687903 -47.0390625 186.25 C-47.03774195 188.52343861 -47.03518174 190.79687691 -47.03125 193.0703125 C-47.03529846 194.1421579 -47.03934692 195.2140033 -47.04351807 196.31832886 C-47.03721375 197.31011139 -47.03090942 198.30189392 -47.02441406 199.32373047 C-47.02282288 200.19593231 -47.02123169 201.06813416 -47.01959229 201.96676636 C-46.9058984 204.48809185 -46.9058984 204.48809185 -44.765625 207.203125 C-42.265625 207.61979167 -42.265625 207.61979167 -39.765625 207.203125 C-37.5486927 205.40488571 -37.5486927 205.40488571 -37.52511597 202.95053101 C-37.52955719 202.01343292 -37.53399841 201.07633484 -37.53857422 200.11083984 C-37.53872528 199.04989105 -37.53887634 197.98894226 -37.53903198 196.89584351 C-37.54935455 195.74685577 -37.55967712 194.59786804 -37.5703125 193.4140625 C-37.57455734 191.65372177 -37.57455734 191.65372177 -37.57888794 189.8578186 C-37.59011145 186.09781838 -37.61522008 182.33805361 -37.640625 178.578125 C-37.65065199 176.0338576 -37.65977832 173.48958648 -37.66796875 170.9453125 C-37.6900579 164.69782551 -37.72460264 158.45051521 -37.765625 152.203125 C-30.175625 152.203125 -22.585625 152.203125 -14.765625 152.203125 C-14.77086182 154.89839355 -14.77609863 157.59366211 -14.78149414 160.37060547 C-14.94851946 223.31992432 -14.94851946 223.31992432 -14.390625 286.265625 C-14.37524689 287.46886414 -14.35986877 288.67210327 -14.34402466 289.9118042 C-14.2999899 293.20842307 -14.24263615 296.5044765 -14.1796875 299.80078125 C-14.16813126 300.7448735 -14.15657501 301.68896576 -14.14466858 302.66166687 C-14.26248817 307.41897243 -14.26248817 307.41897243 -11.765625 311.203125 C-9.06260006 311.54966666 -7.44736251 311.64513699 -5.12852478 310.14169312 C-3.08039592 307.22846548 -3.35895097 304.30596867 -3.39672852 300.87353516 C-3.39296204 300.13010361 -3.38919556 299.38667206 -3.38531494 298.62071228 C-3.37888019 297.00671271 -3.37921467 295.39267524 -3.38549995 293.77867508 C-3.39460018 291.22282817 -3.38439866 288.6677165 -3.36888123 286.11190796 C-3.32875358 278.84577604 -3.32757814 271.57970083 -3.32983398 264.31347656 C-3.32988511 259.8683864 -3.31070577 255.42369191 -3.28050041 250.97871017 C-3.26967484 248.4630555 -3.28180652 245.94815608 -3.29432678 243.43252563 C-3.285421 241.88551081 -3.27534614 240.33850213 -3.26391602 238.79150391 C-3.27365952 238.09418655 -3.28340302 237.3968692 -3.29344177 236.67842102 C-3.22355918 231.93246703 -2.11222194 229.54072276 1.234375 226.203125 C4.93162875 224.35449812 9.19898942 224.72725406 13.234375 225.203125 C16.16860695 226.99959354 17.70642855 228.1472321 19.234375 231.203125 C19.34079354 233.59226003 19.38851697 235.95347582 19.39208984 238.34326172 C19.39717056 239.07839996 19.40225128 239.81353821 19.40748596 240.57095337 C19.41819712 242.16969481 19.42681437 243.76845131 19.43360519 245.3672142 C19.44538004 247.89732488 19.46482903 250.42726376 19.48672485 252.95730591 C19.5483893 260.15165499 19.60239983 267.3459869 19.63574219 274.54052734 C19.65667747 278.93906864 19.69197184 283.33729761 19.73649979 287.73566055 C19.75066987 289.41255138 19.7593845 291.08949746 19.76255417 292.76644516 C19.76745827 295.112696 19.79060222 297.4581168 19.81787109 299.80419922 C19.81486496 300.49733215 19.81185883 301.19046509 19.8087616 301.90460205 C19.87862078 305.94819 20.40730397 308.25407182 23.234375 311.203125 C27.57621702 311.01848134 27.57621702 311.01848134 31.234375 309.203125 C31.33115739 307.16551313 31.35624465 305.12448788 31.35462952 303.08457947 C31.35548394 302.43852377 31.35633837 301.79246807 31.35721868 301.12683493 C31.35887524 298.94642683 31.35334929 296.76609445 31.34790039 294.58569336 C31.34761853 293.02891542 31.34777623 291.47213736 31.3483429 289.9153595 C31.34863092 285.67587296 31.34273346 281.43641446 31.33576894 277.19693446 C31.32953615 272.7713108 31.32893166 268.34568657 31.32774353 263.9200592 C31.32462999 255.53358522 31.3164163 247.1471242 31.30639404 238.76065594 C31.2952336 229.21547151 31.28972263 219.67028648 31.28469861 210.12509716 C31.2742337 190.48443233 31.25643343 170.84377993 31.234375 151.203125 C39.154375 151.203125 47.074375 151.203125 55.234375 151.203125 C55.22277344 155.16183594 55.21117188 159.12054688 55.19921875 163.19921875 C55.19142967 167.01505452 55.18535206 170.83088942 55.17944336 174.64672852 C55.17440117 177.30753981 55.16756764 179.96834832 55.15893555 182.62915039 C55.14686491 186.44418016 55.14114571 190.25917344 55.13671875 194.07421875 C55.13155746 195.27211533 55.12639618 196.4700119 55.12107849 197.70420837 C55.12096519 199.35580711 55.12096519 199.35580711 55.12084961 201.04077148 C55.118629 202.01561996 55.11640839 202.99046844 55.11412048 203.99485779 C54.98655915 206.17784616 54.98655915 206.17784616 56.234375 207.203125 C58.64975338 207.62029779 58.64975338 207.62029779 61.234375 207.203125 C63.89995497 204.38871221 64.60973436 202.4448121 64.60668945 198.60913086 C64.61291824 197.70396225 64.61914703 196.79879364 64.62556458 195.86619568 C64.61635483 194.89328079 64.60714508 193.92036591 64.59765625 192.91796875 C64.59815475 191.90650284 64.59865326 190.89503693 64.59916687 189.85292053 C64.59682663 187.71027669 64.58710105 185.56763008 64.57055664 183.42504883 C64.5471372 180.17698968 64.54997503 176.92976181 64.55664062 173.68164062 C64.5510574 171.59374518 64.54394349 169.50585317 64.53515625 167.41796875 C64.53606766 166.45922348 64.53697906 165.50047821 64.53791809 164.51268005 C64.43818784 154.81134473 63.18203981 145.74678484 58.671875 137.078125 C58.31673828 136.39363281 57.96160156 135.70914063 57.59570312 135.00390625 C51.03894588 122.90089025 40.43890357 115.85275841 27.45800781 111.62451172 C22.25072974 110.63771309 16.83616554 110.89569095 11.54760742 110.85302734 C10.06307145 110.83660228 8.57861003 110.80949358 7.09448242 110.77099609 C-10.61565581 110.31531517 -25.27411779 115.81519031 -36.9453125 129.68359375 Z " fill="#FFFFFF" transform="translate(69.765625,176.796875)"/>
<path d="M0 0 C1.44311806 -0.02893593 1.44311806 -0.02893593 2.91539001 -0.05845642 C7.34003737 -0.11654559 11.76452483 -0.16554098 16.18945312 -0.19628906 C18.51219626 -0.21778846 20.83486017 -0.2517941 23.15722656 -0.29882812 C49.71500387 -0.83138614 49.71500387 -0.83138614 59.48193359 8.28198242 C67.04476669 16.19893146 68.41439831 24.01948319 68.42797852 34.53295898 C68.43130692 35.4344014 68.43463531 36.33584381 68.43806458 37.26460266 C68.44311794 39.17004895 68.44547339 41.07550405 68.4453125 42.98095703 C68.44748915 45.86888585 68.46563465 48.75642629 68.48461914 51.64428711 C68.48755551 53.50300977 68.48953868 55.36173424 68.49047852 57.22045898 C68.49766403 58.07185959 68.50484955 58.92326019 68.51225281 59.80046082 C68.48073177 68.24237165 67.31617416 76.02747651 63.26000977 83.52124023 C61.3827019 87.03649922 59.67281824 90.47974094 58.26000977 94.20874023 C58.91485352 94.51424805 59.56969727 94.81975586 60.24438477 95.13452148 C73.79769018 101.93031728 84.98597123 112.99446404 91.94750977 126.45874023 C92.33616211 127.20671875 92.72481445 127.95469727 93.12524414 128.7253418 C101.04686032 144.37289539 100.44677121 160.92098934 100.4453125 178.06665039 C100.44751606 180.96702396 100.46578597 183.86702646 100.48461914 186.76733398 C100.48755117 188.63842646 100.48953724 190.5095207 100.49047852 192.38061523 C100.49766403 193.23395447 100.50484955 194.0872937 100.51225281 194.9664917 C100.47310515 205.37810293 98.47760725 213.67251084 91.21313477 221.38061523 C85.16332335 227.09664395 79.94692598 230.39531253 71.51000977 230.27124023 C70.71079102 230.2622168 69.91157227 230.25319336 69.08813477 230.24389648 C68.18321289 230.22649414 68.18321289 230.22649414 67.26000977 230.20874023 C67.27000252 231.70092323 67.27000252 231.70092323 67.28019714 233.22325134 C67.34116115 242.62402874 67.3860556 252.02476573 67.41544628 261.42569637 C67.43106457 266.25816562 67.45223241 271.09047456 67.48632812 275.92285156 C67.51905886 280.59128445 67.53689161 285.25956367 67.54464149 289.92810249 C67.55016047 291.7041929 67.56093743 293.48027544 67.57719994 295.25629997 C67.77063098 317.26750489 67.77063098 317.26750489 59.88500977 325.58374023 C59.13477539 326.39584961 58.38454102 327.20795898 57.61157227 328.04467773 C50.89421491 334.22643185 44.79133811 334.58374023 35.94750977 334.58374023 C31.19057358 334.09998401 27.75862751 332.49298909 23.66235352 330.10717773 C21.2491715 328.93236721 21.2491715 328.93236721 18.66625977 329.95874023 C17.87219727 330.37124023 17.07813477 330.78374023 16.26000977 331.20874023 C8.1182045 335.05759363 -0.41468555 335.89921486 -9.09936523 333.14233398 C-17.38497723 329.36022005 -21.63790683 324.92292287 -25.2956543 316.7199707 C-27.8152105 309.00108712 -27.10646005 300.63811873 -27.03295898 292.61108398 C-27.02735585 290.80791071 -27.02308915 289.00473284 -27.02009583 287.20155334 C-27.00870346 282.48165019 -26.97928525 277.76202896 -26.94598389 273.04223633 C-26.91516138 268.21561495 -26.90156458 263.38894752 -26.88647461 258.56225586 C-26.85440961 249.11096089 -26.80328196 239.65987411 -26.73999023 230.20874023 C-28.00456055 230.22171143 -29.26913086 230.23468262 -30.57202148 230.24804688 C-38.66516012 230.33106136 -45.20643558 226.6027799 -50.98608398 221.12670898 C-58.76851273 212.61630249 -60.05250587 203.59352917 -60.00561523 192.41967773 C-60.00752869 191.39879059 -60.00944214 190.37790344 -60.01141357 189.32608032 C-60.01276913 187.17286939 -60.00911689 185.01965011 -60.00073242 182.86645508 C-59.9900908 179.61447186 -60.00061502 176.36304945 -60.01342773 173.11108398 C-60.0312069 149.18812205 -57.0209096 127.57395782 -39.90795898 109.30249023 C-24.27916934 94.20874023 -24.27916934 94.20874023 -16.73999023 94.20874023 C-17.05452148 93.65186523 -17.36905273 93.09499023 -17.69311523 92.52124023 C-19.05591289 90.09119141 -20.39864052 87.65068459 -21.73999023 85.20874023 C-22.12026367 84.5397168 -22.50053711 83.87069336 -22.89233398 83.18139648 C-27.24351634 75.15223357 -28.05085939 66.62298868 -28.04077148 57.61499023 C-28.04505661 56.7428186 -28.04934174 55.87064697 -28.05375671 54.9720459 C-28.05945308 53.14356345 -28.06003533 51.31505836 -28.05566406 49.48657227 C-28.05249759 46.71517814 -28.07604475 43.94484726 -28.10131836 41.17358398 C-28.14253391 29.83145897 -28.14793012 19.34291888 -20.68920898 10.09936523 C-14.97856642 4.56038527 -8.05051412 0.15119079 0 0 Z M-2.28662109 25.86694336 C-4.2673112 28.59905014 -4.2673112 28.59905014 -3.73999023 34.20874023 C12.10000977 34.20874023 27.94000977 34.20874023 44.26000977 34.20874023 C44.89894697 28.47062836 44.89894697 28.47062836 42.31494141 25.86694336 C38.22110031 23.64482487 34.96983837 23.63188621 30.38110352 23.67749023 C29.5320192 23.67366333 28.68293488 23.66983643 27.80812073 23.66589355 C26.01871551 23.66317911 24.2292703 23.67050757 22.43994141 23.68725586 C19.7026329 23.7087001 16.96794085 23.68742613 14.23071289 23.66186523 C12.48917065 23.66450808 10.74763003 23.66963215 9.00610352 23.67749023 C8.18935654 23.66939331 7.37260956 23.66129639 6.53111267 23.6529541 C3.01916215 23.71088547 0.68794954 23.93009323 -2.28662109 25.86694336 Z M-3.73999023 58.20874023 C-3.73999023 66.29571569 -2.12826691 72.13982442 1.94750977 79.08374023 C7.1071196 83.82500332 12.93675502 86.94031562 20.00610352 87.33374023 C28.08409084 86.88574094 33.91077533 83.10257998 39.26000977 77.20874023 C43.99126205 70.65882739 44.26000977 66.34358959 44.26000977 58.20874023 C28.42000977 58.20874023 12.58000977 58.20874023 -3.73999023 58.20874023 Z M-23.02905273 126.56030273 C-32.85221952 138.14943209 -36.04250815 150.56736782 -36.07592773 165.44702148 C-36.08258453 166.49021042 -36.08924133 167.53339935 -36.09609985 168.60820007 C-36.10616597 170.79737599 -36.11091876 172.98658222 -36.1105957 175.17578125 C-36.11500052 178.52906918 -36.15147084 181.88107247 -36.18920898 185.23413086 C-36.19507203 187.36758992 -36.19904485 189.5010552 -36.20092773 191.63452148 C-36.21529877 192.63558426 -36.2296698 193.63664703 -36.24447632 194.66804504 C-36.27514782 200.11144316 -36.27514782 200.11144316 -33.88305664 204.85400391 C-31.3021607 206.48551354 -29.73969221 206.54204045 -26.73999023 206.20874023 C-25.97338872 202.80242595 -25.61177679 199.65481283 -25.60717773 196.16577148 C-25.60524414 195.18600342 -25.60331055 194.20623535 -25.60131836 193.19677734 C-25.60583008 192.1488501 -25.6103418 191.10092285 -25.61499023 190.02124023 C-25.61692383 188.93657471 -25.61885742 187.85190918 -25.62084961 186.734375 C-25.68371273 174.5450416 -26.2076604 162.38578531 -26.73999023 150.20874023 C-18.81999023 150.20874023 -10.89999023 150.20874023 -2.73999023 150.20874023 C-2.74665207 152.16898636 -2.7533139 154.12923248 -2.76017761 156.14888 C-2.82089002 174.5872602 -2.86609539 193.02562024 -2.89542675 211.46407795 C-2.91090793 220.94435447 -2.93202129 230.42455646 -2.96630859 239.90478516 C-2.99617272 248.16595753 -3.01555613 256.42707594 -3.02225572 264.68830079 C-3.02617306 269.06419851 -3.03540518 273.43994185 -3.0571804 277.81579018 C-3.07749846 281.93204799 -3.08383358 286.04808737 -3.07931328 290.16439056 C-3.08014059 291.67733381 -3.08613416 293.19028415 -3.09760666 294.70318413 C-3.11247814 296.76494336 -3.10896422 298.82587208 -3.10075378 300.88764954 C-3.10490185 302.62015945 -3.10490185 302.62015945 -3.10913372 304.38766956 C-2.96158108 307.20395927 -2.96158108 307.20395927 -1.40884876 309.1116209 C0.35428345 310.50293694 0.35428345 310.50293694 3.32250977 310.08374023 C6.55256392 309.46223611 6.55256392 309.46223611 8.26000977 306.20874023 C8.55643934 302.91213703 8.55643934 302.91213703 8.49951172 299.07861328 C8.50152588 298.35629517 8.50354004 297.63397705 8.50561523 296.88977051 C8.50915986 295.32160004 8.50839471 293.75341528 8.50383949 292.18524742 C8.49824637 289.70062677 8.50740522 287.216473 8.52104187 284.73188782 C8.55816696 277.66791753 8.57672084 270.60410416 8.56542969 263.54003906 C8.55956866 259.21804271 8.57788887 254.89670144 8.61131859 250.57483864 C8.61925981 248.93028405 8.61801288 247.28565783 8.60729408 245.641119 C8.59291772 243.33570945 8.60928592 241.03234815 8.63232422 238.72705078 C8.63295364 237.41705612 8.63358307 236.10706146 8.63423157 234.75737 C9.45333136 230.11246242 10.94427202 228.50362685 14.26000977 225.20874023 C18.35143265 223.61486419 22.44255506 224.06011211 26.69750977 224.83374023 C29.26000977 226.20874023 29.26000977 226.20874023 30.3974762 228.31941223 C31.44951658 231.84355302 31.58759297 235.16793266 31.62304688 238.81298828 C31.63802719 239.56153076 31.65300751 240.31007324 31.66844177 241.08129883 C31.69978348 242.69957369 31.72687601 244.31793529 31.75016594 245.93634605 C31.78772461 248.49574687 31.8379714 251.05461526 31.89173889 253.61372375 C32.04220925 260.88703191 32.16916354 268.16070013 32.2890625 275.43457031 C32.36335431 279.8885686 32.4518482 284.34210623 32.54889107 288.79566383 C32.58282907 290.49367806 32.61106419 292.19181599 32.63355827 293.89002037 C32.66499527 296.25803951 32.71427908 298.62506275 32.76757812 300.99267578 C32.77473846 302.05011742 32.77473846 302.05011742 32.78204346 303.12892151 C32.80798908 305.28272665 32.80798908 305.28272665 33.26000977 308.20874023 C36.01896611 310.50511803 36.01896611 310.50511803 38.82250977 309.95874023 C41.41001544 309.37065971 41.41001544 309.37065971 43.26000977 307.20874023 C43.55985605 304.38086458 43.55985605 304.38086458 43.5005188 301.00790405 C43.50308207 300.0436642 43.50308207 300.0436642 43.50569713 299.05994475 C43.50900305 296.89637804 43.49797055 294.73311843 43.48706055 292.56958008 C43.48649667 291.02250679 43.48681253 289.47543296 43.48794556 287.92835999 C43.48852099 283.71988838 43.47673598 279.51153005 43.46279764 275.30308485 C43.45032192 270.90816791 43.44912228 266.51324857 43.44674683 262.11831665 C43.44052275 253.79206421 43.42409941 245.46586409 43.40404785 237.13963473 C43.38171767 227.66214602 43.37070268 218.18465486 43.36065698 208.70714641 C43.33973396 189.20764716 43.30413864 169.70819981 43.26000977 150.20874023 C50.85000977 150.20874023 58.44000977 150.20874023 66.26000977 150.20874023 C66.26000977 168.35874023 66.26000977 186.50874023 66.26000977 205.20874023 C68.35943623 206.52961654 68.35943623 206.52961654 71.26000977 205.45874023 C74.51424736 204.42830906 74.51424736 204.42830906 76.26000977 201.20874023 C76.56802361 199.23072202 76.56802361 199.23072202 76.53466797 197.05126953 C76.54419998 196.21577072 76.55373199 195.38027191 76.56355286 194.51945496 C76.56264145 193.61641129 76.56173004 192.71336761 76.56079102 191.78295898 C76.5672187 190.37419243 76.5672187 190.37419243 76.57377625 188.93696594 C76.57952539 186.94219772 76.58001552 184.94740852 76.57568359 182.95263672 C76.57256126 179.94582589 76.59584281 176.94003599 76.62133789 173.93334961 C76.68354421 155.48644432 74.8743855 138.27935529 61.52172852 124.23999023 C49.06316847 113.0509553 33.76961631 108.65969946 17.26000977 109.02514648 C1.71101124 109.9767128 -12.02321256 115.2539618 -23.02905273 126.56030273 Z " fill="#FFFFFF" transform="translate(235.739990234375,177.791259765625)"/>
<path d="M0 0 C5.40154578 4.33545122 10.25699185 9.44245739 11.875 16.375 C12.56055589 22.83761831 12.58107989 28.13891154 9.84399414 34.09228516 C9.47722061 34.89622711 9.11044708 35.70016907 8.7325592 36.5284729 C8.3080674 37.44250381 8.3080674 37.44250381 7.875 38.375 C8.71072178 38.37085193 8.71072178 38.37085193 9.56332684 38.36662006 C23.12599986 38.3003392 36.68864448 38.25090078 50.25144482 38.21956348 C56.81035072 38.20389998 63.36913983 38.18264888 69.92797852 38.14868164 C76.25625572 38.11611312 82.5844205 38.09815214 88.91277504 38.09036827 C91.32853274 38.0848203 93.74428422 38.07398664 96.15999413 38.05780983 C99.54063649 38.03606936 102.92081278 38.03303172 106.30151367 38.03442383 C107.30276779 38.023638 108.30402191 38.01285217 109.33561707 38.0017395 C114.31972768 38.02398418 117.86462538 38.05684634 121.875 41.375 C124.82750655 44.93836997 125.35465422 47.95885262 125.16015625 52.44921875 C124.57274743 56.41623997 122.87097601 58.63241922 119.71601868 60.98469543 C116.16004681 62.72487545 113.56071474 62.77322353 109.60620117 62.80737305 C108.53709 62.82266052 108.53709 62.82266052 107.44638062 62.83825684 C105.10349598 62.86831787 102.76102067 62.87764188 100.41796875 62.88671875 C98.78842314 62.90357061 97.15889049 62.92172154 95.52937317 62.94111633 C91.25017344 62.98856763 86.97102626 63.01840836 82.69165039 63.04455566 C78.32102075 63.07438585 73.95057207 63.12090772 69.58007812 63.16601562 C61.01180776 63.25199331 52.44352084 63.31936305 43.875 63.375 C44.52049805 63.71233154 45.16599609 64.04966309 45.83105469 64.3972168 C48.76862277 65.94073401 51.69675247 67.50137804 54.625 69.0625 C55.64078125 69.59294922 56.6565625 70.12339844 57.703125 70.66992188 C58.6828125 71.19521484 59.6625 71.72050781 60.671875 72.26171875 C61.57260742 72.73826904 62.47333984 73.21481934 63.40136719 73.70581055 C67.55343292 76.50759434 69.56638684 79.2564251 70.89453125 84.0703125 C71.31291455 89.44019307 68.97241886 93.58711353 66.5625 98.25 C66.1075415 99.16112549 65.65258301 100.07225098 65.18383789 101.01098633 C63.77171402 103.81214029 62.32739381 106.5945476 60.875 109.375 C60.2243457 110.644646 60.2243457 110.644646 59.56054688 111.93994141 C52.42994473 125.79061257 44.13344273 139.71572672 28.81912231 145.53649902 C20.04775797 148.16263011 12.05886349 148.96355011 2.9296875 148.90625 C1.54354584 148.90895643 0.15740605 148.91284829 -1.22872925 148.91784668 C-4.10791426 148.92368404 -6.98659689 148.91536619 -9.86572266 148.89648438 C-13.52125427 148.87365386 -17.17561316 148.88687925 -20.83110237 148.91077423 C-23.68480989 148.92535371 -26.5382475 148.92057212 -29.39196396 148.91026306 C-31.3835605 148.90637069 -33.37516838 148.91832502 -35.36672974 148.93078613 C-49.75797592 148.78388759 -60.83828712 144.44581208 -71.3125 134.625 C-78.55510731 126.95451532 -83.09995792 117.00109871 -87.98632812 107.72485352 C-88.66521853 106.44408557 -89.35183595 105.16738529 -90.04589844 103.89477539 C-97.28389385 90.61322371 -97.28389385 90.61322371 -96.125 82.375 C-92.96092602 73.46249711 -84.7917988 70.67680883 -76.8359375 66.71875 C-76.18906982 66.39616211 -75.54220215 66.07357422 -74.87573242 65.74121094 C-73.2924976 64.95178637 -71.70879609 64.1632979 -70.125 63.375 C-71.49230003 63.37619339 -71.49230003 63.37619339 -72.88722229 63.37741089 C-81.49427268 63.3796223 -90.1006596 63.35313298 -98.70752048 63.2947216 C-103.13206048 63.26569778 -107.55607186 63.24761974 -111.98071289 63.25488281 C-116.25402526 63.26148932 -120.52629431 63.23891725 -124.79939079 63.19644547 C-126.42635317 63.18533754 -128.05342165 63.18459328 -129.68039131 63.19457626 C-144.02824357 63.2713017 -144.02824357 63.2713017 -148.61645508 59.47338867 C-151.96965808 55.33173424 -152.64658842 52.60054322 -152.125 47.375 C-150.7047027 44.10831621 -148.86281644 41.6565137 -146.125 39.375 C-143.28790033 38.42930011 -141.56367514 38.25136516 -138.62617493 38.25474548 C-137.70490814 38.25337082 -136.78364136 38.25199615 -135.8344574 38.25057983 C-134.82601273 38.25417511 -133.81756805 38.25777039 -132.77856445 38.26147461 C-131.71498718 38.26132858 -130.65140991 38.26118256 -129.55560303 38.2610321 C-126.03314183 38.26172988 -122.51073323 38.26951599 -118.98828125 38.27734375 C-116.5487623 38.27920841 -114.10924297 38.28063209 -111.66972351 38.28163147 C-105.24338755 38.28545287 -98.81707412 38.29527996 -92.39074707 38.30633545 C-85.83537094 38.31655767 -79.27999117 38.32113083 -72.72460938 38.32617188 C-59.85806329 38.33690254 -46.99153284 38.35378272 -34.125 38.375 C-34.40799454 37.69164581 -34.69098907 37.00829163 -34.9825592 36.30422974 C-35.34933273 35.40606537 -35.71610626 34.507901 -36.09399414 33.58251953 C-36.64223595 32.24811325 -36.64223595 32.24811325 -37.20155334 30.88674927 C-39.56364461 24.4619266 -39.07007486 16.5197682 -36.296875 10.25390625 C-33.12314508 5.16535928 -28.14387681 -0.20824621 -22.36328125 -2.21484375 C-14.77043723 -3.6062026 -6.71463429 -4.29240883 0 0 Z M-21.9375 65.3125 C-23.46649596 66.15797387 -24.99646663 67.0016871 -26.52734375 67.84375 C-27.29804199 68.27171875 -28.06874023 68.6996875 -28.86279297 69.140625 C-32.19603716 70.95941225 -35.59198148 72.63932375 -39 74.3125 C-47.55182038 78.54138653 -55.98088164 82.99885518 -64.40771484 87.47045898 C-65.63954189 88.11929595 -66.879725 88.7523625 -68.125 89.375 C-67.00195103 94.74897999 -64.25675817 99.43979387 -61.8125 104.3125 C-61.32587891 105.30185547 -60.83925781 106.29121094 -60.33789062 107.31054688 C-56.32215459 115.34742369 -53.66967148 120.20695869 -45.0945282 123.51911926 C-39.72057113 125.06800718 -34.36986741 124.9646532 -28.8125 124.94140625 C-26.93824341 124.95070412 -26.93824341 124.95070412 -25.02612305 124.96018982 C-21.72869086 124.96905845 -18.43201508 124.95806472 -15.13464355 124.94110107 C-13.12620198 124.93750215 -11.1186832 124.95144312 -9.11035156 124.97192383 C-5.2189685 125.00894595 -1.32902626 125.01141818 2.5625 125.00390625 C3.7481958 125.01716446 4.9338916 125.03042267 6.15551758 125.04408264 C14.39961176 124.95249713 21.74612571 123.5954997 27.72189331 117.48712158 C31.60841054 112.70925154 34.19460563 107.12960917 36.75 101.5625 C37.1521875 100.71751953 37.554375 99.87253906 37.96875 99.00195312 C40.2215432 94.38751255 40.2215432 94.38751255 40.875 89.375 C39.9998877 88.9123877 39.12477539 88.44977539 38.22314453 87.97314453 C34.88921475 86.2100144 31.55636477 84.4448528 28.22402954 82.67871094 C26.74514502 81.89491858 25.26612145 81.11138855 23.78695679 80.328125 C14.4827848 75.39896638 5.19631618 70.45027298 -3.90771484 65.15673828 C-11.42308709 60.86579581 -14.48719395 61.02717359 -21.9375 65.3125 Z " fill="#FFFFFF" transform="translate(269.125,2.625)"/>
</svg>
