<?xml version="1.0" encoding="UTF-8"?>
<svg xmlns="http://www.w3.org/2000/svg" xmlns:xlink="http://www.w3.org/1999/xlink" width="40px" height="40px" viewBox="0 0 40 40" version="1.1">
<g id="surface1">
<path style=" stroke:none;fill-rule:nonzero;fill:rgb(100%,100%,100%);fill-opacity:1;" d="M 19.867188 -0.0507812 C 20.027344 -0.0507812 20.1875 -0.0507812 20.347656 -0.0546875 C 21.160156 -0.0625 21.699219 0.140625 22.332031 0.644531 C 22.40625 0.726562 22.40625 0.726562 22.484375 0.8125 C 22.542969 0.871094 22.597656 0.929688 22.65625 0.992188 C 22.800781 1.160156 22.929688 1.332031 23.054688 1.515625 C 23.28125 1.824219 23.453125 1.933594 23.828125 2.03125 C 24.230469 2 24.535156 1.898438 24.898438 1.71875 C 25.539062 1.40625 26.167969 1.246094 26.871094 1.484375 C 27.855469 1.957031 29.0625 2.636719 29.53125 3.671875 C 29.613281 4.015625 29.636719 4.367188 29.667969 4.71875 C 29.71875 5.199219 29.804688 5.445312 30.15625 5.78125 C 30.363281 5.882812 30.5625 5.886719 30.789062 5.90625 C 31.714844 5.988281 32.351562 6.144531 32.96875 6.875 C 33.164062 7.164062 33.332031 7.46875 33.5 7.773438 C 33.546875 7.851562 33.589844 7.929688 33.636719 8.011719 C 34.042969 8.742188 34.285156 9.378906 34.046875 10.214844 C 33.921875 10.601562 33.757812 10.96875 33.585938 11.339844 C 33.5 11.609375 33.511719 11.761719 33.59375 12.03125 C 33.789062 12.273438 34.027344 12.433594 34.285156 12.601562 C 34.882812 13.015625 35.234375 13.421875 35.390625 14.140625 C 35.421875 14.53125 35.421875 14.921875 35.417969 15.3125 C 35.421875 15.414062 35.421875 15.519531 35.421875 15.625 C 35.421875 16.390625 35.34375 17.046875 34.84375 17.65625 C 34.554688 17.90625 34.257812 18.109375 33.914062 18.277344 C 33.648438 18.417969 33.648438 18.417969 33.558594 18.707031 C 33.484375 19.175781 33.511719 19.414062 33.746094 19.839844 C 34.144531 20.570312 34.132812 21.292969 33.925781 22.085938 C 33.738281 22.578125 33.429688 23.007812 33.125 23.4375 C 33.472656 23.855469 33.84375 24.242188 34.234375 24.621094 C 34.363281 24.746094 34.492188 24.875 34.625 25 C 34.691406 25.066406 34.757812 25.132812 34.828125 25.203125 C 35.230469 25.59375 35.625 25.984375 36.023438 26.378906 C 36.445312 26.792969 36.867188 27.207031 37.289062 27.617188 C 37.660156 27.980469 38.03125 28.347656 38.402344 28.714844 C 38.542969 28.855469 38.683594 28.992188 38.828125 29.128906 C 39.027344 29.324219 39.222656 29.519531 39.417969 29.714844 C 39.480469 29.769531 39.539062 29.824219 39.597656 29.882812 C 39.90625 30.199219 40.035156 30.398438 40.042969 30.847656 C 40.027344 31.082031 39.996094 31.257812 39.921875 31.484375 C 39.582031 31.761719 39.351562 31.835938 38.917969 31.835938 C 38.867188 31.835938 38.816406 31.835938 38.761719 31.835938 C 38.589844 31.835938 38.417969 31.835938 38.246094 31.832031 C 38.121094 31.832031 37.996094 31.832031 37.875 31.832031 C 37.539062 31.832031 37.203125 31.832031 36.867188 31.828125 C 36.515625 31.828125 36.164062 31.828125 35.8125 31.824219 C 35.148438 31.824219 34.480469 31.824219 33.816406 31.820312 C 33.058594 31.816406 32.304688 31.8125 31.546875 31.8125 C 29.988281 31.808594 28.433594 31.804688 26.875 31.796875 C 26.875 31.890625 26.875 31.980469 26.875 32.074219 C 26.882812 32.941406 26.886719 33.808594 26.886719 34.675781 C 26.886719 35.121094 26.890625 35.566406 26.894531 36.011719 C 26.894531 36.441406 26.898438 36.871094 26.898438 37.300781 C 26.898438 37.464844 26.898438 37.628906 26.898438 37.792969 C 26.902344 38.023438 26.902344 38.253906 26.902344 38.484375 C 26.902344 38.585938 26.902344 38.585938 26.902344 38.6875 C 26.902344 39.082031 26.855469 39.347656 26.640625 39.6875 C 26.398438 39.910156 26.144531 39.992188 25.820312 40.039062 C 25.128906 39.941406 24.699219 39.417969 24.234375 38.941406 C 24.125 38.828125 24.011719 38.71875 23.902344 38.609375 C 23.75 38.453125 23.59375 38.296875 23.441406 38.140625 C 23.175781 37.867188 22.90625 37.597656 22.636719 37.328125 C 22.492188 37.183594 22.351562 37.039062 22.210938 36.894531 C 21.867188 36.546875 21.523438 36.214844 21.152344 35.898438 C 20.925781 35.703125 20.71875 35.492188 20.507812 35.277344 C 20.464844 35.234375 20.425781 35.195312 20.378906 35.148438 C 20.28125 35.046875 20.179688 34.945312 20.078125 34.84375 C 19.757812 34.96875 19.550781 35.203125 19.316406 35.445312 C 19.070312 35.699219 18.828125 35.941406 18.558594 36.167969 C 18.019531 36.632812 17.53125 37.152344 17.03125 37.65625 C 15.828125 38.875 15.828125 38.875 15.351562 39.273438 C 15.203125 39.402344 15.066406 39.539062 14.929688 39.679688 C 14.679688 39.9375 14.53125 40.015625 14.164062 40.035156 C 13.769531 40.03125 13.582031 39.921875 13.304688 39.648438 C 13.054688 39.359375 13.113281 39.03125 13.117188 38.667969 C 13.117188 38.59375 13.117188 38.523438 13.117188 38.445312 C 13.117188 38.203125 13.117188 37.960938 13.117188 37.71875 C 13.117188 37.550781 13.117188 37.382812 13.117188 37.214844 C 13.117188 36.773438 13.117188 36.332031 13.121094 35.886719 C 13.121094 35.4375 13.121094 34.984375 13.121094 34.535156 C 13.121094 33.648438 13.125 32.761719 13.125 31.875 C 13.027344 31.875 13.027344 31.875 12.929688 31.875 C 11.375 31.871094 9.816406 31.867188 8.261719 31.859375 C 7.507812 31.859375 6.753906 31.855469 6 31.855469 C 5.34375 31.851562 4.6875 31.851562 4.03125 31.847656 C 3.683594 31.84375 3.335938 31.84375 2.988281 31.84375 C 2.664062 31.84375 2.335938 31.84375 2.007812 31.839844 C 1.886719 31.839844 1.769531 31.839844 1.648438 31.839844 C 1.484375 31.839844 1.320312 31.839844 1.15625 31.835938 C 1.0625 31.835938 0.972656 31.835938 0.878906 31.835938 C 0.570312 31.789062 0.398438 31.675781 0.15625 31.484375 C 0.0078125 31.265625 -0.0234375 31.085938 -0.0234375 30.824219 C -0.0273438 30.765625 -0.0273438 30.710938 -0.0273438 30.648438 C 0.0351562 30.253906 0.28125 30.015625 0.574219 29.765625 C 0.835938 29.539062 1.085938 29.308594 1.328125 29.0625 C 1.371094 29.019531 1.414062 28.976562 1.460938 28.933594 C 1.675781 28.722656 1.875 28.515625 2.066406 28.28125 C 2.21875 28.101562 2.355469 27.964844 2.53125 27.816406 C 2.984375 27.425781 3.402344 27 3.824219 26.574219 C 3.910156 26.488281 4 26.398438 4.089844 26.308594 C 4.320312 26.078125 4.550781 25.847656 4.78125 25.617188 C 5.015625 25.378906 5.253906 25.140625 5.488281 24.90625 C 5.953125 24.441406 6.414062 23.980469 6.875 23.515625 C 6.835938 23.457031 6.800781 23.398438 6.761719 23.335938 C 6.710938 23.261719 6.660156 23.183594 6.609375 23.101562 C 6.5625 23.027344 6.511719 22.949219 6.460938 22.871094 C 6.316406 22.640625 6.203125 22.410156 6.101562 22.160156 C 6.058594 22.046875 6.058594 22.046875 6.011719 21.933594 C 5.785156 21.273438 5.828125 20.710938 6.09375 20.078125 C 6.164062 19.949219 6.234375 19.816406 6.308594 19.6875 C 6.511719 19.300781 6.515625 19.011719 6.40625 18.59375 C 6.308594 18.300781 6.222656 18.277344 5.957031 18.128906 C 5.3125 17.753906 4.871094 17.351562 4.597656 16.640625 C 4.484375 16.210938 4.503906 15.765625 4.507812 15.324219 C 4.503906 15.234375 4.503906 15.144531 4.503906 15.054688 C 4.503906 14.222656 4.671875 13.523438 5.234375 12.890625 C 6.054688 12.1875 6.054688 12.1875 6.328125 12.1875 C 6.476562 11.523438 6.335938 11.070312 6.050781 10.472656 C 5.894531 10.140625 5.847656 9.878906 5.839844 9.511719 C 5.835938 9.441406 5.835938 9.371094 5.832031 9.300781 C 5.898438 8.707031 6.210938 8.199219 6.503906 7.691406 C 6.539062 7.628906 6.574219 7.5625 6.609375 7.5 C 6.980469 6.859375 7.410156 6.339844 8.125 6.09375 C 8.492188 6.007812 8.863281 5.957031 9.234375 5.90625 C 9.671875 5.839844 9.671875 5.839844 10.046875 5.628906 C 10.296875 5.257812 10.28125 4.804688 10.3125 4.371094 C 10.371094 3.757812 10.589844 3.269531 11.015625 2.8125 C 11.191406 2.679688 11.191406 2.679688 11.390625 2.558594 C 11.503906 2.488281 11.503906 2.488281 11.617188 2.417969 C 11.703125 2.367188 11.789062 2.316406 11.875 2.265625 C 11.972656 2.203125 12.074219 2.140625 12.171875 2.078125 C 12.273438 2.015625 12.378906 1.953125 12.480469 1.890625 C 12.527344 1.859375 12.578125 1.828125 12.625 1.796875 C 13.160156 1.472656 13.695312 1.316406 14.320312 1.441406 C 14.707031 1.546875 15.007812 1.691406 15.347656 1.90625 C 15.65625 2.078125 15.855469 2.148438 16.210938 2.085938 C 16.761719 1.890625 17.058594 1.425781 17.402344 0.980469 C 18.070312 0.152344 18.839844 -0.0546875 19.867188 -0.0507812 Z M 18.886719 2.289062 C 18.8125 2.410156 18.742188 2.53125 18.671875 2.65625 C 18.558594 2.808594 18.441406 2.964844 18.324219 3.117188 C 18.117188 3.367188 18.117188 3.367188 18.046875 3.671875 C 17.960938 3.691406 17.875 3.710938 17.785156 3.730469 C 17.667969 3.757812 17.550781 3.785156 17.429688 3.8125 C 17.371094 3.828125 17.308594 3.839844 17.246094 3.855469 C 16.863281 3.945312 16.484375 4.050781 16.109375 4.179688 C 15.492188 4.324219 15.097656 4.046875 14.574219 3.757812 C 14.234375 3.574219 14.234375 3.574219 13.863281 3.515625 C 13.589844 3.628906 13.328125 3.757812 13.066406 3.902344 C 13.011719 3.929688 12.960938 3.957031 12.90625 3.988281 C 12.613281 4.128906 12.613281 4.128906 12.421875 4.375 C 12.410156 4.503906 12.402344 4.632812 12.398438 4.761719 C 12.394531 4.839844 12.390625 4.917969 12.386719 4.996094 C 12.378906 5.160156 12.371094 5.324219 12.367188 5.484375 C 12.328125 6.09375 12.160156 6.386719 11.71875 6.796875 C 11.640625 6.875 11.5625 6.957031 11.484375 7.039062 C 11.414062 7.109375 11.34375 7.179688 11.269531 7.25 C 11.199219 7.324219 11.125 7.394531 11.050781 7.46875 C 10.988281 7.53125 10.925781 7.59375 10.859375 7.65625 C 10.824219 7.699219 10.789062 7.738281 10.753906 7.78125 C 10.582031 7.925781 10.476562 7.921875 10.253906 7.925781 C 10.183594 7.925781 10.109375 7.929688 10.035156 7.929688 C 9.960938 7.933594 9.886719 7.933594 9.808594 7.933594 C 9.660156 7.9375 9.511719 7.941406 9.367188 7.945312 C 9.300781 7.945312 9.234375 7.945312 9.167969 7.949219 C 8.898438 7.980469 8.734375 8.046875 8.5625 8.257812 C 8.460938 8.429688 8.355469 8.601562 8.257812 8.773438 C 8.203125 8.863281 8.203125 8.863281 8.144531 8.953125 C 7.949219 9.285156 7.949219 9.285156 7.878906 9.652344 C 7.960938 9.828125 8.050781 9.964844 8.167969 10.121094 C 8.769531 10.953125 8.769531 10.953125 8.734375 11.503906 C 8.628906 12.023438 8.457031 12.523438 8.265625 13.019531 C 8.191406 13.207031 8.191406 13.207031 8.203125 13.4375 C 8.148438 13.457031 8.09375 13.472656 8.039062 13.492188 C 7.769531 13.613281 7.566406 13.765625 7.332031 13.945312 C 7.105469 14.121094 6.878906 14.292969 6.640625 14.453125 C 6.605469 14.675781 6.582031 14.878906 6.570312 15.101562 C 6.566406 15.160156 6.5625 15.222656 6.558594 15.28125 C 6.542969 15.546875 6.550781 15.742188 6.636719 15.996094 C 6.828125 16.203125 7.023438 16.3125 7.265625 16.449219 C 7.863281 16.792969 8.1875 17.109375 8.382812 17.78125 C 8.46875 18.15625 8.539062 18.527344 8.59375 18.90625 C 8.613281 19 8.613281 19 8.636719 19.09375 C 8.738281 19.621094 8.535156 19.894531 8.25 20.328125 C 7.976562 20.765625 7.976562 20.765625 7.902344 21.261719 C 8.007812 21.613281 8.214844 21.894531 8.4375 22.1875 C 8.480469 22.273438 8.519531 22.363281 8.5625 22.453125 C 8.722656 22.671875 8.722656 22.671875 8.925781 22.683594 C 9.152344 22.679688 9.375 22.667969 9.597656 22.65625 C 10.191406 22.648438 10.597656 22.683594 11.035156 23.101562 C 11.203125 23.292969 11.363281 23.484375 11.515625 23.683594 C 11.65625 23.84375 11.808594 23.957031 11.980469 24.082031 C 12.171875 24.246094 12.253906 24.328125 12.3125 24.578125 C 12.324219 24.808594 12.324219 25.035156 12.320312 25.269531 C 12.320312 25.816406 12.320312 25.816406 12.519531 26.3125 C 12.789062 26.550781 13.101562 26.671875 13.4375 26.796875 C 13.503906 26.839844 13.570312 26.886719 13.636719 26.933594 C 13.898438 27.066406 14.015625 27.039062 14.296875 26.953125 C 14.550781 26.816406 14.789062 26.652344 15.027344 26.488281 C 15.277344 26.328125 15.414062 26.25 15.714844 26.253906 C 15.816406 26.277344 15.914062 26.304688 16.015625 26.328125 C 16.089844 26.339844 16.160156 26.355469 16.238281 26.367188 C 17.9375 26.667969 17.9375 26.667969 18.328125 27.179688 C 18.507812 27.480469 18.628906 27.796875 18.75 28.125 C 18.875 28.339844 18.9375 28.421875 19.175781 28.496094 C 20.066406 28.597656 20.066406 28.597656 20.9375 28.4375 C 21.21875 28.164062 21.351562 27.820312 21.507812 27.46875 C 21.714844 27.042969 21.871094 26.832031 22.324219 26.671875 C 22.726562 26.566406 23.128906 26.492188 23.539062 26.4375 C 23.730469 26.410156 23.894531 26.359375 24.078125 26.296875 C 24.492188 26.230469 24.710938 26.371094 25.0625 26.582031 C 25.121094 26.613281 25.179688 26.648438 25.242188 26.683594 C 25.480469 26.816406 25.710938 26.957031 25.9375 27.109375 C 26.464844 27.074219 27 26.761719 27.386719 26.410156 C 27.65625 26.03125 27.628906 25.535156 27.625 25.085938 C 27.625 24.496094 27.625 24.496094 27.824219 24.230469 C 27.898438 24.175781 27.972656 24.121094 28.046875 24.0625 C 28.121094 23.992188 28.199219 23.925781 28.277344 23.851562 C 28.394531 23.746094 28.515625 23.636719 28.636719 23.53125 C 28.695312 23.476562 28.695312 23.476562 28.753906 23.421875 C 28.792969 23.386719 28.832031 23.351562 28.875 23.316406 C 29.003906 23.1875 29.003906 23.1875 29.148438 22.945312 C 29.542969 22.578125 30.054688 22.667969 30.566406 22.664062 C 31.015625 22.664062 31.015625 22.664062 31.386719 22.449219 C 31.484375 22.285156 31.5625 22.125 31.640625 21.953125 C 31.6875 21.882812 31.738281 21.8125 31.785156 21.738281 C 31.828125 21.675781 31.867188 21.617188 31.910156 21.554688 C 31.949219 21.492188 31.992188 21.429688 32.035156 21.367188 C 32.128906 21.171875 32.128906 21.171875 32.066406 20.949219 C 31.90625 20.597656 31.699219 20.28125 31.484375 19.960938 C 31.25 19.582031 31.25 19.582031 31.257812 19.34375 C 31.28125 19.277344 31.304688 19.210938 31.328125 19.140625 C 31.359375 19.035156 31.386719 18.929688 31.414062 18.824219 C 31.464844 18.644531 31.519531 18.464844 31.570312 18.285156 C 31.585938 18.226562 31.601562 18.164062 31.621094 18.105469 C 31.636719 18.042969 31.65625 17.984375 31.671875 17.921875 C 31.722656 17.734375 31.722656 17.734375 31.738281 17.527344 C 31.761719 17.316406 31.789062 17.148438 31.875 16.953125 C 32.105469 16.777344 32.359375 16.683594 32.625 16.578125 C 33.125 16.335938 33.125 16.335938 33.445312 15.90625 C 33.554688 15.417969 33.542969 14.917969 33.359375 14.453125 C 33.011719 13.984375 32.40625 13.839844 31.875 13.671875 C 31.867188 13.585938 31.867188 13.585938 31.855469 13.5 C 31.777344 12.878906 31.625 12.324219 31.402344 11.738281 C 31.273438 11.390625 31.210938 11.148438 31.328125 10.78125 C 31.457031 10.542969 31.59375 10.320312 31.742188 10.09375 C 31.878906 9.871094 31.953125 9.71875 31.953125 9.453125 C 31.855469 9.160156 31.722656 8.910156 31.5625 8.648438 C 31.535156 8.597656 31.503906 8.546875 31.476562 8.496094 C 31.34375 8.257812 31.34375 8.257812 31.171875 8.046875 C 31.042969 8.042969 30.914062 8.039062 30.785156 8.039062 C 29.378906 8.015625 29.378906 8.015625 29.007812 7.675781 C 28.855469 7.507812 28.734375 7.324219 28.609375 7.136719 C 28.402344 6.820312 28.160156 6.621094 27.867188 6.390625 C 27.539062 6.042969 27.625 5.417969 27.601562 4.96875 C 27.59375 4.875 27.585938 4.78125 27.578125 4.6875 C 27.578125 4.621094 27.574219 4.550781 27.574219 4.480469 C 27.449219 4.171875 27.179688 4.046875 26.898438 3.878906 C 26.84375 3.839844 26.789062 3.804688 26.730469 3.765625 C 26.484375 3.613281 26.3125 3.515625 26.015625 3.507812 C 25.753906 3.601562 25.527344 3.726562 25.285156 3.863281 C 24.527344 4.289062 24.527344 4.289062 24.148438 4.308594 C 23.953125 4.253906 23.953125 4.253906 23.757812 4.164062 C 23.546875 4.074219 23.367188 4.027344 23.144531 3.980469 C 22.5 3.839844 21.976562 3.722656 21.585938 3.160156 C 21.492188 3.007812 21.410156 2.855469 21.324219 2.699219 C 21.175781 2.421875 21.039062 2.21875 20.78125 2.03125 C 20.523438 1.96875 20.273438 1.964844 20.007812 1.96875 C 19.902344 1.96875 19.902344 1.96875 19.796875 1.96875 C 19.285156 1.992188 19.285156 1.992188 18.886719 2.289062 Z M 29.773438 25.160156 C 29.609375 25.449219 29.59375 25.648438 29.578125 25.980469 C 29.527344 26.746094 29.386719 27.277344 28.828125 27.8125 C 28.554688 28.019531 28.265625 28.203125 27.972656 28.382812 C 27.859375 28.457031 27.859375 28.457031 27.746094 28.53125 C 27.042969 28.972656 26.464844 29.152344 25.625 29.0625 C 25.289062 28.96875 24.980469 28.828125 24.675781 28.65625 C 24.304688 28.453125 24.097656 28.40625 23.671875 28.515625 C 23.554688 28.53125 23.554688 28.53125 23.433594 28.546875 C 23.050781 28.757812 22.925781 29.152344 22.734375 29.53125 C 22.378906 30.078125 21.867188 30.316406 21.25 30.46875 C 20.882812 30.496094 20.515625 30.496094 20.148438 30.496094 C 19.976562 30.496094 19.804688 30.5 19.628906 30.503906 C 18.769531 30.511719 18.0625 30.386719 17.410156 29.785156 C 17.171875 29.496094 17.023438 29.15625 16.871094 28.8125 C 16.730469 28.570312 16.730469 28.570312 16.453125 28.480469 C 15.957031 28.40625 15.714844 28.546875 15.289062 28.792969 C 14.671875 29.121094 14.121094 29.171875 13.4375 29.0625 C 13.09375 28.949219 12.804688 28.785156 12.5 28.59375 C 12.394531 28.53125 12.289062 28.46875 12.183594 28.40625 C 10.792969 27.582031 10.792969 27.582031 10.46875 26.796875 C 10.414062 26.5 10.398438 26.203125 10.378906 25.902344 C 10.339844 25.476562 10.273438 25.183594 9.949219 24.878906 C 9.566406 24.640625 9.132812 24.625 8.699219 24.703125 C 8.019531 24.941406 7.503906 25.664062 7.03125 26.175781 C 6.902344 26.3125 6.773438 26.445312 6.644531 26.582031 C 6.464844 26.769531 6.285156 26.960938 6.105469 27.152344 C 5.796875 27.484375 5.484375 27.789062 5.140625 28.082031 C 4.816406 28.359375 4.519531 28.667969 4.21875 28.96875 C 4.117188 29.070312 4.117188 29.070312 4.011719 29.171875 C 3.949219 29.238281 3.882812 29.300781 3.816406 29.367188 C 3.761719 29.425781 3.703125 29.484375 3.640625 29.542969 C 3.5 29.675781 3.5 29.675781 3.515625 29.84375 C 3.570312 29.84375 3.621094 29.84375 3.675781 29.84375 C 4.964844 29.84375 6.253906 29.839844 7.542969 29.839844 C 8.167969 29.839844 8.789062 29.839844 9.414062 29.835938 C 9.957031 29.835938 10.5 29.835938 11.042969 29.835938 C 11.332031 29.835938 11.621094 29.835938 11.90625 29.835938 C 12.230469 29.835938 12.550781 29.835938 12.871094 29.835938 C 13.015625 29.835938 13.015625 29.835938 13.160156 29.835938 C 14.496094 29.835938 14.496094 29.835938 14.84375 30.101562 C 15.105469 30.457031 15.085938 30.753906 15.085938 31.1875 C 15.085938 31.246094 15.085938 31.300781 15.085938 31.359375 C 15.085938 31.480469 15.085938 31.601562 15.085938 31.722656 C 15.082031 31.917969 15.082031 32.109375 15.082031 32.300781 C 15.082031 32.710938 15.078125 33.117188 15.078125 33.527344 C 15.078125 34 15.074219 34.472656 15.074219 34.945312 C 15.074219 35.136719 15.074219 35.324219 15.070312 35.515625 C 15.070312 35.632812 15.070312 35.746094 15.070312 35.863281 C 15.070312 35.964844 15.070312 36.066406 15.070312 36.171875 C 15.0625 36.398438 15.0625 36.398438 15.15625 36.5625 C 15.460938 36.4375 15.664062 36.230469 15.886719 36 C 15.925781 35.960938 15.96875 35.917969 16.007812 35.878906 C 16.132812 35.75 16.261719 35.621094 16.386719 35.492188 C 16.550781 35.324219 16.71875 35.15625 16.882812 34.988281 C 16.921875 34.949219 16.964844 34.90625 17.003906 34.867188 C 17.269531 34.601562 17.539062 34.355469 17.824219 34.113281 C 18.152344 33.820312 18.453125 33.492188 18.757812 33.171875 C 19.109375 32.8125 19.417969 32.527344 19.941406 32.484375 C 20.523438 32.582031 20.835938 32.847656 21.234375 33.261719 C 21.488281 33.523438 21.742188 33.777344 22.019531 34.015625 C 22.378906 34.316406 22.703125 34.65625 23.035156 34.988281 C 23.320312 35.277344 23.613281 35.550781 23.921875 35.8125 C 24.144531 36.007812 24.347656 36.222656 24.550781 36.4375 C 24.6875 36.582031 24.6875 36.582031 24.921875 36.640625 C 24.921875 36.5625 24.921875 36.484375 24.921875 36.40625 C 24.925781 35.675781 24.929688 34.945312 24.9375 34.214844 C 24.9375 33.839844 24.941406 33.464844 24.941406 33.089844 C 24.945312 32.726562 24.945312 32.367188 24.949219 32.003906 C 24.953125 31.867188 24.953125 31.726562 24.953125 31.589844 C 24.953125 31.394531 24.953125 31.203125 24.957031 31.007812 C 24.957031 30.953125 24.957031 30.894531 24.957031 30.835938 C 24.960938 30.566406 24.996094 30.398438 25.128906 30.167969 C 25.453125 29.871094 25.8125 29.824219 26.238281 29.820312 C 26.328125 29.820312 26.417969 29.820312 26.507812 29.820312 C 26.605469 29.820312 26.703125 29.820312 26.800781 29.820312 C 26.957031 29.816406 26.957031 29.816406 27.113281 29.816406 C 27.394531 29.8125 27.675781 29.8125 27.957031 29.8125 C 28.253906 29.8125 28.546875 29.808594 28.839844 29.808594 C 29.398438 29.804688 29.957031 29.800781 30.511719 29.796875 C 31.148438 29.792969 31.78125 29.789062 32.414062 29.785156 C 33.71875 29.777344 35.023438 29.773438 36.328125 29.765625 C 36.191406 29.46875 36.019531 29.289062 35.78125 29.0625 C 35.636719 28.914062 35.496094 28.765625 35.355469 28.617188 C 34.9375 28.179688 34.519531 27.75 34.097656 27.320312 C 33.84375 27.058594 33.59375 26.796875 33.34375 26.535156 C 33.097656 26.28125 32.855469 26.027344 32.605469 25.777344 C 32.511719 25.679688 32.417969 25.582031 32.328125 25.484375 C 31.738281 24.847656 31.738281 24.847656 30.933594 24.609375 C 30.386719 24.609375 30.089844 24.707031 29.773438 25.160156 Z M 29.773438 25.160156 "/>
<path style=" stroke:none;fill-rule:nonzero;fill:rgb(100%,100%,100%);fill-opacity:1;" d="M 19.9375 6.226562 C 20.019531 6.226562 20.105469 6.226562 20.195312 6.226562 C 22.597656 6.261719 24.769531 7.25 26.484375 8.90625 C 26.546875 8.964844 26.609375 9.019531 26.671875 9.078125 C 27.902344 10.242188 28.738281 11.863281 29.0625 13.515625 C 29.078125 13.601562 29.097656 13.683594 29.113281 13.769531 C 29.535156 16.167969 29.003906 18.617188 27.621094 20.621094 C 26.839844 21.699219 25.847656 22.625 24.6875 23.28125 C 24.613281 23.324219 24.613281 23.324219 24.535156 23.367188 C 22.5 24.507812 19.933594 24.835938 17.671875 24.238281 C 17.5625 24.207031 17.453125 24.175781 17.34375 24.140625 C 17.289062 24.125 17.234375 24.105469 17.179688 24.089844 C 14.828125 23.339844 12.867188 21.617188 11.71875 19.453125 C 10.640625 17.277344 10.476562 14.773438 11.230469 12.476562 C 12.113281 9.9375 13.890625 8.140625 16.273438 6.976562 C 16.632812 6.820312 17.003906 6.699219 17.378906 6.585938 C 17.429688 6.570312 17.480469 6.554688 17.535156 6.539062 C 18.328125 6.3125 19.113281 6.222656 19.9375 6.226562 Z M 22.578125 8.359375 C 22.609375 8.40625 22.640625 8.453125 22.675781 8.503906 C 23.199219 9.296875 23.617188 10.140625 23.984375 11.015625 C 24.359375 10.96875 24.628906 10.808594 24.945312 10.621094 C 24.996094 10.589844 25.046875 10.5625 25.097656 10.53125 C 25.222656 10.457031 25.34375 10.386719 25.46875 10.3125 C 25.449219 10.0625 25.378906 9.988281 25.195312 9.808594 C 25.109375 9.738281 25.019531 9.667969 24.929688 9.601562 C 24.882812 9.5625 24.835938 9.527344 24.789062 9.488281 C 23.765625 8.710938 23.765625 8.710938 22.578125 8.359375 Z M 16.40625 8.746094 C 16.316406 8.792969 16.316406 8.792969 16.226562 8.839844 C 15.710938 9.121094 15.285156 9.453125 14.84375 9.84375 C 14.742188 9.921875 14.636719 10 14.53125 10.078125 C 14.636719 10.332031 14.730469 10.445312 14.96875 10.578125 C 15.027344 10.609375 15.082031 10.640625 15.136719 10.671875 C 15.222656 10.71875 15.222656 10.71875 15.3125 10.765625 C 15.371094 10.800781 15.425781 10.832031 15.488281 10.867188 C 15.707031 10.988281 15.707031 10.988281 15.9375 11.09375 C 16.1875 10.96875 16.214844 10.707031 16.296875 10.453125 C 16.496094 9.894531 16.753906 9.398438 17.058594 8.890625 C 17.195312 8.675781 17.195312 8.675781 17.265625 8.4375 C 16.933594 8.4375 16.691406 8.59375 16.40625 8.746094 Z M 18.4375 9.050781 C 17.789062 9.714844 17.320312 10.644531 17.1875 11.5625 C 17.949219 11.78125 18.570312 11.875 19.375 11.875 C 19.375 10.742188 19.375 9.605469 19.375 8.4375 C 19.015625 8.4375 18.6875 8.820312 18.4375 9.050781 Z M 20.625 8.4375 C 20.625 9.570312 20.625 10.707031 20.625 11.875 C 21.113281 11.875 21.515625 11.859375 21.984375 11.761719 C 22.035156 11.753906 22.089844 11.742188 22.148438 11.730469 C 22.375 11.6875 22.59375 11.636719 22.8125 11.5625 C 22.648438 10.40625 21.996094 9.414062 21.132812 8.65625 C 20.933594 8.492188 20.933594 8.492188 20.625 8.4375 Z M 13.59375 11.171875 C 12.9375 12.285156 12.34375 13.363281 12.34375 14.6875 C 13.347656 14.6875 14.355469 14.6875 15.390625 14.6875 C 15.472656 14.4375 15.5 14.214844 15.527344 13.953125 C 15.539062 13.855469 15.546875 13.753906 15.558594 13.65625 C 15.570312 13.550781 15.578125 13.449219 15.589844 13.34375 C 15.601562 13.242188 15.613281 13.136719 15.625 13.03125 C 15.648438 12.777344 15.675781 12.519531 15.703125 12.265625 C 15.632812 12.234375 15.566406 12.199219 15.492188 12.164062 C 14.945312 11.898438 14.421875 11.613281 13.914062 11.273438 C 13.761719 11.160156 13.761719 11.160156 13.59375 11.171875 Z M 25.839844 11.410156 C 25.355469 11.757812 24.835938 12.011719 24.296875 12.265625 C 24.359375 13.074219 24.445312 13.878906 24.53125 14.6875 C 25.535156 14.6875 26.542969 14.6875 27.578125 14.6875 C 27.449219 13.414062 27.042969 12.242188 26.328125 11.171875 C 26.105469 11.171875 26.015625 11.277344 25.839844 11.410156 Z M 16.875 12.734375 C 16.695312 13.40625 16.6875 13.957031 16.640625 14.6875 C 17.542969 14.6875 18.445312 14.6875 19.375 14.6875 C 19.375 14.199219 19.375 13.707031 19.375 13.203125 C 19.207031 13.117188 19.078125 13.097656 18.890625 13.070312 C 18.789062 13.058594 18.789062 13.058594 18.6875 13.042969 C 18.582031 13.027344 18.582031 13.027344 18.476562 13.011719 C 17.9375 12.933594 17.40625 12.847656 16.875 12.734375 Z M 22.726562 12.800781 C 22.027344 12.945312 21.339844 13.082031 20.625 13.125 C 20.625 13.640625 20.625 14.15625 20.625 14.6875 C 21.527344 14.6875 22.429688 14.6875 23.359375 14.6875 C 23.308594 13.683594 23.308594 13.683594 23.125 12.734375 C 22.988281 12.734375 22.859375 12.773438 22.726562 12.800781 Z M 12.265625 15.9375 C 12.507812 17.21875 12.75 18.390625 13.515625 19.453125 C 13.679688 19.5625 13.679688 19.5625 13.828125 19.609375 C 13.886719 19.5625 13.941406 19.519531 14 19.472656 C 14.539062 19.050781 15.074219 18.722656 15.703125 18.4375 C 15.660156 17.902344 15.605469 17.371094 15.546875 16.835938 C 15.539062 16.742188 15.539062 16.742188 15.527344 16.648438 C 15.5 16.402344 15.46875 16.175781 15.390625 15.9375 C 14.359375 15.9375 13.328125 15.9375 12.265625 15.9375 Z M 16.640625 15.9375 C 16.640625 16.410156 16.652344 16.8125 16.71875 17.269531 C 16.726562 17.324219 16.734375 17.375 16.742188 17.429688 C 16.757812 17.558594 16.777344 17.683594 16.796875 17.8125 C 17.042969 17.890625 17.207031 17.886719 17.457031 17.832031 C 17.523438 17.820312 17.589844 17.804688 17.65625 17.789062 C 17.726562 17.773438 17.796875 17.761719 17.867188 17.742188 C 18 17.714844 18.136719 17.6875 18.273438 17.65625 C 18.332031 17.644531 18.390625 17.628906 18.453125 17.617188 C 18.757812 17.5625 19.066406 17.535156 19.375 17.5 C 19.375 16.984375 19.375 16.46875 19.375 15.9375 C 18.472656 15.9375 17.570312 15.9375 16.640625 15.9375 Z M 20.625 15.9375 C 20.625 16.453125 20.625 16.96875 20.625 17.5 C 20.925781 17.550781 21.222656 17.601562 21.523438 17.652344 C 21.609375 17.664062 21.691406 17.679688 21.777344 17.695312 C 22.226562 17.769531 22.671875 17.839844 23.125 17.890625 C 23.269531 17.457031 23.3125 17.058594 23.328125 16.605469 C 23.34375 16.273438 23.34375 16.273438 23.359375 15.9375 C 22.457031 15.9375 21.554688 15.9375 20.625 15.9375 Z M 24.609375 15.9375 C 24.523438 16.195312 24.5 16.421875 24.472656 16.691406 C 24.457031 16.84375 24.457031 16.84375 24.441406 16.996094 C 24.429688 17.105469 24.417969 17.210938 24.410156 17.320312 C 24.398438 17.425781 24.386719 17.535156 24.375 17.644531 C 24.351562 17.90625 24.324219 18.171875 24.296875 18.4375 C 24.378906 18.484375 24.460938 18.527344 24.546875 18.574219 C 25.117188 18.890625 25.664062 19.199219 26.171875 19.609375 C 26.515625 19.496094 26.632812 19.242188 26.792969 18.9375 C 26.820312 18.882812 26.847656 18.832031 26.875 18.78125 C 27.324219 17.886719 27.59375 16.9375 27.578125 15.9375 C 26.582031 15.851562 25.605469 15.871094 24.609375 15.9375 Z M 20.625 18.75 C 20.625 19.882812 20.625 21.019531 20.625 22.1875 C 21.277344 22.058594 21.667969 21.578125 22.058594 21.054688 C 22.449219 20.460938 22.71875 19.828125 22.890625 19.140625 C 22.6875 19.089844 22.488281 19.039062 22.285156 18.988281 C 22.230469 18.976562 22.175781 18.960938 22.117188 18.945312 C 21.609375 18.820312 21.164062 18.796875 20.625 18.75 Z M 17.1875 19.140625 C 17.226562 19.585938 17.347656 19.914062 17.554688 20.308594 C 17.582031 20.363281 17.609375 20.417969 17.640625 20.472656 C 17.976562 21.113281 18.371094 21.703125 18.984375 22.109375 C 19.113281 22.136719 19.242188 22.160156 19.375 22.1875 C 19.375 21.078125 19.375 19.96875 19.375 18.828125 C 18.71875 18.609375 17.832031 18.945312 17.1875 19.140625 Z M 23.984375 19.609375 C 23.941406 19.71875 23.941406 19.71875 23.902344 19.828125 C 23.535156 20.777344 23.148438 21.691406 22.421875 22.421875 C 22.449219 22.472656 22.472656 22.523438 22.5 22.578125 C 24.253906 21.871094 24.253906 21.871094 25.46875 20.546875 C 24.992188 20.183594 24.53125 19.855469 23.984375 19.609375 Z M 15.3125 20.019531 C 15.261719 20.050781 15.210938 20.082031 15.160156 20.113281 C 14.902344 20.277344 14.707031 20.402344 14.609375 20.703125 C 15.425781 21.574219 16.445312 22.207031 17.578125 22.578125 C 17.460938 22.320312 17.308594 22.113281 17.132812 21.890625 C 16.636719 21.21875 16.339844 20.453125 16.015625 19.6875 C 15.746094 19.6875 15.535156 19.878906 15.3125 20.019531 Z M 15.3125 20.019531 "/>
</g>
</svg>
