<?xml version="1.0" encoding="UTF-8"?>
<svg xmlns="http://www.w3.org/2000/svg" xmlns:xlink="http://www.w3.org/1999/xlink" width="40px" height="40px" viewBox="0 0 40 40" version="1.1">
<g id="surface1">
<path style=" stroke:none;fill-rule:nonzero;fill:rgb(100%,100%,100%);fill-opacity:1;" d="M 18.359375 8.28125 C 19.566406 9.265625 20.457031 10.460938 20.9375 11.953125 C 20.976562 12.070312 20.976562 12.070312 21.011719 12.1875 C 21.269531 13.152344 21.191406 14.167969 21.171875 15.15625 C 22.1875 15.140625 22.738281 14.980469 23.457031 14.269531 C 24.210938 13.558594 25.097656 12.96875 26.015625 12.5 C 26.070312 12.472656 26.125 12.441406 26.183594 12.414062 C 28.144531 11.402344 30.601562 10.640625 32.792969 11.316406 C 33.589844 11.609375 34.039062 12.125 34.40625 12.875 C 34.660156 14.1875 34.050781 15.4375 33.34375 16.511719 C 32.597656 17.527344 31.773438 18.347656 30.71875 19.03125 C 30.574219 19.128906 30.429688 19.222656 30.285156 19.316406 C 30.210938 19.367188 30.140625 19.414062 30.0625 19.460938 C 29.644531 19.742188 29.230469 20.03125 28.816406 20.320312 C 28.757812 20.359375 28.703125 20.398438 28.640625 20.441406 C 28.589844 20.476562 28.539062 20.511719 28.488281 20.550781 C 28.359375 20.625 28.359375 20.625 28.203125 20.625 C 28.144531 21.105469 28.097656 21.539062 28.347656 21.96875 C 28.527344 22.183594 28.710938 22.378906 28.90625 22.578125 C 28.949219 22.644531 28.992188 22.714844 29.035156 22.785156 C 29.210938 22.996094 29.210938 22.996094 29.507812 23.007812 C 29.625 23.007812 29.742188 23 29.859375 22.996094 C 29.921875 22.996094 29.984375 22.992188 30.046875 22.992188 C 30.246094 22.988281 30.445312 22.980469 30.644531 22.972656 C 30.84375 22.964844 31.039062 22.960938 31.238281 22.957031 C 31.359375 22.953125 31.484375 22.949219 31.605469 22.945312 C 32.039062 22.933594 32.375 23.03125 32.734375 23.28125 C 33.023438 23.609375 33.082031 23.925781 33.082031 24.359375 C 32.988281 24.824219 32.59375 25.21875 32.308594 25.585938 C 32.265625 25.644531 32.21875 25.703125 32.175781 25.761719 C 31.945312 26.058594 31.71875 26.351562 31.484375 26.640625 C 31.59375 26.964844 31.75 27.1875 31.972656 27.445312 C 32.191406 27.707031 32.410156 27.96875 32.617188 28.242188 C 32.652344 28.289062 32.691406 28.335938 32.726562 28.386719 C 32.941406 28.710938 32.925781 29.078125 32.890625 29.453125 C 32.75 29.792969 32.503906 30.050781 32.1875 30.234375 C 31.953125 30.257812 31.769531 30.257812 31.542969 30.238281 C 31.414062 30.234375 31.289062 30.230469 31.160156 30.226562 C 31.097656 30.222656 31.03125 30.21875 30.964844 30.214844 C 29.632812 30.164062 29.632812 30.164062 28.503906 30.792969 C 27.984375 31.320312 27.984375 31.320312 27.808594 32.007812 C 27.886719 32.25 27.964844 32.492188 28.054688 32.730469 C 28.199219 33.144531 28.246094 33.402344 28.125 33.828125 C 27.984375 34.042969 27.886719 34.179688 27.65625 34.296875 C 27.199219 34.332031 26.839844 34.285156 26.40625 34.140625 C 25.871094 34.148438 25.5625 34.398438 25.148438 34.71875 C 25.023438 34.808594 24.902344 34.902344 24.78125 34.992188 C 24.722656 35.035156 24.664062 35.078125 24.605469 35.121094 C 24.265625 35.371094 24.035156 35.515625 23.597656 35.496094 C 23.3125 35.449219 23.113281 35.34375 22.890625 35.15625 C 22.515625 34.578125 22.457031 33.929688 22.363281 33.261719 C 22.347656 33.148438 22.328125 33.03125 22.3125 32.917969 C 22.1875 32.089844 22.1875 32.089844 22.1875 31.71875 C 22.117188 31.722656 22.046875 31.726562 21.972656 31.730469 C 21.710938 31.746094 21.445312 31.757812 21.183594 31.769531 C 21.070312 31.773438 20.957031 31.78125 20.839844 31.785156 C 19.667969 31.855469 19.667969 31.855469 19.21875 31.484375 C 18.960938 31.214844 18.878906 30.976562 18.84375 30.609375 C 18.863281 30.027344 19.21875 29.695312 19.609375 29.296875 C 19.671875 29.234375 19.730469 29.171875 19.792969 29.109375 C 19.910156 28.992188 20.027344 28.875 20.144531 28.761719 C 20.351562 28.554688 20.542969 28.335938 20.734375 28.109375 C 20.859375 27.96875 20.859375 27.96875 21.03125 27.824219 C 21.191406 27.664062 21.191406 27.664062 21.195312 27.445312 C 21.183594 27.363281 21.175781 27.285156 21.167969 27.203125 C 21.15625 27.113281 21.148438 27.023438 21.136719 26.933594 C 21.0625 26.441406 20.964844 25.957031 20.859375 25.46875 C 20.800781 25.507812 20.742188 25.546875 20.683594 25.585938 C 20.136719 25.953125 19.589844 26.3125 19.042969 26.671875 C 18.800781 26.828125 18.5625 26.988281 18.320312 27.144531 C 17.871094 27.441406 17.421875 27.738281 16.960938 28.015625 C 16.761719 28.136719 16.566406 28.261719 16.371094 28.382812 C 16.277344 28.441406 16.183594 28.5 16.089844 28.554688 C 15.554688 28.855469 15.554688 28.855469 15.238281 29.355469 C 15.214844 29.601562 15.222656 29.832031 15.234375 30.078125 C 15.230469 30.246094 15.222656 30.414062 15.21875 30.582031 C 15.210938 30.835938 15.203125 31.085938 15.199219 31.339844 C 15.1875 31.847656 15.160156 32.238281 14.804688 32.628906 C 14.417969 32.929688 14.160156 33.007812 13.671875 32.96875 C 13.171875 32.78125 12.902344 32.421875 12.570312 32.011719 C 12.539062 31.96875 12.503906 31.929688 12.46875 31.886719 C 12.34375 31.71875 12.34375 31.71875 12.191406 31.464844 C 11.890625 30.960938 11.890625 30.960938 11.414062 30.648438 C 11.003906 30.574219 10.589844 30.597656 10.175781 30.621094 C 9.992188 30.625 9.804688 30.628906 9.621094 30.632812 C 9.507812 30.636719 9.390625 30.640625 9.277344 30.644531 C 8.808594 30.660156 8.550781 30.492188 8.21875 30.179688 C 8.042969 29.84375 7.996094 29.496094 8.089844 29.125 C 8.191406 28.863281 8.3125 28.609375 8.4375 28.359375 C 8.492188 28.242188 8.550781 28.125 8.605469 28.007812 C 8.660156 27.886719 8.71875 27.769531 8.777344 27.65625 C 8.988281 27.242188 8.988281 27.242188 8.984375 26.796875 C 8.859375 26.636719 8.742188 26.5 8.597656 26.359375 C 8.519531 26.273438 8.441406 26.191406 8.363281 26.109375 C 8.304688 26.046875 8.304688 26.046875 8.242188 25.984375 C 8.0625 25.792969 7.894531 25.589844 7.726562 25.386719 C 7.667969 25.316406 7.613281 25.25 7.554688 25.179688 C 7.300781 24.835938 7.292969 24.472656 7.34375 24.0625 C 7.515625 23.722656 7.714844 23.464844 8.046875 23.28125 C 8.789062 23.152344 9.34375 23.445312 9.984375 23.78125 C 10.167969 23.875 10.355469 23.964844 10.539062 24.058594 C 10.617188 24.101562 10.699219 24.144531 10.78125 24.1875 C 11.015625 24.296875 11.234375 24.386719 11.484375 24.453125 C 11.6875 24.355469 11.6875 24.355469 11.871094 24.175781 C 11.945312 24.109375 12.019531 24.042969 12.09375 23.976562 C 12.15625 23.921875 12.15625 23.921875 12.214844 23.867188 C 12.398438 23.703125 12.582031 23.542969 12.765625 23.382812 C 12.917969 23.253906 13.066406 23.125 13.214844 22.996094 C 13.550781 22.703125 13.886719 22.414062 14.226562 22.125 C 14.464844 21.921875 14.703125 21.714844 14.9375 21.507812 C 14.992188 21.460938 15.050781 21.410156 15.105469 21.363281 C 15.148438 21.324219 15.191406 21.289062 15.234375 21.25 C 15.183594 21.25 15.128906 21.25 15.074219 21.25 C 13.792969 21.246094 12.507812 21.238281 11.226562 21.230469 C 10.605469 21.226562 9.984375 21.226562 9.363281 21.222656 C 8.820312 21.222656 8.28125 21.21875 7.742188 21.214844 C 7.453125 21.214844 7.167969 21.210938 6.882812 21.210938 C 6.5625 21.210938 6.242188 21.207031 5.921875 21.207031 C 5.78125 21.207031 5.78125 21.207031 5.632812 21.207031 C 4.824219 21.195312 4.824219 21.195312 4.453125 20.9375 C 4.105469 20.554688 4.035156 20.316406 4.039062 19.808594 C 4.074219 19.515625 4.179688 19.355469 4.375 19.140625 C 4.753906 18.867188 5.066406 18.816406 5.527344 18.824219 C 5.613281 18.824219 5.703125 18.824219 5.792969 18.824219 C 5.886719 18.828125 5.976562 18.828125 6.074219 18.828125 C 6.867188 18.832031 7.648438 18.816406 8.4375 18.75 C 8.394531 18.691406 8.347656 18.628906 8.304688 18.570312 C 7.109375 16.929688 6.605469 15.089844 6.851562 13.054688 C 7.078125 11.648438 7.628906 10.359375 8.59375 9.296875 C 8.65625 9.226562 8.71875 9.15625 8.78125 9.085938 C 11.273438 6.445312 15.460938 6.058594 18.359375 8.28125 Z M 10.277344 10.917969 C 9.332031 12.097656 9 13.4375 9.140625 14.921875 C 9.359375 16.179688 10.058594 17.277344 11.085938 18.03125 C 12.0625 18.675781 12.960938 18.855469 14.113281 18.867188 C 14.167969 18.867188 14.222656 18.871094 14.277344 18.871094 C 14.566406 18.875 14.855469 18.875 15.144531 18.878906 C 15.4375 18.878906 15.734375 18.886719 16.027344 18.894531 C 16.257812 18.898438 16.488281 18.898438 16.714844 18.902344 C 16.824219 18.902344 16.933594 18.902344 17.042969 18.90625 C 17.644531 18.925781 18.035156 18.898438 18.492188 18.484375 C 18.605469 18.367188 18.71875 18.246094 18.828125 18.125 C 18.914062 18.050781 19.003906 17.976562 19.09375 17.90625 C 19.390625 17.667969 19.390625 17.667969 19.6875 17.421875 C 19.6875 17.394531 19.6875 17.371094 19.6875 17.34375 C 19.09375 17.34375 18.5 17.34375 17.890625 17.34375 C 17.972656 17.183594 18.058594 17.023438 18.144531 16.859375 C 18.507812 16.148438 18.777344 15.410156 18.828125 14.609375 C 18.832031 14.554688 18.835938 14.5 18.839844 14.441406 C 18.902344 12.929688 18.335938 11.609375 17.320312 10.507812 C 16.351562 9.566406 15.125 9.175781 13.792969 9.191406 C 12.4375 9.234375 11.175781 9.914062 10.277344 10.917969 Z M 25.542969 15.652344 C 25.332031 15.84375 25.109375 16.027344 24.886719 16.207031 C 24.464844 16.550781 24.050781 16.90625 23.636719 17.261719 C 23.375 17.488281 23.113281 17.707031 22.851562 17.929688 C 22.5 18.226562 22.148438 18.527344 21.796875 18.828125 C 21.140625 19.390625 20.480469 19.957031 19.808594 20.503906 C 19.429688 20.8125 19.058594 21.128906 18.6875 21.449219 C 18.40625 21.691406 18.121094 21.929688 17.832031 22.164062 C 17.488281 22.441406 17.164062 22.730469 16.839844 23.027344 C 16.636719 23.207031 16.425781 23.378906 16.214844 23.550781 C 15.84375 23.851562 15.488281 24.171875 15.136719 24.496094 C 14.929688 24.679688 14.71875 24.855469 14.5 25.03125 C 14.175781 25.292969 13.867188 25.570312 13.558594 25.859375 C 12.285156 27.050781 12.285156 27.050781 11.5625 27.109375 C 11.523438 27.234375 11.484375 27.355469 11.445312 27.480469 C 11.421875 27.550781 11.402344 27.617188 11.378906 27.6875 C 11.316406 27.90625 11.316406 27.90625 11.328125 28.203125 C 11.40625 28.207031 11.488281 28.207031 11.570312 28.210938 C 11.675781 28.214844 11.785156 28.21875 11.890625 28.222656 C 11.941406 28.222656 11.996094 28.226562 12.050781 28.226562 C 12.425781 28.246094 12.621094 28.332031 12.890625 28.59375 C 12.886719 28.511719 12.882812 28.429688 12.875 28.34375 C 12.890625 28.019531 12.941406 27.914062 13.125 27.65625 C 13.289062 27.515625 13.289062 27.515625 13.480469 27.390625 C 13.550781 27.34375 13.617188 27.296875 13.691406 27.25 C 13.761719 27.203125 13.832031 27.15625 13.90625 27.109375 C 13.972656 27.066406 14.039062 27.023438 14.105469 26.980469 C 14.308594 26.847656 14.511719 26.71875 14.71875 26.59375 C 15.921875 25.828125 17.113281 25.050781 18.304688 24.265625 C 18.402344 24.203125 18.5 24.140625 18.597656 24.078125 C 18.691406 24.015625 18.789062 23.949219 18.886719 23.886719 C 18.933594 23.855469 18.980469 23.824219 19.03125 23.792969 C 19.261719 23.640625 19.492188 23.488281 19.726562 23.335938 C 19.972656 23.171875 20.222656 23.011719 20.472656 22.847656 C 20.546875 22.796875 20.621094 22.75 20.699219 22.699219 C 20.765625 22.652344 20.835938 22.609375 20.90625 22.5625 C 20.964844 22.523438 21.023438 22.484375 21.085938 22.445312 C 21.457031 22.214844 21.746094 22.132812 22.1875 22.1875 C 22.511719 22.328125 22.6875 22.523438 22.890625 22.8125 C 22.957031 23.027344 22.957031 23.027344 22.996094 23.265625 C 23.011719 23.355469 23.027344 23.445312 23.046875 23.539062 C 23.0625 23.632812 23.074219 23.730469 23.09375 23.828125 C 23.117188 23.976562 23.117188 23.976562 23.144531 24.132812 C 23.179688 24.34375 23.214844 24.554688 23.246094 24.765625 C 23.292969 25.03125 23.335938 25.300781 23.382812 25.570312 C 23.425781 25.828125 23.46875 26.085938 23.511719 26.34375 C 23.535156 26.484375 23.535156 26.484375 23.5625 26.632812 C 23.789062 28.042969 23.789062 28.042969 23.550781 28.53125 C 23.089844 29.0625 23.089844 29.0625 22.921875 29.246094 C 22.804688 29.355469 22.804688 29.355469 22.8125 29.453125 C 22.867188 29.457031 22.925781 29.457031 22.984375 29.460938 C 23.804688 29.507812 23.804688 29.507812 24.140625 29.84375 C 24.355469 30.316406 24.433594 30.824219 24.507812 31.332031 C 24.515625 31.402344 24.527344 31.46875 24.539062 31.539062 C 24.5625 31.703125 24.585938 31.867188 24.609375 32.03125 C 24.839844 31.945312 25.027344 31.859375 25.234375 31.71875 C 25.277344 31.550781 25.277344 31.550781 25.28125 31.351562 C 25.289062 31.230469 25.289062 31.230469 25.296875 31.105469 C 25.304688 31.011719 25.308594 30.917969 25.3125 30.824219 C 25.320312 30.671875 25.320312 30.671875 25.328125 30.519531 C 25.347656 30.210938 25.363281 29.902344 25.378906 29.59375 C 25.390625 29.359375 25.402344 29.121094 25.417969 28.886719 C 25.492188 27.464844 25.566406 26.046875 25.636719 24.628906 C 25.671875 23.964844 25.707031 23.300781 25.738281 22.640625 C 25.753906 22.355469 25.769531 22.074219 25.78125 21.789062 C 25.792969 21.613281 25.800781 21.441406 25.808594 21.265625 C 25.816406 21.152344 25.816406 21.152344 25.820312 21.03125 C 25.898438 19.523438 25.898438 19.523438 26.25 19.140625 C 26.492188 18.949219 26.746094 18.785156 27.007812 18.617188 C 27.082031 18.570312 27.15625 18.523438 27.234375 18.472656 C 27.46875 18.316406 27.707031 18.164062 27.945312 18.011719 C 28.179688 17.859375 28.417969 17.707031 28.652344 17.554688 C 28.796875 17.460938 28.945312 17.363281 29.089844 17.269531 C 30.390625 16.429688 31.597656 15.375 32.03125 13.828125 C 32.03125 13.75 32.03125 13.671875 32.03125 13.59375 C 29.667969 13.097656 27.304688 14.082031 25.542969 15.652344 Z M 27.890625 24.84375 C 27.820312 25.210938 27.789062 25.574219 27.769531 25.945312 C 27.765625 26.007812 27.761719 26.066406 27.757812 26.128906 C 27.722656 26.847656 27.726562 27.5625 27.734375 28.28125 C 27.777344 28.257812 27.820312 28.234375 27.867188 28.210938 C 28.230469 28.035156 28.523438 27.945312 28.929688 27.921875 C 29.015625 27.914062 29.097656 27.910156 29.183594 27.902344 C 29.246094 27.898438 29.308594 27.894531 29.375 27.890625 C 29.34375 27.855469 29.308594 27.816406 29.273438 27.777344 C 28.953125 27.390625 28.789062 27.074219 28.828125 26.5625 C 28.957031 26.195312 29.195312 25.90625 29.4375 25.605469 C 29.546875 25.476562 29.546875 25.476562 29.53125 25.3125 C 29.464844 25.3125 29.398438 25.308594 29.332031 25.308594 C 28.746094 25.285156 28.347656 25.21875 27.890625 24.84375 Z M 27.890625 24.84375 "/>
<path style=" stroke:none;fill-rule:nonzero;fill:rgb(100%,100%,100%);fill-opacity:1;" d="M 18.835938 -0.03125 C 18.921875 -0.03125 19.007812 -0.0351562 19.097656 -0.0351562 C 19.378906 -0.0390625 19.660156 -0.0390625 19.941406 -0.0390625 C 20.085938 -0.0390625 20.085938 -0.0390625 20.230469 -0.0390625 C 21.777344 -0.0390625 23.191406 0.0742188 24.6875 0.46875 C 24.835938 0.503906 24.984375 0.539062 25.132812 0.578125 C 27.535156 1.1875 29.847656 2.34375 31.835938 3.8125 C 31.898438 3.859375 31.964844 3.90625 32.03125 3.957031 C 32.527344 4.328125 32.984375 4.726562 33.4375 5.15625 C 33.542969 5.25 33.652344 5.34375 33.757812 5.433594 C 35.164062 6.65625 36.300781 8.179688 37.265625 9.765625 C 37.296875 9.8125 37.324219 9.863281 37.355469 9.914062 C 38.960938 12.542969 40.015625 15.734375 40.011719 18.824219 C 40.011719 18.914062 40.011719 19 40.011719 19.089844 C 40.011719 19.273438 40.011719 19.453125 40.011719 19.636719 C 40.011719 19.914062 40.011719 20.195312 40.011719 20.472656 C 40.011719 20.652344 40.011719 20.828125 40.011719 21.007812 C 40.011719 21.089844 40.011719 21.171875 40.011719 21.257812 C 40.007812 21.972656 39.96875 22.671875 39.8125 23.371094 C 39.789062 23.46875 39.765625 23.566406 39.746094 23.667969 C 39.71875 23.773438 39.695312 23.875 39.671875 23.980469 C 39.660156 24.03125 39.648438 24.085938 39.636719 24.140625 C 38.933594 27.179688 37.714844 29.960938 35.78125 32.421875 C 35.726562 32.492188 35.675781 32.558594 35.621094 32.628906 C 32.683594 36.3125 28.523438 38.734375 23.921875 39.671875 C 23.847656 39.6875 23.773438 39.703125 23.695312 39.71875 C 22.535156 39.941406 21.382812 40.027344 20.203125 40.019531 C 20.003906 40.019531 19.808594 40.019531 19.609375 40.019531 C 18.386719 40.023438 17.179688 39.917969 15.980469 39.667969 C 15.898438 39.652344 15.816406 39.632812 15.730469 39.617188 C 13.207031 39.078125 10.777344 38.066406 8.671875 36.5625 C 8.597656 36.511719 8.597656 36.511719 8.523438 36.457031 C 6.925781 35.328125 5.394531 34 4.21875 32.421875 C 4.152344 32.335938 4.089844 32.253906 4.023438 32.167969 C 1.613281 29.007812 -0.0078125 24.960938 -0.0117188 20.953125 C -0.0117188 20.875 -0.0117188 20.800781 -0.015625 20.71875 C -0.015625 20.558594 -0.015625 20.394531 -0.015625 20.230469 C -0.015625 19.988281 -0.015625 19.742188 -0.015625 19.5 C -0.03125 14.578125 2.050781 9.667969 5.476562 6.144531 C 5.613281 6.007812 5.75 5.871094 5.890625 5.734375 C 5.957031 5.664062 6.023438 5.59375 6.09375 5.523438 C 6.566406 5.054688 7.058594 4.632812 7.578125 4.21875 C 7.664062 4.148438 7.75 4.078125 7.835938 4.007812 C 10.394531 1.988281 13.542969 0.722656 16.746094 0.191406 C 16.882812 0.167969 17.023438 0.144531 17.164062 0.117188 C 17.722656 0.015625 18.265625 -0.0273438 18.835938 -0.03125 Z M 7.1875 7.734375 C 6.992188 7.933594 6.816406 8.140625 6.640625 8.359375 C 6.570312 8.445312 6.5 8.53125 6.425781 8.617188 C 3.398438 12.300781 1.890625 16.964844 2.339844 21.726562 C 2.570312 23.90625 3.171875 26.003906 4.140625 27.96875 C 4.167969 28.023438 4.195312 28.082031 4.226562 28.140625 C 4.609375 28.910156 5.035156 29.621094 5.546875 30.3125 C 5.578125 30.355469 5.609375 30.394531 5.640625 30.4375 C 6.117188 31.085938 6.628906 31.6875 7.1875 32.265625 C 7.226562 32.308594 7.269531 32.351562 7.3125 32.394531 C 8.457031 33.582031 9.742188 34.5625 11.175781 35.382812 C 11.277344 35.441406 11.378906 35.496094 11.476562 35.554688 C 15.351562 37.8125 20.226562 38.210938 24.523438 37.128906 C 28.234375 36.132812 31.640625 33.921875 33.984375 30.859375 C 34.054688 30.773438 34.125 30.683594 34.195312 30.597656 C 36.300781 27.957031 37.648438 24.324219 37.734375 20.9375 C 37.734375 20.875 37.738281 20.8125 37.738281 20.746094 C 37.847656 15.808594 36.085938 11.261719 32.683594 7.679688 C 32.015625 6.980469 31.328125 6.351562 30.546875 5.78125 C 30.464844 5.722656 30.382812 5.660156 30.300781 5.601562 C 24.015625 1.128906 15.332031 1.195312 7.1875 7.734375 Z M 7.1875 7.734375 "/>
<path style=" stroke:none;fill-rule:nonzero;fill:rgb(100%,100%,100%);fill-opacity:1;" d="M 16.933594 11.757812 C 17.246094 11.964844 17.402344 12.21875 17.5 12.578125 C 17.550781 12.945312 17.507812 13.226562 17.304688 13.539062 C 17.15625 13.707031 17.003906 13.863281 16.84375 14.019531 C 16.699219 14.160156 16.558594 14.304688 16.414062 14.449219 C 15.949219 14.921875 15.484375 15.382812 14.980469 15.816406 C 14.761719 16.007812 14.566406 16.21875 14.363281 16.429688 C 14.074219 16.695312 13.839844 16.742188 13.445312 16.75 C 13.367188 16.75 13.289062 16.753906 13.207031 16.753906 C 12.734375 16.683594 12.410156 16.335938 12.082031 16.003906 C 12.042969 15.96875 12.007812 15.929688 11.96875 15.890625 C 11.890625 15.8125 11.8125 15.734375 11.734375 15.65625 C 11.617188 15.535156 11.496094 15.417969 11.375 15.296875 C 10.691406 14.609375 10.691406 14.609375 10.679688 14.082031 C 10.683594 13.671875 10.722656 13.433594 11.015625 13.125 C 11.316406 12.859375 11.609375 12.851562 11.992188 12.863281 C 12.625 12.949219 13.023438 13.46875 13.4375 13.90625 C 13.96875 13.46875 14.445312 12.980469 14.925781 12.484375 C 15.03125 12.375 15.140625 12.265625 15.246094 12.15625 C 15.308594 12.089844 15.375 12.023438 15.4375 11.957031 C 15.867188 11.585938 16.421875 11.507812 16.933594 11.757812 Z M 16.933594 11.757812 "/>
</g>
</svg>
