<?xml version="1.0" encoding="UTF-8"?>
<svg xmlns="http://www.w3.org/2000/svg" xmlns:xlink="http://www.w3.org/1999/xlink" width="40px" height="40px" viewBox="0 0 40 40" version="1.1">
<g id="surface1">
<path style=" stroke:none;fill-rule:nonzero;fill:rgb(100%,100%,100%);fill-opacity:1;" d="M 20.644531 0.164062 C 20.929688 0.347656 21.085938 0.566406 21.25 0.859375 C 21.28125 1.082031 21.296875 1.28125 21.296875 1.503906 C 21.300781 1.5625 21.300781 1.625 21.300781 1.683594 C 21.304688 1.875 21.308594 2.066406 21.308594 2.257812 C 21.3125 2.386719 21.3125 2.515625 21.316406 2.644531 C 21.320312 2.960938 21.324219 3.277344 21.328125 3.59375 C 21.429688 3.59375 21.53125 3.59375 21.632812 3.59375 C 22.582031 3.597656 23.53125 3.601562 24.480469 3.609375 C 24.96875 3.609375 25.457031 3.613281 25.945312 3.613281 C 26.417969 3.617188 26.886719 3.617188 27.359375 3.621094 C 27.539062 3.625 27.71875 3.625 27.898438 3.625 C 28.152344 3.625 28.402344 3.625 28.652344 3.628906 C 28.765625 3.628906 28.765625 3.628906 28.878906 3.628906 C 29.417969 3.636719 29.695312 3.785156 30.101562 4.144531 C 30.367188 4.449219 30.339844 4.789062 30.332031 5.171875 C 30.300781 5.511719 30.214844 5.667969 30 5.9375 C 29.546875 6.261719 29.195312 6.296875 28.644531 6.292969 C 28.566406 6.292969 28.488281 6.292969 28.40625 6.296875 C 28.144531 6.296875 27.882812 6.296875 27.621094 6.296875 C 27.441406 6.296875 27.257812 6.300781 27.078125 6.300781 C 26.601562 6.304688 26.125 6.304688 25.648438 6.308594 C 25.164062 6.308594 24.675781 6.3125 24.191406 6.316406 C 23.234375 6.320312 22.28125 6.324219 21.328125 6.328125 C 21.328125 7.359375 21.328125 8.390625 21.328125 9.453125 C 21.574219 9.507812 21.816406 9.5625 22.070312 9.617188 C 24.140625 10.101562 25.882812 11.027344 27.421875 12.5 C 27.46875 12.542969 27.515625 12.585938 27.5625 12.628906 C 28.722656 13.726562 29.78125 15.375 30.078125 16.953125 C 30.171875 16.929688 30.269531 16.90625 30.367188 16.882812 C 30.722656 16.792969 31.078125 16.707031 31.433594 16.621094 C 31.585938 16.582031 31.738281 16.542969 31.894531 16.503906 C 32.113281 16.449219 32.335938 16.398438 32.558594 16.34375 C 32.625 16.324219 32.691406 16.308594 32.761719 16.289062 C 33.332031 16.15625 33.949219 16.042969 34.492188 16.304688 C 34.835938 16.621094 34.9375 16.832031 34.957031 17.300781 C 34.941406 17.691406 34.894531 17.917969 34.609375 18.203125 C 34.140625 18.457031 33.628906 18.613281 33.121094 18.769531 C 33.046875 18.789062 32.976562 18.8125 32.902344 18.835938 C 32.675781 18.90625 32.449219 18.972656 32.222656 19.042969 C 32.066406 19.089844 31.910156 19.136719 31.757812 19.183594 C 31.378906 19.300781 31.003906 19.417969 30.625 19.53125 C 30.625 19.609375 30.625 19.609375 30.621094 19.6875 C 30.546875 24.113281 28.957031 27.886719 25.9375 31.09375 C 25.886719 31.148438 25.835938 31.203125 25.78125 31.261719 C 24.464844 32.644531 22.710938 33.621094 21.015625 34.457031 C 20.953125 34.488281 20.894531 34.519531 20.832031 34.550781 C 20.324219 34.796875 19.957031 34.851562 19.40625 34.675781 C 19.308594 34.632812 19.210938 34.589844 19.117188 34.546875 C 19.0625 34.523438 19.011719 34.496094 18.957031 34.472656 C 15.890625 33.039062 13.144531 30.683594 11.484375 27.71875 C 11.40625 27.578125 11.328125 27.441406 11.246094 27.300781 C 10.789062 26.496094 10.460938 25.640625 10.15625 24.765625 C 10.125 24.679688 10.125 24.679688 10.097656 24.59375 C 9.527344 22.933594 9.402344 21.195312 9.375 19.453125 C 9.3125 19.4375 9.3125 19.4375 9.25 19.421875 C 8.8125 19.304688 8.375 19.191406 7.941406 19.074219 C 7.777344 19.03125 7.617188 18.988281 7.453125 18.945312 C 7.21875 18.882812 6.984375 18.820312 6.75 18.757812 C 6.679688 18.742188 6.605469 18.722656 6.53125 18.703125 C 6.003906 18.558594 5.511719 18.371094 5.160156 17.933594 C 5.007812 17.558594 5.011719 17.191406 5.078125 16.796875 C 5.261719 16.453125 5.503906 16.246094 5.859375 16.09375 C 6.371094 16.023438 6.871094 16.144531 7.367188 16.265625 C 7.476562 16.289062 7.476562 16.289062 7.589844 16.316406 C 7.820312 16.371094 8.054688 16.429688 8.285156 16.484375 C 8.445312 16.523438 8.601562 16.558594 8.761719 16.597656 C 9.148438 16.6875 9.535156 16.78125 9.921875 16.875 C 9.929688 16.828125 9.941406 16.78125 9.949219 16.734375 C 10.019531 16.40625 10.089844 16.101562 10.238281 15.800781 C 10.28125 15.707031 10.28125 15.707031 10.328125 15.609375 C 10.363281 15.546875 10.394531 15.480469 10.429688 15.414062 C 10.464844 15.347656 10.5 15.277344 10.535156 15.210938 C 11.015625 14.28125 11.621094 13.488281 12.34375 12.734375 C 12.398438 12.671875 12.453125 12.613281 12.511719 12.546875 C 13.425781 11.574219 14.5625 10.847656 15.78125 10.3125 C 15.828125 10.289062 15.878906 10.269531 15.929688 10.246094 C 16.796875 9.863281 17.71875 9.53125 18.671875 9.53125 C 18.644531 8.472656 18.621094 7.417969 18.59375 6.328125 C 18.355469 6.328125 18.117188 6.328125 17.871094 6.328125 C 17.085938 6.324219 16.296875 6.324219 15.507812 6.316406 C 15.03125 6.316406 14.554688 6.3125 14.078125 6.3125 C 13.617188 6.3125 13.15625 6.308594 12.695312 6.308594 C 12.519531 6.304688 12.34375 6.304688 12.167969 6.304688 C 11.921875 6.304688 11.675781 6.304688 11.425781 6.300781 C 11.355469 6.300781 11.28125 6.304688 11.207031 6.304688 C 10.714844 6.292969 10.386719 6.175781 10 5.859375 C 9.730469 5.542969 9.675781 5.171875 9.6875 4.765625 C 9.839844 4.257812 10.109375 3.964844 10.546875 3.671875 C 10.703125 3.652344 10.703125 3.652344 10.878906 3.648438 C 10.949219 3.648438 11.015625 3.648438 11.085938 3.648438 C 11.199219 3.648438 11.199219 3.648438 11.3125 3.648438 C 11.429688 3.644531 11.429688 3.644531 11.550781 3.644531 C 11.808594 3.640625 12.070312 3.640625 12.328125 3.640625 C 12.511719 3.636719 12.691406 3.636719 12.871094 3.636719 C 13.34375 3.632812 13.820312 3.628906 14.292969 3.625 C 14.777344 3.621094 15.261719 3.617188 15.746094 3.613281 C 16.695312 3.605469 17.644531 3.601562 18.59375 3.59375 C 18.59375 3.519531 18.597656 3.441406 18.597656 3.363281 C 18.601562 3.082031 18.609375 2.800781 18.613281 2.519531 C 18.617188 2.394531 18.617188 2.273438 18.621094 2.152344 C 18.625 1.976562 18.628906 1.800781 18.632812 1.625 C 18.632812 1.570312 18.632812 1.515625 18.632812 1.460938 C 18.648438 0.992188 18.785156 0.6875 19.09375 0.332031 C 19.5625 -0.0703125 20.105469 -0.144531 20.644531 0.164062 Z M 14.027344 14.820312 C 13.441406 15.507812 12.5 16.628906 12.5 17.578125 C 12.984375 17.699219 13.46875 17.824219 13.953125 17.945312 C 14.117188 17.988281 14.28125 18.027344 14.445312 18.070312 C 14.683594 18.128906 14.917969 18.191406 15.15625 18.25 C 15.230469 18.269531 15.300781 18.285156 15.378906 18.304688 C 15.445312 18.324219 15.515625 18.339844 15.585938 18.359375 C 15.648438 18.375 15.707031 18.390625 15.769531 18.40625 C 15.960938 18.449219 15.960938 18.449219 16.25 18.4375 C 16.386719 18.316406 16.386719 18.316406 16.507812 18.15625 C 17.058594 17.496094 17.671875 17.160156 18.4375 16.796875 C 18.539062 16.746094 18.644531 16.695312 18.75 16.640625 C 18.75 15.917969 18.75 15.195312 18.75 14.453125 C 19.601562 14.453125 20.453125 14.453125 21.328125 14.453125 C 21.328125 15.199219 21.328125 15.949219 21.328125 16.71875 C 21.636719 16.847656 21.945312 16.976562 22.265625 17.109375 C 22.792969 17.421875 23.46875 17.871094 23.75 18.4375 C 24.234375 18.394531 24.679688 18.3125 25.148438 18.183594 C 25.210938 18.167969 25.273438 18.148438 25.339844 18.132812 C 25.46875 18.097656 25.601562 18.058594 25.734375 18.023438 C 25.933594 17.96875 26.136719 17.914062 26.335938 17.859375 C 26.464844 17.824219 26.59375 17.789062 26.722656 17.753906 C 26.78125 17.738281 26.839844 17.722656 26.902344 17.703125 C 27.207031 17.621094 27.207031 17.621094 27.5 17.5 C 26.925781 15.550781 25.425781 13.976562 23.683594 13 C 20.367188 11.253906 16.523438 12.101562 14.027344 14.820312 Z M 18.515625 19.765625 C 18.078125 20.382812 17.894531 20.882812 17.96875 21.640625 C 18.132812 22.238281 18.496094 22.765625 19.039062 23.078125 C 19.535156 23.296875 20.078125 23.351562 20.601562 23.199219 C 21.214844 22.953125 21.683594 22.5625 21.953125 21.953125 C 22.152344 21.367188 22.140625 20.863281 21.875 20.300781 C 21.523438 19.691406 21.101562 19.363281 20.425781 19.175781 C 19.753906 19.054688 18.992188 19.269531 18.515625 19.765625 Z M 12.03125 20.078125 C 12.019531 21.011719 12.019531 21.011719 12.121094 21.921875 C 12.128906 21.980469 12.140625 22.039062 12.148438 22.097656 C 12.578125 24.363281 13.507812 26.644531 15.078125 28.359375 C 15.136719 28.425781 15.191406 28.492188 15.253906 28.558594 C 15.425781 28.753906 15.601562 28.949219 15.78125 29.140625 C 15.832031 29.195312 15.882812 29.253906 15.933594 29.308594 C 16.9375 30.367188 18.175781 31.117188 19.453125 31.796875 C 19.507812 31.828125 19.558594 31.855469 19.613281 31.886719 C 19.859375 31.996094 20.054688 31.933594 20.3125 31.875 C 23.320312 30.679688 25.679688 27.902344 26.953125 25 C 27.582031 23.46875 27.882812 21.886719 27.96875 20.234375 C 27.640625 20.125 27.386719 20.230469 27.0625 20.320312 C 26.996094 20.335938 26.929688 20.355469 26.863281 20.371094 C 26.652344 20.429688 26.445312 20.484375 26.234375 20.542969 C 26.09375 20.578125 25.953125 20.617188 25.808594 20.65625 C 25.460938 20.75 25.113281 20.84375 24.765625 20.9375 C 24.726562 21.171875 24.691406 21.40625 24.652344 21.640625 C 24.636719 21.738281 24.636719 21.738281 24.621094 21.839844 C 24.601562 21.96875 24.582031 22.101562 24.558594 22.230469 C 24.542969 22.355469 24.523438 22.480469 24.5 22.601562 C 24.476562 22.75 24.464844 22.898438 24.453125 23.046875 C 24.605469 23.269531 24.605469 23.269531 24.839844 23.441406 C 24.917969 23.507812 24.996094 23.574219 25.078125 23.640625 C 25.15625 23.703125 25.230469 23.765625 25.3125 23.828125 C 25.433594 23.933594 25.558594 24.042969 25.679688 24.148438 C 25.765625 24.226562 25.851562 24.300781 25.9375 24.375 C 25.710938 24.679688 25.484375 24.980469 25.25 25.277344 C 25.210938 25.324219 25.171875 25.375 25.132812 25.421875 C 25.054688 25.519531 24.976562 25.617188 24.898438 25.714844 C 24.738281 25.917969 24.613281 26.078125 24.53125 26.328125 C 24.183594 26.214844 23.9375 26.023438 23.667969 25.785156 C 23.511719 25.652344 23.359375 25.523438 23.203125 25.390625 C 23.148438 25.34375 23.097656 25.292969 23.042969 25.242188 C 22.894531 25.140625 22.894531 25.140625 22.707031 25.167969 C 22.472656 25.242188 22.246094 25.332031 22.023438 25.429688 C 21.792969 25.527344 21.566406 25.625 21.328125 25.703125 C 21.242188 26.183594 21.242188 26.65625 21.246094 27.144531 C 21.246094 27.414062 21.25 27.6875 21.25 27.96875 C 20.449219 27.96875 19.652344 27.96875 18.828125 27.96875 C 18.800781 27.246094 18.777344 26.523438 18.75 25.78125 C 18.550781 25.675781 18.355469 25.570312 18.148438 25.464844 C 18.058594 25.414062 18.058594 25.414062 17.960938 25.363281 C 17.914062 25.335938 17.863281 25.3125 17.8125 25.285156 C 17.761719 25.257812 17.710938 25.230469 17.660156 25.203125 C 17.445312 25.140625 17.320312 25.167969 17.109375 25.234375 C 16.953125 25.335938 16.953125 25.335938 16.808594 25.46875 C 16.726562 25.535156 16.726562 25.535156 16.644531 25.605469 C 16.535156 25.703125 16.421875 25.800781 16.3125 25.898438 C 16.230469 25.96875 16.230469 25.96875 16.148438 26.039062 C 16.101562 26.082031 16.054688 26.125 16.003906 26.167969 C 15.859375 26.25 15.859375 26.25 15.699219 26.238281 C 15.433594 26.121094 15.273438 25.882812 15.09375 25.664062 C 15.03125 25.589844 15.03125 25.589844 14.96875 25.515625 C 14.65625 25.140625 14.355469 24.761719 14.0625 24.375 C 14.152344 24.285156 14.242188 24.195312 14.332031 24.105469 C 14.414062 24.023438 14.5 23.9375 14.582031 23.851562 C 14.890625 23.539062 15.210938 23.25 15.546875 22.96875 C 15.523438 22.882812 15.5 22.792969 15.476562 22.703125 C 15.355469 22.097656 15.304688 21.476562 15.234375 20.859375 C 14.175781 20.601562 13.121094 20.34375 12.03125 20.078125 Z M 12.03125 20.078125 "/>
<path style=" stroke:none;fill-rule:nonzero;fill:rgb(100%,100%,100%);fill-opacity:1;" d="M 7.957031 8.113281 C 8.03125 8.113281 8.105469 8.109375 8.179688 8.109375 C 8.261719 8.109375 8.339844 8.109375 8.425781 8.109375 C 8.546875 8.109375 8.546875 8.109375 8.675781 8.109375 C 8.851562 8.105469 9.027344 8.105469 9.203125 8.105469 C 9.46875 8.105469 9.738281 8.101562 10.003906 8.101562 C 10.175781 8.101562 10.347656 8.101562 10.519531 8.097656 C 10.636719 8.097656 10.636719 8.097656 10.761719 8.097656 C 11.335938 8.097656 11.78125 8.167969 12.25 8.523438 C 12.511719 8.867188 12.664062 9.203125 12.648438 9.636719 C 12.574219 10.066406 12.425781 10.328125 12.109375 10.625 C 11.683594 10.847656 11.351562 10.890625 10.875 10.882812 C 10.8125 10.882812 10.75 10.882812 10.683594 10.882812 C 10.484375 10.878906 10.285156 10.878906 10.082031 10.875 C 9.945312 10.871094 9.808594 10.871094 9.671875 10.871094 C 9.339844 10.867188 9.003906 10.863281 8.671875 10.859375 C 8.660156 10.914062 8.644531 10.96875 8.632812 11.023438 C 8.476562 11.660156 8.304688 12.289062 8.128906 12.917969 C 8.105469 13.015625 8.078125 13.113281 8.050781 13.210938 C 7.867188 13.867188 7.703125 14.378906 7.109375 14.765625 C 6.628906 14.945312 6.179688 14.941406 5.671875 14.9375 C 5.585938 14.9375 5.503906 14.9375 5.417969 14.9375 C 5.148438 14.9375 4.882812 14.933594 4.613281 14.929688 C 4.433594 14.929688 4.25 14.929688 4.070312 14.929688 C 3.625 14.929688 3.179688 14.925781 2.734375 14.921875 C 2.726562 15.253906 2.71875 15.589844 2.714844 15.921875 C 2.710938 16.015625 2.710938 16.109375 2.707031 16.207031 C 2.695312 17.203125 3.003906 18.074219 3.65625 18.835938 C 4.257812 19.421875 5.042969 19.730469 5.796875 20.070312 C 5.847656 20.09375 5.902344 20.117188 5.957031 20.140625 C 6.101562 20.207031 6.246094 20.269531 6.390625 20.332031 C 6.855469 20.585938 7.113281 20.902344 7.265625 21.40625 C 7.335938 21.699219 7.390625 21.988281 7.441406 22.285156 C 7.457031 22.359375 7.46875 22.4375 7.484375 22.515625 C 7.585938 23.082031 7.695312 23.707031 7.40625 24.234375 C 7.039062 24.699219 6.542969 24.957031 6.03125 25.230469 C 5.90625 25.296875 5.90625 25.296875 5.78125 25.367188 C 5.523438 25.507812 5.265625 25.648438 5 25.78125 C 5.113281 26.164062 5.277344 26.484375 5.480469 26.824219 C 5.507812 26.875 5.535156 26.925781 5.566406 26.976562 C 5.636719 27.101562 5.710938 27.222656 5.78125 27.34375 C 6.152344 27.304688 6.441406 27.226562 6.777344 27.066406 C 7.328125 26.828125 7.816406 26.765625 8.390625 26.96875 C 8.84375 27.28125 9.082031 27.644531 9.332031 28.125 C 9.957031 29.292969 10.691406 30.40625 11.5625 31.40625 C 11.632812 31.492188 11.707031 31.582031 11.777344 31.667969 C 12.273438 32.265625 12.800781 32.808594 13.386719 33.324219 C 13.515625 33.4375 13.640625 33.550781 13.769531 33.667969 C 15.199219 34.960938 18.140625 37.160156 20.136719 37.128906 C 20.460938 37.089844 20.738281 36.953125 21.03125 36.8125 C 21.097656 36.78125 21.164062 36.75 21.234375 36.714844 C 21.449219 36.613281 21.660156 36.511719 21.875 36.40625 C 21.945312 36.371094 22.015625 36.335938 22.085938 36.300781 C 23.398438 35.648438 24.632812 34.898438 25.78125 33.984375 C 25.855469 33.925781 25.933594 33.867188 26.007812 33.804688 C 27.121094 32.898438 28.210938 31.863281 29.0625 30.703125 C 29.117188 30.628906 29.175781 30.554688 29.230469 30.476562 C 29.789062 29.710938 30.21875 28.878906 30.632812 28.027344 C 30.660156 27.972656 30.6875 27.917969 30.714844 27.859375 C 30.75 27.785156 30.75 27.785156 30.785156 27.710938 C 31.003906 27.320312 31.371094 27.050781 31.789062 26.898438 C 32.386719 26.8125 32.863281 26.964844 33.433594 27.148438 C 33.515625 27.175781 33.597656 27.199219 33.683594 27.226562 C 33.890625 27.292969 34.09375 27.355469 34.296875 27.421875 C 34.316406 27.355469 34.335938 27.292969 34.355469 27.226562 C 34.46875 26.910156 34.613281 26.628906 34.777344 26.335938 C 34.804688 26.285156 34.832031 26.230469 34.863281 26.175781 C 34.933594 26.042969 35.007812 25.914062 35.078125 25.78125 C 35.019531 25.757812 34.964844 25.738281 34.90625 25.714844 C 34.546875 25.566406 34.214844 25.375 33.878906 25.183594 C 33.804688 25.148438 33.734375 25.109375 33.660156 25.066406 C 33.132812 24.773438 32.621094 24.425781 32.421875 23.828125 C 32.339844 23.199219 32.460938 22.589844 32.589844 21.972656 C 32.601562 21.894531 32.617188 21.820312 32.632812 21.738281 C 32.757812 21.15625 32.96875 20.699219 33.457031 20.339844 C 33.511719 20.3125 33.570312 20.289062 33.628906 20.261719 C 33.695312 20.234375 33.761719 20.203125 33.832031 20.171875 C 34.046875 20.085938 34.265625 20.003906 34.484375 19.921875 C 35.75 19.4375 36.550781 18.730469 37.167969 17.515625 C 37.402344 16.921875 37.449219 16.328125 37.472656 15.699219 C 37.472656 15.625 37.476562 15.546875 37.480469 15.472656 C 37.488281 15.289062 37.492188 15.105469 37.5 14.921875 C 37.445312 14.921875 37.386719 14.921875 37.328125 14.921875 C 36.792969 14.921875 36.261719 14.917969 35.726562 14.910156 C 35.449219 14.910156 35.175781 14.90625 34.902344 14.90625 C 34.585938 14.90625 34.269531 14.902344 33.953125 14.898438 C 33.804688 14.898438 33.804688 14.898438 33.65625 14.898438 C 33.089844 14.890625 32.753906 14.855469 32.34375 14.453125 C 32.234375 14.289062 32.234375 14.289062 32.175781 14.117188 C 32.152344 14.050781 32.128906 13.984375 32.105469 13.914062 C 31.949219 13.40625 31.804688 12.898438 31.664062 12.386719 C 31.617188 12.21875 31.570312 12.046875 31.523438 11.875 C 31.480469 11.722656 31.4375 11.570312 31.398438 11.414062 C 31.351562 11.253906 31.300781 11.09375 31.25 10.9375 C 31.121094 10.9375 31.121094 10.9375 30.992188 10.933594 C 30.675781 10.929688 30.359375 10.921875 30.039062 10.917969 C 29.902344 10.914062 29.765625 10.914062 29.628906 10.910156 C 29.433594 10.90625 29.234375 10.902344 29.039062 10.898438 C 28.976562 10.898438 28.914062 10.898438 28.851562 10.898438 C 28.414062 10.886719 28.078125 10.800781 27.746094 10.488281 C 27.707031 10.441406 27.671875 10.394531 27.632812 10.347656 C 27.59375 10.300781 27.554688 10.253906 27.515625 10.203125 C 27.273438 9.878906 27.3125 9.53125 27.34375 9.140625 C 27.496094 8.699219 27.785156 8.414062 28.203125 8.203125 C 28.34375 8.195312 28.480469 8.191406 28.621094 8.1875 C 28.753906 8.1875 28.753906 8.1875 28.886719 8.1875 C 28.980469 8.1875 29.074219 8.183594 29.171875 8.183594 C 29.269531 8.183594 29.367188 8.183594 29.46875 8.183594 C 29.675781 8.179688 29.882812 8.179688 30.085938 8.179688 C 30.296875 8.179688 30.511719 8.179688 30.722656 8.175781 C 31.027344 8.171875 31.328125 8.171875 31.632812 8.167969 C 31.726562 8.167969 31.824219 8.167969 31.917969 8.164062 C 32.523438 8.167969 32.890625 8.21875 33.339844 8.644531 C 33.492188 8.933594 33.578125 9.238281 33.664062 9.550781 C 33.6875 9.621094 33.707031 9.691406 33.726562 9.761719 C 33.769531 9.910156 33.8125 10.058594 33.855469 10.207031 C 33.921875 10.433594 33.988281 10.660156 34.054688 10.886719 C 34.09375 11.03125 34.136719 11.175781 34.179688 11.320312 C 34.199219 11.386719 34.21875 11.453125 34.238281 11.523438 C 34.257812 11.585938 34.273438 11.652344 34.292969 11.714844 C 34.308594 11.769531 34.324219 11.828125 34.339844 11.882812 C 34.375 12.03125 34.375 12.03125 34.375 12.265625 C 34.460938 12.265625 34.460938 12.265625 34.546875 12.265625 C 35.082031 12.257812 35.613281 12.253906 36.148438 12.253906 C 36.425781 12.253906 36.699219 12.25 36.972656 12.246094 C 37.289062 12.246094 37.605469 12.242188 37.921875 12.242188 C 38.019531 12.242188 38.117188 12.242188 38.21875 12.238281 C 38.867188 12.238281 39.3125 12.265625 39.796875 12.726562 C 40.101562 13.117188 40.058594 13.546875 40.046875 14.019531 C 40.046875 14.113281 40.046875 14.207031 40.046875 14.304688 C 40.046875 14.601562 40.039062 14.898438 40.035156 15.195312 C 40.03125 15.394531 40.03125 15.59375 40.03125 15.796875 C 40.011719 17.789062 39.625 19.3125 38.203125 20.78125 C 38.140625 20.847656 38.078125 20.910156 38.011719 20.976562 C 37.277344 21.683594 36.351562 22.109375 35.441406 22.542969 C 35.226562 22.636719 35.226562 22.636719 35.15625 22.8125 C 35.214844 22.835938 35.269531 22.855469 35.328125 22.878906 C 35.53125 22.964844 35.714844 23.058594 35.902344 23.171875 C 36 23.230469 36 23.230469 36.101562 23.292969 C 36.171875 23.335938 36.238281 23.375 36.308594 23.417969 C 36.410156 23.476562 36.410156 23.476562 36.511719 23.539062 C 38.019531 24.449219 38.019531 24.449219 38.203125 25 C 38.40625 26.320312 36.984375 27.984375 36.328125 29.0625 C 36.253906 29.183594 36.253906 29.183594 36.179688 29.308594 C 36.136719 29.382812 36.089844 29.457031 36.039062 29.535156 C 36 29.605469 35.960938 29.671875 35.917969 29.738281 C 35.730469 29.992188 35.515625 30.171875 35.234375 30.3125 C 34.355469 30.429688 33.496094 30.144531 32.65625 29.921875 C 32.636719 29.988281 32.621094 30.050781 32.601562 30.121094 C 32.480469 30.445312 32.308594 30.699219 32.109375 30.980469 C 32.070312 31.035156 32.03125 31.089844 31.992188 31.148438 C 31.628906 31.664062 31.253906 32.167969 30.859375 32.65625 C 30.824219 32.699219 30.792969 32.738281 30.757812 32.78125 C 29.820312 33.941406 28.757812 35.027344 27.578125 35.9375 C 27.492188 36.007812 27.410156 36.078125 27.328125 36.148438 C 26.5 36.839844 25.609375 37.414062 24.6875 37.96875 C 24.625 38.007812 24.558594 38.046875 24.492188 38.085938 C 23.683594 38.566406 22.84375 38.964844 21.984375 39.335938 C 21.890625 39.375 21.800781 39.414062 21.703125 39.457031 C 20.039062 40.15625 20.039062 40.15625 19.027344 39.769531 C 18.871094 39.703125 18.71875 39.636719 18.566406 39.570312 C 18.480469 39.535156 18.398438 39.5 18.316406 39.464844 C 18.070312 39.359375 17.824219 39.25 17.578125 39.140625 C 17.507812 39.109375 17.441406 39.078125 17.367188 39.046875 C 15.605469 38.257812 14 37.222656 12.5 36.015625 C 12.460938 35.984375 12.417969 35.953125 12.378906 35.917969 C 11.722656 35.390625 11.121094 34.808594 10.523438 34.214844 C 10.449219 34.144531 10.378906 34.070312 10.304688 34 C 9.832031 33.523438 9.398438 33.027344 8.984375 32.5 C 8.941406 32.445312 8.898438 32.394531 8.855469 32.339844 C 8.230469 31.546875 7.699219 30.710938 7.1875 29.84375 C 6.695312 29.898438 6.28125 30.046875 5.820312 30.230469 C 5.433594 30.347656 5.058594 30.382812 4.6875 30.199219 C 4.027344 29.824219 3.664062 29.046875 3.300781 28.40625 C 3.230469 28.285156 3.230469 28.285156 3.160156 28.160156 C 3.0625 27.996094 2.96875 27.828125 2.875 27.664062 C 2.742188 27.433594 2.609375 27.207031 2.476562 26.976562 C 2.414062 26.875 2.414062 26.875 2.355469 26.773438 C 2.28125 26.644531 2.207031 26.519531 2.132812 26.390625 C 2.082031 26.304688 2.082031 26.304688 2.03125 26.21875 C 2.003906 26.171875 1.976562 26.121094 1.945312 26.070312 C 1.75 25.703125 1.734375 25.316406 1.839844 24.917969 C 2.160156 24.148438 3.074219 23.789062 3.757812 23.394531 C 3.980469 23.265625 4.195312 23.144531 4.398438 22.984375 C 4.53125 22.890625 4.53125 22.890625 4.765625 22.890625 C 4.683594 22.625 4.597656 22.570312 4.351562 22.429688 C 4.242188 22.378906 4.136719 22.328125 4.027344 22.28125 C 2.570312 21.578125 1.367188 20.625 0.605469 19.167969 C 0.582031 19.125 0.554688 19.078125 0.53125 19.03125 C -0.0351562 17.886719 -0.046875 16.707031 -0.0351562 15.457031 C -0.0351562 15.179688 -0.0351562 14.898438 -0.0351562 14.621094 C -0.0351562 14.441406 -0.0351562 14.265625 -0.0351562 14.085938 C -0.0351562 14.003906 -0.0351562 13.921875 -0.0351562 13.835938 C -0.0273438 13.339844 0.015625 13.042969 0.367188 12.675781 C 0.433594 12.617188 0.433594 12.617188 0.503906 12.558594 C 0.546875 12.519531 0.59375 12.480469 0.640625 12.441406 C 0.917969 12.25 1.207031 12.253906 1.539062 12.25 C 1.628906 12.246094 1.714844 12.246094 1.808594 12.246094 C 1.902344 12.242188 2 12.242188 2.097656 12.242188 C 2.195312 12.238281 2.296875 12.238281 2.398438 12.234375 C 2.65625 12.230469 2.917969 12.226562 3.179688 12.222656 C 3.445312 12.21875 3.710938 12.214844 3.980469 12.210938 C 4.5 12.203125 5.023438 12.195312 5.546875 12.1875 C 5.574219 12.089844 5.605469 11.992188 5.636719 11.894531 C 5.742188 11.53125 5.855469 11.171875 5.964844 10.8125 C 6.011719 10.65625 6.058594 10.5 6.105469 10.34375 C 6.171875 10.117188 6.242188 9.894531 6.308594 9.667969 C 6.332031 9.601562 6.351562 9.53125 6.371094 9.460938 C 6.515625 8.992188 6.660156 8.59375 7.070312 8.296875 C 7.371094 8.152344 7.625 8.113281 7.957031 8.113281 Z M 7.957031 8.113281 "/>
</g>
</svg>
